g fence-palisade-v2
v -3.5000 1.3833 -0.1100
v -3.2047 1.3833 -0.1100
v -3.2047 1.3833 0.1100
v -3.5000 1.3833 0.1100
v -3.5000 0.0000 0.1100
v -3.2047 0.0000 0.1100
v -3.2047 0.0000 -0.1100
v -3.5000 0.0000 -0.1100
v -3.5000 0.0000 -0.1100
v -3.5000 1.3833 -0.1100
v -3.2047 1.3833 -0.1100
v -3.2047 0.0000 -0.1100
v -3.2047 0.0000 0.1100
v -3.2047 1.3833 0.1100
v -3.5000 1.3833 0.1100
v -3.5000 0.0000 0.1100
v -3.5000 0.0000 0.1100
v -3.5000 1.3833 0.1100
v -3.5000 1.3833 -0.1100
v -3.5000 0.0000 -0.1100
v -3.2047 0.0000 -0.1100
v -3.2047 1.3833 -0.1100
v -3.2047 1.3833 0.1100
v -3.2047 0.0000 0.1100
v -3.5000 1.3833 -0.1100
v -3.2047 1.3833 -0.1100
v -3.3524 1.6491 0.0000
v -3.2047 1.3833 -0.1100
v -3.2047 1.3833 0.1100
v -3.3524 1.6491 0.0000
v -3.2047 1.3833 0.1100
v -3.5000 1.3833 0.1100
v -3.3524 1.6491 0.0000
v -3.5000 1.3833 0.1100
v -3.5000 1.3833 -0.1100
v -3.3524 1.6491 0.0000
v -3.1735 1.3250 -0.1100
v -2.8653 1.3250 -0.1100
v -2.8653 1.3250 0.1100
v -3.1735 1.3250 0.1100
v -3.1735 0.0000 0.1100
v -2.8653 0.0000 0.1100
v -2.8653 0.0000 -0.1100
v -3.1735 0.0000 -0.1100
v -3.1735 0.0000 -0.1100
v -3.1735 1.3250 -0.1100
v -2.8653 1.3250 -0.1100
v -2.8653 0.0000 -0.1100
v -2.8653 0.0000 0.1100
v -2.8653 1.3250 0.1100
v -3.1735 1.3250 0.1100
v -3.1735 0.0000 0.1100
v -3.1735 0.0000 0.1100
v -3.1735 1.3250 0.1100
v -3.1735 1.3250 -0.1100
v -3.1735 0.0000 -0.1100
v -2.8653 0.0000 -0.1100
v -2.8653 1.3250 -0.1100
v -2.8653 1.3250 0.1100
v -2.8653 0.0000 0.1100
v -3.1735 1.3250 -0.1100
v -2.8653 1.3250 -0.1100
v -3.0194 1.6024 0.0000
v -2.8653 1.3250 -0.1100
v -2.8653 1.3250 0.1100
v -3.0194 1.6024 0.0000
v -2.8653 1.3250 0.1100
v -3.1735 1.3250 0.1100
v -3.0194 1.6024 0.0000
v -3.1735 1.3250 0.1100
v -3.1735 1.3250 -0.1100
v -3.0194 1.6024 0.0000
v -2.8298 1.3180 -0.1100
v -2.4912 1.3180 -0.1100
v -2.4912 1.3180 0.1100
v -2.8298 1.3180 0.1100
v -2.8298 0.0000 0.1100
v -2.4912 0.0000 0.1100
v -2.4912 0.0000 -0.1100
v -2.8298 0.0000 -0.1100
v -2.8298 0.0000 -0.1100
v -2.8298 1.3180 -0.1100
v -2.4912 1.3180 -0.1100
v -2.4912 0.0000 -0.1100
v -2.4912 0.0000 0.1100
v -2.4912 1.3180 0.1100
v -2.8298 1.3180 0.1100
v -2.8298 0.0000 0.1100
v -2.8298 0.0000 0.1100
v -2.8298 1.3180 0.1100
v -2.8298 1.3180 -0.1100
v -2.8298 0.0000 -0.1100
v -2.4912 0.0000 -0.1100
v -2.4912 1.3180 -0.1100
v -2.4912 1.3180 0.1100
v -2.4912 0.0000 0.1100
v -2.8298 1.3180 -0.1100
v -2.4912 1.3180 -0.1100
v -2.6605 1.6228 0.0000
v -2.4912 1.3180 -0.1100
v -2.4912 1.3180 0.1100
v -2.6605 1.6228 0.0000
v -2.4912 1.3180 0.1100
v -2.8298 1.3180 0.1100
v -2.6605 1.6228 0.0000
v -2.8298 1.3180 0.1100
v -2.8298 1.3180 -0.1100
v -2.6605 1.6228 0.0000
v -2.4837 1.3636 -0.1100
v -2.2001 1.3636 -0.1100
v -2.2001 1.3636 0.1100
v -2.4837 1.3636 0.1100
v -2.4837 0.0000 0.1100
v -2.2001 0.0000 0.1100
v -2.2001 0.0000 -0.1100
v -2.4837 0.0000 -0.1100
v -2.4837 0.0000 -0.1100
v -2.4837 1.3636 -0.1100
v -2.2001 1.3636 -0.1100
v -2.2001 0.0000 -0.1100
v -2.2001 0.0000 0.1100
v -2.2001 1.3636 0.1100
v -2.4837 1.3636 0.1100
v -2.4837 0.0000 0.1100
v -2.4837 0.0000 0.1100
v -2.4837 1.3636 0.1100
v -2.4837 1.3636 -0.1100
v -2.4837 0.0000 -0.1100
v -2.2001 0.0000 -0.1100
v -2.2001 1.3636 -0.1100
v -2.2001 1.3636 0.1100
v -2.2001 0.0000 0.1100
v -2.4837 1.3636 -0.1100
v -2.2001 1.3636 -0.1100
v -2.3419 1.6189 0.0000
v -2.2001 1.3636 -0.1100
v -2.2001 1.3636 0.1100
v -2.3419 1.6189 0.0000
v -2.2001 1.3636 0.1100
v -2.4837 1.3636 0.1100
v -2.3419 1.6189 0.0000
v -2.4837 1.3636 0.1100
v -2.4837 1.3636 -0.1100
v -2.3419 1.6189 0.0000
v -2.1799 1.3973 -0.1100
v -1.8403 1.3973 -0.1100
v -1.8403 1.3973 0.1100
v -2.1799 1.3973 0.1100
v -2.1799 0.0000 0.1100
v -1.8403 0.0000 0.1100
v -1.8403 0.0000 -0.1100
v -2.1799 0.0000 -0.1100
v -2.1799 0.0000 -0.1100
v -2.1799 1.3973 -0.1100
v -1.8403 1.3973 -0.1100
v -1.8403 0.0000 -0.1100
v -1.8403 0.0000 0.1100
v -1.8403 1.3973 0.1100
v -2.1799 1.3973 0.1100
v -2.1799 0.0000 0.1100
v -2.1799 0.0000 0.1100
v -2.1799 1.3973 0.1100
v -2.1799 1.3973 -0.1100
v -2.1799 0.0000 -0.1100
v -1.8403 0.0000 -0.1100
v -1.8403 1.3973 -0.1100
v -1.8403 1.3973 0.1100
v -1.8403 0.0000 0.1100
v -2.1799 1.3973 -0.1100
v -1.8403 1.3973 -0.1100
v -2.0101 1.7028 0.0000
v -1.8403 1.3973 -0.1100
v -1.8403 1.3973 0.1100
v -2.0101 1.7028 0.0000
v -1.8403 1.3973 0.1100
v -2.1799 1.3973 0.1100
v -2.0101 1.7028 0.0000
v -2.1799 1.3973 0.1100
v -2.1799 1.3973 -0.1100
v -2.0101 1.7028 0.0000
v -1.8173 1.3602 -0.1100
v -1.5405 1.3602 -0.1100
v -1.5405 1.3602 0.1100
v -1.8173 1.3602 0.1100
v -1.8173 0.0000 0.1100
v -1.5405 0.0000 0.1100
v -1.5405 0.0000 -0.1100
v -1.8173 0.0000 -0.1100
v -1.8173 0.0000 -0.1100
v -1.8173 1.3602 -0.1100
v -1.5405 1.3602 -0.1100
v -1.5405 0.0000 -0.1100
v -1.5405 0.0000 0.1100
v -1.5405 1.3602 0.1100
v -1.8173 1.3602 0.1100
v -1.8173 0.0000 0.1100
v -1.8173 0.0000 0.1100
v -1.8173 1.3602 0.1100
v -1.8173 1.3602 -0.1100
v -1.8173 0.0000 -0.1100
v -1.5405 0.0000 -0.1100
v -1.5405 1.3602 -0.1100
v -1.5405 1.3602 0.1100
v -1.5405 0.0000 0.1100
v -1.8173 1.3602 -0.1100
v -1.5405 1.3602 -0.1100
v -1.6789 1.6093 0.0000
v -1.5405 1.3602 -0.1100
v -1.5405 1.3602 0.1100
v -1.6789 1.6093 0.0000
v -1.5405 1.3602 0.1100
v -1.8173 1.3602 0.1100
v -1.6789 1.6093 0.0000
v -1.8173 1.3602 0.1100
v -1.8173 1.3602 -0.1100
v -1.6789 1.6093 0.0000
v -1.5053 1.2796 -0.1100
v -1.2012 1.2796 -0.1100
v -1.2012 1.2796 0.1100
v -1.5053 1.2796 0.1100
v -1.5053 0.0000 0.1100
v -1.2012 0.0000 0.1100
v -1.2012 0.0000 -0.1100
v -1.5053 0.0000 -0.1100
v -1.5053 0.0000 -0.1100
v -1.5053 1.2796 -0.1100
v -1.2012 1.2796 -0.1100
v -1.2012 0.0000 -0.1100
v -1.2012 0.0000 0.1100
v -1.2012 1.2796 0.1100
v -1.5053 1.2796 0.1100
v -1.5053 0.0000 0.1100
v -1.5053 0.0000 0.1100
v -1.5053 1.2796 0.1100
v -1.5053 1.2796 -0.1100
v -1.5053 0.0000 -0.1100
v -1.2012 0.0000 -0.1100
v -1.2012 1.2796 -0.1100
v -1.2012 1.2796 0.1100
v -1.2012 0.0000 0.1100
v -1.5053 1.2796 -0.1100
v -1.2012 1.2796 -0.1100
v -1.3533 1.5532 0.0000
v -1.2012 1.2796 -0.1100
v -1.2012 1.2796 0.1100
v -1.3533 1.5532 0.0000
v -1.2012 1.2796 0.1100
v -1.5053 1.2796 0.1100
v -1.3533 1.5532 0.0000
v -1.5053 1.2796 0.1100
v -1.5053 1.2796 -0.1100
v -1.3533 1.5532 0.0000
v -1.1895 1.3695 -0.1100
v -0.9263 1.3695 -0.1100
v -0.9263 1.3695 0.1100
v -1.1895 1.3695 0.1100
v -1.1895 0.0000 0.1100
v -0.9263 0.0000 0.1100
v -0.9263 0.0000 -0.1100
v -1.1895 0.0000 -0.1100
v -1.1895 0.0000 -0.1100
v -1.1895 1.3695 -0.1100
v -0.9263 1.3695 -0.1100
v -0.9263 0.0000 -0.1100
v -0.9263 0.0000 0.1100
v -0.9263 1.3695 0.1100
v -1.1895 1.3695 0.1100
v -1.1895 0.0000 0.1100
v -1.1895 0.0000 0.1100
v -1.1895 1.3695 0.1100
v -1.1895 1.3695 -0.1100
v -1.1895 0.0000 -0.1100
v -0.9263 0.0000 -0.1100
v -0.9263 1.3695 -0.1100
v -0.9263 1.3695 0.1100
v -0.9263 0.0000 0.1100
v -1.1895 1.3695 -0.1100
v -0.9263 1.3695 -0.1100
v -1.0579 1.6064 0.0000
v -0.9263 1.3695 -0.1100
v -0.9263 1.3695 0.1100
v -1.0579 1.6064 0.0000
v -0.9263 1.3695 0.1100
v -1.1895 1.3695 0.1100
v -1.0579 1.6064 0.0000
v -1.1895 1.3695 0.1100
v -1.1895 1.3695 -0.1100
v -1.0579 1.6064 0.0000
v -0.8895 1.2816 -0.1100
v -0.5617 1.2816 -0.1100
v -0.5617 1.2816 0.1100
v -0.8895 1.2816 0.1100
v -0.8895 0.0000 0.1100
v -0.5617 0.0000 0.1100
v -0.5617 0.0000 -0.1100
v -0.8895 0.0000 -0.1100
v -0.8895 0.0000 -0.1100
v -0.8895 1.2816 -0.1100
v -0.5617 1.2816 -0.1100
v -0.5617 0.0000 -0.1100
v -0.5617 0.0000 0.1100
v -0.5617 1.2816 0.1100
v -0.8895 1.2816 0.1100
v -0.8895 0.0000 0.1100
v -0.8895 0.0000 0.1100
v -0.8895 1.2816 0.1100
v -0.8895 1.2816 -0.1100
v -0.8895 0.0000 -0.1100
v -0.5617 0.0000 -0.1100
v -0.5617 1.2816 -0.1100
v -0.5617 1.2816 0.1100
v -0.5617 0.0000 0.1100
v -0.8895 1.2816 -0.1100
v -0.5617 1.2816 -0.1100
v -0.7256 1.5766 0.0000
v -0.5617 1.2816 -0.1100
v -0.5617 1.2816 0.1100
v -0.7256 1.5766 0.0000
v -0.5617 1.2816 0.1100
v -0.8895 1.2816 0.1100
v -0.7256 1.5766 0.0000
v -0.8895 1.2816 0.1100
v -0.8895 1.2816 -0.1100
v -0.7256 1.5766 0.0000
v -0.5271 1.4361 -0.1100
v -0.2455 1.4361 -0.1100
v -0.2455 1.4361 0.1100
v -0.5271 1.4361 0.1100
v -0.5271 0.0000 0.1100
v -0.2455 0.0000 0.1100
v -0.2455 0.0000 -0.1100
v -0.5271 0.0000 -0.1100
v -0.5271 0.0000 -0.1100
v -0.5271 1.4361 -0.1100
v -0.2455 1.4361 -0.1100
v -0.2455 0.0000 -0.1100
v -0.2455 0.0000 0.1100
v -0.2455 1.4361 0.1100
v -0.5271 1.4361 0.1100
v -0.5271 0.0000 0.1100
v -0.5271 0.0000 0.1100
v -0.5271 1.4361 0.1100
v -0.5271 1.4361 -0.1100
v -0.5271 0.0000 -0.1100
v -0.2455 0.0000 -0.1100
v -0.2455 1.4361 -0.1100
v -0.2455 1.4361 0.1100
v -0.2455 0.0000 0.1100
v -0.5271 1.4361 -0.1100
v -0.2455 1.4361 -0.1100
v -0.3863 1.6895 0.0000
v -0.2455 1.4361 -0.1100
v -0.2455 1.4361 0.1100
v -0.3863 1.6895 0.0000
v -0.2455 1.4361 0.1100
v -0.5271 1.4361 0.1100
v -0.3863 1.6895 0.0000
v -0.5271 1.4361 0.1100
v -0.5271 1.4361 -0.1100
v -0.3863 1.6895 0.0000
v -0.2305 1.3669 -0.1100
v 0.0883 1.3669 -0.1100
v 0.0883 1.3669 0.1100
v -0.2305 1.3669 0.1100
v -0.2305 0.0000 0.1100
v 0.0883 0.0000 0.1100
v 0.0883 0.0000 -0.1100
v -0.2305 0.0000 -0.1100
v -0.2305 0.0000 -0.1100
v -0.2305 1.3669 -0.1100
v 0.0883 1.3669 -0.1100
v 0.0883 0.0000 -0.1100
v 0.0883 0.0000 0.1100
v 0.0883 1.3669 0.1100
v -0.2305 1.3669 0.1100
v -0.2305 0.0000 0.1100
v -0.2305 0.0000 0.1100
v -0.2305 1.3669 0.1100
v -0.2305 1.3669 -0.1100
v -0.2305 0.0000 -0.1100
v 0.0883 0.0000 -0.1100
v 0.0883 1.3669 -0.1100
v 0.0883 1.3669 0.1100
v 0.0883 0.0000 0.1100
v -0.2305 1.3669 -0.1100
v 0.0883 1.3669 -0.1100
v -0.0711 1.6538 0.0000
v 0.0883 1.3669 -0.1100
v 0.0883 1.3669 0.1100
v -0.0711 1.6538 0.0000
v 0.0883 1.3669 0.1100
v -0.2305 1.3669 0.1100
v -0.0711 1.6538 0.0000
v -0.2305 1.3669 0.1100
v -0.2305 1.3669 -0.1100
v -0.0711 1.6538 0.0000
v 0.0947 1.4269 -0.1100
v 0.3949 1.4269 -0.1100
v 0.3949 1.4269 0.1100
v 0.0947 1.4269 0.1100
v 0.0947 0.0000 0.1100
v 0.3949 0.0000 0.1100
v 0.3949 0.0000 -0.1100
v 0.0947 0.0000 -0.1100
v 0.0947 0.0000 -0.1100
v 0.0947 1.4269 -0.1100
v 0.3949 1.4269 -0.1100
v 0.3949 0.0000 -0.1100
v 0.3949 0.0000 0.1100
v 0.3949 1.4269 0.1100
v 0.0947 1.4269 0.1100
v 0.0947 0.0000 0.1100
v 0.0947 0.0000 0.1100
v 0.0947 1.4269 0.1100
v 0.0947 1.4269 -0.1100
v 0.0947 0.0000 -0.1100
v 0.3949 0.0000 -0.1100
v 0.3949 1.4269 -0.1100
v 0.3949 1.4269 0.1100
v 0.3949 0.0000 0.1100
v 0.0947 1.4269 -0.1100
v 0.3949 1.4269 -0.1100
v 0.2448 1.6971 0.0000
v 0.3949 1.4269 -0.1100
v 0.3949 1.4269 0.1100
v 0.2448 1.6971 0.0000
v 0.3949 1.4269 0.1100
v 0.0947 1.4269 0.1100
v 0.2448 1.6971 0.0000
v 0.0947 1.4269 0.1100
v 0.0947 1.4269 -0.1100
v 0.2448 1.6971 0.0000
v 0.4126 1.3517 -0.1100
v 0.7139 1.3517 -0.1100
v 0.7139 1.3517 0.1100
v 0.4126 1.3517 0.1100
v 0.4126 0.0000 0.1100
v 0.7139 0.0000 0.1100
v 0.7139 0.0000 -0.1100
v 0.4126 0.0000 -0.1100
v 0.4126 0.0000 -0.1100
v 0.4126 1.3517 -0.1100
v 0.7139 1.3517 -0.1100
v 0.7139 0.0000 -0.1100
v 0.7139 0.0000 0.1100
v 0.7139 1.3517 0.1100
v 0.4126 1.3517 0.1100
v 0.4126 0.0000 0.1100
v 0.4126 0.0000 0.1100
v 0.4126 1.3517 0.1100
v 0.4126 1.3517 -0.1100
v 0.4126 0.0000 -0.1100
v 0.7139 0.0000 -0.1100
v 0.7139 1.3517 -0.1100
v 0.7139 1.3517 0.1100
v 0.7139 0.0000 0.1100
v 0.4126 1.3517 -0.1100
v 0.7139 1.3517 -0.1100
v 0.5632 1.6229 0.0000
v 0.7139 1.3517 -0.1100
v 0.7139 1.3517 0.1100
v 0.5632 1.6229 0.0000
v 0.7139 1.3517 0.1100
v 0.4126 1.3517 0.1100
v 0.5632 1.6229 0.0000
v 0.4126 1.3517 0.1100
v 0.4126 1.3517 -0.1100
v 0.5632 1.6229 0.0000
v 0.7516 1.3581 -0.1100
v 1.0269 1.3581 -0.1100
v 1.0269 1.3581 0.1100
v 0.7516 1.3581 0.1100
v 0.7516 0.0000 0.1100
v 1.0269 0.0000 0.1100
v 1.0269 0.0000 -0.1100
v 0.7516 0.0000 -0.1100
v 0.7516 0.0000 -0.1100
v 0.7516 1.3581 -0.1100
v 1.0269 1.3581 -0.1100
v 1.0269 0.0000 -0.1100
v 1.0269 0.0000 0.1100
v 1.0269 1.3581 0.1100
v 0.7516 1.3581 0.1100
v 0.7516 0.0000 0.1100
v 0.7516 0.0000 0.1100
v 0.7516 1.3581 0.1100
v 0.7516 1.3581 -0.1100
v 0.7516 0.0000 -0.1100
v 1.0269 0.0000 -0.1100
v 1.0269 1.3581 -0.1100
v 1.0269 1.3581 0.1100
v 1.0269 0.0000 0.1100
v 0.7516 1.3581 -0.1100
v 1.0269 1.3581 -0.1100
v 0.8892 1.6058 0.0000
v 1.0269 1.3581 -0.1100
v 1.0269 1.3581 0.1100
v 0.8892 1.6058 0.0000
v 1.0269 1.3581 0.1100
v 0.7516 1.3581 0.1100
v 0.8892 1.6058 0.0000
v 0.7516 1.3581 0.1100
v 0.7516 1.3581 -0.1100
v 0.8892 1.6058 0.0000
v 1.0581 1.3415 -0.1100
v 1.3850 1.3415 -0.1100
v 1.3850 1.3415 0.1100
v 1.0581 1.3415 0.1100
v 1.0581 0.0000 0.1100
v 1.3850 0.0000 0.1100
v 1.3850 0.0000 -0.1100
v 1.0581 0.0000 -0.1100
v 1.0581 0.0000 -0.1100
v 1.0581 1.3415 -0.1100
v 1.3850 1.3415 -0.1100
v 1.3850 0.0000 -0.1100
v 1.3850 0.0000 0.1100
v 1.3850 1.3415 0.1100
v 1.0581 1.3415 0.1100
v 1.0581 0.0000 0.1100
v 1.0581 0.0000 0.1100
v 1.0581 1.3415 0.1100
v 1.0581 1.3415 -0.1100
v 1.0581 0.0000 -0.1100
v 1.3850 0.0000 -0.1100
v 1.3850 1.3415 -0.1100
v 1.3850 1.3415 0.1100
v 1.3850 0.0000 0.1100
v 1.0581 1.3415 -0.1100
v 1.3850 1.3415 -0.1100
v 1.2216 1.6357 0.0000
v 1.3850 1.3415 -0.1100
v 1.3850 1.3415 0.1100
v 1.2216 1.6357 0.0000
v 1.3850 1.3415 0.1100
v 1.0581 1.3415 0.1100
v 1.2216 1.6357 0.0000
v 1.0581 1.3415 0.1100
v 1.0581 1.3415 -0.1100
v 1.2216 1.6357 0.0000
v 1.3969 1.3086 -0.1100
v 1.7275 1.3086 -0.1100
v 1.7275 1.3086 0.1100
v 1.3969 1.3086 0.1100
v 1.3969 0.0000 0.1100
v 1.7275 0.0000 0.1100
v 1.7275 0.0000 -0.1100
v 1.3969 0.0000 -0.1100
v 1.3969 0.0000 -0.1100
v 1.3969 1.3086 -0.1100
v 1.7275 1.3086 -0.1100
v 1.7275 0.0000 -0.1100
v 1.7275 0.0000 0.1100
v 1.7275 1.3086 0.1100
v 1.3969 1.3086 0.1100
v 1.3969 0.0000 0.1100
v 1.3969 0.0000 0.1100
v 1.3969 1.3086 0.1100
v 1.3969 1.3086 -0.1100
v 1.3969 0.0000 -0.1100
v 1.7275 0.0000 -0.1100
v 1.7275 1.3086 -0.1100
v 1.7275 1.3086 0.1100
v 1.7275 0.0000 0.1100
v 1.3969 1.3086 -0.1100
v 1.7275 1.3086 -0.1100
v 1.5622 1.6061 0.0000
v 1.7275 1.3086 -0.1100
v 1.7275 1.3086 0.1100
v 1.5622 1.6061 0.0000
v 1.7275 1.3086 0.1100
v 1.3969 1.3086 0.1100
v 1.5622 1.6061 0.0000
v 1.3969 1.3086 0.1100
v 1.3969 1.3086 -0.1100
v 1.5622 1.6061 0.0000
v 1.7638 1.2764 -0.1100
v 2.0962 1.2764 -0.1100
v 2.0962 1.2764 0.1100
v 1.7638 1.2764 0.1100
v 1.7638 0.0000 0.1100
v 2.0962 0.0000 0.1100
v 2.0962 0.0000 -0.1100
v 1.7638 0.0000 -0.1100
v 1.7638 0.0000 -0.1100
v 1.7638 1.2764 -0.1100
v 2.0962 1.2764 -0.1100
v 2.0962 0.0000 -0.1100
v 2.0962 0.0000 0.1100
v 2.0962 1.2764 0.1100
v 1.7638 1.2764 0.1100
v 1.7638 0.0000 0.1100
v 1.7638 0.0000 0.1100
v 1.7638 1.2764 0.1100
v 1.7638 1.2764 -0.1100
v 1.7638 0.0000 -0.1100
v 2.0962 0.0000 -0.1100
v 2.0962 1.2764 -0.1100
v 2.0962 1.2764 0.1100
v 2.0962 0.0000 0.1100
v 1.7638 1.2764 -0.1100
v 2.0962 1.2764 -0.1100
v 1.9300 1.5755 0.0000
v 2.0962 1.2764 -0.1100
v 2.0962 1.2764 0.1100
v 1.9300 1.5755 0.0000
v 2.0962 1.2764 0.1100
v 1.7638 1.2764 0.1100
v 1.9300 1.5755 0.0000
v 1.7638 1.2764 0.1100
v 1.7638 1.2764 -0.1100
v 1.9300 1.5755 0.0000
v 2.1064 1.3198 -0.1100
v 2.3817 1.3198 -0.1100
v 2.3817 1.3198 0.1100
v 2.1064 1.3198 0.1100
v 2.1064 0.0000 0.1100
v 2.3817 0.0000 0.1100
v 2.3817 0.0000 -0.1100
v 2.1064 0.0000 -0.1100
v 2.1064 0.0000 -0.1100
v 2.1064 1.3198 -0.1100
v 2.3817 1.3198 -0.1100
v 2.3817 0.0000 -0.1100
v 2.3817 0.0000 0.1100
v 2.3817 1.3198 0.1100
v 2.1064 1.3198 0.1100
v 2.1064 0.0000 0.1100
v 2.1064 0.0000 0.1100
v 2.1064 1.3198 0.1100
v 2.1064 1.3198 -0.1100
v 2.1064 0.0000 -0.1100
v 2.3817 0.0000 -0.1100
v 2.3817 1.3198 -0.1100
v 2.3817 1.3198 0.1100
v 2.3817 0.0000 0.1100
v 2.1064 1.3198 -0.1100
v 2.3817 1.3198 -0.1100
v 2.2441 1.5675 0.0000
v 2.3817 1.3198 -0.1100
v 2.3817 1.3198 0.1100
v 2.2441 1.5675 0.0000
v 2.3817 1.3198 0.1100
v 2.1064 1.3198 0.1100
v 2.2441 1.5675 0.0000
v 2.1064 1.3198 0.1100
v 2.1064 1.3198 -0.1100
v 2.2441 1.5675 0.0000
v 2.4066 1.3580 -0.1100
v 2.7285 1.3580 -0.1100
v 2.7285 1.3580 0.1100
v 2.4066 1.3580 0.1100
v 2.4066 0.0000 0.1100
v 2.7285 0.0000 0.1100
v 2.7285 0.0000 -0.1100
v 2.4066 0.0000 -0.1100
v 2.4066 0.0000 -0.1100
v 2.4066 1.3580 -0.1100
v 2.7285 1.3580 -0.1100
v 2.7285 0.0000 -0.1100
v 2.7285 0.0000 0.1100
v 2.7285 1.3580 0.1100
v 2.4066 1.3580 0.1100
v 2.4066 0.0000 0.1100
v 2.4066 0.0000 0.1100
v 2.4066 1.3580 0.1100
v 2.4066 1.3580 -0.1100
v 2.4066 0.0000 -0.1100
v 2.7285 0.0000 -0.1100
v 2.7285 1.3580 -0.1100
v 2.7285 1.3580 0.1100
v 2.7285 0.0000 0.1100
v 2.4066 1.3580 -0.1100
v 2.7285 1.3580 -0.1100
v 2.5675 1.6478 0.0000
v 2.7285 1.3580 -0.1100
v 2.7285 1.3580 0.1100
v 2.5675 1.6478 0.0000
v 2.7285 1.3580 0.1100
v 2.4066 1.3580 0.1100
v 2.5675 1.6478 0.0000
v 2.4066 1.3580 0.1100
v 2.4066 1.3580 -0.1100
v 2.5675 1.6478 0.0000
v 2.7340 1.3234 -0.1100
v 2.9987 1.3234 -0.1100
v 2.9987 1.3234 0.1100
v 2.7340 1.3234 0.1100
v 2.7340 0.0000 0.1100
v 2.9987 0.0000 0.1100
v 2.9987 0.0000 -0.1100
v 2.7340 0.0000 -0.1100
v 2.7340 0.0000 -0.1100
v 2.7340 1.3234 -0.1100
v 2.9987 1.3234 -0.1100
v 2.9987 0.0000 -0.1100
v 2.9987 0.0000 0.1100
v 2.9987 1.3234 0.1100
v 2.7340 1.3234 0.1100
v 2.7340 0.0000 0.1100
v 2.7340 0.0000 0.1100
v 2.7340 1.3234 0.1100
v 2.7340 1.3234 -0.1100
v 2.7340 0.0000 -0.1100
v 2.9987 0.0000 -0.1100
v 2.9987 1.3234 -0.1100
v 2.9987 1.3234 0.1100
v 2.9987 0.0000 0.1100
v 2.7340 1.3234 -0.1100
v 2.9987 1.3234 -0.1100
v 2.8663 1.5617 0.0000
v 2.9987 1.3234 -0.1100
v 2.9987 1.3234 0.1100
v 2.8663 1.5617 0.0000
v 2.9987 1.3234 0.1100
v 2.7340 1.3234 0.1100
v 2.8663 1.5617 0.0000
v 2.7340 1.3234 0.1100
v 2.7340 1.3234 -0.1100
v 2.8663 1.5617 0.0000
v 3.0112 1.3002 -0.1100
v 3.2823 1.3002 -0.1100
v 3.2823 1.3002 0.1100
v 3.0112 1.3002 0.1100
v 3.0112 0.0000 0.1100
v 3.2823 0.0000 0.1100
v 3.2823 0.0000 -0.1100
v 3.0112 0.0000 -0.1100
v 3.0112 0.0000 -0.1100
v 3.0112 1.3002 -0.1100
v 3.2823 1.3002 -0.1100
v 3.2823 0.0000 -0.1100
v 3.2823 0.0000 0.1100
v 3.2823 1.3002 0.1100
v 3.0112 1.3002 0.1100
v 3.0112 0.0000 0.1100
v 3.0112 0.0000 0.1100
v 3.0112 1.3002 0.1100
v 3.0112 1.3002 -0.1100
v 3.0112 0.0000 -0.1100
v 3.2823 0.0000 -0.1100
v 3.2823 1.3002 -0.1100
v 3.2823 1.3002 0.1100
v 3.2823 0.0000 0.1100
v 3.0112 1.3002 -0.1100
v 3.2823 1.3002 -0.1100
v 3.1468 1.5443 0.0000
v 3.2823 1.3002 -0.1100
v 3.2823 1.3002 0.1100
v 3.1468 1.5443 0.0000
v 3.2823 1.3002 0.1100
v 3.0112 1.3002 0.1100
v 3.1468 1.5443 0.0000
v 3.0112 1.3002 0.1100
v 3.0112 1.3002 -0.1100
v 3.1468 1.5443 0.0000
v 3.3056 1.3887 -0.1100
v 3.5000 1.3887 -0.1100
v 3.5000 1.3887 0.1100
v 3.3056 1.3887 0.1100
v 3.3056 0.0000 0.1100
v 3.5000 0.0000 0.1100
v 3.5000 0.0000 -0.1100
v 3.3056 0.0000 -0.1100
v 3.3056 0.0000 -0.1100
v 3.3056 1.3887 -0.1100
v 3.5000 1.3887 -0.1100
v 3.5000 0.0000 -0.1100
v 3.5000 0.0000 0.1100
v 3.5000 1.3887 0.1100
v 3.3056 1.3887 0.1100
v 3.3056 0.0000 0.1100
v 3.3056 0.0000 0.1100
v 3.3056 1.3887 0.1100
v 3.3056 1.3887 -0.1100
v 3.3056 0.0000 -0.1100
v 3.5000 0.0000 -0.1100
v 3.5000 1.3887 -0.1100
v 3.5000 1.3887 0.1100
v 3.5000 0.0000 0.1100
v 3.3056 1.3887 -0.1100
v 3.5000 1.3887 -0.1100
v 3.4028 1.5636 0.0000
v 3.5000 1.3887 -0.1100
v 3.5000 1.3887 0.1100
v 3.4028 1.5636 0.0000
v 3.5000 1.3887 0.1100
v 3.3056 1.3887 0.1100
v 3.4028 1.5636 0.0000
v 3.3056 1.3887 0.1100
v 3.3056 1.3887 -0.1100
v 3.4028 1.5636 0.0000
v -3.5000 0.9200 0.1100
v 3.5000 0.9200 0.1100
v 3.5000 0.9200 0.2200
v -3.5000 0.9200 0.2200
v -3.5000 0.7800 0.2200
v 3.5000 0.7800 0.2200
v 3.5000 0.7800 0.1100
v -3.5000 0.7800 0.1100
v -3.5000 0.7800 0.1100
v -3.5000 0.9200 0.1100
v 3.5000 0.9200 0.1100
v 3.5000 0.7800 0.1100
v 3.5000 0.7800 0.2200
v 3.5000 0.9200 0.2200
v -3.5000 0.9200 0.2200
v -3.5000 0.7800 0.2200
v -3.5000 0.7800 0.2200
v -3.5000 0.9200 0.2200
v -3.5000 0.9200 0.1100
v -3.5000 0.7800 0.1100
v 3.5000 0.7800 0.1100
v 3.5000 0.9200 0.1100
v 3.5000 0.9200 0.2200
v 3.5000 0.7800 0.2200
vt 0.0000 0.0000
vt 0.6917 0.0000
vt 0.6917 1.0000
vt 0.0000 1.0000
vt 0.0000 0.0000
vt 0.6917 0.0000
vt 0.6917 1.0000
vt 0.0000 1.0000
vt 0.0000 0.0000
vt 0.6917 0.0000
vt 0.6917 1.0000
vt 0.0000 1.0000
vt 0.0000 0.0000
vt 0.6917 0.0000
vt 0.6917 1.0000
vt 0.0000 1.0000
vt 0.0000 0.0000
vt 0.6917 0.0000
vt 0.6917 1.0000
vt 0.0000 1.0000
vt 0.0000 0.0000
vt 0.6917 0.0000
vt 0.6917 1.0000
vt 0.0000 1.0000
vt 0.0000 0.0000
vt 1.0000 0.0000
vt 0.5000 1.0000
vt 0.0000 0.0000
vt 1.0000 0.0000
vt 0.5000 1.0000
vt 0.0000 0.0000
vt 1.0000 0.0000
vt 0.5000 1.0000
vt 0.0000 0.0000
vt 1.0000 0.0000
vt 0.5000 1.0000
vt 0.0000 0.0000
vt 0.6625 0.0000
vt 0.6625 1.0000
vt 0.0000 1.0000
vt 0.0000 0.0000
vt 0.6625 0.0000
vt 0.6625 1.0000
vt 0.0000 1.0000
vt 0.0000 0.0000
vt 0.6625 0.0000
vt 0.6625 1.0000
vt 0.0000 1.0000
vt 0.0000 0.0000
vt 0.6625 0.0000
vt 0.6625 1.0000
vt 0.0000 1.0000
vt 0.0000 0.0000
vt 0.6625 0.0000
vt 0.6625 1.0000
vt 0.0000 1.0000
vt 0.0000 0.0000
vt 0.6625 0.0000
vt 0.6625 1.0000
vt 0.0000 1.0000
vt 0.0000 0.0000
vt 1.0000 0.0000
vt 0.5000 1.0000
vt 0.0000 0.0000
vt 1.0000 0.0000
vt 0.5000 1.0000
vt 0.0000 0.0000
vt 1.0000 0.0000
vt 0.5000 1.0000
vt 0.0000 0.0000
vt 1.0000 0.0000
vt 0.5000 1.0000
vt 0.0000 0.0000
vt 0.6590 0.0000
vt 0.6590 1.0000
vt 0.0000 1.0000
vt 0.0000 0.0000
vt 0.6590 0.0000
vt 0.6590 1.0000
vt 0.0000 1.0000
vt 0.0000 0.0000
vt 0.6590 0.0000
vt 0.6590 1.0000
vt 0.0000 1.0000
vt 0.0000 0.0000
vt 0.6590 0.0000
vt 0.6590 1.0000
vt 0.0000 1.0000
vt 0.0000 0.0000
vt 0.6590 0.0000
vt 0.6590 1.0000
vt 0.0000 1.0000
vt 0.0000 0.0000
vt 0.6590 0.0000
vt 0.6590 1.0000
vt 0.0000 1.0000
vt 0.0000 0.0000
vt 1.0000 0.0000
vt 0.5000 1.0000
vt 0.0000 0.0000
vt 1.0000 0.0000
vt 0.5000 1.0000
vt 0.0000 0.0000
vt 1.0000 0.0000
vt 0.5000 1.0000
vt 0.0000 0.0000
vt 1.0000 0.0000
vt 0.5000 1.0000
vt 0.0000 0.0000
vt 0.6818 0.0000
vt 0.6818 1.0000
vt 0.0000 1.0000
vt 0.0000 0.0000
vt 0.6818 0.0000
vt 0.6818 1.0000
vt 0.0000 1.0000
vt 0.0000 0.0000
vt 0.6818 0.0000
vt 0.6818 1.0000
vt 0.0000 1.0000
vt 0.0000 0.0000
vt 0.6818 0.0000
vt 0.6818 1.0000
vt 0.0000 1.0000
vt 0.0000 0.0000
vt 0.6818 0.0000
vt 0.6818 1.0000
vt 0.0000 1.0000
vt 0.0000 0.0000
vt 0.6818 0.0000
vt 0.6818 1.0000
vt 0.0000 1.0000
vt 0.0000 0.0000
vt 1.0000 0.0000
vt 0.5000 1.0000
vt 0.0000 0.0000
vt 1.0000 0.0000
vt 0.5000 1.0000
vt 0.0000 0.0000
vt 1.0000 0.0000
vt 0.5000 1.0000
vt 0.0000 0.0000
vt 1.0000 0.0000
vt 0.5000 1.0000
vt 0.0000 0.0000
vt 0.6986 0.0000
vt 0.6986 1.0000
vt 0.0000 1.0000
vt 0.0000 0.0000
vt 0.6986 0.0000
vt 0.6986 1.0000
vt 0.0000 1.0000
vt 0.0000 0.0000
vt 0.6986 0.0000
vt 0.6986 1.0000
vt 0.0000 1.0000
vt 0.0000 0.0000
vt 0.6986 0.0000
vt 0.6986 1.0000
vt 0.0000 1.0000
vt 0.0000 0.0000
vt 0.6986 0.0000
vt 0.6986 1.0000
vt 0.0000 1.0000
vt 0.0000 0.0000
vt 0.6986 0.0000
vt 0.6986 1.0000
vt 0.0000 1.0000
vt 0.0000 0.0000
vt 1.0000 0.0000
vt 0.5000 1.0000
vt 0.0000 0.0000
vt 1.0000 0.0000
vt 0.5000 1.0000
vt 0.0000 0.0000
vt 1.0000 0.0000
vt 0.5000 1.0000
vt 0.0000 0.0000
vt 1.0000 0.0000
vt 0.5000 1.0000
vt 0.0000 0.0000
vt 0.6801 0.0000
vt 0.6801 1.0000
vt 0.0000 1.0000
vt 0.0000 0.0000
vt 0.6801 0.0000
vt 0.6801 1.0000
vt 0.0000 1.0000
vt 0.0000 0.0000
vt 0.6801 0.0000
vt 0.6801 1.0000
vt 0.0000 1.0000
vt 0.0000 0.0000
vt 0.6801 0.0000
vt 0.6801 1.0000
vt 0.0000 1.0000
vt 0.0000 0.0000
vt 0.6801 0.0000
vt 0.6801 1.0000
vt 0.0000 1.0000
vt 0.0000 0.0000
vt 0.6801 0.0000
vt 0.6801 1.0000
vt 0.0000 1.0000
vt 0.0000 0.0000
vt 1.0000 0.0000
vt 0.5000 1.0000
vt 0.0000 0.0000
vt 1.0000 0.0000
vt 0.5000 1.0000
vt 0.0000 0.0000
vt 1.0000 0.0000
vt 0.5000 1.0000
vt 0.0000 0.0000
vt 1.0000 0.0000
vt 0.5000 1.0000
vt 0.0000 0.0000
vt 0.6398 0.0000
vt 0.6398 1.0000
vt 0.0000 1.0000
vt 0.0000 0.0000
vt 0.6398 0.0000
vt 0.6398 1.0000
vt 0.0000 1.0000
vt 0.0000 0.0000
vt 0.6398 0.0000
vt 0.6398 1.0000
vt 0.0000 1.0000
vt 0.0000 0.0000
vt 0.6398 0.0000
vt 0.6398 1.0000
vt 0.0000 1.0000
vt 0.0000 0.0000
vt 0.6398 0.0000
vt 0.6398 1.0000
vt 0.0000 1.0000
vt 0.0000 0.0000
vt 0.6398 0.0000
vt 0.6398 1.0000
vt 0.0000 1.0000
vt 0.0000 0.0000
vt 1.0000 0.0000
vt 0.5000 1.0000
vt 0.0000 0.0000
vt 1.0000 0.0000
vt 0.5000 1.0000
vt 0.0000 0.0000
vt 1.0000 0.0000
vt 0.5000 1.0000
vt 0.0000 0.0000
vt 1.0000 0.0000
vt 0.5000 1.0000
vt 0.0000 0.0000
vt 0.6848 0.0000
vt 0.6848 1.0000
vt 0.0000 1.0000
vt 0.0000 0.0000
vt 0.6848 0.0000
vt 0.6848 1.0000
vt 0.0000 1.0000
vt 0.0000 0.0000
vt 0.6848 0.0000
vt 0.6848 1.0000
vt 0.0000 1.0000
vt 0.0000 0.0000
vt 0.6848 0.0000
vt 0.6848 1.0000
vt 0.0000 1.0000
vt 0.0000 0.0000
vt 0.6848 0.0000
vt 0.6848 1.0000
vt 0.0000 1.0000
vt 0.0000 0.0000
vt 0.6848 0.0000
vt 0.6848 1.0000
vt 0.0000 1.0000
vt 0.0000 0.0000
vt 1.0000 0.0000
vt 0.5000 1.0000
vt 0.0000 0.0000
vt 1.0000 0.0000
vt 0.5000 1.0000
vt 0.0000 0.0000
vt 1.0000 0.0000
vt 0.5000 1.0000
vt 0.0000 0.0000
vt 1.0000 0.0000
vt 0.5000 1.0000
vt 0.0000 0.0000
vt 0.6408 0.0000
vt 0.6408 1.0000
vt 0.0000 1.0000
vt 0.0000 0.0000
vt 0.6408 0.0000
vt 0.6408 1.0000
vt 0.0000 1.0000
vt 0.0000 0.0000
vt 0.6408 0.0000
vt 0.6408 1.0000
vt 0.0000 1.0000
vt 0.0000 0.0000
vt 0.6408 0.0000
vt 0.6408 1.0000
vt 0.0000 1.0000
vt 0.0000 0.0000
vt 0.6408 0.0000
vt 0.6408 1.0000
vt 0.0000 1.0000
vt 0.0000 0.0000
vt 0.6408 0.0000
vt 0.6408 1.0000
vt 0.0000 1.0000
vt 0.0000 0.0000
vt 1.0000 0.0000
vt 0.5000 1.0000
vt 0.0000 0.0000
vt 1.0000 0.0000
vt 0.5000 1.0000
vt 0.0000 0.0000
vt 1.0000 0.0000
vt 0.5000 1.0000
vt 0.0000 0.0000
vt 1.0000 0.0000
vt 0.5000 1.0000
vt 0.0000 0.0000
vt 0.7180 0.0000
vt 0.7180 1.0000
vt 0.0000 1.0000
vt 0.0000 0.0000
vt 0.7180 0.0000
vt 0.7180 1.0000
vt 0.0000 1.0000
vt 0.0000 0.0000
vt 0.7180 0.0000
vt 0.7180 1.0000
vt 0.0000 1.0000
vt 0.0000 0.0000
vt 0.7180 0.0000
vt 0.7180 1.0000
vt 0.0000 1.0000
vt 0.0000 0.0000
vt 0.7180 0.0000
vt 0.7180 1.0000
vt 0.0000 1.0000
vt 0.0000 0.0000
vt 0.7180 0.0000
vt 0.7180 1.0000
vt 0.0000 1.0000
vt 0.0000 0.0000
vt 1.0000 0.0000
vt 0.5000 1.0000
vt 0.0000 0.0000
vt 1.0000 0.0000
vt 0.5000 1.0000
vt 0.0000 0.0000
vt 1.0000 0.0000
vt 0.5000 1.0000
vt 0.0000 0.0000
vt 1.0000 0.0000
vt 0.5000 1.0000
vt 0.0000 0.0000
vt 0.6835 0.0000
vt 0.6835 1.0000
vt 0.0000 1.0000
vt 0.0000 0.0000
vt 0.6835 0.0000
vt 0.6835 1.0000
vt 0.0000 1.0000
vt 0.0000 0.0000
vt 0.6835 0.0000
vt 0.6835 1.0000
vt 0.0000 1.0000
vt 0.0000 0.0000
vt 0.6835 0.0000
vt 0.6835 1.0000
vt 0.0000 1.0000
vt 0.0000 0.0000
vt 0.6835 0.0000
vt 0.6835 1.0000
vt 0.0000 1.0000
vt 0.0000 0.0000
vt 0.6835 0.0000
vt 0.6835 1.0000
vt 0.0000 1.0000
vt 0.0000 0.0000
vt 1.0000 0.0000
vt 0.5000 1.0000
vt 0.0000 0.0000
vt 1.0000 0.0000
vt 0.5000 1.0000
vt 0.0000 0.0000
vt 1.0000 0.0000
vt 0.5000 1.0000
vt 0.0000 0.0000
vt 1.0000 0.0000
vt 0.5000 1.0000
vt 0.0000 0.0000
vt 0.7135 0.0000
vt 0.7135 1.0000
vt 0.0000 1.0000
vt 0.0000 0.0000
vt 0.7135 0.0000
vt 0.7135 1.0000
vt 0.0000 1.0000
vt 0.0000 0.0000
vt 0.7135 0.0000
vt 0.7135 1.0000
vt 0.0000 1.0000
vt 0.0000 0.0000
vt 0.7135 0.0000
vt 0.7135 1.0000
vt 0.0000 1.0000
vt 0.0000 0.0000
vt 0.7135 0.0000
vt 0.7135 1.0000
vt 0.0000 1.0000
vt 0.0000 0.0000
vt 0.7135 0.0000
vt 0.7135 1.0000
vt 0.0000 1.0000
vt 0.0000 0.0000
vt 1.0000 0.0000
vt 0.5000 1.0000
vt 0.0000 0.0000
vt 1.0000 0.0000
vt 0.5000 1.0000
vt 0.0000 0.0000
vt 1.0000 0.0000
vt 0.5000 1.0000
vt 0.0000 0.0000
vt 1.0000 0.0000
vt 0.5000 1.0000
vt 0.0000 0.0000
vt 0.6759 0.0000
vt 0.6759 1.0000
vt 0.0000 1.0000
vt 0.0000 0.0000
vt 0.6759 0.0000
vt 0.6759 1.0000
vt 0.0000 1.0000
vt 0.0000 0.0000
vt 0.6759 0.0000
vt 0.6759 1.0000
vt 0.0000 1.0000
vt 0.0000 0.0000
vt 0.6759 0.0000
vt 0.6759 1.0000
vt 0.0000 1.0000
vt 0.0000 0.0000
vt 0.6759 0.0000
vt 0.6759 1.0000
vt 0.0000 1.0000
vt 0.0000 0.0000
vt 0.6759 0.0000
vt 0.6759 1.0000
vt 0.0000 1.0000
vt 0.0000 0.0000
vt 1.0000 0.0000
vt 0.5000 1.0000
vt 0.0000 0.0000
vt 1.0000 0.0000
vt 0.5000 1.0000
vt 0.0000 0.0000
vt 1.0000 0.0000
vt 0.5000 1.0000
vt 0.0000 0.0000
vt 1.0000 0.0000
vt 0.5000 1.0000
vt 0.0000 0.0000
vt 0.6790 0.0000
vt 0.6790 1.0000
vt 0.0000 1.0000
vt 0.0000 0.0000
vt 0.6790 0.0000
vt 0.6790 1.0000
vt 0.0000 1.0000
vt 0.0000 0.0000
vt 0.6790 0.0000
vt 0.6790 1.0000
vt 0.0000 1.0000
vt 0.0000 0.0000
vt 0.6790 0.0000
vt 0.6790 1.0000
vt 0.0000 1.0000
vt 0.0000 0.0000
vt 0.6790 0.0000
vt 0.6790 1.0000
vt 0.0000 1.0000
vt 0.0000 0.0000
vt 0.6790 0.0000
vt 0.6790 1.0000
vt 0.0000 1.0000
vt 0.0000 0.0000
vt 1.0000 0.0000
vt 0.5000 1.0000
vt 0.0000 0.0000
vt 1.0000 0.0000
vt 0.5000 1.0000
vt 0.0000 0.0000
vt 1.0000 0.0000
vt 0.5000 1.0000
vt 0.0000 0.0000
vt 1.0000 0.0000
vt 0.5000 1.0000
vt 0.0000 0.0000
vt 0.6708 0.0000
vt 0.6708 1.0000
vt 0.0000 1.0000
vt 0.0000 0.0000
vt 0.6708 0.0000
vt 0.6708 1.0000
vt 0.0000 1.0000
vt 0.0000 0.0000
vt 0.6708 0.0000
vt 0.6708 1.0000
vt 0.0000 1.0000
vt 0.0000 0.0000
vt 0.6708 0.0000
vt 0.6708 1.0000
vt 0.0000 1.0000
vt 0.0000 0.0000
vt 0.6708 0.0000
vt 0.6708 1.0000
vt 0.0000 1.0000
vt 0.0000 0.0000
vt 0.6708 0.0000
vt 0.6708 1.0000
vt 0.0000 1.0000
vt 0.0000 0.0000
vt 1.0000 0.0000
vt 0.5000 1.0000
vt 0.0000 0.0000
vt 1.0000 0.0000
vt 0.5000 1.0000
vt 0.0000 0.0000
vt 1.0000 0.0000
vt 0.5000 1.0000
vt 0.0000 0.0000
vt 1.0000 0.0000
vt 0.5000 1.0000
vt 0.0000 0.0000
vt 0.6543 0.0000
vt 0.6543 1.0000
vt 0.0000 1.0000
vt 0.0000 0.0000
vt 0.6543 0.0000
vt 0.6543 1.0000
vt 0.0000 1.0000
vt 0.0000 0.0000
vt 0.6543 0.0000
vt 0.6543 1.0000
vt 0.0000 1.0000
vt 0.0000 0.0000
vt 0.6543 0.0000
vt 0.6543 1.0000
vt 0.0000 1.0000
vt 0.0000 0.0000
vt 0.6543 0.0000
vt 0.6543 1.0000
vt 0.0000 1.0000
vt 0.0000 0.0000
vt 0.6543 0.0000
vt 0.6543 1.0000
vt 0.0000 1.0000
vt 0.0000 0.0000
vt 1.0000 0.0000
vt 0.5000 1.0000
vt 0.0000 0.0000
vt 1.0000 0.0000
vt 0.5000 1.0000
vt 0.0000 0.0000
vt 1.0000 0.0000
vt 0.5000 1.0000
vt 0.0000 0.0000
vt 1.0000 0.0000
vt 0.5000 1.0000
vt 0.0000 0.0000
vt 0.6382 0.0000
vt 0.6382 1.0000
vt 0.0000 1.0000
vt 0.0000 0.0000
vt 0.6382 0.0000
vt 0.6382 1.0000
vt 0.0000 1.0000
vt 0.0000 0.0000
vt 0.6382 0.0000
vt 0.6382 1.0000
vt 0.0000 1.0000
vt 0.0000 0.0000
vt 0.6382 0.0000
vt 0.6382 1.0000
vt 0.0000 1.0000
vt 0.0000 0.0000
vt 0.6382 0.0000
vt 0.6382 1.0000
vt 0.0000 1.0000
vt 0.0000 0.0000
vt 0.6382 0.0000
vt 0.6382 1.0000
vt 0.0000 1.0000
vt 0.0000 0.0000
vt 1.0000 0.0000
vt 0.5000 1.0000
vt 0.0000 0.0000
vt 1.0000 0.0000
vt 0.5000 1.0000
vt 0.0000 0.0000
vt 1.0000 0.0000
vt 0.5000 1.0000
vt 0.0000 0.0000
vt 1.0000 0.0000
vt 0.5000 1.0000
vt 0.0000 0.0000
vt 0.6599 0.0000
vt 0.6599 1.0000
vt 0.0000 1.0000
vt 0.0000 0.0000
vt 0.6599 0.0000
vt 0.6599 1.0000
vt 0.0000 1.0000
vt 0.0000 0.0000
vt 0.6599 0.0000
vt 0.6599 1.0000
vt 0.0000 1.0000
vt 0.0000 0.0000
vt 0.6599 0.0000
vt 0.6599 1.0000
vt 0.0000 1.0000
vt 0.0000 0.0000
vt 0.6599 0.0000
vt 0.6599 1.0000
vt 0.0000 1.0000
vt 0.0000 0.0000
vt 0.6599 0.0000
vt 0.6599 1.0000
vt 0.0000 1.0000
vt 0.0000 0.0000
vt 1.0000 0.0000
vt 0.5000 1.0000
vt 0.0000 0.0000
vt 1.0000 0.0000
vt 0.5000 1.0000
vt 0.0000 0.0000
vt 1.0000 0.0000
vt 0.5000 1.0000
vt 0.0000 0.0000
vt 1.0000 0.0000
vt 0.5000 1.0000
vt 0.0000 0.0000
vt 0.6790 0.0000
vt 0.6790 1.0000
vt 0.0000 1.0000
vt 0.0000 0.0000
vt 0.6790 0.0000
vt 0.6790 1.0000
vt 0.0000 1.0000
vt 0.0000 0.0000
vt 0.6790 0.0000
vt 0.6790 1.0000
vt 0.0000 1.0000
vt 0.0000 0.0000
vt 0.6790 0.0000
vt 0.6790 1.0000
vt 0.0000 1.0000
vt 0.0000 0.0000
vt 0.6790 0.0000
vt 0.6790 1.0000
vt 0.0000 1.0000
vt 0.0000 0.0000
vt 0.6790 0.0000
vt 0.6790 1.0000
vt 0.0000 1.0000
vt 0.0000 0.0000
vt 1.0000 0.0000
vt 0.5000 1.0000
vt 0.0000 0.0000
vt 1.0000 0.0000
vt 0.5000 1.0000
vt 0.0000 0.0000
vt 1.0000 0.0000
vt 0.5000 1.0000
vt 0.0000 0.0000
vt 1.0000 0.0000
vt 0.5000 1.0000
vt 0.0000 0.0000
vt 0.6617 0.0000
vt 0.6617 1.0000
vt 0.0000 1.0000
vt 0.0000 0.0000
vt 0.6617 0.0000
vt 0.6617 1.0000
vt 0.0000 1.0000
vt 0.0000 0.0000
vt 0.6617 0.0000
vt 0.6617 1.0000
vt 0.0000 1.0000
vt 0.0000 0.0000
vt 0.6617 0.0000
vt 0.6617 1.0000
vt 0.0000 1.0000
vt 0.0000 0.0000
vt 0.6617 0.0000
vt 0.6617 1.0000
vt 0.0000 1.0000
vt 0.0000 0.0000
vt 0.6617 0.0000
vt 0.6617 1.0000
vt 0.0000 1.0000
vt 0.0000 0.0000
vt 1.0000 0.0000
vt 0.5000 1.0000
vt 0.0000 0.0000
vt 1.0000 0.0000
vt 0.5000 1.0000
vt 0.0000 0.0000
vt 1.0000 0.0000
vt 0.5000 1.0000
vt 0.0000 0.0000
vt 1.0000 0.0000
vt 0.5000 1.0000
vt 0.0000 0.0000
vt 0.6501 0.0000
vt 0.6501 1.0000
vt 0.0000 1.0000
vt 0.0000 0.0000
vt 0.6501 0.0000
vt 0.6501 1.0000
vt 0.0000 1.0000
vt 0.0000 0.0000
vt 0.6501 0.0000
vt 0.6501 1.0000
vt 0.0000 1.0000
vt 0.0000 0.0000
vt 0.6501 0.0000
vt 0.6501 1.0000
vt 0.0000 1.0000
vt 0.0000 0.0000
vt 0.6501 0.0000
vt 0.6501 1.0000
vt 0.0000 1.0000
vt 0.0000 0.0000
vt 0.6501 0.0000
vt 0.6501 1.0000
vt 0.0000 1.0000
vt 0.0000 0.0000
vt 1.0000 0.0000
vt 0.5000 1.0000
vt 0.0000 0.0000
vt 1.0000 0.0000
vt 0.5000 1.0000
vt 0.0000 0.0000
vt 1.0000 0.0000
vt 0.5000 1.0000
vt 0.0000 0.0000
vt 1.0000 0.0000
vt 0.5000 1.0000
vt 0.0000 0.0000
vt 0.6943 0.0000
vt 0.6943 1.0000
vt 0.0000 1.0000
vt 0.0000 0.0000
vt 0.6943 0.0000
vt 0.6943 1.0000
vt 0.0000 1.0000
vt 0.0000 0.0000
vt 0.6943 0.0000
vt 0.6943 1.0000
vt 0.0000 1.0000
vt 0.0000 0.0000
vt 0.6943 0.0000
vt 0.6943 1.0000
vt 0.0000 1.0000
vt 0.0000 0.0000
vt 0.6943 0.0000
vt 0.6943 1.0000
vt 0.0000 1.0000
vt 0.0000 0.0000
vt 0.6943 0.0000
vt 0.6943 1.0000
vt 0.0000 1.0000
vt 0.0000 0.0000
vt 1.0000 0.0000
vt 0.5000 1.0000
vt 0.0000 0.0000
vt 1.0000 0.0000
vt 0.5000 1.0000
vt 0.0000 0.0000
vt 1.0000 0.0000
vt 0.5000 1.0000
vt 0.0000 0.0000
vt 1.0000 0.0000
vt 0.5000 1.0000
vt 0.0000 0.0000
vt 3.5000 0.0000
vt 3.5000 1.0000
vt 0.0000 1.0000
vt 0.0000 0.0000
vt 3.5000 0.0000
vt 3.5000 1.0000
vt 0.0000 1.0000
vt 0.0000 0.0000
vt 3.5000 0.0000
vt 3.5000 1.0000
vt 0.0000 1.0000
vt 0.0000 0.0000
vt 3.5000 0.0000
vt 3.5000 1.0000
vt 0.0000 1.0000
vt 0.0000 0.0000
vt 3.5000 0.0000
vt 3.5000 1.0000
vt 0.0000 1.0000
vt 0.0000 0.0000
vt 3.5000 0.0000
vt 3.5000 1.0000
vt 0.0000 1.0000
f 1/1 2/2 3/3
f 1/1 3/3 4/4
f 5/5 6/6 7/7
f 5/5 7/7 8/8
f 9/9 10/10 11/11
f 9/9 11/11 12/12
f 13/13 14/14 15/15
f 13/13 15/15 16/16
f 17/17 18/18 19/19
f 17/17 19/19 20/20
f 21/21 22/22 23/23
f 21/21 23/23 24/24
f 25/25 26/26 27/27
f 28/28 29/29 30/30
f 31/31 32/32 33/33
f 34/34 35/35 36/36
f 37/37 38/38 39/39
f 37/37 39/39 40/40
f 41/41 42/42 43/43
f 41/41 43/43 44/44
f 45/45 46/46 47/47
f 45/45 47/47 48/48
f 49/49 50/50 51/51
f 49/49 51/51 52/52
f 53/53 54/54 55/55
f 53/53 55/55 56/56
f 57/57 58/58 59/59
f 57/57 59/59 60/60
f 61/61 62/62 63/63
f 64/64 65/65 66/66
f 67/67 68/68 69/69
f 70/70 71/71 72/72
f 73/73 74/74 75/75
f 73/73 75/75 76/76
f 77/77 78/78 79/79
f 77/77 79/79 80/80
f 81/81 82/82 83/83
f 81/81 83/83 84/84
f 85/85 86/86 87/87
f 85/85 87/87 88/88
f 89/89 90/90 91/91
f 89/89 91/91 92/92
f 93/93 94/94 95/95
f 93/93 95/95 96/96
f 97/97 98/98 99/99
f 100/100 101/101 102/102
f 103/103 104/104 105/105
f 106/106 107/107 108/108
f 109/109 110/110 111/111
f 109/109 111/111 112/112
f 113/113 114/114 115/115
f 113/113 115/115 116/116
f 117/117 118/118 119/119
f 117/117 119/119 120/120
f 121/121 122/122 123/123
f 121/121 123/123 124/124
f 125/125 126/126 127/127
f 125/125 127/127 128/128
f 129/129 130/130 131/131
f 129/129 131/131 132/132
f 133/133 134/134 135/135
f 136/136 137/137 138/138
f 139/139 140/140 141/141
f 142/142 143/143 144/144
f 145/145 146/146 147/147
f 145/145 147/147 148/148
f 149/149 150/150 151/151
f 149/149 151/151 152/152
f 153/153 154/154 155/155
f 153/153 155/155 156/156
f 157/157 158/158 159/159
f 157/157 159/159 160/160
f 161/161 162/162 163/163
f 161/161 163/163 164/164
f 165/165 166/166 167/167
f 165/165 167/167 168/168
f 169/169 170/170 171/171
f 172/172 173/173 174/174
f 175/175 176/176 177/177
f 178/178 179/179 180/180
f 181/181 182/182 183/183
f 181/181 183/183 184/184
f 185/185 186/186 187/187
f 185/185 187/187 188/188
f 189/189 190/190 191/191
f 189/189 191/191 192/192
f 193/193 194/194 195/195
f 193/193 195/195 196/196
f 197/197 198/198 199/199
f 197/197 199/199 200/200
f 201/201 202/202 203/203
f 201/201 203/203 204/204
f 205/205 206/206 207/207
f 208/208 209/209 210/210
f 211/211 212/212 213/213
f 214/214 215/215 216/216
f 217/217 218/218 219/219
f 217/217 219/219 220/220
f 221/221 222/222 223/223
f 221/221 223/223 224/224
f 225/225 226/226 227/227
f 225/225 227/227 228/228
f 229/229 230/230 231/231
f 229/229 231/231 232/232
f 233/233 234/234 235/235
f 233/233 235/235 236/236
f 237/237 238/238 239/239
f 237/237 239/239 240/240
f 241/241 242/242 243/243
f 244/244 245/245 246/246
f 247/247 248/248 249/249
f 250/250 251/251 252/252
f 253/253 254/254 255/255
f 253/253 255/255 256/256
f 257/257 258/258 259/259
f 257/257 259/259 260/260
f 261/261 262/262 263/263
f 261/261 263/263 264/264
f 265/265 266/266 267/267
f 265/265 267/267 268/268
f 269/269 270/270 271/271
f 269/269 271/271 272/272
f 273/273 274/274 275/275
f 273/273 275/275 276/276
f 277/277 278/278 279/279
f 280/280 281/281 282/282
f 283/283 284/284 285/285
f 286/286 287/287 288/288
f 289/289 290/290 291/291
f 289/289 291/291 292/292
f 293/293 294/294 295/295
f 293/293 295/295 296/296
f 297/297 298/298 299/299
f 297/297 299/299 300/300
f 301/301 302/302 303/303
f 301/301 303/303 304/304
f 305/305 306/306 307/307
f 305/305 307/307 308/308
f 309/309 310/310 311/311
f 309/309 311/311 312/312
f 313/313 314/314 315/315
f 316/316 317/317 318/318
f 319/319 320/320 321/321
f 322/322 323/323 324/324
f 325/325 326/326 327/327
f 325/325 327/327 328/328
f 329/329 330/330 331/331
f 329/329 331/331 332/332
f 333/333 334/334 335/335
f 333/333 335/335 336/336
f 337/337 338/338 339/339
f 337/337 339/339 340/340
f 341/341 342/342 343/343
f 341/341 343/343 344/344
f 345/345 346/346 347/347
f 345/345 347/347 348/348
f 349/349 350/350 351/351
f 352/352 353/353 354/354
f 355/355 356/356 357/357
f 358/358 359/359 360/360
f 361/361 362/362 363/363
f 361/361 363/363 364/364
f 365/365 366/366 367/367
f 365/365 367/367 368/368
f 369/369 370/370 371/371
f 369/369 371/371 372/372
f 373/373 374/374 375/375
f 373/373 375/375 376/376
f 377/377 378/378 379/379
f 377/377 379/379 380/380
f 381/381 382/382 383/383
f 381/381 383/383 384/384
f 385/385 386/386 387/387
f 388/388 389/389 390/390
f 391/391 392/392 393/393
f 394/394 395/395 396/396
f 397/397 398/398 399/399
f 397/397 399/399 400/400
f 401/401 402/402 403/403
f 401/401 403/403 404/404
f 405/405 406/406 407/407
f 405/405 407/407 408/408
f 409/409 410/410 411/411
f 409/409 411/411 412/412
f 413/413 414/414 415/415
f 413/413 415/415 416/416
f 417/417 418/418 419/419
f 417/417 419/419 420/420
f 421/421 422/422 423/423
f 424/424 425/425 426/426
f 427/427 428/428 429/429
f 430/430 431/431 432/432
f 433/433 434/434 435/435
f 433/433 435/435 436/436
f 437/437 438/438 439/439
f 437/437 439/439 440/440
f 441/441 442/442 443/443
f 441/441 443/443 444/444
f 445/445 446/446 447/447
f 445/445 447/447 448/448
f 449/449 450/450 451/451
f 449/449 451/451 452/452
f 453/453 454/454 455/455
f 453/453 455/455 456/456
f 457/457 458/458 459/459
f 460/460 461/461 462/462
f 463/463 464/464 465/465
f 466/466 467/467 468/468
f 469/469 470/470 471/471
f 469/469 471/471 472/472
f 473/473 474/474 475/475
f 473/473 475/475 476/476
f 477/477 478/478 479/479
f 477/477 479/479 480/480
f 481/481 482/482 483/483
f 481/481 483/483 484/484
f 485/485 486/486 487/487
f 485/485 487/487 488/488
f 489/489 490/490 491/491
f 489/489 491/491 492/492
f 493/493 494/494 495/495
f 496/496 497/497 498/498
f 499/499 500/500 501/501
f 502/502 503/503 504/504
f 505/505 506/506 507/507
f 505/505 507/507 508/508
f 509/509 510/510 511/511
f 509/509 511/511 512/512
f 513/513 514/514 515/515
f 513/513 515/515 516/516
f 517/517 518/518 519/519
f 517/517 519/519 520/520
f 521/521 522/522 523/523
f 521/521 523/523 524/524
f 525/525 526/526 527/527
f 525/525 527/527 528/528
f 529/529 530/530 531/531
f 532/532 533/533 534/534
f 535/535 536/536 537/537
f 538/538 539/539 540/540
f 541/541 542/542 543/543
f 541/541 543/543 544/544
f 545/545 546/546 547/547
f 545/545 547/547 548/548
f 549/549 550/550 551/551
f 549/549 551/551 552/552
f 553/553 554/554 555/555
f 553/553 555/555 556/556
f 557/557 558/558 559/559
f 557/557 559/559 560/560
f 561/561 562/562 563/563
f 561/561 563/563 564/564
f 565/565 566/566 567/567
f 568/568 569/569 570/570
f 571/571 572/572 573/573
f 574/574 575/575 576/576
f 577/577 578/578 579/579
f 577/577 579/579 580/580
f 581/581 582/582 583/583
f 581/581 583/583 584/584
f 585/585 586/586 587/587
f 585/585 587/587 588/588
f 589/589 590/590 591/591
f 589/589 591/591 592/592
f 593/593 594/594 595/595
f 593/593 595/595 596/596
f 597/597 598/598 599/599
f 597/597 599/599 600/600
f 601/601 602/602 603/603
f 604/604 605/605 606/606
f 607/607 608/608 609/609
f 610/610 611/611 612/612
f 613/613 614/614 615/615
f 613/613 615/615 616/616
f 617/617 618/618 619/619
f 617/617 619/619 620/620
f 621/621 622/622 623/623
f 621/621 623/623 624/624
f 625/625 626/626 627/627
f 625/625 627/627 628/628
f 629/629 630/630 631/631
f 629/629 631/631 632/632
f 633/633 634/634 635/635
f 633/633 635/635 636/636
f 637/637 638/638 639/639
f 640/640 641/641 642/642
f 643/643 644/644 645/645
f 646/646 647/647 648/648
f 649/649 650/650 651/651
f 649/649 651/651 652/652
f 653/653 654/654 655/655
f 653/653 655/655 656/656
f 657/657 658/658 659/659
f 657/657 659/659 660/660
f 661/661 662/662 663/663
f 661/661 663/663 664/664
f 665/665 666/666 667/667
f 665/665 667/667 668/668
f 669/669 670/670 671/671
f 669/669 671/671 672/672
f 673/673 674/674 675/675
f 676/676 677/677 678/678
f 679/679 680/680 681/681
f 682/682 683/683 684/684
f 685/685 686/686 687/687
f 685/685 687/687 688/688
f 689/689 690/690 691/691
f 689/689 691/691 692/692
f 693/693 694/694 695/695
f 693/693 695/695 696/696
f 697/697 698/698 699/699
f 697/697 699/699 700/700
f 701/701 702/702 703/703
f 701/701 703/703 704/704
f 705/705 706/706 707/707
f 705/705 707/707 708/708
f 709/709 710/710 711/711
f 712/712 713/713 714/714
f 715/715 716/716 717/717
f 718/718 719/719 720/720
f 721/721 722/722 723/723
f 721/721 723/723 724/724
f 725/725 726/726 727/727
f 725/725 727/727 728/728
f 729/729 730/730 731/731
f 729/729 731/731 732/732
f 733/733 734/734 735/735
f 733/733 735/735 736/736
f 737/737 738/738 739/739
f 737/737 739/739 740/740
f 741/741 742/742 743/743
f 741/741 743/743 744/744
f 745/745 746/746 747/747
f 748/748 749/749 750/750
f 751/751 752/752 753/753
f 754/754 755/755 756/756
f 757/757 758/758 759/759
f 757/757 759/759 760/760
f 761/761 762/762 763/763
f 761/761 763/763 764/764
f 765/765 766/766 767/767
f 765/765 767/767 768/768
f 769/769 770/770 771/771
f 769/769 771/771 772/772
f 773/773 774/774 775/775
f 773/773 775/775 776/776
f 777/777 778/778 779/779
f 777/777 779/779 780/780
f 781/781 782/782 783/783
f 784/784 785/785 786/786
f 787/787 788/788 789/789
f 790/790 791/791 792/792
f 793/793 794/794 795/795
f 793/793 795/795 796/796
f 797/797 798/798 799/799
f 797/797 799/799 800/800
f 801/801 802/802 803/803
f 801/801 803/803 804/804
f 805/805 806/806 807/807
f 805/805 807/807 808/808
f 809/809 810/810 811/811
f 809/809 811/811 812/812
f 813/813 814/814 815/815
f 813/813 815/815 816/816
