g ruine
v -2.4000 0.1000 -1.8000
v 2.4000 0.1000 -1.8000
v 2.4000 0.1000 1.8000
v -2.4000 0.1000 1.8000
v -2.4000 0.0000 -1.8000
v -2.4000 0.1000 -1.8000
v 2.4000 0.1000 -1.8000
v 2.4000 0.0000 -1.8000
v 2.4000 0.0000 1.8000
v 2.4000 0.1000 1.8000
v -2.4000 0.1000 1.8000
v -2.4000 0.0000 1.8000
v -2.4000 0.0000 1.8000
v -2.4000 0.1000 1.8000
v -2.4000 0.1000 -1.8000
v -2.4000 0.0000 -1.8000
v 2.4000 0.0000 -1.8000
v 2.4000 0.1000 -1.8000
v 2.4000 0.1000 1.8000
v 2.4000 0.0000 1.8000
v -2.4000 0.0000 -1.8000
v -2.4000 1.1880 -1.8000
v -1.6625 1.1880 -1.8000
v -1.6625 0.0000 -1.8000
v -1.6625 0.0000 -1.2500
v -1.6625 1.1880 -1.2500
v -2.4000 1.1880 -1.2500
v -2.4000 0.0000 -1.2500
v -2.4000 0.0000 -1.2500
v -2.4000 1.1880 -1.2500
v -2.4000 1.1880 -1.8000
v -2.4000 0.0000 -1.8000
v -1.6625 0.0000 -1.8000
v -1.6625 1.1880 -1.8000
v -1.6625 1.1880 -1.2500
v -1.6625 0.0000 -1.2500
v -2.4000 1.1880 -1.8000
v -1.6625 1.3602 -1.8000
v -1.6625 1.3602 -1.2500
v -2.4000 1.1880 -1.2500
v -2.4000 1.1880 -1.8000
v -2.4000 1.1880 -1.8000
v -1.6625 1.3602 -1.8000
v -1.6625 1.1880 -1.8000
v -1.6625 1.1880 -1.2500
v -1.6625 1.3602 -1.2500
v -2.4000 1.1880 -1.2500
v -2.4000 1.1880 -1.2500
v -1.6625 0.0000 -1.8000
v -1.6625 1.8852 -1.8000
v -0.9250 1.8852 -1.8000
v -0.9250 0.0000 -1.8000
v -0.9250 0.0000 -1.2500
v -0.9250 1.8852 -1.2500
v -1.6625 1.8852 -1.2500
v -1.6625 0.0000 -1.2500
v -1.6625 0.0000 -1.2500
v -1.6625 1.8852 -1.2500
v -1.6625 1.8852 -1.8000
v -1.6625 0.0000 -1.8000
v -0.9250 0.0000 -1.8000
v -0.9250 1.8852 -1.8000
v -0.9250 1.8852 -1.2500
v -0.9250 0.0000 -1.2500
v -1.6625 2.2048 -1.8000
v -0.9250 1.8852 -1.8000
v -0.9250 1.8852 -1.2500
v -1.6625 2.2048 -1.2500
v -1.6625 1.8852 -1.8000
v -1.6625 2.2048 -1.8000
v -0.9250 1.8852 -1.8000
v -0.9250 1.8852 -1.8000
v -0.9250 1.8852 -1.2500
v -0.9250 1.8852 -1.2500
v -1.6625 2.2048 -1.2500
v -1.6625 1.8852 -1.2500
v -0.9250 0.0000 -1.8000
v -0.9250 1.0557 -1.8000
v -0.1875 1.0557 -1.8000
v -0.1875 0.0000 -1.8000
v -0.1875 0.0000 -1.2500
v -0.1875 1.0557 -1.2500
v -0.9250 1.0557 -1.2500
v -0.9250 0.0000 -1.2500
v -0.9250 0.0000 -1.2500
v -0.9250 1.0557 -1.2500
v -0.9250 1.0557 -1.8000
v -0.9250 0.0000 -1.8000
v -0.1875 0.0000 -1.8000
v -0.1875 1.0557 -1.8000
v -0.1875 1.0557 -1.2500
v -0.1875 0.0000 -1.2500
v -0.9250 1.0557 -1.8000
v -0.1875 1.0967 -1.8000
v -0.1875 1.0967 -1.2500
v -0.9250 1.0557 -1.2500
v -0.9250 1.0557 -1.8000
v -0.9250 1.0557 -1.8000
v -0.1875 1.0967 -1.8000
v -0.1875 1.0557 -1.8000
v -0.1875 1.0557 -1.2500
v -0.1875 1.0967 -1.2500
v -0.9250 1.0557 -1.2500
v -0.9250 1.0557 -1.2500
v -0.1875 0.0000 -1.8000
v -0.1875 1.6102 -1.8000
v 0.5500 1.6102 -1.8000
v 0.5500 0.0000 -1.8000
v 0.5500 0.0000 -1.2500
v 0.5500 1.6102 -1.2500
v -0.1875 1.6102 -1.2500
v -0.1875 0.0000 -1.2500
v -0.1875 0.0000 -1.2500
v -0.1875 1.6102 -1.2500
v -0.1875 1.6102 -1.8000
v -0.1875 0.0000 -1.8000
v 0.5500 0.0000 -1.8000
v 0.5500 1.6102 -1.8000
v 0.5500 1.6102 -1.2500
v 0.5500 0.0000 -1.2500
v -0.1875 1.6102 -1.8000
v 0.5500 1.8404 -1.8000
v 0.5500 1.8404 -1.2500
v -0.1875 1.6102 -1.2500
v -0.1875 1.6102 -1.8000
v -0.1875 1.6102 -1.8000
v 0.5500 1.8404 -1.8000
v 0.5500 1.6102 -1.8000
v 0.5500 1.6102 -1.2500
v 0.5500 1.8404 -1.2500
v -0.1875 1.6102 -1.2500
v -0.1875 1.6102 -1.2500
v 1.2500 0.0000 -1.8000
v 1.2500 1.2665 -1.8000
v 1.8250 1.2665 -1.8000
v 1.8250 0.0000 -1.8000
v 1.8250 0.0000 -1.2500
v 1.8250 1.2665 -1.2500
v 1.2500 1.2665 -1.2500
v 1.2500 0.0000 -1.2500
v 1.2500 0.0000 -1.2500
v 1.2500 1.2665 -1.2500
v 1.2500 1.2665 -1.8000
v 1.2500 0.0000 -1.8000
v 1.8250 0.0000 -1.8000
v 1.8250 1.2665 -1.8000
v 1.8250 1.2665 -1.2500
v 1.8250 0.0000 -1.2500
v 1.2500 1.2665 -1.8000
v 1.8250 1.4206 -1.8000
v 1.8250 1.4206 -1.2500
v 1.2500 1.2665 -1.2500
v 1.2500 1.2665 -1.8000
v 1.2500 1.2665 -1.8000
v 1.8250 1.4206 -1.8000
v 1.8250 1.2665 -1.8000
v 1.8250 1.2665 -1.2500
v 1.8250 1.4206 -1.2500
v 1.2500 1.2665 -1.2500
v 1.2500 1.2665 -1.2500
v 1.8250 0.0000 -1.8000
v 1.8250 0.6240 -1.8000
v 2.4000 0.6240 -1.8000
v 2.4000 0.0000 -1.8000
v 2.4000 0.0000 -1.2500
v 2.4000 0.6240 -1.2500
v 1.8250 0.6240 -1.2500
v 1.8250 0.0000 -1.2500
v 1.8250 0.0000 -1.2500
v 1.8250 0.6240 -1.2500
v 1.8250 0.6240 -1.8000
v 1.8250 0.0000 -1.8000
v 2.4000 0.0000 -1.8000
v 2.4000 0.6240 -1.8000
v 2.4000 0.6240 -1.2500
v 2.4000 0.0000 -1.2500
v 1.8250 0.7722 -1.8000
v 2.4000 0.6240 -1.8000
v 2.4000 0.6240 -1.2500
v 1.8250 0.7722 -1.2500
v 1.8250 0.6240 -1.8000
v 1.8250 0.7722 -1.8000
v 2.4000 0.6240 -1.8000
v 2.4000 0.6240 -1.8000
v 2.4000 0.6240 -1.2500
v 2.4000 0.6240 -1.2500
v 1.8250 0.7722 -1.2500
v 1.8250 0.6240 -1.2500
v -2.4000 0.0000 1.2500
v -2.4000 1.1458 1.2500
v -1.8833 1.1458 1.2500
v -1.8833 0.0000 1.2500
v -1.8833 0.0000 1.8000
v -1.8833 1.1458 1.8000
v -2.4000 1.1458 1.8000
v -2.4000 0.0000 1.8000
v -2.4000 0.0000 1.8000
v -2.4000 1.1458 1.8000
v -2.4000 1.1458 1.2500
v -2.4000 0.0000 1.2500
v -1.8833 0.0000 1.2500
v -1.8833 1.1458 1.2500
v -1.8833 1.1458 1.8000
v -1.8833 0.0000 1.8000
v -2.4000 1.1916 1.2500
v -1.8833 1.1458 1.2500
v -1.8833 1.1458 1.8000
v -2.4000 1.1916 1.8000
v -2.4000 1.1458 1.2500
v -2.4000 1.1916 1.2500
v -1.8833 1.1458 1.2500
v -1.8833 1.1458 1.2500
v -1.8833 1.1458 1.8000
v -1.8833 1.1458 1.8000
v -2.4000 1.1916 1.8000
v -2.4000 1.1458 1.8000
v -1.8833 0.0000 1.2500
v -1.8833 1.2514 1.2500
v -1.3667 1.2514 1.2500
v -1.3667 0.0000 1.2500
v -1.3667 0.0000 1.8000
v -1.3667 1.2514 1.8000
v -1.8833 1.2514 1.8000
v -1.8833 0.0000 1.8000
v -1.8833 0.0000 1.8000
v -1.8833 1.2514 1.8000
v -1.8833 1.2514 1.2500
v -1.8833 0.0000 1.2500
v -1.3667 0.0000 1.2500
v -1.3667 1.2514 1.2500
v -1.3667 1.2514 1.8000
v -1.3667 0.0000 1.8000
v -1.8833 1.4987 1.2500
v -1.3667 1.2514 1.2500
v -1.3667 1.2514 1.8000
v -1.8833 1.4987 1.8000
v -1.8833 1.2514 1.2500
v -1.8833 1.4987 1.2500
v -1.3667 1.2514 1.2500
v -1.3667 1.2514 1.2500
v -1.3667 1.2514 1.8000
v -1.3667 1.2514 1.8000
v -1.8833 1.4987 1.8000
v -1.8833 1.2514 1.8000
v -1.3667 0.0000 1.2500
v -1.3667 1.6274 1.2500
v -0.8500 1.6274 1.2500
v -0.8500 0.0000 1.2500
v -0.8500 0.0000 1.8000
v -0.8500 1.6274 1.8000
v -1.3667 1.6274 1.8000
v -1.3667 0.0000 1.8000
v -1.3667 0.0000 1.8000
v -1.3667 1.6274 1.8000
v -1.3667 1.6274 1.2500
v -1.3667 0.0000 1.2500
v -0.8500 0.0000 1.2500
v -0.8500 1.6274 1.2500
v -0.8500 1.6274 1.8000
v -0.8500 0.0000 1.8000
v -1.3667 1.6274 1.2500
v -0.8500 1.8512 1.2500
v -0.8500 1.8512 1.8000
v -1.3667 1.6274 1.8000
v -1.3667 1.6274 1.2500
v -1.3667 1.6274 1.2500
v -0.8500 1.8512 1.2500
v -0.8500 1.6274 1.2500
v -0.8500 1.6274 1.8000
v -0.8500 1.8512 1.8000
v -1.3667 1.6274 1.8000
v -1.3667 1.6274 1.8000
v 0.3500 0.0000 1.2500
v 0.3500 1.6197 1.2500
v 1.0333 1.6197 1.2500
v 1.0333 0.0000 1.2500
v 1.0333 0.0000 1.8000
v 1.0333 1.6197 1.8000
v 0.3500 1.6197 1.8000
v 0.3500 0.0000 1.8000
v 0.3500 0.0000 1.8000
v 0.3500 1.6197 1.8000
v 0.3500 1.6197 1.2500
v 0.3500 0.0000 1.2500
v 1.0333 0.0000 1.2500
v 1.0333 1.6197 1.2500
v 1.0333 1.6197 1.8000
v 1.0333 0.0000 1.8000
v 0.3500 1.9242 1.2500
v 1.0333 1.6197 1.2500
v 1.0333 1.6197 1.8000
v 0.3500 1.9242 1.8000
v 0.3500 1.6197 1.2500
v 0.3500 1.9242 1.2500
v 1.0333 1.6197 1.2500
v 1.0333 1.6197 1.2500
v 1.0333 1.6197 1.8000
v 1.0333 1.6197 1.8000
v 0.3500 1.9242 1.8000
v 0.3500 1.6197 1.8000
v 1.0333 0.0000 1.2500
v 1.0333 2.3948 1.2500
v 1.7167 2.3948 1.2500
v 1.7167 0.0000 1.2500
v 1.7167 0.0000 1.8000
v 1.7167 2.3948 1.8000
v 1.0333 2.3948 1.8000
v 1.0333 0.0000 1.8000
v 1.0333 0.0000 1.8000
v 1.0333 2.3948 1.8000
v 1.0333 2.3948 1.2500
v 1.0333 0.0000 1.2500
v 1.7167 0.0000 1.2500
v 1.7167 2.3948 1.2500
v 1.7167 2.3948 1.8000
v 1.7167 0.0000 1.8000
v 1.0333 2.3948 1.2500
v 1.7167 2.6957 1.2500
v 1.7167 2.6957 1.8000
v 1.0333 2.3948 1.8000
v 1.0333 2.3948 1.2500
v 1.0333 2.3948 1.2500
v 1.7167 2.6957 1.2500
v 1.7167 2.3948 1.2500
v 1.7167 2.3948 1.8000
v 1.7167 2.6957 1.8000
v 1.0333 2.3948 1.8000
v 1.0333 2.3948 1.8000
v 1.7167 0.0000 1.2500
v 1.7167 1.7187 1.2500
v 2.4000 1.7187 1.2500
v 2.4000 0.0000 1.2500
v 2.4000 0.0000 1.8000
v 2.4000 1.7187 1.8000
v 1.7167 1.7187 1.8000
v 1.7167 0.0000 1.8000
v 1.7167 0.0000 1.8000
v 1.7167 1.7187 1.8000
v 1.7167 1.7187 1.2500
v 1.7167 0.0000 1.2500
v 2.4000 0.0000 1.2500
v 2.4000 1.7187 1.2500
v 2.4000 1.7187 1.8000
v 2.4000 0.0000 1.8000
v 1.7167 2.0227 1.2500
v 2.4000 1.7187 1.2500
v 2.4000 1.7187 1.8000
v 1.7167 2.0227 1.8000
v 1.7167 1.7187 1.2500
v 1.7167 2.0227 1.2500
v 2.4000 1.7187 1.2500
v 2.4000 1.7187 1.2500
v 2.4000 1.7187 1.8000
v 2.4000 1.7187 1.8000
v 1.7167 2.0227 1.8000
v 1.7167 1.7187 1.8000
v -2.4000 0.0000 -1.2500
v -2.4000 1.0809 -1.2500
v -1.8500 1.0809 -1.2500
v -1.8500 0.0000 -1.2500
v -1.8500 0.0000 -0.6333
v -1.8500 1.0809 -0.6333
v -2.4000 1.0809 -0.6333
v -2.4000 0.0000 -0.6333
v -2.4000 0.0000 -0.6333
v -2.4000 1.0809 -0.6333
v -2.4000 1.0809 -1.2500
v -2.4000 0.0000 -1.2500
v -1.8500 0.0000 -1.2500
v -1.8500 1.0809 -1.2500
v -1.8500 1.0809 -0.6333
v -1.8500 0.0000 -0.6333
v -2.4000 1.1060 -1.2500
v -1.8500 1.1060 -1.2500
v -1.8500 1.0809 -0.6333
v -2.4000 1.0809 -0.6333
v -2.4000 1.0809 -1.2500
v -2.4000 1.1060 -1.2500
v -2.4000 1.0809 -0.6333
v -2.4000 1.0809 -0.6333
v -1.8500 1.0809 -0.6333
v -1.8500 1.0809 -0.6333
v -1.8500 1.1060 -1.2500
v -1.8500 1.0809 -1.2500
v -2.4000 0.0000 -0.6333
v -2.4000 1.8661 -0.6333
v -1.8500 1.8661 -0.6333
v -1.8500 0.0000 -0.6333
v -1.8500 0.0000 -0.0167
v -1.8500 1.8661 -0.0167
v -2.4000 1.8661 -0.0167
v -2.4000 0.0000 -0.0167
v -2.4000 0.0000 -0.0167
v -2.4000 1.8661 -0.0167
v -2.4000 1.8661 -0.6333
v -2.4000 0.0000 -0.6333
v -1.8500 0.0000 -0.6333
v -1.8500 1.8661 -0.6333
v -1.8500 1.8661 -0.0167
v -1.8500 0.0000 -0.0167
v -2.4000 1.8661 -0.6333
v -1.8500 1.8661 -0.6333
v -1.8500 2.1168 -0.0167
v -2.4000 2.1168 -0.0167
v -2.4000 1.8661 -0.6333
v -2.4000 1.8661 -0.6333
v -2.4000 2.1168 -0.0167
v -2.4000 1.8661 -0.0167
v -1.8500 1.8661 -0.0167
v -1.8500 2.1168 -0.0167
v -1.8500 1.8661 -0.6333
v -1.8500 1.8661 -0.6333
v -2.4000 0.0000 -0.0167
v -2.4000 1.2542 -0.0167
v -1.8500 1.2542 -0.0167
v -1.8500 0.0000 -0.0167
v -1.8500 0.0000 0.6000
v -1.8500 1.2542 0.6000
v -2.4000 1.2542 0.6000
v -2.4000 0.0000 0.6000
v -2.4000 0.0000 0.6000
v -2.4000 1.2542 0.6000
v -2.4000 1.2542 -0.0167
v -2.4000 0.0000 -0.0167
v -1.8500 0.0000 -0.0167
v -1.8500 1.2542 -0.0167
v -1.8500 1.2542 0.6000
v -1.8500 0.0000 0.6000
v -2.4000 1.4366 -0.0167
v -1.8500 1.4366 -0.0167
v -1.8500 1.2542 0.6000
v -2.4000 1.2542 0.6000
v -2.4000 1.2542 -0.0167
v -2.4000 1.4366 -0.0167
v -2.4000 1.2542 0.6000
v -2.4000 1.2542 0.6000
v -1.8500 1.2542 0.6000
v -1.8500 1.2542 0.6000
v -1.8500 1.4366 -0.0167
v -1.8500 1.2542 -0.0167
v 1.8500 0.0000 -0.7000
v 1.8500 0.7300 -0.7000
v 2.4000 0.7300 -0.7000
v 2.4000 0.0000 -0.7000
v 2.4000 0.0000 -0.0500
v 2.4000 0.7300 -0.0500
v 1.8500 0.7300 -0.0500
v 1.8500 0.0000 -0.0500
v 1.8500 0.0000 -0.0500
v 1.8500 0.7300 -0.0500
v 1.8500 0.7300 -0.7000
v 1.8500 0.0000 -0.7000
v 2.4000 0.0000 -0.7000
v 2.4000 0.7300 -0.7000
v 2.4000 0.7300 -0.0500
v 2.4000 0.0000 -0.0500
v 1.8500 0.8059 -0.7000
v 2.4000 0.8059 -0.7000
v 2.4000 0.7300 -0.0500
v 1.8500 0.7300 -0.0500
v 1.8500 0.7300 -0.7000
v 1.8500 0.8059 -0.7000
v 1.8500 0.7300 -0.0500
v 1.8500 0.7300 -0.0500
v 2.4000 0.7300 -0.0500
v 2.4000 0.7300 -0.0500
v 2.4000 0.8059 -0.7000
v 2.4000 0.7300 -0.7000
v 1.8500 0.0000 -0.0500
v 1.8500 1.2782 -0.0500
v 2.4000 1.2782 -0.0500
v 2.4000 0.0000 -0.0500
v 2.4000 0.0000 0.6000
v 2.4000 1.2782 0.6000
v 1.8500 1.2782 0.6000
v 1.8500 0.0000 0.6000
v 1.8500 0.0000 0.6000
v 1.8500 1.2782 0.6000
v 1.8500 1.2782 -0.0500
v 1.8500 0.0000 -0.0500
v 2.4000 0.0000 -0.0500
v 2.4000 1.2782 -0.0500
v 2.4000 1.2782 0.6000
v 2.4000 0.0000 0.6000
v 1.8500 1.2782 -0.0500
v 2.4000 1.2782 -0.0500
v 2.4000 1.3890 0.6000
v 1.8500 1.3890 0.6000
v 1.8500 1.2782 -0.0500
v 1.8500 1.2782 -0.0500
v 1.8500 1.3890 0.6000
v 1.8500 1.2782 0.6000
v 2.4000 1.2782 0.6000
v 2.4000 1.3890 0.6000
v 2.4000 1.2782 -0.0500
v 2.4000 1.2782 -0.0500
v 1.8500 0.0000 0.6000
v 1.8500 0.9916 0.6000
v 2.4000 0.9916 0.6000
v 2.4000 0.0000 0.6000
v 2.4000 0.0000 1.2500
v 2.4000 0.9916 1.2500
v 1.8500 0.9916 1.2500
v 1.8500 0.0000 1.2500
v 1.8500 0.0000 1.2500
v 1.8500 0.9916 1.2500
v 1.8500 0.9916 0.6000
v 1.8500 0.0000 0.6000
v 2.4000 0.0000 0.6000
v 2.4000 0.9916 0.6000
v 2.4000 0.9916 1.2500
v 2.4000 0.0000 1.2500
v 1.8500 0.9916 0.6000
v 2.4000 0.9916 0.6000
v 2.4000 1.0171 1.2500
v 1.8500 1.0171 1.2500
v 1.8500 0.9916 0.6000
v 1.8500 0.9916 0.6000
v 1.8500 1.0171 1.2500
v 1.8500 0.9916 1.2500
v 2.4000 0.9916 1.2500
v 2.4000 1.0171 1.2500
v 2.4000 0.9916 0.6000
v 2.4000 0.9916 0.6000
v -0.6000 0.0000 -0.4000
v -0.6000 1.0009 -0.4000
v 0.0667 1.0009 -0.4000
v 0.0667 0.0000 -0.4000
v 0.0667 0.0000 0.0400
v 0.0667 1.0009 0.0400
v -0.6000 1.0009 0.0400
v -0.6000 0.0000 0.0400
v -0.6000 0.0000 0.0400
v -0.6000 1.0009 0.0400
v -0.6000 1.0009 -0.4000
v -0.6000 0.0000 -0.4000
v 0.0667 0.0000 -0.4000
v 0.0667 1.0009 -0.4000
v 0.0667 1.0009 0.0400
v 0.0667 0.0000 0.0400
v -0.6000 1.0009 -0.4000
v 0.0667 1.1016 -0.4000
v 0.0667 1.1016 0.0400
v -0.6000 1.0009 0.0400
v -0.6000 1.0009 -0.4000
v -0.6000 1.0009 -0.4000
v 0.0667 1.1016 -0.4000
v 0.0667 1.0009 -0.4000
v 0.0667 1.0009 0.0400
v 0.0667 1.1016 0.0400
v -0.6000 1.0009 0.0400
v -0.6000 1.0009 0.0400
v 0.0667 0.0000 -0.4000
v 0.0667 0.5417 -0.4000
v 0.7333 0.5417 -0.4000
v 0.7333 0.0000 -0.4000
v 0.7333 0.0000 0.0400
v 0.7333 0.5417 0.0400
v 0.0667 0.5417 0.0400
v 0.0667 0.0000 0.0400
v 0.0667 0.0000 0.0400
v 0.0667 0.5417 0.0400
v 0.0667 0.5417 -0.4000
v 0.0667 0.0000 -0.4000
v 0.7333 0.0000 -0.4000
v 0.7333 0.5417 -0.4000
v 0.7333 0.5417 0.0400
v 0.7333 0.0000 0.0400
v 0.0667 0.5796 -0.4000
v 0.7333 0.5417 -0.4000
v 0.7333 0.5417 0.0400
v 0.0667 0.5796 0.0400
v 0.0667 0.5417 -0.4000
v 0.0667 0.5796 -0.4000
v 0.7333 0.5417 -0.4000
v 0.7333 0.5417 -0.4000
v 0.7333 0.5417 0.0400
v 0.7333 0.5417 0.0400
v 0.0667 0.5796 0.0400
v 0.0667 0.5417 0.0400
v 0.7333 0.0000 -0.4000
v 0.7333 0.7012 -0.4000
v 1.4000 0.7012 -0.4000
v 1.4000 0.0000 -0.4000
v 1.4000 0.0000 0.0400
v 1.4000 0.7012 0.0400
v 0.7333 0.7012 0.0400
v 0.7333 0.0000 0.0400
v 0.7333 0.0000 0.0400
v 0.7333 0.7012 0.0400
v 0.7333 0.7012 -0.4000
v 0.7333 0.0000 -0.4000
v 1.4000 0.0000 -0.4000
v 1.4000 0.7012 -0.4000
v 1.4000 0.7012 0.0400
v 1.4000 0.0000 0.0400
v 0.7333 0.8083 -0.4000
v 1.4000 0.7012 -0.4000
v 1.4000 0.7012 0.0400
v 0.7333 0.8083 0.0400
v 0.7333 0.7012 -0.4000
v 0.7333 0.8083 -0.4000
v 1.4000 0.7012 -0.4000
v 1.4000 0.7012 -0.4000
v 1.4000 0.7012 0.0400
v 1.4000 0.7012 0.0400
v 0.7333 0.8083 0.0400
v 0.7333 0.7012 0.0400
v -1.1107 0.1390 0.8892
v -0.8971 0.1390 0.8892
v -0.8971 0.1390 1.2214
v -1.1107 0.1390 1.2214
v -1.1107 0.0000 0.8892
v -1.1107 0.1390 0.8892
v -0.8971 0.1390 0.8892
v -0.8971 0.0000 0.8892
v -0.8971 0.0000 1.2214
v -0.8971 0.1390 1.2214
v -1.1107 0.1390 1.2214
v -1.1107 0.0000 1.2214
v -1.1107 0.0000 1.2214
v -1.1107 0.1390 1.2214
v -1.1107 0.1390 0.8892
v -1.1107 0.0000 0.8892
v -0.8971 0.0000 0.8892
v -0.8971 0.1390 0.8892
v -0.8971 0.1390 1.2214
v -0.8971 0.0000 1.2214
v 1.4127 0.1371 -0.4858
v 1.6076 0.1371 -0.4858
v 1.6076 0.1371 -0.1462
v 1.4127 0.1371 -0.1462
v 1.4127 0.0000 -0.4858
v 1.4127 0.1371 -0.4858
v 1.6076 0.1371 -0.4858
v 1.6076 0.0000 -0.4858
v 1.6076 0.0000 -0.1462
v 1.6076 0.1371 -0.1462
v 1.4127 0.1371 -0.1462
v 1.4127 0.0000 -0.1462
v 1.4127 0.0000 -0.1462
v 1.4127 0.1371 -0.1462
v 1.4127 0.1371 -0.4858
v 1.4127 0.0000 -0.4858
v 1.6076 0.0000 -0.4858
v 1.6076 0.1371 -0.4858
v 1.6076 0.1371 -0.1462
v 1.6076 0.0000 -0.1462
v 0.2671 0.1222 -0.7567
v 0.5409 0.1222 -0.7567
v 0.5409 0.1222 -0.5829
v 0.2671 0.1222 -0.5829
v 0.2671 0.0000 -0.7567
v 0.2671 0.1222 -0.7567
v 0.5409 0.1222 -0.7567
v 0.5409 0.0000 -0.7567
v 0.5409 0.0000 -0.5829
v 0.5409 0.1222 -0.5829
v 0.2671 0.1222 -0.5829
v 0.2671 0.0000 -0.5829
v 0.2671 0.0000 -0.5829
v 0.2671 0.1222 -0.5829
v 0.2671 0.1222 -0.7567
v 0.2671 0.0000 -0.7567
v 0.5409 0.0000 -0.7567
v 0.5409 0.1222 -0.7567
v 0.5409 0.1222 -0.5829
v 0.5409 0.0000 -0.5829
v -0.9066 0.0767 -0.9611
v -0.7685 0.0767 -0.9611
v -0.7685 0.0767 -0.8201
v -0.9066 0.0767 -0.8201
v -0.9066 0.0000 -0.9611
v -0.9066 0.0767 -0.9611
v -0.7685 0.0767 -0.9611
v -0.7685 0.0000 -0.9611
v -0.7685 0.0000 -0.8201
v -0.7685 0.0767 -0.8201
v -0.9066 0.0767 -0.8201
v -0.9066 0.0000 -0.8201
v -0.9066 0.0000 -0.8201
v -0.9066 0.0767 -0.8201
v -0.9066 0.0767 -0.9611
v -0.9066 0.0000 -0.9611
v -0.7685 0.0000 -0.9611
v -0.7685 0.0767 -0.9611
v -0.7685 0.0767 -0.8201
v -0.7685 0.0000 -0.8201
v 1.4685 0.0928 0.3148
v 1.6491 0.0928 0.3148
v 1.6491 0.0928 0.5630
v 1.4685 0.0928 0.5630
v 1.4685 0.0000 0.3148
v 1.4685 0.0928 0.3148
v 1.6491 0.0928 0.3148
v 1.6491 0.0000 0.3148
v 1.6491 0.0000 0.5630
v 1.6491 0.0928 0.5630
v 1.4685 0.0928 0.5630
v 1.4685 0.0000 0.5630
v 1.4685 0.0000 0.5630
v 1.4685 0.0928 0.5630
v 1.4685 0.0928 0.3148
v 1.4685 0.0000 0.3148
v 1.6491 0.0000 0.3148
v 1.6491 0.0928 0.3148
v 1.6491 0.0928 0.5630
v 1.6491 0.0000 0.5630
v 1.1031 0.1060 0.7487
v 1.4048 0.1060 0.7487
v 1.4048 0.1060 0.9877
v 1.1031 0.1060 0.9877
v 1.1031 0.0000 0.7487
v 1.1031 0.1060 0.7487
v 1.4048 0.1060 0.7487
v 1.4048 0.0000 0.7487
v 1.4048 0.0000 0.9877
v 1.4048 0.1060 0.9877
v 1.1031 0.1060 0.9877
v 1.1031 0.0000 0.9877
v 1.1031 0.0000 0.9877
v 1.1031 0.1060 0.9877
v 1.1031 0.1060 0.7487
v 1.1031 0.0000 0.7487
v 1.4048 0.0000 0.7487
v 1.4048 0.1060 0.7487
v 1.4048 0.1060 0.9877
v 1.4048 0.0000 0.9877
v -1.8186 0.1617 -0.7543
v -1.5706 0.1617 -0.7543
v -1.5706 0.1617 -0.4373
v -1.8186 0.1617 -0.4373
v -1.8186 0.0000 -0.7543
v -1.8186 0.1617 -0.7543
v -1.5706 0.1617 -0.7543
v -1.5706 0.0000 -0.7543
v -1.5706 0.0000 -0.4373
v -1.5706 0.1617 -0.4373
v -1.8186 0.1617 -0.4373
v -1.8186 0.0000 -0.4373
v -1.8186 0.0000 -0.4373
v -1.8186 0.1617 -0.4373
v -1.8186 0.1617 -0.7543
v -1.8186 0.0000 -0.7543
v -1.5706 0.0000 -0.7543
v -1.5706 0.1617 -0.7543
v -1.5706 0.1617 -0.4373
v -1.5706 0.0000 -0.4373
v 0.7771 0.2121 0.6252
v 0.9443 0.2121 0.6252
v 0.9443 0.2121 0.9438
v 0.7771 0.2121 0.9438
v 0.7771 0.0000 0.6252
v 0.7771 0.2121 0.6252
v 0.9443 0.2121 0.6252
v 0.9443 0.0000 0.6252
v 0.9443 0.0000 0.9438
v 0.9443 0.2121 0.9438
v 0.7771 0.2121 0.9438
v 0.7771 0.0000 0.9438
v 0.7771 0.0000 0.9438
v 0.7771 0.2121 0.9438
v 0.7771 0.2121 0.6252
v 0.7771 0.0000 0.6252
v 0.9443 0.0000 0.6252
v 0.9443 0.2121 0.6252
v 0.9443 0.2121 0.9438
v 0.9443 0.0000 0.9438
v 1.7140 0.1930 -0.2626
v 1.9003 0.1930 -0.2626
v 1.9003 0.1930 -0.0053
v 1.7140 0.1930 -0.0053
v 1.7140 0.0000 -0.2626
v 1.7140 0.1930 -0.2626
v 1.9003 0.1930 -0.2626
v 1.9003 0.0000 -0.2626
v 1.9003 0.0000 -0.0053
v 1.9003 0.1930 -0.0053
v 1.7140 0.1930 -0.0053
v 1.7140 0.0000 -0.0053
v 1.7140 0.0000 -0.0053
v 1.7140 0.1930 -0.0053
v 1.7140 0.1930 -0.2626
v 1.7140 0.0000 -0.2626
v 1.9003 0.0000 -0.2626
v 1.9003 0.1930 -0.2626
v 1.9003 0.1930 -0.0053
v 1.9003 0.0000 -0.0053
v 0.2528 0.1959 -0.0632
v 0.5170 0.1959 -0.0632
v 0.5170 0.1959 0.1695
v 0.2528 0.1959 0.1695
v 0.2528 0.0000 -0.0632
v 0.2528 0.1959 -0.0632
v 0.5170 0.1959 -0.0632
v 0.5170 0.0000 -0.0632
v 0.5170 0.0000 0.1695
v 0.5170 0.1959 0.1695
v 0.2528 0.1959 0.1695
v 0.2528 0.0000 0.1695
v 0.2528 0.0000 0.1695
v 0.2528 0.1959 0.1695
v 0.2528 0.1959 -0.0632
v 0.2528 0.0000 -0.0632
v 0.5170 0.0000 -0.0632
v 0.5170 0.1959 -0.0632
v 0.5170 0.1959 0.1695
v 0.5170 0.0000 0.1695
v -0.7945 0.2195 -1.1509
v -0.6461 0.2195 -1.1509
v -0.6461 0.2195 -0.9888
v -0.7945 0.2195 -0.9888
v -0.7945 0.0000 -1.1509
v -0.7945 0.2195 -1.1509
v -0.6461 0.2195 -1.1509
v -0.6461 0.0000 -1.1509
v -0.6461 0.0000 -0.9888
v -0.6461 0.2195 -0.9888
v -0.7945 0.2195 -0.9888
v -0.7945 0.0000 -0.9888
v -0.7945 0.0000 -0.9888
v -0.7945 0.2195 -0.9888
v -0.7945 0.2195 -1.1509
v -0.7945 0.0000 -1.1509
v -0.6461 0.0000 -1.1509
v -0.6461 0.2195 -1.1509
v -0.6461 0.2195 -0.9888
v -0.6461 0.0000 -0.9888
v 1.5516 0.2283 -0.0761
v 1.8491 0.2283 -0.0761
v 1.8491 0.2283 0.1161
v 1.5516 0.2283 0.1161
v 1.5516 0.0000 -0.0761
v 1.5516 0.2283 -0.0761
v 1.8491 0.2283 -0.0761
v 1.8491 0.0000 -0.0761
v 1.8491 0.0000 0.1161
v 1.8491 0.2283 0.1161
v 1.5516 0.2283 0.1161
v 1.5516 0.0000 0.1161
v 1.5516 0.0000 0.1161
v 1.5516 0.2283 0.1161
v 1.5516 0.2283 -0.0761
v 1.5516 0.0000 -0.0761
v 1.8491 0.0000 -0.0761
v 1.8491 0.2283 -0.0761
v 1.8491 0.2283 0.1161
v 1.8491 0.0000 0.1161
v -0.7024 0.2224 0.5903
v -0.3770 0.2224 0.5903
v -0.3770 0.2224 0.7764
v -0.7024 0.2224 0.7764
v -0.7024 0.0000 0.5903
v -0.7024 0.2224 0.5903
v -0.3770 0.2224 0.5903
v -0.3770 0.0000 0.5903
v -0.3770 0.0000 0.7764
v -0.3770 0.2224 0.7764
v -0.7024 0.2224 0.7764
v -0.7024 0.0000 0.7764
v -0.7024 0.0000 0.7764
v -0.7024 0.2224 0.7764
v -0.7024 0.2224 0.5903
v -0.7024 0.0000 0.5903
v -0.3770 0.0000 0.5903
v -0.3770 0.2224 0.5903
v -0.3770 0.2224 0.7764
v -0.3770 0.0000 0.7764
v 0.9951 0.1395 0.0227
v 1.3136 0.1395 0.0227
v 1.3136 0.1395 0.2623
v 0.9951 0.1395 0.2623
v 0.9951 0.0000 0.0227
v 0.9951 0.1395 0.0227
v 1.3136 0.1395 0.0227
v 1.3136 0.0000 0.0227
v 1.3136 0.0000 0.2623
v 1.3136 0.1395 0.2623
v 0.9951 0.1395 0.2623
v 0.9951 0.0000 0.2623
v 0.9951 0.0000 0.2623
v 0.9951 0.1395 0.2623
v 0.9951 0.1395 0.0227
v 0.9951 0.0000 0.0227
v 1.3136 0.0000 0.0227
v 1.3136 0.1395 0.0227
v 1.3136 0.1395 0.2623
v 1.3136 0.0000 0.2623
vt 0.1364 0.2273
vt 0.8636 0.2273
vt 0.8636 0.7727
vt 0.1364 0.7727
vt 0.1364 0.0000
vt 0.8636 0.0000
vt 0.8636 0.0152
vt 0.1364 0.0152
vt 0.1364 0.0000
vt 0.8636 0.0000
vt 0.8636 0.0152
vt 0.1364 0.0152
vt 0.2273 0.0000
vt 0.7727 0.0000
vt 0.7727 0.0152
vt 0.2273 0.0152
vt 0.2273 0.0000
vt 0.7727 0.0000
vt 0.7727 0.0152
vt 0.2273 0.0152
vt 0.1364 0.0000
vt 0.2481 0.0000
vt 0.2481 0.1800
vt 0.1364 0.1800
vt 0.1364 0.0000
vt 0.2481 0.0000
vt 0.2481 0.1800
vt 0.1364 0.1800
vt 0.2273 0.0000
vt 0.3106 0.0000
vt 0.3106 0.1800
vt 0.2273 0.1800
vt 0.2273 0.0000
vt 0.3106 0.0000
vt 0.3106 0.1800
vt 0.2273 0.1800
vt 0.0000 0.0000
vt 0.1117 0.0000
vt 0.1117 0.0833
vt 0.0000 0.0833
vt 0.0000 0.0000
vt 0.1117 0.0000
vt 0.1117 0.2000
vt 0.0000 0.2000
vt 0.0000 0.0000
vt 0.1117 0.0000
vt 0.1117 0.2000
vt 0.0000 0.2000
vt 0.2481 0.0000
vt 0.3598 0.0000
vt 0.3598 0.2856
vt 0.2481 0.2856
vt 0.2481 0.0000
vt 0.3598 0.0000
vt 0.3598 0.2856
vt 0.2481 0.2856
vt 0.2273 0.0000
vt 0.3106 0.0000
vt 0.3106 0.2856
vt 0.2273 0.2856
vt 0.2273 0.0000
vt 0.3106 0.0000
vt 0.3106 0.2856
vt 0.2273 0.2856
vt 0.0000 0.0000
vt 0.1117 0.0000
vt 0.1117 0.0833
vt 0.0000 0.0833
vt 0.0000 0.0000
vt 0.1117 0.0000
vt 0.1117 0.2000
vt 0.0000 0.2000
vt 0.0000 0.0000
vt 0.1117 0.0000
vt 0.1117 0.2000
vt 0.0000 0.2000
vt 0.3598 0.0000
vt 0.4716 0.0000
vt 0.4716 0.1600
vt 0.3598 0.1600
vt 0.3598 0.0000
vt 0.4716 0.0000
vt 0.4716 0.1600
vt 0.3598 0.1600
vt 0.2273 0.0000
vt 0.3106 0.0000
vt 0.3106 0.1600
vt 0.2273 0.1600
vt 0.2273 0.0000
vt 0.3106 0.0000
vt 0.3106 0.1600
vt 0.2273 0.1600
vt 0.0000 0.0000
vt 0.1117 0.0000
vt 0.1117 0.0833
vt 0.0000 0.0833
vt 0.0000 0.0000
vt 0.1117 0.0000
vt 0.1117 0.2000
vt 0.0000 0.2000
vt 0.0000 0.0000
vt 0.1117 0.0000
vt 0.1117 0.2000
vt 0.0000 0.2000
vt 0.4716 0.0000
vt 0.5833 0.0000
vt 0.5833 0.2440
vt 0.4716 0.2440
vt 0.4716 0.0000
vt 0.5833 0.0000
vt 0.5833 0.2440
vt 0.4716 0.2440
vt 0.2273 0.0000
vt 0.3106 0.0000
vt 0.3106 0.2440
vt 0.2273 0.2440
vt 0.2273 0.0000
vt 0.3106 0.0000
vt 0.3106 0.2440
vt 0.2273 0.2440
vt 0.0000 0.0000
vt 0.1117 0.0000
vt 0.1117 0.0833
vt 0.0000 0.0833
vt 0.0000 0.0000
vt 0.1117 0.0000
vt 0.1117 0.2000
vt 0.0000 0.2000
vt 0.0000 0.0000
vt 0.1117 0.0000
vt 0.1117 0.2000
vt 0.0000 0.2000
vt 0.6894 0.0000
vt 0.7765 0.0000
vt 0.7765 0.1919
vt 0.6894 0.1919
vt 0.6894 0.0000
vt 0.7765 0.0000
vt 0.7765 0.1919
vt 0.6894 0.1919
vt 0.2273 0.0000
vt 0.3106 0.0000
vt 0.3106 0.1919
vt 0.2273 0.1919
vt 0.2273 0.0000
vt 0.3106 0.0000
vt 0.3106 0.1919
vt 0.2273 0.1919
vt 0.0000 0.0000
vt 0.0871 0.0000
vt 0.0871 0.0833
vt 0.0000 0.0833
vt 0.0000 0.0000
vt 0.0871 0.0000
vt 0.0871 0.2000
vt 0.0000 0.2000
vt 0.0000 0.0000
vt 0.0871 0.0000
vt 0.0871 0.2000
vt 0.0000 0.2000
vt 0.7765 0.0000
vt 0.8636 0.0000
vt 0.8636 0.0945
vt 0.7765 0.0945
vt 0.7765 0.0000
vt 0.8636 0.0000
vt 0.8636 0.0945
vt 0.7765 0.0945
vt 0.2273 0.0000
vt 0.3106 0.0000
vt 0.3106 0.0945
vt 0.2273 0.0945
vt 0.2273 0.0000
vt 0.3106 0.0000
vt 0.3106 0.0945
vt 0.2273 0.0945
vt 0.0000 0.0000
vt 0.0871 0.0000
vt 0.0871 0.0833
vt 0.0000 0.0833
vt 0.0000 0.0000
vt 0.0871 0.0000
vt 0.0871 0.2000
vt 0.0000 0.2000
vt 0.0000 0.0000
vt 0.0871 0.0000
vt 0.0871 0.2000
vt 0.0000 0.2000
vt 0.1364 0.0000
vt 0.2146 0.0000
vt 0.2146 0.1736
vt 0.1364 0.1736
vt 0.1364 0.0000
vt 0.2146 0.0000
vt 0.2146 0.1736
vt 0.1364 0.1736
vt 0.6894 0.0000
vt 0.7727 0.0000
vt 0.7727 0.1736
vt 0.6894 0.1736
vt 0.6894 0.0000
vt 0.7727 0.0000
vt 0.7727 0.1736
vt 0.6894 0.1736
vt 0.0000 0.0000
vt 0.0783 0.0000
vt 0.0783 0.0833
vt 0.0000 0.0833
vt 0.0000 0.0000
vt 0.0783 0.0000
vt 0.0783 0.2000
vt 0.0000 0.2000
vt 0.0000 0.0000
vt 0.0783 0.0000
vt 0.0783 0.2000
vt 0.0000 0.2000
vt 0.2146 0.0000
vt 0.2929 0.0000
vt 0.2929 0.1896
vt 0.2146 0.1896
vt 0.2146 0.0000
vt 0.2929 0.0000
vt 0.2929 0.1896
vt 0.2146 0.1896
vt 0.6894 0.0000
vt 0.7727 0.0000
vt 0.7727 0.1896
vt 0.6894 0.1896
vt 0.6894 0.0000
vt 0.7727 0.0000
vt 0.7727 0.1896
vt 0.6894 0.1896
vt 0.0000 0.0000
vt 0.0783 0.0000
vt 0.0783 0.0833
vt 0.0000 0.0833
vt 0.0000 0.0000
vt 0.0783 0.0000
vt 0.0783 0.2000
vt 0.0000 0.2000
vt 0.0000 0.0000
vt 0.0783 0.0000
vt 0.0783 0.2000
vt 0.0000 0.2000
vt 0.2929 0.0000
vt 0.3712 0.0000
vt 0.3712 0.2466
vt 0.2929 0.2466
vt 0.2929 0.0000
vt 0.3712 0.0000
vt 0.3712 0.2466
vt 0.2929 0.2466
vt 0.6894 0.0000
vt 0.7727 0.0000
vt 0.7727 0.2466
vt 0.6894 0.2466
vt 0.6894 0.0000
vt 0.7727 0.0000
vt 0.7727 0.2466
vt 0.6894 0.2466
vt 0.0000 0.0000
vt 0.0783 0.0000
vt 0.0783 0.0833
vt 0.0000 0.0833
vt 0.0000 0.0000
vt 0.0783 0.0000
vt 0.0783 0.2000
vt 0.0000 0.2000
vt 0.0000 0.0000
vt 0.0783 0.0000
vt 0.0783 0.2000
vt 0.0000 0.2000
vt 0.5530 0.0000
vt 0.6566 0.0000
vt 0.6566 0.2454
vt 0.5530 0.2454
vt 0.5530 0.0000
vt 0.6566 0.0000
vt 0.6566 0.2454
vt 0.5530 0.2454
vt 0.6894 0.0000
vt 0.7727 0.0000
vt 0.7727 0.2454
vt 0.6894 0.2454
vt 0.6894 0.0000
vt 0.7727 0.0000
vt 0.7727 0.2454
vt 0.6894 0.2454
vt 0.0000 0.0000
vt 0.1035 0.0000
vt 0.1035 0.0833
vt 0.0000 0.0833
vt 0.0000 0.0000
vt 0.1035 0.0000
vt 0.1035 0.2000
vt 0.0000 0.2000
vt 0.0000 0.0000
vt 0.1035 0.0000
vt 0.1035 0.2000
vt 0.0000 0.2000
vt 0.6566 0.0000
vt 0.7601 0.0000
vt 0.7601 0.3629
vt 0.6566 0.3629
vt 0.6566 0.0000
vt 0.7601 0.0000
vt 0.7601 0.3629
vt 0.6566 0.3629
vt 0.6894 0.0000
vt 0.7727 0.0000
vt 0.7727 0.3629
vt 0.6894 0.3629
vt 0.6894 0.0000
vt 0.7727 0.0000
vt 0.7727 0.3629
vt 0.6894 0.3629
vt 0.0000 0.0000
vt 0.1035 0.0000
vt 0.1035 0.0833
vt 0.0000 0.0833
vt 0.0000 0.0000
vt 0.1035 0.0000
vt 0.1035 0.2000
vt 0.0000 0.2000
vt 0.0000 0.0000
vt 0.1035 0.0000
vt 0.1035 0.2000
vt 0.0000 0.2000
vt 0.7601 0.0000
vt 0.8636 0.0000
vt 0.8636 0.2604
vt 0.7601 0.2604
vt 0.7601 0.0000
vt 0.8636 0.0000
vt 0.8636 0.2604
vt 0.7601 0.2604
vt 0.6894 0.0000
vt 0.7727 0.0000
vt 0.7727 0.2604
vt 0.6894 0.2604
vt 0.6894 0.0000
vt 0.7727 0.0000
vt 0.7727 0.2604
vt 0.6894 0.2604
vt 0.0000 0.0000
vt 0.1035 0.0000
vt 0.1035 0.0833
vt 0.0000 0.0833
vt 0.0000 0.0000
vt 0.1035 0.0000
vt 0.1035 0.2000
vt 0.0000 0.2000
vt 0.0000 0.0000
vt 0.1035 0.0000
vt 0.1035 0.2000
vt 0.0000 0.2000
vt 0.1364 0.0000
vt 0.2197 0.0000
vt 0.2197 0.1638
vt 0.1364 0.1638
vt 0.1364 0.0000
vt 0.2197 0.0000
vt 0.2197 0.1638
vt 0.1364 0.1638
vt 0.3106 0.0000
vt 0.4040 0.0000
vt 0.4040 0.1638
vt 0.3106 0.1638
vt 0.3106 0.0000
vt 0.4040 0.0000
vt 0.4040 0.1638
vt 0.3106 0.1638
vt 0.0000 0.0000
vt 0.0833 0.0000
vt 0.0833 0.0934
vt 0.0000 0.0934
vt 0.0000 0.0000
vt 0.0934 0.0000
vt 0.0934 0.2000
vt 0.0000 0.2000
vt 0.0000 0.0000
vt 0.0934 0.0000
vt 0.0934 0.2000
vt 0.0000 0.2000
vt 0.1364 0.0000
vt 0.2197 0.0000
vt 0.2197 0.2827
vt 0.1364 0.2827
vt 0.1364 0.0000
vt 0.2197 0.0000
vt 0.2197 0.2827
vt 0.1364 0.2827
vt 0.4040 0.0000
vt 0.4975 0.0000
vt 0.4975 0.2827
vt 0.4040 0.2827
vt 0.4040 0.0000
vt 0.4975 0.0000
vt 0.4975 0.2827
vt 0.4040 0.2827
vt 0.0000 0.0000
vt 0.0833 0.0000
vt 0.0833 0.0934
vt 0.0000 0.0934
vt 0.0000 0.0000
vt 0.0934 0.0000
vt 0.0934 0.2000
vt 0.0000 0.2000
vt 0.0000 0.0000
vt 0.0934 0.0000
vt 0.0934 0.2000
vt 0.0000 0.2000
vt 0.1364 0.0000
vt 0.2197 0.0000
vt 0.2197 0.1900
vt 0.1364 0.1900
vt 0.1364 0.0000
vt 0.2197 0.0000
vt 0.2197 0.1900
vt 0.1364 0.1900
vt 0.4975 0.0000
vt 0.5909 0.0000
vt 0.5909 0.1900
vt 0.4975 0.1900
vt 0.4975 0.0000
vt 0.5909 0.0000
vt 0.5909 0.1900
vt 0.4975 0.1900
vt 0.0000 0.0000
vt 0.0833 0.0000
vt 0.0833 0.0934
vt 0.0000 0.0934
vt 0.0000 0.0000
vt 0.0934 0.0000
vt 0.0934 0.2000
vt 0.0000 0.2000
vt 0.0000 0.0000
vt 0.0934 0.0000
vt 0.0934 0.2000
vt 0.0000 0.2000
vt 0.7803 0.0000
vt 0.8636 0.0000
vt 0.8636 0.1106
vt 0.7803 0.1106
vt 0.7803 0.0000
vt 0.8636 0.0000
vt 0.8636 0.1106
vt 0.7803 0.1106
vt 0.3939 0.0000
vt 0.4924 0.0000
vt 0.4924 0.1106
vt 0.3939 0.1106
vt 0.3939 0.0000
vt 0.4924 0.0000
vt 0.4924 0.1106
vt 0.3939 0.1106
vt 0.0000 0.0000
vt 0.0833 0.0000
vt 0.0833 0.0985
vt 0.0000 0.0985
vt 0.0000 0.0000
vt 0.0985 0.0000
vt 0.0985 0.2000
vt 0.0000 0.2000
vt 0.0000 0.0000
vt 0.0985 0.0000
vt 0.0985 0.2000
vt 0.0000 0.2000
vt 0.7803 0.0000
vt 0.8636 0.0000
vt 0.8636 0.1937
vt 0.7803 0.1937
vt 0.7803 0.0000
vt 0.8636 0.0000
vt 0.8636 0.1937
vt 0.7803 0.1937
vt 0.4924 0.0000
vt 0.5909 0.0000
vt 0.5909 0.1937
vt 0.4924 0.1937
vt 0.4924 0.0000
vt 0.5909 0.0000
vt 0.5909 0.1937
vt 0.4924 0.1937
vt 0.0000 0.0000
vt 0.0833 0.0000
vt 0.0833 0.0985
vt 0.0000 0.0985
vt 0.0000 0.0000
vt 0.0985 0.0000
vt 0.0985 0.2000
vt 0.0000 0.2000
vt 0.0000 0.0000
vt 0.0985 0.0000
vt 0.0985 0.2000
vt 0.0000 0.2000
vt 0.7803 0.0000
vt 0.8636 0.0000
vt 0.8636 0.1502
vt 0.7803 0.1502
vt 0.7803 0.0000
vt 0.8636 0.0000
vt 0.8636 0.1502
vt 0.7803 0.1502
vt 0.5909 0.0000
vt 0.6894 0.0000
vt 0.6894 0.1502
vt 0.5909 0.1502
vt 0.5909 0.0000
vt 0.6894 0.0000
vt 0.6894 0.1502
vt 0.5909 0.1502
vt 0.0000 0.0000
vt 0.0833 0.0000
vt 0.0833 0.0985
vt 0.0000 0.0985
vt 0.0000 0.0000
vt 0.0985 0.0000
vt 0.0985 0.2000
vt 0.0000 0.2000
vt 0.0000 0.0000
vt 0.0985 0.0000
vt 0.0985 0.2000
vt 0.0000 0.2000
vt 0.4091 0.0000
vt 0.5101 0.0000
vt 0.5101 0.1517
vt 0.4091 0.1517
vt 0.4091 0.0000
vt 0.5101 0.0000
vt 0.5101 0.1517
vt 0.4091 0.1517
vt 0.4394 0.0000
vt 0.5061 0.0000
vt 0.5061 0.1517
vt 0.4394 0.1517
vt 0.4394 0.0000
vt 0.5061 0.0000
vt 0.5061 0.1517
vt 0.4394 0.1517
vt 0.0000 0.0000
vt 0.1010 0.0000
vt 0.1010 0.0667
vt 0.0000 0.0667
vt 0.0000 0.0000
vt 0.1010 0.0000
vt 0.1010 0.2000
vt 0.0000 0.2000
vt 0.0000 0.0000
vt 0.1010 0.0000
vt 0.1010 0.2000
vt 0.0000 0.2000
vt 0.5101 0.0000
vt 0.6111 0.0000
vt 0.6111 0.0821
vt 0.5101 0.0821
vt 0.5101 0.0000
vt 0.6111 0.0000
vt 0.6111 0.0821
vt 0.5101 0.0821
vt 0.4394 0.0000
vt 0.5061 0.0000
vt 0.5061 0.0821
vt 0.4394 0.0821
vt 0.4394 0.0000
vt 0.5061 0.0000
vt 0.5061 0.0821
vt 0.4394 0.0821
vt 0.0000 0.0000
vt 0.1010 0.0000
vt 0.1010 0.0667
vt 0.0000 0.0667
vt 0.0000 0.0000
vt 0.1010 0.0000
vt 0.1010 0.2000
vt 0.0000 0.2000
vt 0.0000 0.0000
vt 0.1010 0.0000
vt 0.1010 0.2000
vt 0.0000 0.2000
vt 0.6111 0.0000
vt 0.7121 0.0000
vt 0.7121 0.1062
vt 0.6111 0.1062
vt 0.6111 0.0000
vt 0.7121 0.0000
vt 0.7121 0.1062
vt 0.6111 0.1062
vt 0.4394 0.0000
vt 0.5061 0.0000
vt 0.5061 0.1062
vt 0.4394 0.1062
vt 0.4394 0.0000
vt 0.5061 0.0000
vt 0.5061 0.1062
vt 0.4394 0.1062
vt 0.0000 0.0000
vt 0.1010 0.0000
vt 0.1010 0.0667
vt 0.0000 0.0667
vt 0.0000 0.0000
vt 0.1010 0.0000
vt 0.1010 0.2000
vt 0.0000 0.2000
vt 0.0000 0.0000
vt 0.1010 0.0000
vt 0.1010 0.2000
vt 0.0000 0.2000
vt 0.3317 0.6347
vt 0.3641 0.6347
vt 0.3641 0.6851
vt 0.3317 0.6851
vt 0.3317 0.0000
vt 0.3641 0.0000
vt 0.3641 0.0211
vt 0.3317 0.0211
vt 0.3317 0.0000
vt 0.3641 0.0000
vt 0.3641 0.0211
vt 0.3317 0.0211
vt 0.6347 0.0000
vt 0.6851 0.0000
vt 0.6851 0.0211
vt 0.6347 0.0211
vt 0.6347 0.0000
vt 0.6851 0.0000
vt 0.6851 0.0211
vt 0.6347 0.0211
vt 0.7141 0.4264
vt 0.7436 0.4264
vt 0.7436 0.4778
vt 0.7141 0.4778
vt 0.7141 0.0000
vt 0.7436 0.0000
vt 0.7436 0.0208
vt 0.7141 0.0208
vt 0.7141 0.0000
vt 0.7436 0.0000
vt 0.7436 0.0208
vt 0.7141 0.0208
vt 0.4264 0.0000
vt 0.4778 0.0000
vt 0.4778 0.0208
vt 0.4264 0.0208
vt 0.4264 0.0000
vt 0.4778 0.0000
vt 0.4778 0.0208
vt 0.4264 0.0208
vt 0.5405 0.3853
vt 0.5820 0.3853
vt 0.5820 0.4117
vt 0.5405 0.4117
vt 0.5405 0.0000
vt 0.5820 0.0000
vt 0.5820 0.0185
vt 0.5405 0.0185
vt 0.5405 0.0000
vt 0.5820 0.0000
vt 0.5820 0.0185
vt 0.5405 0.0185
vt 0.3853 0.0000
vt 0.4117 0.0000
vt 0.4117 0.0185
vt 0.3853 0.0185
vt 0.3853 0.0000
vt 0.4117 0.0000
vt 0.4117 0.0185
vt 0.3853 0.0185
vt 0.3626 0.3544
vt 0.3836 0.3544
vt 0.3836 0.3757
vt 0.3626 0.3757
vt 0.3626 0.0000
vt 0.3836 0.0000
vt 0.3836 0.0116
vt 0.3626 0.0116
vt 0.3626 0.0000
vt 0.3836 0.0000
vt 0.3836 0.0116
vt 0.3626 0.0116
vt 0.3544 0.0000
vt 0.3757 0.0000
vt 0.3757 0.0116
vt 0.3544 0.0116
vt 0.3544 0.0000
vt 0.3757 0.0000
vt 0.3757 0.0116
vt 0.3544 0.0116
vt 0.7225 0.5477
vt 0.7499 0.5477
vt 0.7499 0.5853
vt 0.7225 0.5853
vt 0.7225 0.0000
vt 0.7499 0.0000
vt 0.7499 0.0141
vt 0.7225 0.0141
vt 0.7225 0.0000
vt 0.7499 0.0000
vt 0.7499 0.0141
vt 0.7225 0.0141
vt 0.5477 0.0000
vt 0.5853 0.0000
vt 0.5853 0.0141
vt 0.5477 0.0141
vt 0.5477 0.0000
vt 0.5853 0.0000
vt 0.5853 0.0141
vt 0.5477 0.0141
vt 0.6671 0.6134
vt 0.7128 0.6134
vt 0.7128 0.6496
vt 0.6671 0.6496
vt 0.6671 0.0000
vt 0.7128 0.0000
vt 0.7128 0.0161
vt 0.6671 0.0161
vt 0.6671 0.0000
vt 0.7128 0.0000
vt 0.7128 0.0161
vt 0.6671 0.0161
vt 0.6134 0.0000
vt 0.6496 0.0000
vt 0.6496 0.0161
vt 0.6134 0.0161
vt 0.6134 0.0000
vt 0.6496 0.0000
vt 0.6496 0.0161
vt 0.6134 0.0161
vt 0.2245 0.3857
vt 0.2620 0.3857
vt 0.2620 0.4337
vt 0.2245 0.4337
vt 0.2245 0.0000
vt 0.2620 0.0000
vt 0.2620 0.0245
vt 0.2245 0.0245
vt 0.2245 0.0000
vt 0.2620 0.0000
vt 0.2620 0.0245
vt 0.2245 0.0245
vt 0.3857 0.0000
vt 0.4337 0.0000
vt 0.4337 0.0245
vt 0.3857 0.0245
vt 0.3857 0.0000
vt 0.4337 0.0000
vt 0.4337 0.0245
vt 0.3857 0.0245
vt 0.6177 0.5947
vt 0.6431 0.5947
vt 0.6431 0.6430
vt 0.6177 0.6430
vt 0.6177 0.0000
vt 0.6431 0.0000
vt 0.6431 0.0321
vt 0.6177 0.0321
vt 0.6177 0.0000
vt 0.6431 0.0000
vt 0.6431 0.0321
vt 0.6177 0.0321
vt 0.5947 0.0000
vt 0.6430 0.0000
vt 0.6430 0.0321
vt 0.5947 0.0321
vt 0.5947 0.0000
vt 0.6430 0.0000
vt 0.6430 0.0321
vt 0.5947 0.0321
vt 0.7597 0.4602
vt 0.7879 0.4602
vt 0.7879 0.4992
vt 0.7597 0.4992
vt 0.7597 0.0000
vt 0.7879 0.0000
vt 0.7879 0.0292
vt 0.7597 0.0292
vt 0.7597 0.0000
vt 0.7879 0.0000
vt 0.7879 0.0292
vt 0.7597 0.0292
vt 0.4602 0.0000
vt 0.4992 0.0000
vt 0.4992 0.0292
vt 0.4602 0.0292
vt 0.4602 0.0000
vt 0.4992 0.0000
vt 0.4992 0.0292
vt 0.4602 0.0292
vt 0.5383 0.4904
vt 0.5783 0.4904
vt 0.5783 0.5257
vt 0.5383 0.5257
vt 0.5383 0.0000
vt 0.5783 0.0000
vt 0.5783 0.0297
vt 0.5383 0.0297
vt 0.5383 0.0000
vt 0.5783 0.0000
vt 0.5783 0.0297
vt 0.5383 0.0297
vt 0.4904 0.0000
vt 0.5257 0.0000
vt 0.5257 0.0297
vt 0.4904 0.0297
vt 0.4904 0.0000
vt 0.5257 0.0000
vt 0.5257 0.0297
vt 0.4904 0.0297
vt 0.3796 0.3256
vt 0.4021 0.3256
vt 0.4021 0.3502
vt 0.3796 0.3502
vt 0.3796 0.0000
vt 0.4021 0.0000
vt 0.4021 0.0333
vt 0.3796 0.0333
vt 0.3796 0.0000
vt 0.4021 0.0000
vt 0.4021 0.0333
vt 0.3796 0.0333
vt 0.3256 0.0000
vt 0.3502 0.0000
vt 0.3502 0.0333
vt 0.3256 0.0333
vt 0.3256 0.0000
vt 0.3502 0.0000
vt 0.3502 0.0333
vt 0.3256 0.0333
vt 0.7351 0.4885
vt 0.7802 0.4885
vt 0.7802 0.5176
vt 0.7351 0.5176
vt 0.7351 0.0000
vt 0.7802 0.0000
vt 0.7802 0.0346
vt 0.7351 0.0346
vt 0.7351 0.0000
vt 0.7802 0.0000
vt 0.7802 0.0346
vt 0.7351 0.0346
vt 0.4885 0.0000
vt 0.5176 0.0000
vt 0.5176 0.0346
vt 0.4885 0.0346
vt 0.4885 0.0000
vt 0.5176 0.0000
vt 0.5176 0.0346
vt 0.4885 0.0346
vt 0.3936 0.5894
vt 0.4429 0.5894
vt 0.4429 0.6176
vt 0.3936 0.6176
vt 0.3936 0.0000
vt 0.4429 0.0000
vt 0.4429 0.0337
vt 0.3936 0.0337
vt 0.3936 0.0000
vt 0.4429 0.0000
vt 0.4429 0.0337
vt 0.3936 0.0337
vt 0.5894 0.0000
vt 0.6176 0.0000
vt 0.6176 0.0337
vt 0.5894 0.0337
vt 0.5894 0.0000
vt 0.6176 0.0000
vt 0.6176 0.0337
vt 0.5894 0.0337
vt 0.6508 0.5034
vt 0.6990 0.5034
vt 0.6990 0.5397
vt 0.6508 0.5397
vt 0.6508 0.0000
vt 0.6990 0.0000
vt 0.6990 0.0211
vt 0.6508 0.0211
vt 0.6508 0.0000
vt 0.6990 0.0000
vt 0.6990 0.0211
vt 0.6508 0.0211
vt 0.5034 0.0000
vt 0.5397 0.0000
vt 0.5397 0.0211
vt 0.5034 0.0211
vt 0.5034 0.0000
vt 0.5397 0.0000
vt 0.5397 0.0211
vt 0.5034 0.0211
f 4/4 3/3 2/2
f 4/4 2/2 1/1
f 5/5 6/6 7/7
f 5/5 7/7 8/8
f 9/9 10/10 11/11
f 9/9 11/11 12/12
f 13/13 14/14 15/15
f 13/13 15/15 16/16
f 17/17 18/18 19/19
f 17/17 19/19 20/20
f 21/21 22/22 23/23
f 21/21 23/23 24/24
f 25/25 26/26 27/27
f 25/25 27/27 28/28
f 29/29 30/30 31/31
f 29/29 31/31 32/32
f 33/33 34/34 35/35
f 33/33 35/35 36/36
f 40/40 39/39 38/38
f 40/40 38/38 37/37
f 41/41 42/42 43/43
f 41/41 43/43 44/44
f 48/48 47/47 46/46
f 48/48 46/46 45/45
f 49/49 50/50 51/51
f 49/49 51/51 52/52
f 53/53 54/54 55/55
f 53/53 55/55 56/56
f 57/57 58/58 59/59
f 57/57 59/59 60/60
f 61/61 62/62 63/63
f 61/61 63/63 64/64
f 68/68 67/67 66/66
f 68/68 66/66 65/65
f 69/69 70/70 71/71
f 69/69 71/71 72/72
f 73/73 74/74 75/75
f 73/73 75/75 76/76
f 77/77 78/78 79/79
f 77/77 79/79 80/80
f 81/81 82/82 83/83
f 81/81 83/83 84/84
f 85/85 86/86 87/87
f 85/85 87/87 88/88
f 89/89 90/90 91/91
f 89/89 91/91 92/92
f 96/96 95/95 94/94
f 96/96 94/94 93/93
f 97/97 98/98 99/99
f 97/97 99/99 100/100
f 104/104 103/103 102/102
f 104/104 102/102 101/101
f 105/105 106/106 107/107
f 105/105 107/107 108/108
f 109/109 110/110 111/111
f 109/109 111/111 112/112
f 113/113 114/114 115/115
f 113/113 115/115 116/116
f 117/117 118/118 119/119
f 117/117 119/119 120/120
f 124/124 123/123 122/122
f 124/124 122/122 121/121
f 125/125 126/126 127/127
f 125/125 127/127 128/128
f 132/132 131/131 130/130
f 132/132 130/130 129/129
f 133/133 134/134 135/135
f 133/133 135/135 136/136
f 137/137 138/138 139/139
f 137/137 139/139 140/140
f 141/141 142/142 143/143
f 141/141 143/143 144/144
f 145/145 146/146 147/147
f 145/145 147/147 148/148
f 152/152 151/151 150/150
f 152/152 150/150 149/149
f 153/153 154/154 155/155
f 153/153 155/155 156/156
f 160/160 159/159 158/158
f 160/160 158/158 157/157
f 161/161 162/162 163/163
f 161/161 163/163 164/164
f 165/165 166/166 167/167
f 165/165 167/167 168/168
f 169/169 170/170 171/171
f 169/169 171/171 172/172
f 173/173 174/174 175/175
f 173/173 175/175 176/176
f 180/180 179/179 178/178
f 180/180 178/178 177/177
f 181/181 182/182 183/183
f 181/181 183/183 184/184
f 185/185 186/186 187/187
f 185/185 187/187 188/188
f 189/189 190/190 191/191
f 189/189 191/191 192/192
f 193/193 194/194 195/195
f 193/193 195/195 196/196
f 197/197 198/198 199/199
f 197/197 199/199 200/200
f 201/201 202/202 203/203
f 201/201 203/203 204/204
f 208/208 207/207 206/206
f 208/208 206/206 205/205
f 212/212 211/211 210/210
f 212/212 210/210 209/209
f 213/213 214/214 215/215
f 213/213 215/215 216/216
f 217/217 218/218 219/219
f 217/217 219/219 220/220
f 221/221 222/222 223/223
f 221/221 223/223 224/224
f 225/225 226/226 227/227
f 225/225 227/227 228/228
f 229/229 230/230 231/231
f 229/229 231/231 232/232
f 233/233 234/234 235/235
f 233/233 235/235 236/236
f 240/240 239/239 238/238
f 240/240 238/238 237/237
f 241/241 242/242 243/243
f 241/241 243/243 244/244
f 245/245 246/246 247/247
f 245/245 247/247 248/248
f 249/249 250/250 251/251
f 249/249 251/251 252/252
f 253/253 254/254 255/255
f 253/253 255/255 256/256
f 257/257 258/258 259/259
f 257/257 259/259 260/260
f 264/264 263/263 262/262
f 264/264 262/262 261/261
f 265/265 266/266 267/267
f 265/265 267/267 268/268
f 269/269 270/270 271/271
f 269/269 271/271 272/272
f 273/273 274/274 275/275
f 273/273 275/275 276/276
f 277/277 278/278 279/279
f 277/277 279/279 280/280
f 281/281 282/282 283/283
f 281/281 283/283 284/284
f 285/285 286/286 287/287
f 285/285 287/287 288/288
f 292/292 291/291 290/290
f 292/292 290/290 289/289
f 296/296 295/295 294/294
f 296/296 294/294 293/293
f 297/297 298/298 299/299
f 297/297 299/299 300/300
f 301/301 302/302 303/303
f 301/301 303/303 304/304
f 305/305 306/306 307/307
f 305/305 307/307 308/308
f 309/309 310/310 311/311
f 309/309 311/311 312/312
f 313/313 314/314 315/315
f 313/313 315/315 316/316
f 320/320 319/319 318/318
f 320/320 318/318 317/317
f 321/321 322/322 323/323
f 321/321 323/323 324/324
f 325/325 326/326 327/327
f 325/325 327/327 328/328
f 329/329 330/330 331/331
f 329/329 331/331 332/332
f 333/333 334/334 335/335
f 333/333 335/335 336/336
f 337/337 338/338 339/339
f 337/337 339/339 340/340
f 341/341 342/342 343/343
f 341/341 343/343 344/344
f 348/348 347/347 346/346
f 348/348 346/346 345/345
f 352/352 351/351 350/350
f 352/352 350/350 349/349
f 353/353 354/354 355/355
f 353/353 355/355 356/356
f 357/357 358/358 359/359
f 357/357 359/359 360/360
f 361/361 362/362 363/363
f 361/361 363/363 364/364
f 365/365 366/366 367/367
f 365/365 367/367 368/368
f 369/369 370/370 371/371
f 369/369 371/371 372/372
f 376/376 375/375 374/374
f 376/376 374/374 373/373
f 380/380 379/379 378/378
f 380/380 378/378 377/377
f 381/381 382/382 383/383
f 381/381 383/383 384/384
f 385/385 386/386 387/387
f 385/385 387/387 388/388
f 389/389 390/390 391/391
f 389/389 391/391 392/392
f 393/393 394/394 395/395
f 393/393 395/395 396/396
f 397/397 398/398 399/399
f 397/397 399/399 400/400
f 404/404 403/403 402/402
f 404/404 402/402 401/401
f 405/405 406/406 407/407
f 405/405 407/407 408/408
f 409/409 410/410 411/411
f 409/409 411/411 412/412
f 413/413 414/414 415/415
f 413/413 415/415 416/416
f 417/417 418/418 419/419
f 417/417 419/419 420/420
f 421/421 422/422 423/423
f 421/421 423/423 424/424
f 425/425 426/426 427/427
f 425/425 427/427 428/428
f 432/432 431/431 430/430
f 432/432 430/430 429/429
f 436/436 435/435 434/434
f 436/436 434/434 433/433
f 437/437 438/438 439/439
f 437/437 439/439 440/440
f 441/441 442/442 443/443
f 441/441 443/443 444/444
f 445/445 446/446 447/447
f 445/445 447/447 448/448
f 449/449 450/450 451/451
f 449/449 451/451 452/452
f 453/453 454/454 455/455
f 453/453 455/455 456/456
f 460/460 459/459 458/458
f 460/460 458/458 457/457
f 461/461 462/462 463/463
f 461/461 463/463 464/464
f 465/465 466/466 467/467
f 465/465 467/467 468/468
f 469/469 470/470 471/471
f 469/469 471/471 472/472
f 473/473 474/474 475/475
f 473/473 475/475 476/476
f 477/477 478/478 479/479
f 477/477 479/479 480/480
f 481/481 482/482 483/483
f 481/481 483/483 484/484
f 488/488 487/487 486/486
f 488/488 486/486 485/485
f 489/489 490/490 491/491
f 489/489 491/491 492/492
f 496/496 495/495 494/494
f 496/496 494/494 493/493
f 497/497 498/498 499/499
f 497/497 499/499 500/500
f 501/501 502/502 503/503
f 501/501 503/503 504/504
f 505/505 506/506 507/507
f 505/505 507/507 508/508
f 509/509 510/510 511/511
f 509/509 511/511 512/512
f 516/516 515/515 514/514
f 516/516 514/514 513/513
f 517/517 518/518 519/519
f 517/517 519/519 520/520
f 524/524 523/523 522/522
f 524/524 522/522 521/521
f 525/525 526/526 527/527
f 525/525 527/527 528/528
f 529/529 530/530 531/531
f 529/529 531/531 532/532
f 533/533 534/534 535/535
f 533/533 535/535 536/536
f 537/537 538/538 539/539
f 537/537 539/539 540/540
f 544/544 543/543 542/542
f 544/544 542/542 541/541
f 545/545 546/546 547/547
f 545/545 547/547 548/548
f 549/549 550/550 551/551
f 549/549 551/551 552/552
f 553/553 554/554 555/555
f 553/553 555/555 556/556
f 557/557 558/558 559/559
f 557/557 559/559 560/560
f 561/561 562/562 563/563
f 561/561 563/563 564/564
f 565/565 566/566 567/567
f 565/565 567/567 568/568
f 569/569 570/570 571/571
f 569/569 571/571 572/572
f 573/573 574/574 575/575
f 573/573 575/575 576/576
f 577/577 578/578 579/579
f 577/577 579/579 580/580
f 581/581 582/582 583/583
f 581/581 583/583 584/584
f 585/585 586/586 587/587
f 585/585 587/587 588/588
f 589/589 590/590 591/591
f 589/589 591/591 592/592
f 593/593 594/594 595/595
f 593/593 595/595 596/596
f 600/600 599/599 598/598
f 600/600 598/598 597/597
f 601/601 602/602 603/603
f 601/601 603/603 604/604
f 605/605 606/606 607/607
f 605/605 607/607 608/608
f 612/612 611/611 610/610
f 612/612 610/610 609/609
f 613/613 614/614 615/615
f 613/613 615/615 616/616
f 617/617 618/618 619/619
f 617/617 619/619 620/620
f 621/621 622/622 623/623
f 621/621 623/623 624/624
f 625/625 626/626 627/627
f 625/625 627/627 628/628
f 632/632 631/631 630/630
f 632/632 630/630 629/629
f 633/633 634/634 635/635
f 633/633 635/635 636/636
f 637/637 638/638 639/639
f 637/637 639/639 640/640
f 641/641 642/642 643/643
f 641/641 643/643 644/644
f 645/645 646/646 647/647
f 645/645 647/647 648/648
f 652/652 651/651 650/650
f 652/652 650/650 649/649
f 653/653 654/654 655/655
f 653/653 655/655 656/656
f 657/657 658/658 659/659
f 657/657 659/659 660/660
f 661/661 662/662 663/663
f 661/661 663/663 664/664
f 665/665 666/666 667/667
f 665/665 667/667 668/668
f 672/672 671/671 670/670
f 672/672 670/670 669/669
f 673/673 674/674 675/675
f 673/673 675/675 676/676
f 677/677 678/678 679/679
f 677/677 679/679 680/680
f 681/681 682/682 683/683
f 681/681 683/683 684/684
f 685/685 686/686 687/687
f 685/685 687/687 688/688
f 692/692 691/691 690/690
f 692/692 690/690 689/689
f 693/693 694/694 695/695
f 693/693 695/695 696/696
f 697/697 698/698 699/699
f 697/697 699/699 700/700
f 701/701 702/702 703/703
f 701/701 703/703 704/704
f 705/705 706/706 707/707
f 705/705 707/707 708/708
f 712/712 711/711 710/710
f 712/712 710/710 709/709
f 713/713 714/714 715/715
f 713/713 715/715 716/716
f 717/717 718/718 719/719
f 717/717 719/719 720/720
f 721/721 722/722 723/723
f 721/721 723/723 724/724
f 725/725 726/726 727/727
f 725/725 727/727 728/728
f 732/732 731/731 730/730
f 732/732 730/730 729/729
f 733/733 734/734 735/735
f 733/733 735/735 736/736
f 737/737 738/738 739/739
f 737/737 739/739 740/740
f 741/741 742/742 743/743
f 741/741 743/743 744/744
f 745/745 746/746 747/747
f 745/745 747/747 748/748
f 752/752 751/751 750/750
f 752/752 750/750 749/749
f 753/753 754/754 755/755
f 753/753 755/755 756/756
f 757/757 758/758 759/759
f 757/757 759/759 760/760
f 761/761 762/762 763/763
f 761/761 763/763 764/764
f 765/765 766/766 767/767
f 765/765 767/767 768/768
f 772/772 771/771 770/770
f 772/772 770/770 769/769
f 773/773 774/774 775/775
f 773/773 775/775 776/776
f 777/777 778/778 779/779
f 777/777 779/779 780/780
f 781/781 782/782 783/783
f 781/781 783/783 784/784
f 785/785 786/786 787/787
f 785/785 787/787 788/788
f 792/792 791/791 790/790
f 792/792 790/790 789/789
f 793/793 794/794 795/795
f 793/793 795/795 796/796
f 797/797 798/798 799/799
f 797/797 799/799 800/800
f 801/801 802/802 803/803
f 801/801 803/803 804/804
f 805/805 806/806 807/807
f 805/805 807/807 808/808
f 812/812 811/811 810/810
f 812/812 810/810 809/809
f 813/813 814/814 815/815
f 813/813 815/815 816/816
f 817/817 818/818 819/819
f 817/817 819/819 820/820
f 821/821 822/822 823/823
f 821/821 823/823 824/824
f 825/825 826/826 827/827
f 825/825 827/827 828/828
f 832/832 831/831 830/830
f 832/832 830/830 829/829
f 833/833 834/834 835/835
f 833/833 835/835 836/836
f 837/837 838/838 839/839
f 837/837 839/839 840/840
f 841/841 842/842 843/843
f 841/841 843/843 844/844
f 845/845 846/846 847/847
f 845/845 847/847 848/848
f 852/852 851/851 850/850
f 852/852 850/850 849/849
f 853/853 854/854 855/855
f 853/853 855/855 856/856
f 857/857 858/858 859/859
f 857/857 859/859 860/860
f 861/861 862/862 863/863
f 861/861 863/863 864/864
f 865/865 866/866 867/867
f 865/865 867/867 868/868
f 872/872 871/871 870/870
f 872/872 870/870 869/869
f 873/873 874/874 875/875
f 873/873 875/875 876/876
f 877/877 878/878 879/879
f 877/877 879/879 880/880
f 881/881 882/882 883/883
f 881/881 883/883 884/884
f 885/885 886/886 887/887
f 885/885 887/887 888/888
