g haus_collider
v -2.4500 3.6000 -1.8500
v 2.4500 3.6000 -1.8500
v 2.4500 3.6000 1.8500
v -2.4500 3.6000 1.8500
v -2.4500 0.0000 -1.8500
v -2.4500 3.6000 -1.8500
v 2.4500 3.6000 -1.8500
v 2.4500 0.0000 -1.8500
v 2.4500 0.0000 1.8500
v 2.4500 3.6000 1.8500
v -2.4500 3.6000 1.8500
v -2.4500 0.0000 1.8500
v -2.4500 0.0000 1.8500
v -2.4500 3.6000 1.8500
v -2.4500 3.6000 -1.8500
v -2.4500 0.0000 -1.8500
v 2.4500 0.0000 -1.8500
v 2.4500 3.6000 -1.8500
v 2.4500 3.6000 1.8500
v 2.4500 0.0000 1.8500
vt 0.1288 0.2197
vt 0.8712 0.2197
vt 0.8712 0.7803
vt 0.1288 0.7803
vt 0.1288 0.0000
vt 0.8712 0.0000
vt 0.8712 0.5455
vt 0.1288 0.5455
vt 0.1288 0.0000
vt 0.8712 0.0000
vt 0.8712 0.5455
vt 0.1288 0.5455
vt 0.2197 0.0000
vt 0.7803 0.0000
vt 0.7803 0.5455
vt 0.2197 0.5455
vt 0.2197 0.0000
vt 0.7803 0.0000
vt 0.7803 0.5455
vt 0.2197 0.5455
f 4/4 3/3 2/2
f 4/4 2/2 1/1
f 5/5 6/6 7/7
f 5/5 7/7 8/8
f 9/9 10/10 11/11
f 9/9 11/11 12/12
f 13/13 14/14 15/15
f 13/13 15/15 16/16
f 17/17 18/18 19/19
f 17/17 19/19 20/20
