g turm_collider
v -1.5700 5.3500 -1.5700
v 1.5700 5.3500 -1.5700
v 1.5700 5.3500 1.5700
v -1.5700 5.3500 1.5700
v -1.5700 0.0000 -1.5700
v -1.5700 5.3500 -1.5700
v 1.5700 5.3500 -1.5700
v 1.5700 0.0000 -1.5700
v 1.5700 0.0000 1.5700
v 1.5700 5.3500 1.5700
v -1.5700 5.3500 1.5700
v -1.5700 0.0000 1.5700
v -1.5700 0.0000 1.5700
v -1.5700 5.3500 1.5700
v -1.5700 5.3500 -1.5700
v -1.5700 0.0000 -1.5700
v 1.5700 0.0000 -1.5700
v 1.5700 5.3500 -1.5700
v 1.5700 5.3500 1.5700
v 1.5700 0.0000 1.5700
vt -0.8722 -0.8722
vt 0.8722 -0.8722
vt 0.8722 0.8722
vt -0.8722 0.8722
vt -0.8722 0.0000
vt 0.8722 0.0000
vt 0.8722 2.9722
vt -0.8722 2.9722
vt -0.8722 0.0000
vt 0.8722 0.0000
vt 0.8722 2.9722
vt -0.8722 2.9722
vt -0.8722 0.0000
vt 0.8722 0.0000
vt 0.8722 2.9722
vt -0.8722 2.9722
vt -0.8722 0.0000
vt 0.8722 0.0000
vt 0.8722 2.9722
vt -0.8722 2.9722
f 1/1 2/2 3/3
f 1/1 3/3 4/4
f 5/5 6/6 7/7
f 5/5 7/7 8/8
f 9/9 10/10 11/11
f 9/9 11/11 12/12
f 13/13 14/14 15/15
f 13/13 15/15 16/16
f 17/17 18/18 19/19
f 17/17 19/19 20/20
