g turm
v -1.1900 0.3200 -1.1900
v 1.1900 0.3200 -1.1900
v 1.1900 0.3200 1.1900
v -1.1900 0.3200 1.1900
v -1.1900 0.0000 -1.1900
v -1.1900 0.3200 -1.1900
v 1.1900 0.3200 -1.1900
v 1.1900 0.0000 -1.1900
v 1.1900 0.0000 1.1900
v 1.1900 0.3200 1.1900
v -1.1900 0.3200 1.1900
v -1.1900 0.0000 1.1900
v -1.1900 0.0000 1.1900
v -1.1900 0.3200 1.1900
v -1.1900 0.3200 -1.1900
v -1.1900 0.0000 -1.1900
v 1.1900 0.0000 -1.1900
v 1.1900 0.3200 -1.1900
v 1.1900 0.3200 1.1900
v 1.1900 0.0000 1.1900
v -1.0500 5.0000 -1.0500
v 1.0500 5.0000 -1.0500
v 1.0500 5.0000 1.0500
v -1.0500 5.0000 1.0500
v -1.0500 0.0000 -1.0500
v -1.0500 5.0000 -1.0500
v 1.0500 5.0000 -1.0500
v 1.0500 0.0000 -1.0500
v 1.0500 0.0000 1.0500
v 1.0500 5.0000 1.0500
v -1.0500 5.0000 1.0500
v -1.0500 0.0000 1.0500
v -1.0500 0.0000 1.0500
v -1.0500 5.0000 1.0500
v -1.0500 5.0000 -1.0500
v -1.0500 0.0000 -1.0500
v 1.0500 0.0000 -1.0500
v 1.0500 5.0000 -1.0500
v 1.0500 5.0000 1.0500
v 1.0500 0.0000 1.0500
v -1.2500 5.3400 -1.2500
v 1.2500 5.3400 -1.2500
v 1.2500 5.3400 1.2500
v -1.2500 5.3400 1.2500
v -1.2500 5.0000 -1.2500
v -1.2500 5.3400 -1.2500
v 1.2500 5.3400 -1.2500
v 1.2500 5.0000 -1.2500
v 1.2500 5.0000 1.2500
v 1.2500 5.3400 1.2500
v -1.2500 5.3400 1.2500
v -1.2500 5.0000 1.2500
v -1.2500 5.0000 1.2500
v -1.2500 5.3400 1.2500
v -1.2500 5.3400 -1.2500
v -1.2500 5.0000 -1.2500
v 1.2500 5.0000 -1.2500
v 1.2500 5.3400 -1.2500
v 1.2500 5.3400 1.2500
v 1.2500 5.0000 1.2500
v -0.4200 1.3500 -1.1400
v 0.4200 1.3500 -1.1400
v 0.4200 1.3500 -1.0500
v -0.4200 1.3500 -1.0500
v -0.4200 0.0000 -1.1400
v -0.4200 1.3500 -1.1400
v 0.4200 1.3500 -1.1400
v 0.4200 0.0000 -1.1400
v 0.4200 0.0000 -1.0500
v 0.4200 1.3500 -1.0500
v -0.4200 1.3500 -1.0500
v -0.4200 0.0000 -1.0500
v -0.4200 0.0000 -1.0500
v -0.4200 1.3500 -1.0500
v -0.4200 1.3500 -1.1400
v -0.4200 0.0000 -1.1400
v 0.4200 0.0000 -1.1400
v 0.4200 1.3500 -1.1400
v 0.4200 1.3500 -1.0500
v 0.4200 0.0000 -1.0500
v -0.5200 1.5000 -1.1800
v 0.5200 1.5000 -1.1800
v 0.5200 1.5000 -1.0700
v -0.5200 1.5000 -1.0700
v -0.5200 1.2800 -1.1800
v -0.5200 1.5000 -1.1800
v 0.5200 1.5000 -1.1800
v 0.5200 1.2800 -1.1800
v 0.5200 1.2800 -1.0700
v 0.5200 1.5000 -1.0700
v -0.5200 1.5000 -1.0700
v -0.5200 1.2800 -1.0700
v -0.5200 1.2800 -1.0700
v -0.5200 1.5000 -1.0700
v -0.5200 1.5000 -1.1800
v -0.5200 1.2800 -1.1800
v 0.5200 1.2800 -1.1800
v 0.5200 1.5000 -1.1800
v 0.5200 1.5000 -1.0700
v 0.5200 1.2800 -1.0700
v -0.1800 2.3200 -1.1100
v 0.1800 2.3200 -1.1100
v 0.1800 2.3200 -1.0500
v -0.1800 2.3200 -1.0500
v -0.1800 1.9000 -1.1100
v -0.1800 2.3200 -1.1100
v 0.1800 2.3200 -1.1100
v 0.1800 1.9000 -1.1100
v 0.1800 1.9000 -1.0500
v 0.1800 2.3200 -1.0500
v -0.1800 2.3200 -1.0500
v -0.1800 1.9000 -1.0500
v -0.1800 1.9000 -1.0500
v -0.1800 2.3200 -1.0500
v -0.1800 2.3200 -1.1100
v -0.1800 1.9000 -1.1100
v 0.1800 1.9000 -1.1100
v 0.1800 2.3200 -1.1100
v 0.1800 2.3200 -1.0500
v 0.1800 1.9000 -1.0500
v -0.1800 2.3200 1.0500
v 0.1800 2.3200 1.0500
v 0.1800 2.3200 1.1100
v -0.1800 2.3200 1.1100
v -0.1800 1.9000 1.0500
v -0.1800 2.3200 1.0500
v 0.1800 2.3200 1.0500
v 0.1800 1.9000 1.0500
v 0.1800 1.9000 1.1100
v 0.1800 2.3200 1.1100
v -0.1800 2.3200 1.1100
v -0.1800 1.9000 1.1100
v -0.1800 1.9000 1.1100
v -0.1800 2.3200 1.1100
v -0.1800 2.3200 1.0500
v -0.1800 1.9000 1.0500
v 0.1800 1.9000 1.0500
v 0.1800 2.3200 1.0500
v 0.1800 2.3200 1.1100
v 0.1800 1.9000 1.1100
v -1.1100 2.3200 -0.1800
v -1.0500 2.3200 -0.1800
v -1.0500 2.3200 0.1800
v -1.1100 2.3200 0.1800
v -1.1100 1.9000 -0.1800
v -1.1100 2.3200 -0.1800
v -1.0500 2.3200 -0.1800
v -1.0500 1.9000 -0.1800
v -1.0500 1.9000 0.1800
v -1.0500 2.3200 0.1800
v -1.1100 2.3200 0.1800
v -1.1100 1.9000 0.1800
v -1.1100 1.9000 0.1800
v -1.1100 2.3200 0.1800
v -1.1100 2.3200 -0.1800
v -1.1100 1.9000 -0.1800
v -1.0500 1.9000 -0.1800
v -1.0500 2.3200 -0.1800
v -1.0500 2.3200 0.1800
v -1.0500 1.9000 0.1800
v 1.0500 2.3200 -0.1800
v 1.1100 2.3200 -0.1800
v 1.1100 2.3200 0.1800
v 1.0500 2.3200 0.1800
v 1.0500 1.9000 -0.1800
v 1.0500 2.3200 -0.1800
v 1.1100 2.3200 -0.1800
v 1.1100 1.9000 -0.1800
v 1.1100 1.9000 0.1800
v 1.1100 2.3200 0.1800
v 1.0500 2.3200 0.1800
v 1.0500 1.9000 0.1800
v 1.0500 1.9000 0.1800
v 1.0500 2.3200 0.1800
v 1.0500 2.3200 -0.1800
v 1.0500 1.9000 -0.1800
v 1.1100 1.9000 -0.1800
v 1.1100 2.3200 -0.1800
v 1.1100 2.3200 0.1800
v 1.1100 1.9000 0.1800
v -0.1800 3.5200 -1.1100
v 0.1800 3.5200 -1.1100
v 0.1800 3.5200 -1.0500
v -0.1800 3.5200 -1.0500
v -0.1800 3.1000 -1.1100
v -0.1800 3.5200 -1.1100
v 0.1800 3.5200 -1.1100
v 0.1800 3.1000 -1.1100
v 0.1800 3.1000 -1.0500
v 0.1800 3.5200 -1.0500
v -0.1800 3.5200 -1.0500
v -0.1800 3.1000 -1.0500
v -0.1800 3.1000 -1.0500
v -0.1800 3.5200 -1.0500
v -0.1800 3.5200 -1.1100
v -0.1800 3.1000 -1.1100
v 0.1800 3.1000 -1.1100
v 0.1800 3.5200 -1.1100
v 0.1800 3.5200 -1.0500
v 0.1800 3.1000 -1.0500
v -0.1800 3.5200 1.0500
v 0.1800 3.5200 1.0500
v 0.1800 3.5200 1.1100
v -0.1800 3.5200 1.1100
v -0.1800 3.1000 1.0500
v -0.1800 3.5200 1.0500
v 0.1800 3.5200 1.0500
v 0.1800 3.1000 1.0500
v 0.1800 3.1000 1.1100
v 0.1800 3.5200 1.1100
v -0.1800 3.5200 1.1100
v -0.1800 3.1000 1.1100
v -0.1800 3.1000 1.1100
v -0.1800 3.5200 1.1100
v -0.1800 3.5200 1.0500
v -0.1800 3.1000 1.0500
v 0.1800 3.1000 1.0500
v 0.1800 3.5200 1.0500
v 0.1800 3.5200 1.1100
v 0.1800 3.1000 1.1100
v -1.1100 3.5200 -0.1800
v -1.0500 3.5200 -0.1800
v -1.0500 3.5200 0.1800
v -1.1100 3.5200 0.1800
v -1.1100 3.1000 -0.1800
v -1.1100 3.5200 -0.1800
v -1.0500 3.5200 -0.1800
v -1.0500 3.1000 -0.1800
v -1.0500 3.1000 0.1800
v -1.0500 3.5200 0.1800
v -1.1100 3.5200 0.1800
v -1.1100 3.1000 0.1800
v -1.1100 3.1000 0.1800
v -1.1100 3.5200 0.1800
v -1.1100 3.5200 -0.1800
v -1.1100 3.1000 -0.1800
v -1.0500 3.1000 -0.1800
v -1.0500 3.5200 -0.1800
v -1.0500 3.5200 0.1800
v -1.0500 3.1000 0.1800
v 1.0500 3.5200 -0.1800
v 1.1100 3.5200 -0.1800
v 1.1100 3.5200 0.1800
v 1.0500 3.5200 0.1800
v 1.0500 3.1000 -0.1800
v 1.0500 3.5200 -0.1800
v 1.1100 3.5200 -0.1800
v 1.1100 3.1000 -0.1800
v 1.1100 3.1000 0.1800
v 1.1100 3.5200 0.1800
v 1.0500 3.5200 0.1800
v 1.0500 3.1000 0.1800
v 1.0500 3.1000 0.1800
v 1.0500 3.5200 0.1800
v 1.0500 3.5200 -0.1800
v 1.0500 3.1000 -0.1800
v 1.1100 3.1000 -0.1800
v 1.1100 3.5200 -0.1800
v 1.1100 3.5200 0.1800
v 1.1100 3.1000 0.1800
v -0.1800 4.5200 -1.1100
v 0.1800 4.5200 -1.1100
v 0.1800 4.5200 -1.0500
v -0.1800 4.5200 -1.0500
v -0.1800 4.1000 -1.1100
v -0.1800 4.5200 -1.1100
v 0.1800 4.5200 -1.1100
v 0.1800 4.1000 -1.1100
v 0.1800 4.1000 -1.0500
v 0.1800 4.5200 -1.0500
v -0.1800 4.5200 -1.0500
v -0.1800 4.1000 -1.0500
v -0.1800 4.1000 -1.0500
v -0.1800 4.5200 -1.0500
v -0.1800 4.5200 -1.1100
v -0.1800 4.1000 -1.1100
v 0.1800 4.1000 -1.1100
v 0.1800 4.5200 -1.1100
v 0.1800 4.5200 -1.0500
v 0.1800 4.1000 -1.0500
v -0.1800 4.5200 1.0500
v 0.1800 4.5200 1.0500
v 0.1800 4.5200 1.1100
v -0.1800 4.5200 1.1100
v -0.1800 4.1000 1.0500
v -0.1800 4.5200 1.0500
v 0.1800 4.5200 1.0500
v 0.1800 4.1000 1.0500
v 0.1800 4.1000 1.1100
v 0.1800 4.5200 1.1100
v -0.1800 4.5200 1.1100
v -0.1800 4.1000 1.1100
v -0.1800 4.1000 1.1100
v -0.1800 4.5200 1.1100
v -0.1800 4.5200 1.0500
v -0.1800 4.1000 1.0500
v 0.1800 4.1000 1.0500
v 0.1800 4.5200 1.0500
v 0.1800 4.5200 1.1100
v 0.1800 4.1000 1.1100
v -1.1100 4.5200 -0.1800
v -1.0500 4.5200 -0.1800
v -1.0500 4.5200 0.1800
v -1.1100 4.5200 0.1800
v -1.1100 4.1000 -0.1800
v -1.1100 4.5200 -0.1800
v -1.0500 4.5200 -0.1800
v -1.0500 4.1000 -0.1800
v -1.0500 4.1000 0.1800
v -1.0500 4.5200 0.1800
v -1.1100 4.5200 0.1800
v -1.1100 4.1000 0.1800
v -1.1100 4.1000 0.1800
v -1.1100 4.5200 0.1800
v -1.1100 4.5200 -0.1800
v -1.1100 4.1000 -0.1800
v -1.0500 4.1000 -0.1800
v -1.0500 4.5200 -0.1800
v -1.0500 4.5200 0.1800
v -1.0500 4.1000 0.1800
v 1.0500 4.5200 -0.1800
v 1.1100 4.5200 -0.1800
v 1.1100 4.5200 0.1800
v 1.0500 4.5200 0.1800
v 1.0500 4.1000 -0.1800
v 1.0500 4.5200 -0.1800
v 1.1100 4.5200 -0.1800
v 1.1100 4.1000 -0.1800
v 1.1100 4.1000 0.1800
v 1.1100 4.5200 0.1800
v 1.0500 4.5200 0.1800
v 1.0500 4.1000 0.1800
v 1.0500 4.1000 0.1800
v 1.0500 4.5200 0.1800
v 1.0500 4.5200 -0.1800
v 1.0500 4.1000 -0.1800
v 1.1100 4.1000 -0.1800
v 1.1100 4.5200 -0.1800
v 1.1100 4.5200 0.1800
v 1.1100 4.1000 0.1800
v -1.2500 5.8400 -1.2500
v -0.9375 5.8400 -1.2500
v -0.9375 5.8400 -1.0100
v -1.2500 5.8400 -1.0100
v -1.2500 5.3400 -1.2500
v -1.2500 5.8400 -1.2500
v -0.9375 5.8400 -1.2500
v -0.9375 5.3400 -1.2500
v -0.9375 5.3400 -1.0100
v -0.9375 5.8400 -1.0100
v -1.2500 5.8400 -1.0100
v -1.2500 5.3400 -1.0100
v -1.2500 5.3400 -1.0100
v -1.2500 5.8400 -1.0100
v -1.2500 5.8400 -1.2500
v -1.2500 5.3400 -1.2500
v -0.9375 5.3400 -1.2500
v -0.9375 5.8400 -1.2500
v -0.9375 5.8400 -1.0100
v -0.9375 5.3400 -1.0100
v -1.2500 5.8400 1.0100
v -0.9375 5.8400 1.0100
v -0.9375 5.8400 1.2500
v -1.2500 5.8400 1.2500
v -1.2500 5.3400 1.0100
v -1.2500 5.8400 1.0100
v -0.9375 5.8400 1.0100
v -0.9375 5.3400 1.0100
v -0.9375 5.3400 1.2500
v -0.9375 5.8400 1.2500
v -1.2500 5.8400 1.2500
v -1.2500 5.3400 1.2500
v -1.2500 5.3400 1.2500
v -1.2500 5.8400 1.2500
v -1.2500 5.8400 1.0100
v -1.2500 5.3400 1.0100
v -0.9375 5.3400 1.0100
v -0.9375 5.8400 1.0100
v -0.9375 5.8400 1.2500
v -0.9375 5.3400 1.2500
v -1.2500 5.8400 -1.2500
v -1.0100 5.8400 -1.2500
v -1.0100 5.8400 -0.9375
v -1.2500 5.8400 -0.9375
v -1.2500 5.3400 -1.2500
v -1.2500 5.8400 -1.2500
v -1.0100 5.8400 -1.2500
v -1.0100 5.3400 -1.2500
v -1.0100 5.3400 -0.9375
v -1.0100 5.8400 -0.9375
v -1.2500 5.8400 -0.9375
v -1.2500 5.3400 -0.9375
v -1.2500 5.3400 -0.9375
v -1.2500 5.8400 -0.9375
v -1.2500 5.8400 -1.2500
v -1.2500 5.3400 -1.2500
v -1.0100 5.3400 -1.2500
v -1.0100 5.8400 -1.2500
v -1.0100 5.8400 -0.9375
v -1.0100 5.3400 -0.9375
v 1.0100 5.8400 -1.2500
v 1.2500 5.8400 -1.2500
v 1.2500 5.8400 -0.9375
v 1.0100 5.8400 -0.9375
v 1.0100 5.3400 -1.2500
v 1.0100 5.8400 -1.2500
v 1.2500 5.8400 -1.2500
v 1.2500 5.3400 -1.2500
v 1.2500 5.3400 -0.9375
v 1.2500 5.8400 -0.9375
v 1.0100 5.8400 -0.9375
v 1.0100 5.3400 -0.9375
v 1.0100 5.3400 -0.9375
v 1.0100 5.8400 -0.9375
v 1.0100 5.8400 -1.2500
v 1.0100 5.3400 -1.2500
v 1.2500 5.3400 -1.2500
v 1.2500 5.8400 -1.2500
v 1.2500 5.8400 -0.9375
v 1.2500 5.3400 -0.9375
v -0.6250 5.8400 -1.2500
v -0.3125 5.8400 -1.2500
v -0.3125 5.8400 -1.0100
v -0.6250 5.8400 -1.0100
v -0.6250 5.3400 -1.2500
v -0.6250 5.8400 -1.2500
v -0.3125 5.8400 -1.2500
v -0.3125 5.3400 -1.2500
v -0.3125 5.3400 -1.0100
v -0.3125 5.8400 -1.0100
v -0.6250 5.8400 -1.0100
v -0.6250 5.3400 -1.0100
v -0.6250 5.3400 -1.0100
v -0.6250 5.8400 -1.0100
v -0.6250 5.8400 -1.2500
v -0.6250 5.3400 -1.2500
v -0.3125 5.3400 -1.2500
v -0.3125 5.8400 -1.2500
v -0.3125 5.8400 -1.0100
v -0.3125 5.3400 -1.0100
v -0.6250 5.8400 1.0100
v -0.3125 5.8400 1.0100
v -0.3125 5.8400 1.2500
v -0.6250 5.8400 1.2500
v -0.6250 5.3400 1.0100
v -0.6250 5.8400 1.0100
v -0.3125 5.8400 1.0100
v -0.3125 5.3400 1.0100
v -0.3125 5.3400 1.2500
v -0.3125 5.8400 1.2500
v -0.6250 5.8400 1.2500
v -0.6250 5.3400 1.2500
v -0.6250 5.3400 1.2500
v -0.6250 5.8400 1.2500
v -0.6250 5.8400 1.0100
v -0.6250 5.3400 1.0100
v -0.3125 5.3400 1.0100
v -0.3125 5.8400 1.0100
v -0.3125 5.8400 1.2500
v -0.3125 5.3400 1.2500
v -1.2500 5.8400 -0.6250
v -1.0100 5.8400 -0.6250
v -1.0100 5.8400 -0.3125
v -1.2500 5.8400 -0.3125
v -1.2500 5.3400 -0.6250
v -1.2500 5.8400 -0.6250
v -1.0100 5.8400 -0.6250
v -1.0100 5.3400 -0.6250
v -1.0100 5.3400 -0.3125
v -1.0100 5.8400 -0.3125
v -1.2500 5.8400 -0.3125
v -1.2500 5.3400 -0.3125
v -1.2500 5.3400 -0.3125
v -1.2500 5.8400 -0.3125
v -1.2500 5.8400 -0.6250
v -1.2500 5.3400 -0.6250
v -1.0100 5.3400 -0.6250
v -1.0100 5.8400 -0.6250
v -1.0100 5.8400 -0.3125
v -1.0100 5.3400 -0.3125
v 1.0100 5.8400 -0.6250
v 1.2500 5.8400 -0.6250
v 1.2500 5.8400 -0.3125
v 1.0100 5.8400 -0.3125
v 1.0100 5.3400 -0.6250
v 1.0100 5.8400 -0.6250
v 1.2500 5.8400 -0.6250
v 1.2500 5.3400 -0.6250
v 1.2500 5.3400 -0.3125
v 1.2500 5.8400 -0.3125
v 1.0100 5.8400 -0.3125
v 1.0100 5.3400 -0.3125
v 1.0100 5.3400 -0.3125
v 1.0100 5.8400 -0.3125
v 1.0100 5.8400 -0.6250
v 1.0100 5.3400 -0.6250
v 1.2500 5.3400 -0.6250
v 1.2500 5.8400 -0.6250
v 1.2500 5.8400 -0.3125
v 1.2500 5.3400 -0.3125
v 0.0000 5.8400 -1.2500
v 0.3125 5.8400 -1.2500
v 0.3125 5.8400 -1.0100
v 0.0000 5.8400 -1.0100
v 0.0000 5.3400 -1.2500
v 0.0000 5.8400 -1.2500
v 0.3125 5.8400 -1.2500
v 0.3125 5.3400 -1.2500
v 0.3125 5.3400 -1.0100
v 0.3125 5.8400 -1.0100
v 0.0000 5.8400 -1.0100
v 0.0000 5.3400 -1.0100
v 0.0000 5.3400 -1.0100
v 0.0000 5.8400 -1.0100
v 0.0000 5.8400 -1.2500
v 0.0000 5.3400 -1.2500
v 0.3125 5.3400 -1.2500
v 0.3125 5.8400 -1.2500
v 0.3125 5.8400 -1.0100
v 0.3125 5.3400 -1.0100
v 0.0000 5.8400 1.0100
v 0.3125 5.8400 1.0100
v 0.3125 5.8400 1.2500
v 0.0000 5.8400 1.2500
v 0.0000 5.3400 1.0100
v 0.0000 5.8400 1.0100
v 0.3125 5.8400 1.0100
v 0.3125 5.3400 1.0100
v 0.3125 5.3400 1.2500
v 0.3125 5.8400 1.2500
v 0.0000 5.8400 1.2500
v 0.0000 5.3400 1.2500
v 0.0000 5.3400 1.2500
v 0.0000 5.8400 1.2500
v 0.0000 5.8400 1.0100
v 0.0000 5.3400 1.0100
v 0.3125 5.3400 1.0100
v 0.3125 5.8400 1.0100
v 0.3125 5.8400 1.2500
v 0.3125 5.3400 1.2500
v -1.2500 5.8400 0.0000
v -1.0100 5.8400 0.0000
v -1.0100 5.8400 0.3125
v -1.2500 5.8400 0.3125
v -1.2500 5.3400 0.0000
v -1.2500 5.8400 0.0000
v -1.0100 5.8400 0.0000
v -1.0100 5.3400 0.0000
v -1.0100 5.3400 0.3125
v -1.0100 5.8400 0.3125
v -1.2500 5.8400 0.3125
v -1.2500 5.3400 0.3125
v -1.2500 5.3400 0.3125
v -1.2500 5.8400 0.3125
v -1.2500 5.8400 0.0000
v -1.2500 5.3400 0.0000
v -1.0100 5.3400 0.0000
v -1.0100 5.8400 0.0000
v -1.0100 5.8400 0.3125
v -1.0100 5.3400 0.3125
v 1.0100 5.8400 0.0000
v 1.2500 5.8400 0.0000
v 1.2500 5.8400 0.3125
v 1.0100 5.8400 0.3125
v 1.0100 5.3400 0.0000
v 1.0100 5.8400 0.0000
v 1.2500 5.8400 0.0000
v 1.2500 5.3400 0.0000
v 1.2500 5.3400 0.3125
v 1.2500 5.8400 0.3125
v 1.0100 5.8400 0.3125
v 1.0100 5.3400 0.3125
v 1.0100 5.3400 0.3125
v 1.0100 5.8400 0.3125
v 1.0100 5.8400 0.0000
v 1.0100 5.3400 0.0000
v 1.2500 5.3400 0.0000
v 1.2500 5.8400 0.0000
v 1.2500 5.8400 0.3125
v 1.2500 5.3400 0.3125
v 0.6250 5.8400 -1.2500
v 0.9375 5.8400 -1.2500
v 0.9375 5.8400 -1.0100
v 0.6250 5.8400 -1.0100
v 0.6250 5.3400 -1.2500
v 0.6250 5.8400 -1.2500
v 0.9375 5.8400 -1.2500
v 0.9375 5.3400 -1.2500
v 0.9375 5.3400 -1.0100
v 0.9375 5.8400 -1.0100
v 0.6250 5.8400 -1.0100
v 0.6250 5.3400 -1.0100
v 0.6250 5.3400 -1.0100
v 0.6250 5.8400 -1.0100
v 0.6250 5.8400 -1.2500
v 0.6250 5.3400 -1.2500
v 0.9375 5.3400 -1.2500
v 0.9375 5.8400 -1.2500
v 0.9375 5.8400 -1.0100
v 0.9375 5.3400 -1.0100
v 0.6250 5.8400 1.0100
v 0.9375 5.8400 1.0100
v 0.9375 5.8400 1.2500
v 0.6250 5.8400 1.2500
v 0.6250 5.3400 1.0100
v 0.6250 5.8400 1.0100
v 0.9375 5.8400 1.0100
v 0.9375 5.3400 1.0100
v 0.9375 5.3400 1.2500
v 0.9375 5.8400 1.2500
v 0.6250 5.8400 1.2500
v 0.6250 5.3400 1.2500
v 0.6250 5.3400 1.2500
v 0.6250 5.8400 1.2500
v 0.6250 5.8400 1.0100
v 0.6250 5.3400 1.0100
v 0.9375 5.3400 1.0100
v 0.9375 5.8400 1.0100
v 0.9375 5.8400 1.2500
v 0.9375 5.3400 1.2500
v -1.2500 5.8400 0.6250
v -1.0100 5.8400 0.6250
v -1.0100 5.8400 0.9375
v -1.2500 5.8400 0.9375
v -1.2500 5.3400 0.6250
v -1.2500 5.8400 0.6250
v -1.0100 5.8400 0.6250
v -1.0100 5.3400 0.6250
v -1.0100 5.3400 0.9375
v -1.0100 5.8400 0.9375
v -1.2500 5.8400 0.9375
v -1.2500 5.3400 0.9375
v -1.2500 5.3400 0.9375
v -1.2500 5.8400 0.9375
v -1.2500 5.8400 0.6250
v -1.2500 5.3400 0.6250
v -1.0100 5.3400 0.6250
v -1.0100 5.8400 0.6250
v -1.0100 5.8400 0.9375
v -1.0100 5.3400 0.9375
v 1.0100 5.8400 0.6250
v 1.2500 5.8400 0.6250
v 1.2500 5.8400 0.9375
v 1.0100 5.8400 0.9375
v 1.0100 5.3400 0.6250
v 1.0100 5.8400 0.6250
v 1.2500 5.8400 0.6250
v 1.2500 5.3400 0.6250
v 1.2500 5.3400 0.9375
v 1.2500 5.8400 0.9375
v 1.0100 5.8400 0.9375
v 1.0100 5.3400 0.9375
v 1.0100 5.3400 0.9375
v 1.0100 5.8400 0.9375
v 1.0100 5.8400 0.6250
v 1.0100 5.3400 0.6250
v 1.2500 5.3400 0.6250
v 1.2500 5.8400 0.6250
v 1.2500 5.8400 0.9375
v 1.2500 5.3400 0.9375
vt 0.3197 0.3197
vt 0.6803 0.3197
vt 0.6803 0.6803
vt 0.3197 0.6803
vt 0.3197 0.0000
vt 0.6803 0.0000
vt 0.6803 0.0485
vt 0.3197 0.0485
vt 0.3197 0.0000
vt 0.6803 0.0000
vt 0.6803 0.0485
vt 0.3197 0.0485
vt 0.3197 0.0000
vt 0.6803 0.0000
vt 0.6803 0.0485
vt 0.3197 0.0485
vt 0.3197 0.0000
vt 0.6803 0.0000
vt 0.6803 0.0485
vt 0.3197 0.0485
vt 0.3409 0.3409
vt 0.6591 0.3409
vt 0.6591 0.6591
vt 0.3409 0.6591
vt 0.3409 0.0000
vt 0.6591 0.0000
vt 0.6591 0.7576
vt 0.3409 0.7576
vt 0.3409 0.0000
vt 0.6591 0.0000
vt 0.6591 0.7576
vt 0.3409 0.7576
vt 0.3409 0.0000
vt 0.6591 0.0000
vt 0.6591 0.7576
vt 0.3409 0.7576
vt 0.3409 0.0000
vt 0.6591 0.0000
vt 0.6591 0.7576
vt 0.3409 0.7576
vt 0.3106 0.3106
vt 0.6894 0.3106
vt 0.6894 0.6894
vt 0.3106 0.6894
vt 0.3106 0.0000
vt 0.6894 0.0000
vt 0.6894 0.0515
vt 0.3106 0.0515
vt 0.3106 0.0000
vt 0.6894 0.0000
vt 0.6894 0.0515
vt 0.3106 0.0515
vt 0.3106 0.0000
vt 0.6894 0.0000
vt 0.6894 0.0515
vt 0.3106 0.0515
vt 0.3106 0.0000
vt 0.6894 0.0000
vt 0.6894 0.0515
vt 0.3106 0.0515
vt 0.4364 0.3273
vt 0.5636 0.3273
vt 0.5636 0.3409
vt 0.4364 0.3409
vt 0.4364 0.0000
vt 0.5636 0.0000
vt 0.5636 0.2045
vt 0.4364 0.2045
vt 0.4364 0.0000
vt 0.5636 0.0000
vt 0.5636 0.2045
vt 0.4364 0.2045
vt 0.3273 0.0000
vt 0.3409 0.0000
vt 0.3409 0.2045
vt 0.3273 0.2045
vt 0.3273 0.0000
vt 0.3409 0.0000
vt 0.3409 0.2045
vt 0.3273 0.2045
vt 0.4212 0.3212
vt 0.5788 0.3212
vt 0.5788 0.3379
vt 0.4212 0.3379
vt 0.4212 0.0000
vt 0.5788 0.0000
vt 0.5788 0.0333
vt 0.4212 0.0333
vt 0.4212 0.0000
vt 0.5788 0.0000
vt 0.5788 0.0333
vt 0.4212 0.0333
vt 0.3212 0.0000
vt 0.3379 0.0000
vt 0.3379 0.0333
vt 0.3212 0.0333
vt 0.3212 0.0000
vt 0.3379 0.0000
vt 0.3379 0.0333
vt 0.3212 0.0333
vt 0.4727 0.3318
vt 0.5273 0.3318
vt 0.5273 0.3409
vt 0.4727 0.3409
vt 0.4727 0.0000
vt 0.5273 0.0000
vt 0.5273 0.0636
vt 0.4727 0.0636
vt 0.4727 0.0000
vt 0.5273 0.0000
vt 0.5273 0.0636
vt 0.4727 0.0636
vt 0.3318 0.0000
vt 0.3409 0.0000
vt 0.3409 0.0636
vt 0.3318 0.0636
vt 0.3318 0.0000
vt 0.3409 0.0000
vt 0.3409 0.0636
vt 0.3318 0.0636
vt 0.4727 0.6591
vt 0.5273 0.6591
vt 0.5273 0.6682
vt 0.4727 0.6682
vt 0.4727 0.0000
vt 0.5273 0.0000
vt 0.5273 0.0636
vt 0.4727 0.0636
vt 0.4727 0.0000
vt 0.5273 0.0000
vt 0.5273 0.0636
vt 0.4727 0.0636
vt 0.6591 0.0000
vt 0.6682 0.0000
vt 0.6682 0.0636
vt 0.6591 0.0636
vt 0.6591 0.0000
vt 0.6682 0.0000
vt 0.6682 0.0636
vt 0.6591 0.0636
vt 0.3318 0.4727
vt 0.3409 0.4727
vt 0.3409 0.5273
vt 0.3318 0.5273
vt 0.3318 0.0000
vt 0.3409 0.0000
vt 0.3409 0.0636
vt 0.3318 0.0636
vt 0.3318 0.0000
vt 0.3409 0.0000
vt 0.3409 0.0636
vt 0.3318 0.0636
vt 0.4727 0.0000
vt 0.5273 0.0000
vt 0.5273 0.0636
vt 0.4727 0.0636
vt 0.4727 0.0000
vt 0.5273 0.0000
vt 0.5273 0.0636
vt 0.4727 0.0636
vt 0.6591 0.4727
vt 0.6682 0.4727
vt 0.6682 0.5273
vt 0.6591 0.5273
vt 0.6591 0.0000
vt 0.6682 0.0000
vt 0.6682 0.0636
vt 0.6591 0.0636
vt 0.6591 0.0000
vt 0.6682 0.0000
vt 0.6682 0.0636
vt 0.6591 0.0636
vt 0.4727 0.0000
vt 0.5273 0.0000
vt 0.5273 0.0636
vt 0.4727 0.0636
vt 0.4727 0.0000
vt 0.5273 0.0000
vt 0.5273 0.0636
vt 0.4727 0.0636
vt 0.4727 0.3318
vt 0.5273 0.3318
vt 0.5273 0.3409
vt 0.4727 0.3409
vt 0.4727 0.0000
vt 0.5273 0.0000
vt 0.5273 0.0636
vt 0.4727 0.0636
vt 0.4727 0.0000
vt 0.5273 0.0000
vt 0.5273 0.0636
vt 0.4727 0.0636
vt 0.3318 0.0000
vt 0.3409 0.0000
vt 0.3409 0.0636
vt 0.3318 0.0636
vt 0.3318 0.0000
vt 0.3409 0.0000
vt 0.3409 0.0636
vt 0.3318 0.0636
vt 0.4727 0.6591
vt 0.5273 0.6591
vt 0.5273 0.6682
vt 0.4727 0.6682
vt 0.4727 0.0000
vt 0.5273 0.0000
vt 0.5273 0.0636
vt 0.4727 0.0636
vt 0.4727 0.0000
vt 0.5273 0.0000
vt 0.5273 0.0636
vt 0.4727 0.0636
vt 0.6591 0.0000
vt 0.6682 0.0000
vt 0.6682 0.0636
vt 0.6591 0.0636
vt 0.6591 0.0000
vt 0.6682 0.0000
vt 0.6682 0.0636
vt 0.6591 0.0636
vt 0.3318 0.4727
vt 0.3409 0.4727
vt 0.3409 0.5273
vt 0.3318 0.5273
vt 0.3318 0.0000
vt 0.3409 0.0000
vt 0.3409 0.0636
vt 0.3318 0.0636
vt 0.3318 0.0000
vt 0.3409 0.0000
vt 0.3409 0.0636
vt 0.3318 0.0636
vt 0.4727 0.0000
vt 0.5273 0.0000
vt 0.5273 0.0636
vt 0.4727 0.0636
vt 0.4727 0.0000
vt 0.5273 0.0000
vt 0.5273 0.0636
vt 0.4727 0.0636
vt 0.6591 0.4727
vt 0.6682 0.4727
vt 0.6682 0.5273
vt 0.6591 0.5273
vt 0.6591 0.0000
vt 0.6682 0.0000
vt 0.6682 0.0636
vt 0.6591 0.0636
vt 0.6591 0.0000
vt 0.6682 0.0000
vt 0.6682 0.0636
vt 0.6591 0.0636
vt 0.4727 0.0000
vt 0.5273 0.0000
vt 0.5273 0.0636
vt 0.4727 0.0636
vt 0.4727 0.0000
vt 0.5273 0.0000
vt 0.5273 0.0636
vt 0.4727 0.0636
vt 0.4727 0.3318
vt 0.5273 0.3318
vt 0.5273 0.3409
vt 0.4727 0.3409
vt 0.4727 0.0000
vt 0.5273 0.0000
vt 0.5273 0.0636
vt 0.4727 0.0636
vt 0.4727 0.0000
vt 0.5273 0.0000
vt 0.5273 0.0636
vt 0.4727 0.0636
vt 0.3318 0.0000
vt 0.3409 0.0000
vt 0.3409 0.0636
vt 0.3318 0.0636
vt 0.3318 0.0000
vt 0.3409 0.0000
vt 0.3409 0.0636
vt 0.3318 0.0636
vt 0.4727 0.6591
vt 0.5273 0.6591
vt 0.5273 0.6682
vt 0.4727 0.6682
vt 0.4727 0.0000
vt 0.5273 0.0000
vt 0.5273 0.0636
vt 0.4727 0.0636
vt 0.4727 0.0000
vt 0.5273 0.0000
vt 0.5273 0.0636
vt 0.4727 0.0636
vt 0.6591 0.0000
vt 0.6682 0.0000
vt 0.6682 0.0636
vt 0.6591 0.0636
vt 0.6591 0.0000
vt 0.6682 0.0000
vt 0.6682 0.0636
vt 0.6591 0.0636
vt 0.3318 0.4727
vt 0.3409 0.4727
vt 0.3409 0.5273
vt 0.3318 0.5273
vt 0.3318 0.0000
vt 0.3409 0.0000
vt 0.3409 0.0636
vt 0.3318 0.0636
vt 0.3318 0.0000
vt 0.3409 0.0000
vt 0.3409 0.0636
vt 0.3318 0.0636
vt 0.4727 0.0000
vt 0.5273 0.0000
vt 0.5273 0.0636
vt 0.4727 0.0636
vt 0.4727 0.0000
vt 0.5273 0.0000
vt 0.5273 0.0636
vt 0.4727 0.0636
vt 0.6591 0.4727
vt 0.6682 0.4727
vt 0.6682 0.5273
vt 0.6591 0.5273
vt 0.6591 0.0000
vt 0.6682 0.0000
vt 0.6682 0.0636
vt 0.6591 0.0636
vt 0.6591 0.0000
vt 0.6682 0.0000
vt 0.6682 0.0636
vt 0.6591 0.0636
vt 0.4727 0.0000
vt 0.5273 0.0000
vt 0.5273 0.0636
vt 0.4727 0.0636
vt 0.4727 0.0000
vt 0.5273 0.0000
vt 0.5273 0.0636
vt 0.4727 0.0636
vt 0.3106 0.3106
vt 0.3580 0.3106
vt 0.3580 0.3470
vt 0.3106 0.3470
vt 0.3106 0.0000
vt 0.3580 0.0000
vt 0.3580 0.0758
vt 0.3106 0.0758
vt 0.3106 0.0000
vt 0.3580 0.0000
vt 0.3580 0.0758
vt 0.3106 0.0758
vt 0.3106 0.0000
vt 0.3470 0.0000
vt 0.3470 0.0758
vt 0.3106 0.0758
vt 0.3106 0.0000
vt 0.3470 0.0000
vt 0.3470 0.0758
vt 0.3106 0.0758
vt 0.3106 0.6530
vt 0.3580 0.6530
vt 0.3580 0.6894
vt 0.3106 0.6894
vt 0.3106 0.0000
vt 0.3580 0.0000
vt 0.3580 0.0758
vt 0.3106 0.0758
vt 0.3106 0.0000
vt 0.3580 0.0000
vt 0.3580 0.0758
vt 0.3106 0.0758
vt 0.6530 0.0000
vt 0.6894 0.0000
vt 0.6894 0.0758
vt 0.6530 0.0758
vt 0.6530 0.0000
vt 0.6894 0.0000
vt 0.6894 0.0758
vt 0.6530 0.0758
vt 0.3106 0.3106
vt 0.3470 0.3106
vt 0.3470 0.3580
vt 0.3106 0.3580
vt 0.3106 0.0000
vt 0.3470 0.0000
vt 0.3470 0.0758
vt 0.3106 0.0758
vt 0.3106 0.0000
vt 0.3470 0.0000
vt 0.3470 0.0758
vt 0.3106 0.0758
vt 0.3106 0.0000
vt 0.3580 0.0000
vt 0.3580 0.0758
vt 0.3106 0.0758
vt 0.3106 0.0000
vt 0.3580 0.0000
vt 0.3580 0.0758
vt 0.3106 0.0758
vt 0.6530 0.3106
vt 0.6894 0.3106
vt 0.6894 0.3580
vt 0.6530 0.3580
vt 0.6530 0.0000
vt 0.6894 0.0000
vt 0.6894 0.0758
vt 0.6530 0.0758
vt 0.6530 0.0000
vt 0.6894 0.0000
vt 0.6894 0.0758
vt 0.6530 0.0758
vt 0.3106 0.0000
vt 0.3580 0.0000
vt 0.3580 0.0758
vt 0.3106 0.0758
vt 0.3106 0.0000
vt 0.3580 0.0000
vt 0.3580 0.0758
vt 0.3106 0.0758
vt 0.4053 0.3106
vt 0.4527 0.3106
vt 0.4527 0.3470
vt 0.4053 0.3470
vt 0.4053 0.0000
vt 0.4527 0.0000
vt 0.4527 0.0758
vt 0.4053 0.0758
vt 0.4053 0.0000
vt 0.4527 0.0000
vt 0.4527 0.0758
vt 0.4053 0.0758
vt 0.3106 0.0000
vt 0.3470 0.0000
vt 0.3470 0.0758
vt 0.3106 0.0758
vt 0.3106 0.0000
vt 0.3470 0.0000
vt 0.3470 0.0758
vt 0.3106 0.0758
vt 0.4053 0.6530
vt 0.4527 0.6530
vt 0.4527 0.6894
vt 0.4053 0.6894
vt 0.4053 0.0000
vt 0.4527 0.0000
vt 0.4527 0.0758
vt 0.4053 0.0758
vt 0.4053 0.0000
vt 0.4527 0.0000
vt 0.4527 0.0758
vt 0.4053 0.0758
vt 0.6530 0.0000
vt 0.6894 0.0000
vt 0.6894 0.0758
vt 0.6530 0.0758
vt 0.6530 0.0000
vt 0.6894 0.0000
vt 0.6894 0.0758
vt 0.6530 0.0758
vt 0.3106 0.4053
vt 0.3470 0.4053
vt 0.3470 0.4527
vt 0.3106 0.4527
vt 0.3106 0.0000
vt 0.3470 0.0000
vt 0.3470 0.0758
vt 0.3106 0.0758
vt 0.3106 0.0000
vt 0.3470 0.0000
vt 0.3470 0.0758
vt 0.3106 0.0758
vt 0.4053 0.0000
vt 0.4527 0.0000
vt 0.4527 0.0758
vt 0.4053 0.0758
vt 0.4053 0.0000
vt 0.4527 0.0000
vt 0.4527 0.0758
vt 0.4053 0.0758
vt 0.6530 0.4053
vt 0.6894 0.4053
vt 0.6894 0.4527
vt 0.6530 0.4527
vt 0.6530 0.0000
vt 0.6894 0.0000
vt 0.6894 0.0758
vt 0.6530 0.0758
vt 0.6530 0.0000
vt 0.6894 0.0000
vt 0.6894 0.0758
vt 0.6530 0.0758
vt 0.4053 0.0000
vt 0.4527 0.0000
vt 0.4527 0.0758
vt 0.4053 0.0758
vt 0.4053 0.0000
vt 0.4527 0.0000
vt 0.4527 0.0758
vt 0.4053 0.0758
vt 0.5000 0.3106
vt 0.5473 0.3106
vt 0.5473 0.3470
vt 0.5000 0.3470
vt 0.5000 0.0000
vt 0.5473 0.0000
vt 0.5473 0.0758
vt 0.5000 0.0758
vt 0.5000 0.0000
vt 0.5473 0.0000
vt 0.5473 0.0758
vt 0.5000 0.0758
vt 0.3106 0.0000
vt 0.3470 0.0000
vt 0.3470 0.0758
vt 0.3106 0.0758
vt 0.3106 0.0000
vt 0.3470 0.0000
vt 0.3470 0.0758
vt 0.3106 0.0758
vt 0.5000 0.6530
vt 0.5473 0.6530
vt 0.5473 0.6894
vt 0.5000 0.6894
vt 0.5000 0.0000
vt 0.5473 0.0000
vt 0.5473 0.0758
vt 0.5000 0.0758
vt 0.5000 0.0000
vt 0.5473 0.0000
vt 0.5473 0.0758
vt 0.5000 0.0758
vt 0.6530 0.0000
vt 0.6894 0.0000
vt 0.6894 0.0758
vt 0.6530 0.0758
vt 0.6530 0.0000
vt 0.6894 0.0000
vt 0.6894 0.0758
vt 0.6530 0.0758
vt 0.3106 0.5000
vt 0.3470 0.5000
vt 0.3470 0.5473
vt 0.3106 0.5473
vt 0.3106 0.0000
vt 0.3470 0.0000
vt 0.3470 0.0758
vt 0.3106 0.0758
vt 0.3106 0.0000
vt 0.3470 0.0000
vt 0.3470 0.0758
vt 0.3106 0.0758
vt 0.5000 0.0000
vt 0.5473 0.0000
vt 0.5473 0.0758
vt 0.5000 0.0758
vt 0.5000 0.0000
vt 0.5473 0.0000
vt 0.5473 0.0758
vt 0.5000 0.0758
vt 0.6530 0.5000
vt 0.6894 0.5000
vt 0.6894 0.5473
vt 0.6530 0.5473
vt 0.6530 0.0000
vt 0.6894 0.0000
vt 0.6894 0.0758
vt 0.6530 0.0758
vt 0.6530 0.0000
vt 0.6894 0.0000
vt 0.6894 0.0758
vt 0.6530 0.0758
vt 0.5000 0.0000
vt 0.5473 0.0000
vt 0.5473 0.0758
vt 0.5000 0.0758
vt 0.5000 0.0000
vt 0.5473 0.0000
vt 0.5473 0.0758
vt 0.5000 0.0758
vt 0.5947 0.3106
vt 0.6420 0.3106
vt 0.6420 0.3470
vt 0.5947 0.3470
vt 0.5947 0.0000
vt 0.6420 0.0000
vt 0.6420 0.0758
vt 0.5947 0.0758
vt 0.5947 0.0000
vt 0.6420 0.0000
vt 0.6420 0.0758
vt 0.5947 0.0758
vt 0.3106 0.0000
vt 0.3470 0.0000
vt 0.3470 0.0758
vt 0.3106 0.0758
vt 0.3106 0.0000
vt 0.3470 0.0000
vt 0.3470 0.0758
vt 0.3106 0.0758
vt 0.5947 0.6530
vt 0.6420 0.6530
vt 0.6420 0.6894
vt 0.5947 0.6894
vt 0.5947 0.0000
vt 0.6420 0.0000
vt 0.6420 0.0758
vt 0.5947 0.0758
vt 0.5947 0.0000
vt 0.6420 0.0000
vt 0.6420 0.0758
vt 0.5947 0.0758
vt 0.6530 0.0000
vt 0.6894 0.0000
vt 0.6894 0.0758
vt 0.6530 0.0758
vt 0.6530 0.0000
vt 0.6894 0.0000
vt 0.6894 0.0758
vt 0.6530 0.0758
vt 0.3106 0.5947
vt 0.3470 0.5947
vt 0.3470 0.6420
vt 0.3106 0.6420
vt 0.3106 0.0000
vt 0.3470 0.0000
vt 0.3470 0.0758
vt 0.3106 0.0758
vt 0.3106 0.0000
vt 0.3470 0.0000
vt 0.3470 0.0758
vt 0.3106 0.0758
vt 0.5947 0.0000
vt 0.6420 0.0000
vt 0.6420 0.0758
vt 0.5947 0.0758
vt 0.5947 0.0000
vt 0.6420 0.0000
vt 0.6420 0.0758
vt 0.5947 0.0758
vt 0.6530 0.5947
vt 0.6894 0.5947
vt 0.6894 0.6420
vt 0.6530 0.6420
vt 0.6530 0.0000
vt 0.6894 0.0000
vt 0.6894 0.0758
vt 0.6530 0.0758
vt 0.6530 0.0000
vt 0.6894 0.0000
vt 0.6894 0.0758
vt 0.6530 0.0758
vt 0.5947 0.0000
vt 0.6420 0.0000
vt 0.6420 0.0758
vt 0.5947 0.0758
vt 0.5947 0.0000
vt 0.6420 0.0000
vt 0.6420 0.0758
vt 0.5947 0.0758
f 4/4 3/3 2/2
f 4/4 2/2 1/1
f 5/5 6/6 7/7
f 5/5 7/7 8/8
f 9/9 10/10 11/11
f 9/9 11/11 12/12
f 13/13 14/14 15/15
f 13/13 15/15 16/16
f 17/17 18/18 19/19
f 17/17 19/19 20/20
f 24/24 23/23 22/22
f 24/24 22/22 21/21
f 25/25 26/26 27/27
f 25/25 27/27 28/28
f 29/29 30/30 31/31
f 29/29 31/31 32/32
f 33/33 34/34 35/35
f 33/33 35/35 36/36
f 37/37 38/38 39/39
f 37/37 39/39 40/40
f 44/44 43/43 42/42
f 44/44 42/42 41/41
f 45/45 46/46 47/47
f 45/45 47/47 48/48
f 49/49 50/50 51/51
f 49/49 51/51 52/52
f 53/53 54/54 55/55
f 53/53 55/55 56/56
f 57/57 58/58 59/59
f 57/57 59/59 60/60
f 64/64 63/63 62/62
f 64/64 62/62 61/61
f 65/65 66/66 67/67
f 65/65 67/67 68/68
f 69/69 70/70 71/71
f 69/69 71/71 72/72
f 73/73 74/74 75/75
f 73/73 75/75 76/76
f 77/77 78/78 79/79
f 77/77 79/79 80/80
f 84/84 83/83 82/82
f 84/84 82/82 81/81
f 85/85 86/86 87/87
f 85/85 87/87 88/88
f 89/89 90/90 91/91
f 89/89 91/91 92/92
f 93/93 94/94 95/95
f 93/93 95/95 96/96
f 97/97 98/98 99/99
f 97/97 99/99 100/100
f 104/104 103/103 102/102
f 104/104 102/102 101/101
f 105/105 106/106 107/107
f 105/105 107/107 108/108
f 109/109 110/110 111/111
f 109/109 111/111 112/112
f 113/113 114/114 115/115
f 113/113 115/115 116/116
f 117/117 118/118 119/119
f 117/117 119/119 120/120
f 124/124 123/123 122/122
f 124/124 122/122 121/121
f 125/125 126/126 127/127
f 125/125 127/127 128/128
f 129/129 130/130 131/131
f 129/129 131/131 132/132
f 133/133 134/134 135/135
f 133/133 135/135 136/136
f 137/137 138/138 139/139
f 137/137 139/139 140/140
f 144/144 143/143 142/142
f 144/144 142/142 141/141
f 145/145 146/146 147/147
f 145/145 147/147 148/148
f 149/149 150/150 151/151
f 149/149 151/151 152/152
f 153/153 154/154 155/155
f 153/153 155/155 156/156
f 157/157 158/158 159/159
f 157/157 159/159 160/160
f 164/164 163/163 162/162
f 164/164 162/162 161/161
f 165/165 166/166 167/167
f 165/165 167/167 168/168
f 169/169 170/170 171/171
f 169/169 171/171 172/172
f 173/173 174/174 175/175
f 173/173 175/175 176/176
f 177/177 178/178 179/179
f 177/177 179/179 180/180
f 184/184 183/183 182/182
f 184/184 182/182 181/181
f 185/185 186/186 187/187
f 185/185 187/187 188/188
f 189/189 190/190 191/191
f 189/189 191/191 192/192
f 193/193 194/194 195/195
f 193/193 195/195 196/196
f 197/197 198/198 199/199
f 197/197 199/199 200/200
f 204/204 203/203 202/202
f 204/204 202/202 201/201
f 205/205 206/206 207/207
f 205/205 207/207 208/208
f 209/209 210/210 211/211
f 209/209 211/211 212/212
f 213/213 214/214 215/215
f 213/213 215/215 216/216
f 217/217 218/218 219/219
f 217/217 219/219 220/220
f 224/224 223/223 222/222
f 224/224 222/222 221/221
f 225/225 226/226 227/227
f 225/225 227/227 228/228
f 229/229 230/230 231/231
f 229/229 231/231 232/232
f 233/233 234/234 235/235
f 233/233 235/235 236/236
f 237/237 238/238 239/239
f 237/237 239/239 240/240
f 244/244 243/243 242/242
f 244/244 242/242 241/241
f 245/245 246/246 247/247
f 245/245 247/247 248/248
f 249/249 250/250 251/251
f 249/249 251/251 252/252
f 253/253 254/254 255/255
f 253/253 255/255 256/256
f 257/257 258/258 259/259
f 257/257 259/259 260/260
f 264/264 263/263 262/262
f 264/264 262/262 261/261
f 265/265 266/266 267/267
f 265/265 267/267 268/268
f 269/269 270/270 271/271
f 269/269 271/271 272/272
f 273/273 274/274 275/275
f 273/273 275/275 276/276
f 277/277 278/278 279/279
f 277/277 279/279 280/280
f 284/284 283/283 282/282
f 284/284 282/282 281/281
f 285/285 286/286 287/287
f 285/285 287/287 288/288
f 289/289 290/290 291/291
f 289/289 291/291 292/292
f 293/293 294/294 295/295
f 293/293 295/295 296/296
f 297/297 298/298 299/299
f 297/297 299/299 300/300
f 304/304 303/303 302/302
f 304/304 302/302 301/301
f 305/305 306/306 307/307
f 305/305 307/307 308/308
f 309/309 310/310 311/311
f 309/309 311/311 312/312
f 313/313 314/314 315/315
f 313/313 315/315 316/316
f 317/317 318/318 319/319
f 317/317 319/319 320/320
f 324/324 323/323 322/322
f 324/324 322/322 321/321
f 325/325 326/326 327/327
f 325/325 327/327 328/328
f 329/329 330/330 331/331
f 329/329 331/331 332/332
f 333/333 334/334 335/335
f 333/333 335/335 336/336
f 337/337 338/338 339/339
f 337/337 339/339 340/340
f 344/344 343/343 342/342
f 344/344 342/342 341/341
f 345/345 346/346 347/347
f 345/345 347/347 348/348
f 349/349 350/350 351/351
f 349/349 351/351 352/352
f 353/353 354/354 355/355
f 353/353 355/355 356/356
f 357/357 358/358 359/359
f 357/357 359/359 360/360
f 364/364 363/363 362/362
f 364/364 362/362 361/361
f 365/365 366/366 367/367
f 365/365 367/367 368/368
f 369/369 370/370 371/371
f 369/369 371/371 372/372
f 373/373 374/374 375/375
f 373/373 375/375 376/376
f 377/377 378/378 379/379
f 377/377 379/379 380/380
f 384/384 383/383 382/382
f 384/384 382/382 381/381
f 385/385 386/386 387/387
f 385/385 387/387 388/388
f 389/389 390/390 391/391
f 389/389 391/391 392/392
f 393/393 394/394 395/395
f 393/393 395/395 396/396
f 397/397 398/398 399/399
f 397/397 399/399 400/400
f 404/404 403/403 402/402
f 404/404 402/402 401/401
f 405/405 406/406 407/407
f 405/405 407/407 408/408
f 409/409 410/410 411/411
f 409/409 411/411 412/412
f 413/413 414/414 415/415
f 413/413 415/415 416/416
f 417/417 418/418 419/419
f 417/417 419/419 420/420
f 424/424 423/423 422/422
f 424/424 422/422 421/421
f 425/425 426/426 427/427
f 425/425 427/427 428/428
f 429/429 430/430 431/431
f 429/429 431/431 432/432
f 433/433 434/434 435/435
f 433/433 435/435 436/436
f 437/437 438/438 439/439
f 437/437 439/439 440/440
f 444/444 443/443 442/442
f 444/444 442/442 441/441
f 445/445 446/446 447/447
f 445/445 447/447 448/448
f 449/449 450/450 451/451
f 449/449 451/451 452/452
f 453/453 454/454 455/455
f 453/453 455/455 456/456
f 457/457 458/458 459/459
f 457/457 459/459 460/460
f 464/464 463/463 462/462
f 464/464 462/462 461/461
f 465/465 466/466 467/467
f 465/465 467/467 468/468
f 469/469 470/470 471/471
f 469/469 471/471 472/472
f 473/473 474/474 475/475
f 473/473 475/475 476/476
f 477/477 478/478 479/479
f 477/477 479/479 480/480
f 484/484 483/483 482/482
f 484/484 482/482 481/481
f 485/485 486/486 487/487
f 485/485 487/487 488/488
f 489/489 490/490 491/491
f 489/489 491/491 492/492
f 493/493 494/494 495/495
f 493/493 495/495 496/496
f 497/497 498/498 499/499
f 497/497 499/499 500/500
f 504/504 503/503 502/502
f 504/504 502/502 501/501
f 505/505 506/506 507/507
f 505/505 507/507 508/508
f 509/509 510/510 511/511
f 509/509 511/511 512/512
f 513/513 514/514 515/515
f 513/513 515/515 516/516
f 517/517 518/518 519/519
f 517/517 519/519 520/520
f 524/524 523/523 522/522
f 524/524 522/522 521/521
f 525/525 526/526 527/527
f 525/525 527/527 528/528
f 529/529 530/530 531/531
f 529/529 531/531 532/532
f 533/533 534/534 535/535
f 533/533 535/535 536/536
f 537/537 538/538 539/539
f 537/537 539/539 540/540
f 544/544 543/543 542/542
f 544/544 542/542 541/541
f 545/545 546/546 547/547
f 545/545 547/547 548/548
f 549/549 550/550 551/551
f 549/549 551/551 552/552
f 553/553 554/554 555/555
f 553/553 555/555 556/556
f 557/557 558/558 559/559
f 557/557 559/559 560/560
f 564/564 563/563 562/562
f 564/564 562/562 561/561
f 565/565 566/566 567/567
f 565/565 567/567 568/568
f 569/569 570/570 571/571
f 569/569 571/571 572/572
f 573/573 574/574 575/575
f 573/573 575/575 576/576
f 577/577 578/578 579/579
f 577/577 579/579 580/580
f 584/584 583/583 582/582
f 584/584 582/582 581/581
f 585/585 586/586 587/587
f 585/585 587/587 588/588
f 589/589 590/590 591/591
f 589/589 591/591 592/592
f 593/593 594/594 595/595
f 593/593 595/595 596/596
f 597/597 598/598 599/599
f 597/597 599/599 600/600
f 604/604 603/603 602/602
f 604/604 602/602 601/601
f 605/605 606/606 607/607
f 605/605 607/607 608/608
f 609/609 610/610 611/611
f 609/609 611/611 612/612
f 613/613 614/614 615/615
f 613/613 615/615 616/616
f 617/617 618/618 619/619
f 617/617 619/619 620/620
f 624/624 623/623 622/622
f 624/624 622/622 621/621
f 625/625 626/626 627/627
f 625/625 627/627 628/628
f 629/629 630/630 631/631
f 629/629 631/631 632/632
f 633/633 634/634 635/635
f 633/633 635/635 636/636
f 637/637 638/638 639/639
f 637/637 639/639 640/640
f 644/644 643/643 642/642
f 644/644 642/642 641/641
f 645/645 646/646 647/647
f 645/645 647/647 648/648
f 649/649 650/650 651/651
f 649/649 651/651 652/652
f 653/653 654/654 655/655
f 653/653 655/655 656/656
f 657/657 658/658 659/659
f 657/657 659/659 660/660
