g house
v -2.2000 0.0000 -1.6000
v -2.2000 1.9000 -1.6000
v 2.2000 1.9000 -1.6000
v 2.2000 0.0000 -1.6000
v 2.2000 0.0000 1.6000
v 2.2000 1.9000 1.6000
v -2.2000 1.9000 1.6000
v -2.2000 0.0000 1.6000
v -2.2000 0.0000 1.6000
v -2.2000 1.9000 1.6000
v -2.2000 1.9000 -1.6000
v -2.2000 0.0000 -1.6000
v 2.2000 0.0000 -1.6000
v 2.2000 1.9000 -1.6000
v 2.2000 1.9000 1.6000
v 2.2000 0.0000 1.6000
v -2.2000 1.9000 -1.6000
v 2.2000 1.9000 -1.6000
v 0.0000 3.4000 -1.6000
v 2.2000 1.9000 1.6000
v -2.2000 1.9000 1.6000
v 0.0000 3.4000 1.6000
v -2.4200 1.7800 -1.8200
v 0.0000 3.4000 -1.8200
v 0.0000 3.4000 1.8200
v -2.4200 1.7800 1.8200
v 2.4200 1.7800 1.8200
v 0.0000 3.4000 1.8200
v 0.0000 3.4000 -1.8200
v 2.4200 1.7800 -1.8200
v -2.2000 0.0000 1.6000
v 2.2000 0.0000 1.6000
v 2.2000 0.0000 -1.6000
v -2.2000 0.0000 -1.6000
vt 0.0200 0.0200
vt 0.4800 0.0200
vt 0.4800 0.9800
vt 0.0200 0.9800
vt 0.0200 0.0200
vt 0.4800 0.0200
vt 0.4800 0.9800
vt 0.0200 0.9800
vt 0.0200 0.0200
vt 0.4800 0.0200
vt 0.4800 0.9800
vt 0.0200 0.9800
vt 0.0200 0.0200
vt 0.4800 0.0200
vt 0.4800 0.9800
vt 0.0200 0.9800
vt 0.0200 0.0200
vt 0.4800 0.0200
vt 0.2500 0.9800
vt 0.0200 0.0200
vt 0.4800 0.0200
vt 0.2500 0.9800
vt 0.5200 0.0200
vt 0.9800 0.0200
vt 0.9800 0.9800
vt 0.5200 0.9800
vt 0.5200 0.0200
vt 0.9800 0.0200
vt 0.9800 0.9800
vt 0.5200 0.9800
vt 0.0200 0.0200
vt 0.4800 0.0200
vt 0.4800 0.9800
vt 0.0200 0.9800
f 1/1 2/2 3/3 4/4
f 5/5 6/6 7/7 8/8
f 9/9 10/10 11/11 12/12
f 13/13 14/14 15/15 16/16
f 17/17 18/18 19/19
f 20/20 21/21 22/22
f 23/23 24/24 25/25 26/26
f 27/27 28/28 29/29 30/30
f 31/31 32/32 33/33 34/34
