g tower_collider
v -1.4500 5.1000 -1.4500
v 1.4500 5.1000 -1.4500
v 1.4500 5.1000 1.4500
v -1.4500 5.1000 1.4500
v -1.4500 0.0000 -1.4500
v -1.4500 5.1000 -1.4500
v 1.4500 5.1000 -1.4500
v 1.4500 0.0000 -1.4500
v 1.4500 0.0000 1.4500
v 1.4500 5.1000 1.4500
v -1.4500 5.1000 1.4500
v -1.4500 0.0000 1.4500
v -1.4500 0.0000 1.4500
v -1.4500 5.1000 1.4500
v -1.4500 5.1000 -1.4500
v -1.4500 0.0000 -1.4500
v 1.4500 0.0000 -1.4500
v 1.4500 5.1000 -1.4500
v 1.4500 5.1000 1.4500
v 1.4500 0.0000 1.4500
vt 0.0000 0.0000
vt 1.0000 0.0000
vt 1.0000 1.0000
vt 0.0000 1.0000
vt 0.0000 0.0000
vt 1.0000 0.0000
vt 1.0000 1.0000
vt 0.0000 1.0000
vt 0.0000 0.0000
vt 1.0000 0.0000
vt 1.0000 1.0000
vt 0.0000 1.0000
vt 0.0000 0.0000
vt 1.0000 0.0000
vt 1.0000 1.0000
vt 0.0000 1.0000
vt 0.0000 0.0000
vt 1.0000 0.0000
vt 1.0000 1.0000
vt 0.0000 1.0000
f 1/1 2/2 3/3 4/4
f 5/5 6/6 7/7 8/8
f 9/9 10/10 11/11 12/12
f 13/13 14/14 15/15 16/16
f 17/17 18/18 19/19 20/20
