g haus
v -2.2000 0.0000 -1.6000
v 2.2000 0.0000 -1.6000
v 2.2000 2.1000 -1.6000
v -2.2000 2.1000 -1.6000
v 2.2000 0.0000 -1.3600
v -2.2000 0.0000 -1.3600
v -2.2000 2.1000 -1.3600
v 2.2000 2.1000 -1.3600
v -2.2000 0.0000 -1.3600
v -2.2000 0.0000 -1.6000
v -2.2000 2.1000 -1.6000
v -2.2000 2.1000 -1.3600
v 2.2000 0.0000 -1.6000
v 2.2000 0.0000 -1.3600
v 2.2000 2.1000 -1.3600
v 2.2000 2.1000 -1.6000
v -2.2000 2.1000 -1.6000
v 2.2000 2.1000 -1.6000
v 2.2000 2.1000 -1.3600
v -2.2000 2.1000 -1.3600
v -2.2000 0.0000 -1.3600
v 2.2000 0.0000 -1.3600
v 2.2000 0.0000 -1.6000
v -2.2000 0.0000 -1.6000
v -2.2000 0.0000 1.3600
v 2.2000 0.0000 1.3600
v 2.2000 2.1000 1.3600
v -2.2000 2.1000 1.3600
v 2.2000 0.0000 1.6000
v -2.2000 0.0000 1.6000
v -2.2000 2.1000 1.6000
v 2.2000 2.1000 1.6000
v -2.2000 0.0000 1.6000
v -2.2000 0.0000 1.3600
v -2.2000 2.1000 1.3600
v -2.2000 2.1000 1.6000
v 2.2000 0.0000 1.3600
v 2.2000 0.0000 1.6000
v 2.2000 2.1000 1.6000
v 2.2000 2.1000 1.3600
v -2.2000 2.1000 1.3600
v 2.2000 2.1000 1.3600
v 2.2000 2.1000 1.6000
v -2.2000 2.1000 1.6000
v -2.2000 0.0000 1.6000
v 2.2000 0.0000 1.6000
v 2.2000 0.0000 1.3600
v -2.2000 0.0000 1.3600
v -2.2000 0.0000 -1.3600
v -1.9600 0.0000 -1.3600
v -1.9600 2.1000 -1.3600
v -2.2000 2.1000 -1.3600
v -1.9600 0.0000 1.3600
v -2.2000 0.0000 1.3600
v -2.2000 2.1000 1.3600
v -1.9600 2.1000 1.3600
v -2.2000 0.0000 1.3600
v -2.2000 0.0000 -1.3600
v -2.2000 2.1000 -1.3600
v -2.2000 2.1000 1.3600
v -1.9600 0.0000 -1.3600
v -1.9600 0.0000 1.3600
v -1.9600 2.1000 1.3600
v -1.9600 2.1000 -1.3600
v -2.2000 2.1000 -1.3600
v -1.9600 2.1000 -1.3600
v -1.9600 2.1000 1.3600
v -2.2000 2.1000 1.3600
v -2.2000 0.0000 1.3600
v -1.9600 0.0000 1.3600
v -1.9600 0.0000 -1.3600
v -2.2000 0.0000 -1.3600
v 1.9600 0.0000 -1.3600
v 2.2000 0.0000 -1.3600
v 2.2000 2.1000 -1.3600
v 1.9600 2.1000 -1.3600
v 2.2000 0.0000 1.3600
v 1.9600 0.0000 1.3600
v 1.9600 2.1000 1.3600
v 2.2000 2.1000 1.3600
v 1.9600 0.0000 1.3600
v 1.9600 0.0000 -1.3600
v 1.9600 2.1000 -1.3600
v 1.9600 2.1000 1.3600
v 2.2000 0.0000 -1.3600
v 2.2000 0.0000 1.3600
v 2.2000 2.1000 1.3600
v 2.2000 2.1000 -1.3600
v 1.9600 2.1000 -1.3600
v 2.2000 2.1000 -1.3600
v 2.2000 2.1000 1.3600
v 1.9600 2.1000 1.3600
v 1.9600 0.0000 1.3600
v 2.2000 0.0000 1.3600
v 2.2000 0.0000 -1.3600
v 1.9600 0.0000 -1.3600
v -1.9600 1.9600 -1.3600
v 1.9600 1.9600 -1.3600
v 1.9600 2.1000 -1.3600
v -1.9600 2.1000 -1.3600
v 1.9600 1.9600 1.3600
v -1.9600 1.9600 1.3600
v -1.9600 2.1000 1.3600
v 1.9600 2.1000 1.3600
v -1.9600 1.9600 1.3600
v -1.9600 1.9600 -1.3600
v -1.9600 2.1000 -1.3600
v -1.9600 2.1000 1.3600
v 1.9600 1.9600 -1.3600
v 1.9600 1.9600 1.3600
v 1.9600 2.1000 1.3600
v 1.9600 2.1000 -1.3600
v -1.9600 2.1000 -1.3600
v 1.9600 2.1000 -1.3600
v 1.9600 2.1000 1.3600
v -1.9600 2.1000 1.3600
v -1.9600 1.9600 1.3600
v 1.9600 1.9600 1.3600
v 1.9600 1.9600 -1.3600
v -1.9600 1.9600 -1.3600
v -2.2000 2.1000 -1.6000
v 2.2000 2.1000 -1.6000
v 0.0000 3.6000 -1.6000
v -2.2000 2.1000 1.6000
v 2.2000 2.1000 1.6000
v 0.0000 3.6000 1.6000
v -2.4800 1.9800 -1.8800
v 0.0000 3.6000 -1.8800
v 0.0000 3.6000 1.8800
v -2.4800 1.9800 1.8800
v -2.4800 1.8400 1.8800
v 0.0000 3.4600 1.8800
v 0.0000 3.4600 -1.8800
v -2.4800 1.8400 -1.8800
v -2.4800 1.8400 -1.8800
v -2.4800 1.9800 -1.8800
v -2.4800 1.9800 1.8800
v -2.4800 1.8400 1.8800
v 2.4800 1.9800 -1.8800
v 0.0000 3.6000 -1.8800
v 0.0000 3.6000 1.8800
v 2.4800 1.9800 1.8800
v 2.4800 1.8400 1.8800
v 0.0000 3.4600 1.8800
v 0.0000 3.4600 -1.8800
v 2.4800 1.8400 -1.8800
v 2.4800 1.8400 -1.8800
v 2.4800 1.9800 -1.8800
v 2.4800 1.9800 1.8800
v 2.4800 1.8400 1.8800
v -0.4600 0.0000 -1.6700
v 0.4600 0.0000 -1.6700
v 0.4600 1.5000 -1.6700
v -0.4600 1.5000 -1.6700
v 0.4600 0.0000 -1.6000
v -0.4600 0.0000 -1.6000
v -0.4600 1.5000 -1.6000
v 0.4600 1.5000 -1.6000
v -0.4600 0.0000 -1.6000
v -0.4600 0.0000 -1.6700
v -0.4600 1.5000 -1.6700
v -0.4600 1.5000 -1.6000
v 0.4600 0.0000 -1.6700
v 0.4600 0.0000 -1.6000
v 0.4600 1.5000 -1.6000
v 0.4600 1.5000 -1.6700
v -1.5500 0.7500 -1.6500
v -1.0500 0.7500 -1.6500
v -1.0500 0.8100 -1.6500
v -1.5500 0.8100 -1.6500
v -1.0500 0.7500 -1.6000
v -1.5500 0.7500 -1.6000
v -1.5500 0.8100 -1.6000
v -1.0500 0.8100 -1.6000
v -1.5500 0.7500 -1.6000
v -1.5500 0.7500 -1.6500
v -1.5500 0.8100 -1.6500
v -1.5500 0.8100 -1.6000
v -1.0500 0.7500 -1.6500
v -1.0500 0.7500 -1.6000
v -1.0500 0.8100 -1.6000
v -1.0500 0.8100 -1.6500
v -1.5500 1.5000 -1.6500
v -1.0500 1.5000 -1.6500
v -1.0500 1.5600 -1.6500
v -1.5500 1.5600 -1.6500
v -1.0500 1.5000 -1.6000
v -1.5500 1.5000 -1.6000
v -1.5500 1.5600 -1.6000
v -1.0500 1.5600 -1.6000
v -1.5500 1.5000 -1.6000
v -1.5500 1.5000 -1.6500
v -1.5500 1.5600 -1.6500
v -1.5500 1.5600 -1.6000
v -1.0500 1.5000 -1.6500
v -1.0500 1.5000 -1.6000
v -1.0500 1.5600 -1.6000
v -1.0500 1.5600 -1.6500
v 1.0500 0.7500 -1.6500
v 1.5500 0.7500 -1.6500
v 1.5500 0.8100 -1.6500
v 1.0500 0.8100 -1.6500
v 1.5500 0.7500 -1.6000
v 1.0500 0.7500 -1.6000
v 1.0500 0.8100 -1.6000
v 1.5500 0.8100 -1.6000
v 1.0500 0.7500 -1.6000
v 1.0500 0.7500 -1.6500
v 1.0500 0.8100 -1.6500
v 1.0500 0.8100 -1.6000
v 1.5500 0.7500 -1.6500
v 1.5500 0.7500 -1.6000
v 1.5500 0.8100 -1.6000
v 1.5500 0.8100 -1.6500
v 1.0500 1.5000 -1.6500
v 1.5500 1.5000 -1.6500
v 1.5500 1.5600 -1.6500
v 1.0500 1.5600 -1.6500
v 1.5500 1.5000 -1.6000
v 1.0500 1.5000 -1.6000
v 1.0500 1.5600 -1.6000
v 1.5500 1.5600 -1.6000
v 1.0500 1.5000 -1.6000
v 1.0500 1.5000 -1.6500
v 1.0500 1.5600 -1.6500
v 1.0500 1.5600 -1.6000
v 1.5500 1.5000 -1.6500
v 1.5500 1.5000 -1.6000
v 1.5500 1.5600 -1.6000
v 1.5500 1.5600 -1.6500
v -2.2600 0.0000 -1.6600
v 2.2600 0.0000 -1.6600
v 2.2600 0.1200 -1.6600
v -2.2600 0.1200 -1.6600
v 2.2600 0.0000 1.6600
v -2.2600 0.0000 1.6600
v -2.2600 0.1200 1.6600
v 2.2600 0.1200 1.6600
v -2.2600 0.0000 1.6600
v -2.2600 0.0000 -1.6600
v -2.2600 0.1200 -1.6600
v -2.2600 0.1200 1.6600
v 2.2600 0.0000 -1.6600
v 2.2600 0.0000 1.6600
v 2.2600 0.1200 1.6600
v 2.2600 0.1200 -1.6600
v -2.2600 0.1200 -1.6600
v 2.2600 0.1200 -1.6600
v 2.2600 0.1200 1.6600
v -2.2600 0.1200 1.6600
v -2.2600 0.0000 1.6600
v 2.2600 0.0000 1.6600
v 2.2600 0.0000 -1.6600
v -2.2600 0.0000 -1.6600
vt 0.00000 0.50000
vt 0.50000 0.50000
vt 0.50000 1.00000
vt 0.00000 1.00000
vt 0.00000 0.50000
vt 0.50000 0.50000
vt 0.50000 1.00000
vt 0.00000 1.00000
vt 0.00000 0.50000
vt 0.50000 0.50000
vt 0.50000 1.00000
vt 0.00000 1.00000
vt 0.00000 0.50000
vt 0.50000 0.50000
vt 0.50000 1.00000
vt 0.00000 1.00000
vt 0.50000 0.00000
vt 1.00000 0.00000
vt 1.00000 0.50000
vt 0.50000 0.50000
vt 0.50000 0.00000
vt 1.00000 0.00000
vt 1.00000 0.50000
vt 0.50000 0.50000
vt 0.50000 0.50000
vt 1.00000 0.50000
vt 1.00000 1.00000
vt 0.50000 1.00000
vt 0.50000 0.50000
vt 1.00000 0.50000
vt 1.00000 1.00000
vt 0.50000 1.00000
vt 0.50000 0.50000
vt 1.00000 0.50000
vt 1.00000 1.00000
vt 0.50000 1.00000
vt 0.50000 0.50000
vt 1.00000 0.50000
vt 1.00000 1.00000
vt 0.50000 1.00000
vt 0.50000 0.00000
vt 1.00000 0.00000
vt 1.00000 0.50000
vt 0.50000 0.50000
vt 0.50000 0.00000
vt 1.00000 0.00000
vt 1.00000 0.50000
vt 0.50000 0.50000
vt 0.50000 0.50000
vt 1.00000 0.50000
vt 1.00000 1.00000
vt 0.50000 1.00000
vt 0.50000 0.50000
vt 1.00000 0.50000
vt 1.00000 1.00000
vt 0.50000 1.00000
vt 0.50000 0.50000
vt 1.00000 0.50000
vt 1.00000 1.00000
vt 0.50000 1.00000
vt 0.50000 0.50000
vt 1.00000 0.50000
vt 1.00000 1.00000
vt 0.50000 1.00000
vt 0.50000 0.00000
vt 1.00000 0.00000
vt 1.00000 0.50000
vt 0.50000 0.50000
vt 0.50000 0.00000
vt 1.00000 0.00000
vt 1.00000 0.50000
vt 0.50000 0.50000
vt 0.50000 0.50000
vt 1.00000 0.50000
vt 1.00000 1.00000
vt 0.50000 1.00000
vt 0.50000 0.50000
vt 1.00000 0.50000
vt 1.00000 1.00000
vt 0.50000 1.00000
vt 0.50000 0.50000
vt 1.00000 0.50000
vt 1.00000 1.00000
vt 0.50000 1.00000
vt 0.50000 0.50000
vt 1.00000 0.50000
vt 1.00000 1.00000
vt 0.50000 1.00000
vt 0.50000 0.00000
vt 1.00000 0.00000
vt 1.00000 0.50000
vt 0.50000 0.50000
vt 0.50000 0.00000
vt 1.00000 0.00000
vt 1.00000 0.50000
vt 0.50000 0.50000
vt 0.50000 0.00000
vt 1.00000 0.00000
vt 1.00000 0.50000
vt 0.50000 0.50000
vt 0.50000 0.00000
vt 1.00000 0.00000
vt 1.00000 0.50000
vt 0.50000 0.50000
vt 0.50000 0.00000
vt 1.00000 0.00000
vt 1.00000 0.50000
vt 0.50000 0.50000
vt 0.50000 0.00000
vt 1.00000 0.00000
vt 1.00000 0.50000
vt 0.50000 0.50000
vt 0.50000 0.00000
vt 1.00000 0.00000
vt 1.00000 0.50000
vt 0.50000 0.50000
vt 0.50000 0.00000
vt 1.00000 0.00000
vt 1.00000 0.50000
vt 0.50000 0.50000
vt 0.52500 0.02500
vt 0.97500 0.02500
vt 0.75000 0.47500
vt 0.52500 0.02500
vt 0.97500 0.02500
vt 0.75000 0.47500
vt 0.00000 0.00000
vt 0.00000 0.50000
vt 0.50000 0.50000
vt 0.50000 0.00000
vt 0.00000 0.00000
vt 0.50000 0.00000
vt 0.50000 0.50000
vt 0.00000 0.50000
vt 0.00000 0.00000
vt 0.00000 0.07500
vt 0.50000 0.07500
vt 0.50000 0.00000
vt 0.00000 0.00000
vt 0.00000 0.50000
vt 0.50000 0.50000
vt 0.50000 0.00000
vt 0.00000 0.00000
vt 0.50000 0.00000
vt 0.50000 0.50000
vt 0.00000 0.50000
vt 0.00000 0.00000
vt 0.00000 0.07500
vt 0.50000 0.07500
vt 0.50000 0.00000
vt 0.00000 0.50000
vt 0.50000 0.50000
vt 0.50000 1.00000
vt 0.00000 1.00000
vt 0.00000 0.50000
vt 0.50000 0.50000
vt 0.50000 1.00000
vt 0.00000 1.00000
vt 0.00000 0.50000
vt 0.50000 0.50000
vt 0.50000 1.00000
vt 0.00000 1.00000
vt 0.00000 0.50000
vt 0.50000 0.50000
vt 0.50000 1.00000
vt 0.00000 1.00000
vt 0.00000 0.50000
vt 0.50000 0.50000
vt 0.50000 1.00000
vt 0.00000 1.00000
vt 0.00000 0.50000
vt 0.50000 0.50000
vt 0.50000 1.00000
vt 0.00000 1.00000
vt 0.00000 0.50000
vt 0.50000 0.50000
vt 0.50000 1.00000
vt 0.00000 1.00000
vt 0.00000 0.50000
vt 0.50000 0.50000
vt 0.50000 1.00000
vt 0.00000 1.00000
vt 0.00000 0.50000
vt 0.50000 0.50000
vt 0.50000 1.00000
vt 0.00000 1.00000
vt 0.00000 0.50000
vt 0.50000 0.50000
vt 0.50000 1.00000
vt 0.00000 1.00000
vt 0.00000 0.50000
vt 0.50000 0.50000
vt 0.50000 1.00000
vt 0.00000 1.00000
vt 0.00000 0.50000
vt 0.50000 0.50000
vt 0.50000 1.00000
vt 0.00000 1.00000
vt 0.00000 0.50000
vt 0.50000 0.50000
vt 0.50000 1.00000
vt 0.00000 1.00000
vt 0.00000 0.50000
vt 0.50000 0.50000
vt 0.50000 1.00000
vt 0.00000 1.00000
vt 0.00000 0.50000
vt 0.50000 0.50000
vt 0.50000 1.00000
vt 0.00000 1.00000
vt 0.00000 0.50000
vt 0.50000 0.50000
vt 0.50000 1.00000
vt 0.00000 1.00000
vt 0.00000 0.50000
vt 0.50000 0.50000
vt 0.50000 1.00000
vt 0.00000 1.00000
vt 0.00000 0.50000
vt 0.50000 0.50000
vt 0.50000 1.00000
vt 0.00000 1.00000
vt 0.00000 0.50000
vt 0.50000 0.50000
vt 0.50000 1.00000
vt 0.00000 1.00000
vt 0.00000 0.50000
vt 0.50000 0.50000
vt 0.50000 1.00000
vt 0.00000 1.00000
vt 0.50000 0.00000
vt 1.00000 0.00000
vt 1.00000 0.50000
vt 0.50000 0.50000
vt 0.50000 0.00000
vt 1.00000 0.00000
vt 1.00000 0.50000
vt 0.50000 0.50000
vt 0.50000 0.00000
vt 1.00000 0.00000
vt 1.00000 0.50000
vt 0.50000 0.50000
vt 0.50000 0.00000
vt 1.00000 0.00000
vt 1.00000 0.50000
vt 0.50000 0.50000
vt 0.50000 0.00000
vt 1.00000 0.00000
vt 1.00000 0.50000
vt 0.50000 0.50000
vt 0.50000 0.00000
vt 1.00000 0.00000
vt 1.00000 0.50000
vt 0.50000 0.50000
f 4/4 3/3 2/2
f 4/4 2/2 1/1
f 8/8 7/7 6/6
f 8/8 6/6 5/5
f 12/12 11/11 10/10
f 12/12 10/10 9/9
f 16/16 15/15 14/14
f 16/16 14/14 13/13
f 20/20 19/19 18/18
f 20/20 18/18 17/17
f 24/24 23/23 22/22
f 24/24 22/22 21/21
f 28/28 27/27 26/26
f 28/28 26/26 25/25
f 32/32 31/31 30/30
f 32/32 30/30 29/29
f 36/36 35/35 34/34
f 36/36 34/34 33/33
f 40/40 39/39 38/38
f 40/40 38/38 37/37
f 44/44 43/43 42/42
f 44/44 42/42 41/41
f 48/48 47/47 46/46
f 48/48 46/46 45/45
f 52/52 51/51 50/50
f 52/52 50/50 49/49
f 56/56 55/55 54/54
f 56/56 54/54 53/53
f 60/60 59/59 58/58
f 60/60 58/58 57/57
f 64/64 63/63 62/62
f 64/64 62/62 61/61
f 68/68 67/67 66/66
f 68/68 66/66 65/65
f 72/72 71/71 70/70
f 72/72 70/70 69/69
f 76/76 75/75 74/74
f 76/76 74/74 73/73
f 80/80 79/79 78/78
f 80/80 78/78 77/77
f 84/84 83/83 82/82
f 84/84 82/82 81/81
f 88/88 87/87 86/86
f 88/88 86/86 85/85
f 92/92 91/91 90/90
f 92/92 90/90 89/89
f 96/96 95/95 94/94
f 96/96 94/94 93/93
f 100/100 99/99 98/98
f 100/100 98/98 97/97
f 104/104 103/103 102/102
f 104/104 102/102 101/101
f 108/108 107/107 106/106
f 108/108 106/106 105/105
f 112/112 111/111 110/110
f 112/112 110/110 109/109
f 116/116 115/115 114/114
f 116/116 114/114 113/113
f 120/120 119/119 118/118
f 120/120 118/118 117/117
f 121/121 122/122 123/123
f 126/126 125/125 124/124
f 130/130 129/129 128/128
f 130/130 128/128 127/127
f 131/131 132/132 133/133
f 131/131 133/133 134/134
f 138/138 137/137 136/136
f 138/138 136/136 135/135
f 139/139 140/140 141/141
f 139/139 141/141 142/142
f 146/146 145/145 144/144
f 146/146 144/144 143/143
f 147/147 148/148 149/149
f 147/147 149/149 150/150
f 154/154 153/153 152/152
f 154/154 152/152 151/151
f 158/158 157/157 156/156
f 158/158 156/156 155/155
f 162/162 161/161 160/160
f 162/162 160/160 159/159
f 166/166 165/165 164/164
f 166/166 164/164 163/163
f 170/170 169/169 168/168
f 170/170 168/168 167/167
f 174/174 173/173 172/172
f 174/174 172/172 171/171
f 178/178 177/177 176/176
f 178/178 176/176 175/175
f 182/182 181/181 180/180
f 182/182 180/180 179/179
f 186/186 185/185 184/184
f 186/186 184/184 183/183
f 190/190 189/189 188/188
f 190/190 188/188 187/187
f 194/194 193/193 192/192
f 194/194 192/192 191/191
f 198/198 197/197 196/196
f 198/198 196/196 195/195
f 202/202 201/201 200/200
f 202/202 200/200 199/199
f 206/206 205/205 204/204
f 206/206 204/204 203/203
f 210/210 209/209 208/208
f 210/210 208/208 207/207
f 214/214 213/213 212/212
f 214/214 212/212 211/211
f 218/218 217/217 216/216
f 218/218 216/216 215/215
f 222/222 221/221 220/220
f 222/222 220/220 219/219
f 226/226 225/225 224/224
f 226/226 224/224 223/223
f 230/230 229/229 228/228
f 230/230 228/228 227/227
f 234/234 233/233 232/232
f 234/234 232/232 231/231
f 238/238 237/237 236/236
f 238/238 236/236 235/235
f 242/242 241/241 240/240
f 242/242 240/240 239/239
f 246/246 245/245 244/244
f 246/246 244/244 243/243
f 250/250 249/249 248/248
f 250/250 248/248 247/247
f 254/254 253/253 252/252
f 254/254 252/252 251/251
