g haus
v -2.0100 0.0000 -1.5100
v 2.0100 0.0000 -1.5100
v 2.0100 0.3400 -1.5100
v -2.0100 0.3400 -1.5100
v 2.0100 0.0000 1.5100
v -2.0100 0.0000 1.5100
v -2.0100 0.3400 1.5100
v 2.0100 0.3400 1.5100
v -2.0100 0.0000 1.5100
v -2.0100 0.0000 -1.5100
v -2.0100 0.3400 -1.5100
v -2.0100 0.3400 1.5100
v 2.0100 0.0000 -1.5100
v 2.0100 0.0000 1.5100
v 2.0100 0.3400 1.5100
v 2.0100 0.3400 -1.5100
v -2.0100 0.3400 -1.5100
v 2.0100 0.3400 -1.5100
v 2.0100 0.3400 1.5100
v -2.0100 0.3400 1.5100
v -2.0100 0.0000 1.5100
v 2.0100 0.0000 1.5100
v 2.0100 0.0000 -1.5100
v -2.0100 0.0000 -1.5100
v -1.9500 0.3400 -1.4500
v 1.9500 0.3400 -1.4500
v 1.9500 1.6200 -1.4500
v -1.9500 1.6200 -1.4500
v 1.9500 0.3400 -1.2100
v -1.9500 0.3400 -1.2100
v -1.9500 1.6200 -1.2100
v 1.9500 1.6200 -1.2100
v -1.9500 0.3400 -1.2100
v -1.9500 0.3400 -1.4500
v -1.9500 1.6200 -1.4500
v -1.9500 1.6200 -1.2100
v 1.9500 0.3400 -1.4500
v 1.9500 0.3400 -1.2100
v 1.9500 1.6200 -1.2100
v 1.9500 1.6200 -1.4500
v -1.9500 0.3400 1.2100
v 1.9500 0.3400 1.2100
v 1.9500 1.6200 1.2100
v -1.9500 1.6200 1.2100
v 1.9500 0.3400 1.4500
v -1.9500 0.3400 1.4500
v -1.9500 1.6200 1.4500
v 1.9500 1.6200 1.4500
v -1.9500 0.3400 1.4500
v -1.9500 0.3400 1.2100
v -1.9500 1.6200 1.2100
v -1.9500 1.6200 1.4500
v 1.9500 0.3400 1.2100
v 1.9500 0.3400 1.4500
v 1.9500 1.6200 1.4500
v 1.9500 1.6200 1.2100
v -1.9500 0.3400 -1.2100
v -1.7100 0.3400 -1.2100
v -1.7100 1.6200 -1.2100
v -1.9500 1.6200 -1.2100
v -1.7100 0.3400 1.2100
v -1.9500 0.3400 1.2100
v -1.9500 1.6200 1.2100
v -1.7100 1.6200 1.2100
v -1.9500 0.3400 1.2100
v -1.9500 0.3400 -1.2100
v -1.9500 1.6200 -1.2100
v -1.9500 1.6200 1.2100
v -1.7100 0.3400 -1.2100
v -1.7100 0.3400 1.2100
v -1.7100 1.6200 1.2100
v -1.7100 1.6200 -1.2100
v 1.7100 0.3400 -1.2100
v 1.9500 0.3400 -1.2100
v 1.9500 1.6200 -1.2100
v 1.7100 1.6200 -1.2100
v 1.9500 0.3400 1.2100
v 1.7100 0.3400 1.2100
v 1.7100 1.6200 1.2100
v 1.9500 1.6200 1.2100
v 1.7100 0.3400 1.2100
v 1.7100 0.3400 -1.2100
v 1.7100 1.6200 -1.2100
v 1.7100 1.6200 1.2100
v 1.9500 0.3400 -1.2100
v 1.9500 0.3400 1.2100
v 1.9500 1.6200 1.2100
v 1.9500 1.6200 -1.2100
v -2.1100 1.6200 -1.6100
v 2.1100 1.6200 -1.6100
v 2.1100 2.8500 -1.6100
v -2.1100 2.8500 -1.6100
v 2.1100 1.6200 -1.3700
v -2.1100 1.6200 -1.3700
v -2.1100 2.8500 -1.3700
v 2.1100 2.8500 -1.3700
v -2.1100 1.6200 -1.3700
v -2.1100 1.6200 -1.6100
v -2.1100 2.8500 -1.6100
v -2.1100 2.8500 -1.3700
v 2.1100 1.6200 -1.6100
v 2.1100 1.6200 -1.3700
v 2.1100 2.8500 -1.3700
v 2.1100 2.8500 -1.6100
v -2.1100 1.6200 1.3700
v 2.1100 1.6200 1.3700
v 2.1100 2.8500 1.3700
v -2.1100 2.8500 1.3700
v 2.1100 1.6200 1.6100
v -2.1100 1.6200 1.6100
v -2.1100 2.8500 1.6100
v 2.1100 2.8500 1.6100
v -2.1100 1.6200 1.6100
v -2.1100 1.6200 1.3700
v -2.1100 2.8500 1.3700
v -2.1100 2.8500 1.6100
v 2.1100 1.6200 1.3700
v 2.1100 1.6200 1.6100
v 2.1100 2.8500 1.6100
v 2.1100 2.8500 1.3700
v -2.1100 1.6200 -1.3700
v -1.8700 1.6200 -1.3700
v -1.8700 2.8500 -1.3700
v -2.1100 2.8500 -1.3700
v -1.8700 1.6200 1.3700
v -2.1100 1.6200 1.3700
v -2.1100 2.8500 1.3700
v -1.8700 2.8500 1.3700
v -2.1100 1.6200 1.3700
v -2.1100 1.6200 -1.3700
v -2.1100 2.8500 -1.3700
v -2.1100 2.8500 1.3700
v -1.8700 1.6200 -1.3700
v -1.8700 1.6200 1.3700
v -1.8700 2.8500 1.3700
v -1.8700 2.8500 -1.3700
v 1.8700 1.6200 -1.3700
v 2.1100 1.6200 -1.3700
v 2.1100 2.8500 -1.3700
v 1.8700 2.8500 -1.3700
v 2.1100 1.6200 1.3700
v 1.8700 1.6200 1.3700
v 1.8700 2.8500 1.3700
v 2.1100 2.8500 1.3700
v 1.8700 1.6200 1.3700
v 1.8700 1.6200 -1.3700
v 1.8700 2.8500 -1.3700
v 1.8700 2.8500 1.3700
v 2.1100 1.6200 -1.3700
v 2.1100 1.6200 1.3700
v 2.1100 2.8500 1.3700
v 2.1100 2.8500 -1.3700
v -2.1100 1.5200 -1.6100
v 2.1100 1.5200 -1.6100
v 2.1100 1.6200 -1.6100
v -2.1100 1.6200 -1.6100
v 2.1100 1.5200 1.6100
v -2.1100 1.5200 1.6100
v -2.1100 1.6200 1.6100
v 2.1100 1.6200 1.6100
v -2.1100 1.5200 1.6100
v -2.1100 1.5200 -1.6100
v -2.1100 1.6200 -1.6100
v -2.1100 1.6200 1.6100
v 2.1100 1.5200 -1.6100
v 2.1100 1.5200 1.6100
v 2.1100 1.6200 1.6100
v 2.1100 1.6200 -1.6100
v -2.1100 1.6200 -1.6100
v 2.1100 1.6200 -1.6100
v 2.1100 1.6200 1.6100
v -2.1100 1.6200 1.6100
v -2.1100 1.5200 1.6100
v 2.1100 1.5200 1.6100
v 2.1100 1.5200 -1.6100
v -2.1100 1.5200 -1.6100
v -1.8060 1.3200 -1.6100
v -1.6260 1.3200 -1.6100
v -1.6260 1.5400 -1.6100
v -1.8060 1.5400 -1.6100
v -1.6260 1.3200 -1.4000
v -1.8060 1.3200 -1.4000
v -1.8060 1.5400 -1.4000
v -1.6260 1.5400 -1.4000
v -1.8060 1.3200 -1.4000
v -1.8060 1.3200 -1.6100
v -1.8060 1.5400 -1.6100
v -1.8060 1.5400 -1.4000
v -1.6260 1.3200 -1.6100
v -1.6260 1.3200 -1.4000
v -1.6260 1.5400 -1.4000
v -1.6260 1.5400 -1.6100
v -1.8060 1.5400 -1.6100
v -1.6260 1.5400 -1.6100
v -1.6260 1.5400 -1.4000
v -1.8060 1.5400 -1.4000
v -1.8060 1.3200 -1.4000
v -1.6260 1.3200 -1.4000
v -1.6260 1.3200 -1.6100
v -1.8060 1.3200 -1.6100
v -1.8060 1.3200 1.4000
v -1.6260 1.3200 1.4000
v -1.6260 1.5400 1.4000
v -1.8060 1.5400 1.4000
v -1.6260 1.3200 1.6100
v -1.8060 1.3200 1.6100
v -1.8060 1.5400 1.6100
v -1.6260 1.5400 1.6100
v -1.8060 1.3200 1.6100
v -1.8060 1.3200 1.4000
v -1.8060 1.5400 1.4000
v -1.8060 1.5400 1.6100
v -1.6260 1.3200 1.4000
v -1.6260 1.3200 1.6100
v -1.6260 1.5400 1.6100
v -1.6260 1.5400 1.4000
v -1.8060 1.5400 1.4000
v -1.6260 1.5400 1.4000
v -1.6260 1.5400 1.6100
v -1.8060 1.5400 1.6100
v -1.8060 1.3200 1.6100
v -1.6260 1.3200 1.6100
v -1.6260 1.3200 1.4000
v -1.8060 1.3200 1.4000
v -0.9480 1.3200 -1.6100
v -0.7680 1.3200 -1.6100
v -0.7680 1.5400 -1.6100
v -0.9480 1.5400 -1.6100
v -0.7680 1.3200 -1.4000
v -0.9480 1.3200 -1.4000
v -0.9480 1.5400 -1.4000
v -0.7680 1.5400 -1.4000
v -0.9480 1.3200 -1.4000
v -0.9480 1.3200 -1.6100
v -0.9480 1.5400 -1.6100
v -0.9480 1.5400 -1.4000
v -0.7680 1.3200 -1.6100
v -0.7680 1.3200 -1.4000
v -0.7680 1.5400 -1.4000
v -0.7680 1.5400 -1.6100
v -0.9480 1.5400 -1.6100
v -0.7680 1.5400 -1.6100
v -0.7680 1.5400 -1.4000
v -0.9480 1.5400 -1.4000
v -0.9480 1.3200 -1.4000
v -0.7680 1.3200 -1.4000
v -0.7680 1.3200 -1.6100
v -0.9480 1.3200 -1.6100
v -0.9480 1.3200 1.4000
v -0.7680 1.3200 1.4000
v -0.7680 1.5400 1.4000
v -0.9480 1.5400 1.4000
v -0.7680 1.3200 1.6100
v -0.9480 1.3200 1.6100
v -0.9480 1.5400 1.6100
v -0.7680 1.5400 1.6100
v -0.9480 1.3200 1.6100
v -0.9480 1.3200 1.4000
v -0.9480 1.5400 1.4000
v -0.9480 1.5400 1.6100
v -0.7680 1.3200 1.4000
v -0.7680 1.3200 1.6100
v -0.7680 1.5400 1.6100
v -0.7680 1.5400 1.4000
v -0.9480 1.5400 1.4000
v -0.7680 1.5400 1.4000
v -0.7680 1.5400 1.6100
v -0.9480 1.5400 1.6100
v -0.9480 1.3200 1.6100
v -0.7680 1.3200 1.6100
v -0.7680 1.3200 1.4000
v -0.9480 1.3200 1.4000
v -0.0900 1.3200 -1.6100
v 0.0900 1.3200 -1.6100
v 0.0900 1.5400 -1.6100
v -0.0900 1.5400 -1.6100
v 0.0900 1.3200 -1.4000
v -0.0900 1.3200 -1.4000
v -0.0900 1.5400 -1.4000
v 0.0900 1.5400 -1.4000
v -0.0900 1.3200 -1.4000
v -0.0900 1.3200 -1.6100
v -0.0900 1.5400 -1.6100
v -0.0900 1.5400 -1.4000
v 0.0900 1.3200 -1.6100
v 0.0900 1.3200 -1.4000
v 0.0900 1.5400 -1.4000
v 0.0900 1.5400 -1.6100
v -0.0900 1.5400 -1.6100
v 0.0900 1.5400 -1.6100
v 0.0900 1.5400 -1.4000
v -0.0900 1.5400 -1.4000
v -0.0900 1.3200 -1.4000
v 0.0900 1.3200 -1.4000
v 0.0900 1.3200 -1.6100
v -0.0900 1.3200 -1.6100
v -0.0900 1.3200 1.4000
v 0.0900 1.3200 1.4000
v 0.0900 1.5400 1.4000
v -0.0900 1.5400 1.4000
v 0.0900 1.3200 1.6100
v -0.0900 1.3200 1.6100
v -0.0900 1.5400 1.6100
v 0.0900 1.5400 1.6100
v -0.0900 1.3200 1.6100
v -0.0900 1.3200 1.4000
v -0.0900 1.5400 1.4000
v -0.0900 1.5400 1.6100
v 0.0900 1.3200 1.4000
v 0.0900 1.3200 1.6100
v 0.0900 1.5400 1.6100
v 0.0900 1.5400 1.4000
v -0.0900 1.5400 1.4000
v 0.0900 1.5400 1.4000
v 0.0900 1.5400 1.6100
v -0.0900 1.5400 1.6100
v -0.0900 1.3200 1.6100
v 0.0900 1.3200 1.6100
v 0.0900 1.3200 1.4000
v -0.0900 1.3200 1.4000
v 0.7680 1.3200 -1.6100
v 0.9480 1.3200 -1.6100
v 0.9480 1.5400 -1.6100
v 0.7680 1.5400 -1.6100
v 0.9480 1.3200 -1.4000
v 0.7680 1.3200 -1.4000
v 0.7680 1.5400 -1.4000
v 0.9480 1.5400 -1.4000
v 0.7680 1.3200 -1.4000
v 0.7680 1.3200 -1.6100
v 0.7680 1.5400 -1.6100
v 0.7680 1.5400 -1.4000
v 0.9480 1.3200 -1.6100
v 0.9480 1.3200 -1.4000
v 0.9480 1.5400 -1.4000
v 0.9480 1.5400 -1.6100
v 0.7680 1.5400 -1.6100
v 0.9480 1.5400 -1.6100
v 0.9480 1.5400 -1.4000
v 0.7680 1.5400 -1.4000
v 0.7680 1.3200 -1.4000
v 0.9480 1.3200 -1.4000
v 0.9480 1.3200 -1.6100
v 0.7680 1.3200 -1.6100
v 0.7680 1.3200 1.4000
v 0.9480 1.3200 1.4000
v 0.9480 1.5400 1.4000
v 0.7680 1.5400 1.4000
v 0.9480 1.3200 1.6100
v 0.7680 1.3200 1.6100
v 0.7680 1.5400 1.6100
v 0.9480 1.5400 1.6100
v 0.7680 1.3200 1.6100
v 0.7680 1.3200 1.4000
v 0.7680 1.5400 1.4000
v 0.7680 1.5400 1.6100
v 0.9480 1.3200 1.4000
v 0.9480 1.3200 1.6100
v 0.9480 1.5400 1.6100
v 0.9480 1.5400 1.4000
v 0.7680 1.5400 1.4000
v 0.9480 1.5400 1.4000
v 0.9480 1.5400 1.6100
v 0.7680 1.5400 1.6100
v 0.7680 1.3200 1.6100
v 0.9480 1.3200 1.6100
v 0.9480 1.3200 1.4000
v 0.7680 1.3200 1.4000
v 1.6260 1.3200 -1.6100
v 1.8060 1.3200 -1.6100
v 1.8060 1.5400 -1.6100
v 1.6260 1.5400 -1.6100
v 1.8060 1.3200 -1.4000
v 1.6260 1.3200 -1.4000
v 1.6260 1.5400 -1.4000
v 1.8060 1.5400 -1.4000
v 1.6260 1.3200 -1.4000
v 1.6260 1.3200 -1.6100
v 1.6260 1.5400 -1.6100
v 1.6260 1.5400 -1.4000
v 1.8060 1.3200 -1.6100
v 1.8060 1.3200 -1.4000
v 1.8060 1.5400 -1.4000
v 1.8060 1.5400 -1.6100
v 1.6260 1.5400 -1.6100
v 1.8060 1.5400 -1.6100
v 1.8060 1.5400 -1.4000
v 1.6260 1.5400 -1.4000
v 1.6260 1.3200 -1.4000
v 1.8060 1.3200 -1.4000
v 1.8060 1.3200 -1.6100
v 1.6260 1.3200 -1.6100
v 1.6260 1.3200 1.4000
v 1.8060 1.3200 1.4000
v 1.8060 1.5400 1.4000
v 1.6260 1.5400 1.4000
v 1.8060 1.3200 1.6100
v 1.6260 1.3200 1.6100
v 1.6260 1.5400 1.6100
v 1.8060 1.5400 1.6100
v 1.6260 1.3200 1.6100
v 1.6260 1.3200 1.4000
v 1.6260 1.5400 1.4000
v 1.6260 1.5400 1.6100
v 1.8060 1.3200 1.4000
v 1.8060 1.3200 1.6100
v 1.8060 1.5400 1.6100
v 1.8060 1.5400 1.4000
v 1.6260 1.5400 1.4000
v 1.8060 1.5400 1.4000
v 1.8060 1.5400 1.6100
v 1.6260 1.5400 1.6100
v 1.6260 1.3200 1.6100
v 1.8060 1.3200 1.6100
v 1.8060 1.3200 1.4000
v 1.6260 1.3200 1.4000
v -2.1100 1.3200 -0.9600
v -1.9000 1.3200 -0.9600
v -1.9000 1.5400 -0.9600
v -2.1100 1.5400 -0.9600
v -1.9000 1.3200 -0.7800
v -2.1100 1.3200 -0.7800
v -2.1100 1.5400 -0.7800
v -1.9000 1.5400 -0.7800
v -2.1100 1.3200 -0.7800
v -2.1100 1.3200 -0.9600
v -2.1100 1.5400 -0.9600
v -2.1100 1.5400 -0.7800
v -1.9000 1.3200 -0.9600
v -1.9000 1.3200 -0.7800
v -1.9000 1.5400 -0.7800
v -1.9000 1.5400 -0.9600
v -2.1100 1.5400 -0.9600
v -1.9000 1.5400 -0.9600
v -1.9000 1.5400 -0.7800
v -2.1100 1.5400 -0.7800
v -2.1100 1.3200 -0.7800
v -1.9000 1.3200 -0.7800
v -1.9000 1.3200 -0.9600
v -2.1100 1.3200 -0.9600
v 1.9000 1.3200 -0.9600
v 2.1100 1.3200 -0.9600
v 2.1100 1.5400 -0.9600
v 1.9000 1.5400 -0.9600
v 2.1100 1.3200 -0.7800
v 1.9000 1.3200 -0.7800
v 1.9000 1.5400 -0.7800
v 2.1100 1.5400 -0.7800
v 1.9000 1.3200 -0.7800
v 1.9000 1.3200 -0.9600
v 1.9000 1.5400 -0.9600
v 1.9000 1.5400 -0.7800
v 2.1100 1.3200 -0.9600
v 2.1100 1.3200 -0.7800
v 2.1100 1.5400 -0.7800
v 2.1100 1.5400 -0.9600
v 1.9000 1.5400 -0.9600
v 2.1100 1.5400 -0.9600
v 2.1100 1.5400 -0.7800
v 1.9000 1.5400 -0.7800
v 1.9000 1.3200 -0.7800
v 2.1100 1.3200 -0.7800
v 2.1100 1.3200 -0.9600
v 1.9000 1.3200 -0.9600
v -2.1100 1.3200 -0.0900
v -1.9000 1.3200 -0.0900
v -1.9000 1.5400 -0.0900
v -2.1100 1.5400 -0.0900
v -1.9000 1.3200 0.0900
v -2.1100 1.3200 0.0900
v -2.1100 1.5400 0.0900
v -1.9000 1.5400 0.0900
v -2.1100 1.3200 0.0900
v -2.1100 1.3200 -0.0900
v -2.1100 1.5400 -0.0900
v -2.1100 1.5400 0.0900
v -1.9000 1.3200 -0.0900
v -1.9000 1.3200 0.0900
v -1.9000 1.5400 0.0900
v -1.9000 1.5400 -0.0900
v -2.1100 1.5400 -0.0900
v -1.9000 1.5400 -0.0900
v -1.9000 1.5400 0.0900
v -2.1100 1.5400 0.0900
v -2.1100 1.3200 0.0900
v -1.9000 1.3200 0.0900
v -1.9000 1.3200 -0.0900
v -2.1100 1.3200 -0.0900
v 1.9000 1.3200 -0.0900
v 2.1100 1.3200 -0.0900
v 2.1100 1.5400 -0.0900
v 1.9000 1.5400 -0.0900
v 2.1100 1.3200 0.0900
v 1.9000 1.3200 0.0900
v 1.9000 1.5400 0.0900
v 2.1100 1.5400 0.0900
v 1.9000 1.3200 0.0900
v 1.9000 1.3200 -0.0900
v 1.9000 1.5400 -0.0900
v 1.9000 1.5400 0.0900
v 2.1100 1.3200 -0.0900
v 2.1100 1.3200 0.0900
v 2.1100 1.5400 0.0900
v 2.1100 1.5400 -0.0900
v 1.9000 1.5400 -0.0900
v 2.1100 1.5400 -0.0900
v 2.1100 1.5400 0.0900
v 1.9000 1.5400 0.0900
v 1.9000 1.3200 0.0900
v 2.1100 1.3200 0.0900
v 2.1100 1.3200 -0.0900
v 1.9000 1.3200 -0.0900
v -2.1100 1.3200 0.7800
v -1.9000 1.3200 0.7800
v -1.9000 1.5400 0.7800
v -2.1100 1.5400 0.7800
v -1.9000 1.3200 0.9600
v -2.1100 1.3200 0.9600
v -2.1100 1.5400 0.9600
v -1.9000 1.5400 0.9600
v -2.1100 1.3200 0.9600
v -2.1100 1.3200 0.7800
v -2.1100 1.5400 0.7800
v -2.1100 1.5400 0.9600
v -1.9000 1.3200 0.7800
v -1.9000 1.3200 0.9600
v -1.9000 1.5400 0.9600
v -1.9000 1.5400 0.7800
v -2.1100 1.5400 0.7800
v -1.9000 1.5400 0.7800
v -1.9000 1.5400 0.9600
v -2.1100 1.5400 0.9600
v -2.1100 1.3200 0.9600
v -1.9000 1.3200 0.9600
v -1.9000 1.3200 0.7800
v -2.1100 1.3200 0.7800
v 1.9000 1.3200 0.7800
v 2.1100 1.3200 0.7800
v 2.1100 1.5400 0.7800
v 1.9000 1.5400 0.7800
v 2.1100 1.3200 0.9600
v 1.9000 1.3200 0.9600
v 1.9000 1.5400 0.9600
v 2.1100 1.5400 0.9600
v 1.9000 1.3200 0.9600
v 1.9000 1.3200 0.7800
v 1.9000 1.5400 0.7800
v 1.9000 1.5400 0.9600
v 2.1100 1.3200 0.7800
v 2.1100 1.3200 0.9600
v 2.1100 1.5400 0.9600
v 2.1100 1.5400 0.7800
v 1.9000 1.5400 0.7800
v 2.1100 1.5400 0.7800
v 2.1100 1.5400 0.9600
v 1.9000 1.5400 0.9600
v 1.9000 1.3200 0.9600
v 2.1100 1.3200 0.9600
v 2.1100 1.3200 0.7800
v 1.9000 1.3200 0.7800
v -1.8700 2.7300 -1.3700
v 1.8700 2.7300 -1.3700
v 1.8700 2.8500 -1.3700
v -1.8700 2.8500 -1.3700
v 1.8700 2.7300 1.3700
v -1.8700 2.7300 1.3700
v -1.8700 2.8500 1.3700
v 1.8700 2.8500 1.3700
v -1.8700 2.7300 1.3700
v -1.8700 2.7300 -1.3700
v -1.8700 2.8500 -1.3700
v -1.8700 2.8500 1.3700
v 1.8700 2.7300 -1.3700
v 1.8700 2.7300 1.3700
v 1.8700 2.8500 1.3700
v 1.8700 2.8500 -1.3700
v -1.8700 2.8500 -1.3700
v 1.8700 2.8500 -1.3700
v 1.8700 2.8500 1.3700
v -1.8700 2.8500 1.3700
v -1.8700 2.7300 1.3700
v 1.8700 2.7300 1.3700
v 1.8700 2.7300 -1.3700
v -1.8700 2.7300 -1.3700
v -2.1100 2.8500 -1.6100
v 2.1100 2.8500 -1.6100
v 0.0000 4.3500 -1.6100
v -2.1100 2.8500 1.6100
v 2.1100 2.8500 1.6100
v 0.0000 4.3500 1.6100
v -2.4500 2.7100 -1.9500
v 0.0000 4.3500 -1.9500
v 0.0000 4.3500 1.9500
v -2.4500 2.7100 1.9500
v -2.4500 2.5100 1.9500
v 0.0000 4.1500 1.9500
v 0.0000 4.1500 -1.9500
v -2.4500 2.5100 -1.9500
v -2.4500 2.5100 -1.9500
v -2.4500 2.7100 -1.9500
v -2.4500 2.7100 1.9500
v -2.4500 2.5100 1.9500
v 2.4500 2.7100 -1.9500
v 0.0000 4.3500 -1.9500
v 0.0000 4.3500 1.9500
v 2.4500 2.7100 1.9500
v 2.4500 2.5100 1.9500
v 0.0000 4.1500 1.9500
v 0.0000 4.1500 -1.9500
v 2.4500 2.5100 -1.9500
v 2.4500 2.5100 -1.9500
v 2.4500 2.7100 -1.9500
v 2.4500 2.7100 1.9500
v 2.4500 2.5100 1.9500
vt 0.50000 0.00000
vt 1.00000 0.00000
vt 1.00000 0.25000
vt 0.50000 0.25000
vt 0.50000 0.00000
vt 1.00000 0.00000
vt 1.00000 0.25000
vt 0.50000 0.25000
vt 0.50000 0.00000
vt 1.00000 0.00000
vt 1.00000 0.25000
vt 0.50000 0.25000
vt 0.50000 0.00000
vt 1.00000 0.00000
vt 1.00000 0.25000
vt 0.50000 0.25000
vt 0.50000 0.00000
vt 1.00000 0.00000
vt 1.00000 0.25000
vt 0.50000 0.25000
vt 0.50000 0.00000
vt 1.00000 0.00000
vt 1.00000 0.25000
vt 0.50000 0.25000
vt 0.00000 0.50000
vt 0.50000 0.50000
vt 0.50000 1.00000
vt 0.00000 1.00000
vt 0.00000 0.50000
vt 0.50000 0.50000
vt 0.50000 1.00000
vt 0.00000 1.00000
vt 0.00000 0.50000
vt 0.50000 0.50000
vt 0.50000 1.00000
vt 0.00000 1.00000
vt 0.00000 0.50000
vt 0.50000 0.50000
vt 0.50000 1.00000
vt 0.00000 1.00000
vt 0.50000 0.50000
vt 1.00000 0.50000
vt 1.00000 1.00000
vt 0.50000 1.00000
vt 0.50000 0.50000
vt 1.00000 0.50000
vt 1.00000 1.00000
vt 0.50000 1.00000
vt 0.50000 0.50000
vt 1.00000 0.50000
vt 1.00000 1.00000
vt 0.50000 1.00000
vt 0.50000 0.50000
vt 1.00000 0.50000
vt 1.00000 1.00000
vt 0.50000 1.00000
vt 0.50000 0.50000
vt 1.00000 0.50000
vt 1.00000 1.00000
vt 0.50000 1.00000
vt 0.50000 0.50000
vt 1.00000 0.50000
vt 1.00000 1.00000
vt 0.50000 1.00000
vt 0.50000 0.50000
vt 1.00000 0.50000
vt 1.00000 1.00000
vt 0.50000 1.00000
vt 0.50000 0.50000
vt 1.00000 0.50000
vt 1.00000 1.00000
vt 0.50000 1.00000
vt 0.50000 0.50000
vt 1.00000 0.50000
vt 1.00000 1.00000
vt 0.50000 1.00000
vt 0.50000 0.50000
vt 1.00000 0.50000
vt 1.00000 1.00000
vt 0.50000 1.00000
vt 0.50000 0.50000
vt 1.00000 0.50000
vt 1.00000 1.00000
vt 0.50000 1.00000
vt 0.50000 0.50000
vt 1.00000 0.50000
vt 1.00000 1.00000
vt 0.50000 1.00000
vt 0.00000 0.50000
vt 0.50000 0.50000
vt 0.50000 1.00000
vt 0.00000 1.00000
vt 0.00000 0.50000
vt 0.50000 0.50000
vt 0.50000 1.00000
vt 0.00000 1.00000
vt 0.00000 0.50000
vt 0.50000 0.50000
vt 0.50000 1.00000
vt 0.00000 1.00000
vt 0.00000 0.50000
vt 0.50000 0.50000
vt 0.50000 1.00000
vt 0.00000 1.00000
vt 0.50000 0.50000
vt 1.00000 0.50000
vt 1.00000 1.00000
vt 0.50000 1.00000
vt 0.50000 0.50000
vt 1.00000 0.50000
vt 1.00000 1.00000
vt 0.50000 1.00000
vt 0.50000 0.50000
vt 1.00000 0.50000
vt 1.00000 1.00000
vt 0.50000 1.00000
vt 0.50000 0.50000
vt 1.00000 0.50000
vt 1.00000 1.00000
vt 0.50000 1.00000
vt 0.50000 0.50000
vt 1.00000 0.50000
vt 1.00000 1.00000
vt 0.50000 1.00000
vt 0.50000 0.50000
vt 1.00000 0.50000
vt 1.00000 1.00000
vt 0.50000 1.00000
vt 0.50000 0.50000
vt 1.00000 0.50000
vt 1.00000 1.00000
vt 0.50000 1.00000
vt 0.50000 0.50000
vt 1.00000 0.50000
vt 1.00000 1.00000
vt 0.50000 1.00000
vt 0.50000 0.50000
vt 1.00000 0.50000
vt 1.00000 1.00000
vt 0.50000 1.00000
vt 0.50000 0.50000
vt 1.00000 0.50000
vt 1.00000 1.00000
vt 0.50000 1.00000
vt 0.50000 0.50000
vt 1.00000 0.50000
vt 1.00000 1.00000
vt 0.50000 1.00000
vt 0.50000 0.50000
vt 1.00000 0.50000
vt 1.00000 1.00000
vt 0.50000 1.00000
vt 0.50000 0.25000
vt 1.00000 0.25000
vt 1.00000 0.50000
vt 0.50000 0.50000
vt 0.50000 0.25000
vt 1.00000 0.25000
vt 1.00000 0.50000
vt 0.50000 0.50000
vt 0.50000 0.25000
vt 1.00000 0.25000
vt 1.00000 0.50000
vt 0.50000 0.50000
vt 0.50000 0.25000
vt 1.00000 0.25000
vt 1.00000 0.50000
vt 0.50000 0.50000
vt 0.50000 0.25000
vt 1.00000 0.25000
vt 1.00000 0.50000
vt 0.50000 0.50000
vt 0.50000 0.25000
vt 1.00000 0.25000
vt 1.00000 0.50000
vt 0.50000 0.50000
vt 0.50000 0.00000
vt 1.00000 0.00000
vt 1.00000 0.25000
vt 0.50000 0.25000
vt 0.50000 0.00000
vt 1.00000 0.00000
vt 1.00000 0.25000
vt 0.50000 0.25000
vt 0.50000 0.00000
vt 1.00000 0.00000
vt 1.00000 0.25000
vt 0.50000 0.25000
vt 0.50000 0.00000
vt 1.00000 0.00000
vt 1.00000 0.25000
vt 0.50000 0.25000
vt 0.50000 0.00000
vt 1.00000 0.00000
vt 1.00000 0.25000
vt 0.50000 0.25000
vt 0.50000 0.00000
vt 1.00000 0.00000
vt 1.00000 0.25000
vt 0.50000 0.25000
vt 0.50000 0.00000
vt 1.00000 0.00000
vt 1.00000 0.25000
vt 0.50000 0.25000
vt 0.50000 0.00000
vt 1.00000 0.00000
vt 1.00000 0.25000
vt 0.50000 0.25000
vt 0.50000 0.00000
vt 1.00000 0.00000
vt 1.00000 0.25000
vt 0.50000 0.25000
vt 0.50000 0.00000
vt 1.00000 0.00000
vt 1.00000 0.25000
vt 0.50000 0.25000
vt 0.50000 0.00000
vt 1.00000 0.00000
vt 1.00000 0.25000
vt 0.50000 0.25000
vt 0.50000 0.00000
vt 1.00000 0.00000
vt 1.00000 0.25000
vt 0.50000 0.25000
vt 0.50000 0.00000
vt 1.00000 0.00000
vt 1.00000 0.25000
vt 0.50000 0.25000
vt 0.50000 0.00000
vt 1.00000 0.00000
vt 1.00000 0.25000
vt 0.50000 0.25000
vt 0.50000 0.00000
vt 1.00000 0.00000
vt 1.00000 0.25000
vt 0.50000 0.25000
vt 0.50000 0.00000
vt 1.00000 0.00000
vt 1.00000 0.25000
vt 0.50000 0.25000
vt 0.50000 0.00000
vt 1.00000 0.00000
vt 1.00000 0.25000
vt 0.50000 0.25000
vt 0.50000 0.00000
vt 1.00000 0.00000
vt 1.00000 0.25000
vt 0.50000 0.25000
vt 0.50000 0.00000
vt 1.00000 0.00000
vt 1.00000 0.25000
vt 0.50000 0.25000
vt 0.50000 0.00000
vt 1.00000 0.00000
vt 1.00000 0.25000
vt 0.50000 0.25000
vt 0.50000 0.00000
vt 1.00000 0.00000
vt 1.00000 0.25000
vt 0.50000 0.25000
vt 0.50000 0.00000
vt 1.00000 0.00000
vt 1.00000 0.25000
vt 0.50000 0.25000
vt 0.50000 0.00000
vt 1.00000 0.00000
vt 1.00000 0.25000
vt 0.50000 0.25000
vt 0.50000 0.00000
vt 1.00000 0.00000
vt 1.00000 0.25000
vt 0.50000 0.25000
vt 0.50000 0.00000
vt 1.00000 0.00000
vt 1.00000 0.25000
vt 0.50000 0.25000
vt 0.50000 0.00000
vt 1.00000 0.00000
vt 1.00000 0.25000
vt 0.50000 0.25000
vt 0.50000 0.00000
vt 1.00000 0.00000
vt 1.00000 0.25000
vt 0.50000 0.25000
vt 0.50000 0.00000
vt 1.00000 0.00000
vt 1.00000 0.25000
vt 0.50000 0.25000
vt 0.50000 0.00000
vt 1.00000 0.00000
vt 1.00000 0.25000
vt 0.50000 0.25000
vt 0.50000 0.00000
vt 1.00000 0.00000
vt 1.00000 0.25000
vt 0.50000 0.25000
vt 0.50000 0.00000
vt 1.00000 0.00000
vt 1.00000 0.25000
vt 0.50000 0.25000
vt 0.50000 0.00000
vt 1.00000 0.00000
vt 1.00000 0.25000
vt 0.50000 0.25000
vt 0.50000 0.00000
vt 1.00000 0.00000
vt 1.00000 0.25000
vt 0.50000 0.25000
vt 0.50000 0.00000
vt 1.00000 0.00000
vt 1.00000 0.25000
vt 0.50000 0.25000
vt 0.50000 0.00000
vt 1.00000 0.00000
vt 1.00000 0.25000
vt 0.50000 0.25000
vt 0.50000 0.00000
vt 1.00000 0.00000
vt 1.00000 0.25000
vt 0.50000 0.25000
vt 0.50000 0.00000
vt 1.00000 0.00000
vt 1.00000 0.25000
vt 0.50000 0.25000
vt 0.50000 0.00000
vt 1.00000 0.00000
vt 1.00000 0.25000
vt 0.50000 0.25000
vt 0.50000 0.00000
vt 1.00000 0.00000
vt 1.00000 0.25000
vt 0.50000 0.25000
vt 0.50000 0.00000
vt 1.00000 0.00000
vt 1.00000 0.25000
vt 0.50000 0.25000
vt 0.50000 0.00000
vt 1.00000 0.00000
vt 1.00000 0.25000
vt 0.50000 0.25000
vt 0.50000 0.00000
vt 1.00000 0.00000
vt 1.00000 0.25000
vt 0.50000 0.25000
vt 0.50000 0.00000
vt 1.00000 0.00000
vt 1.00000 0.25000
vt 0.50000 0.25000
vt 0.50000 0.00000
vt 1.00000 0.00000
vt 1.00000 0.25000
vt 0.50000 0.25000
vt 0.50000 0.00000
vt 1.00000 0.00000
vt 1.00000 0.25000
vt 0.50000 0.25000
vt 0.50000 0.00000
vt 1.00000 0.00000
vt 1.00000 0.25000
vt 0.50000 0.25000
vt 0.50000 0.00000
vt 1.00000 0.00000
vt 1.00000 0.25000
vt 0.50000 0.25000
vt 0.50000 0.00000
vt 1.00000 0.00000
vt 1.00000 0.25000
vt 0.50000 0.25000
vt 0.50000 0.00000
vt 1.00000 0.00000
vt 1.00000 0.25000
vt 0.50000 0.25000
vt 0.50000 0.00000
vt 1.00000 0.00000
vt 1.00000 0.25000
vt 0.50000 0.25000
vt 0.50000 0.00000
vt 1.00000 0.00000
vt 1.00000 0.25000
vt 0.50000 0.25000
vt 0.50000 0.00000
vt 1.00000 0.00000
vt 1.00000 0.25000
vt 0.50000 0.25000
vt 0.50000 0.00000
vt 1.00000 0.00000
vt 1.00000 0.25000
vt 0.50000 0.25000
vt 0.50000 0.00000
vt 1.00000 0.00000
vt 1.00000 0.25000
vt 0.50000 0.25000
vt 0.50000 0.00000
vt 1.00000 0.00000
vt 1.00000 0.25000
vt 0.50000 0.25000
vt 0.50000 0.00000
vt 1.00000 0.00000
vt 1.00000 0.25000
vt 0.50000 0.25000
vt 0.50000 0.00000
vt 1.00000 0.00000
vt 1.00000 0.25000
vt 0.50000 0.25000
vt 0.50000 0.00000
vt 1.00000 0.00000
vt 1.00000 0.25000
vt 0.50000 0.25000
vt 0.50000 0.00000
vt 1.00000 0.00000
vt 1.00000 0.25000
vt 0.50000 0.25000
vt 0.50000 0.00000
vt 1.00000 0.00000
vt 1.00000 0.25000
vt 0.50000 0.25000
vt 0.50000 0.00000
vt 1.00000 0.00000
vt 1.00000 0.25000
vt 0.50000 0.25000
vt 0.50000 0.00000
vt 1.00000 0.00000
vt 1.00000 0.25000
vt 0.50000 0.25000
vt 0.50000 0.00000
vt 1.00000 0.00000
vt 1.00000 0.25000
vt 0.50000 0.25000
vt 0.50000 0.00000
vt 1.00000 0.00000
vt 1.00000 0.25000
vt 0.50000 0.25000
vt 0.50000 0.00000
vt 1.00000 0.00000
vt 1.00000 0.25000
vt 0.50000 0.25000
vt 0.50000 0.00000
vt 1.00000 0.00000
vt 1.00000 0.25000
vt 0.50000 0.25000
vt 0.50000 0.00000
vt 1.00000 0.00000
vt 1.00000 0.25000
vt 0.50000 0.25000
vt 0.50000 0.00000
vt 1.00000 0.00000
vt 1.00000 0.25000
vt 0.50000 0.25000
vt 0.50000 0.00000
vt 1.00000 0.00000
vt 1.00000 0.25000
vt 0.50000 0.25000
vt 0.50000 0.00000
vt 1.00000 0.00000
vt 1.00000 0.25000
vt 0.50000 0.25000
vt 0.50000 0.00000
vt 1.00000 0.00000
vt 1.00000 0.25000
vt 0.50000 0.25000
vt 0.50000 0.00000
vt 1.00000 0.00000
vt 1.00000 0.25000
vt 0.50000 0.25000
vt 0.50000 0.00000
vt 1.00000 0.00000
vt 1.00000 0.25000
vt 0.50000 0.25000
vt 0.50000 0.00000
vt 1.00000 0.00000
vt 1.00000 0.25000
vt 0.50000 0.25000
vt 0.50000 0.00000
vt 1.00000 0.00000
vt 1.00000 0.25000
vt 0.50000 0.25000
vt 0.50000 0.00000
vt 1.00000 0.00000
vt 1.00000 0.25000
vt 0.50000 0.25000
vt 0.50000 0.00000
vt 1.00000 0.00000
vt 1.00000 0.25000
vt 0.50000 0.25000
vt 0.50000 0.00000
vt 1.00000 0.00000
vt 1.00000 0.25000
vt 0.50000 0.25000
vt 0.50000 0.00000
vt 1.00000 0.00000
vt 1.00000 0.25000
vt 0.50000 0.25000
vt 0.50000 0.00000
vt 1.00000 0.00000
vt 1.00000 0.25000
vt 0.50000 0.25000
vt 0.50000 0.00000
vt 1.00000 0.00000
vt 1.00000 0.25000
vt 0.50000 0.25000
vt 0.50000 0.00000
vt 1.00000 0.00000
vt 1.00000 0.25000
vt 0.50000 0.25000
vt 0.50000 0.00000
vt 1.00000 0.00000
vt 1.00000 0.25000
vt 0.50000 0.25000
vt 0.50000 0.00000
vt 1.00000 0.00000
vt 1.00000 0.25000
vt 0.50000 0.25000
vt 0.50000 0.00000
vt 1.00000 0.00000
vt 1.00000 0.25000
vt 0.50000 0.25000
vt 0.50000 0.00000
vt 1.00000 0.00000
vt 1.00000 0.25000
vt 0.50000 0.25000
vt 0.50000 0.00000
vt 1.00000 0.00000
vt 1.00000 0.25000
vt 0.50000 0.25000
vt 0.50000 0.00000
vt 1.00000 0.00000
vt 1.00000 0.25000
vt 0.50000 0.25000
vt 0.50000 0.00000
vt 1.00000 0.00000
vt 1.00000 0.25000
vt 0.50000 0.25000
vt 0.50000 0.00000
vt 1.00000 0.00000
vt 1.00000 0.25000
vt 0.50000 0.25000
vt 0.50000 0.00000
vt 1.00000 0.00000
vt 1.00000 0.25000
vt 0.50000 0.25000
vt 0.50000 0.00000
vt 1.00000 0.00000
vt 1.00000 0.25000
vt 0.50000 0.25000
vt 0.50000 0.00000
vt 1.00000 0.00000
vt 1.00000 0.25000
vt 0.50000 0.25000
vt 0.50000 0.00000
vt 1.00000 0.00000
vt 1.00000 0.25000
vt 0.50000 0.25000
vt 0.50000 0.00000
vt 1.00000 0.00000
vt 1.00000 0.25000
vt 0.50000 0.25000
vt 0.50000 0.00000
vt 1.00000 0.00000
vt 1.00000 0.25000
vt 0.50000 0.25000
vt 0.50000 0.25000
vt 1.00000 0.25000
vt 1.00000 0.50000
vt 0.50000 0.50000
vt 0.50000 0.25000
vt 1.00000 0.25000
vt 1.00000 0.50000
vt 0.50000 0.50000
vt 0.50000 0.25000
vt 1.00000 0.25000
vt 1.00000 0.50000
vt 0.50000 0.50000
vt 0.50000 0.25000
vt 1.00000 0.25000
vt 1.00000 0.50000
vt 0.50000 0.50000
vt 0.50000 0.25000
vt 1.00000 0.25000
vt 1.00000 0.50000
vt 0.50000 0.50000
vt 0.50000 0.25000
vt 1.00000 0.25000
vt 1.00000 0.50000
vt 0.50000 0.50000
vt 0.51500 0.25750
vt 0.98500 0.25750
vt 0.75000 0.49250
vt 0.51500 0.25750
vt 0.98500 0.25750
vt 0.75000 0.49250
vt 0.00000 0.00000
vt 0.00000 0.50000
vt 0.50000 0.50000
vt 0.50000 0.00000
vt 0.00000 0.00000
vt 0.50000 0.00000
vt 0.50000 0.50000
vt 0.00000 0.50000
vt 0.00000 0.00000
vt 0.00000 0.10000
vt 0.50000 0.10000
vt 0.50000 0.00000
vt 0.00000 0.00000
vt 0.00000 0.50000
vt 0.50000 0.50000
vt 0.50000 0.00000
vt 0.00000 0.00000
vt 0.50000 0.00000
vt 0.50000 0.50000
vt 0.00000 0.50000
vt 0.00000 0.00000
vt 0.00000 0.10000
vt 0.50000 0.10000
vt 0.50000 0.00000
f 4/4 3/3 2/2
f 4/4 2/2 1/1
f 8/8 7/7 6/6
f 8/8 6/6 5/5
f 12/12 11/11 10/10
f 12/12 10/10 9/9
f 16/16 15/15 14/14
f 16/16 14/14 13/13
f 20/20 19/19 18/18
f 20/20 18/18 17/17
f 24/24 23/23 22/22
f 24/24 22/22 21/21
f 28/28 27/27 26/26
f 28/28 26/26 25/25
f 32/32 31/31 30/30
f 32/32 30/30 29/29
f 36/36 35/35 34/34
f 36/36 34/34 33/33
f 40/40 39/39 38/38
f 40/40 38/38 37/37
f 44/44 43/43 42/42
f 44/44 42/42 41/41
f 48/48 47/47 46/46
f 48/48 46/46 45/45
f 52/52 51/51 50/50
f 52/52 50/50 49/49
f 56/56 55/55 54/54
f 56/56 54/54 53/53
f 60/60 59/59 58/58
f 60/60 58/58 57/57
f 64/64 63/63 62/62
f 64/64 62/62 61/61
f 68/68 67/67 66/66
f 68/68 66/66 65/65
f 72/72 71/71 70/70
f 72/72 70/70 69/69
f 76/76 75/75 74/74
f 76/76 74/74 73/73
f 80/80 79/79 78/78
f 80/80 78/78 77/77
f 84/84 83/83 82/82
f 84/84 82/82 81/81
f 88/88 87/87 86/86
f 88/88 86/86 85/85
f 92/92 91/91 90/90
f 92/92 90/90 89/89
f 96/96 95/95 94/94
f 96/96 94/94 93/93
f 100/100 99/99 98/98
f 100/100 98/98 97/97
f 104/104 103/103 102/102
f 104/104 102/102 101/101
f 108/108 107/107 106/106
f 108/108 106/106 105/105
f 112/112 111/111 110/110
f 112/112 110/110 109/109
f 116/116 115/115 114/114
f 116/116 114/114 113/113
f 120/120 119/119 118/118
f 120/120 118/118 117/117
f 124/124 123/123 122/122
f 124/124 122/122 121/121
f 128/128 127/127 126/126
f 128/128 126/126 125/125
f 132/132 131/131 130/130
f 132/132 130/130 129/129
f 136/136 135/135 134/134
f 136/136 134/134 133/133
f 140/140 139/139 138/138
f 140/140 138/138 137/137
f 144/144 143/143 142/142
f 144/144 142/142 141/141
f 148/148 147/147 146/146
f 148/148 146/146 145/145
f 152/152 151/151 150/150
f 152/152 150/150 149/149
f 156/156 155/155 154/154
f 156/156 154/154 153/153
f 160/160 159/159 158/158
f 160/160 158/158 157/157
f 164/164 163/163 162/162
f 164/164 162/162 161/161
f 168/168 167/167 166/166
f 168/168 166/166 165/165
f 172/172 171/171 170/170
f 172/172 170/170 169/169
f 176/176 175/175 174/174
f 176/176 174/174 173/173
f 180/180 179/179 178/178
f 180/180 178/178 177/177
f 184/184 183/183 182/182
f 184/184 182/182 181/181
f 188/188 187/187 186/186
f 188/188 186/186 185/185
f 192/192 191/191 190/190
f 192/192 190/190 189/189
f 196/196 195/195 194/194
f 196/196 194/194 193/193
f 200/200 199/199 198/198
f 200/200 198/198 197/197
f 204/204 203/203 202/202
f 204/204 202/202 201/201
f 208/208 207/207 206/206
f 208/208 206/206 205/205
f 212/212 211/211 210/210
f 212/212 210/210 209/209
f 216/216 215/215 214/214
f 216/216 214/214 213/213
f 220/220 219/219 218/218
f 220/220 218/218 217/217
f 224/224 223/223 222/222
f 224/224 222/222 221/221
f 228/228 227/227 226/226
f 228/228 226/226 225/225
f 232/232 231/231 230/230
f 232/232 230/230 229/229
f 236/236 235/235 234/234
f 236/236 234/234 233/233
f 240/240 239/239 238/238
f 240/240 238/238 237/237
f 244/244 243/243 242/242
f 244/244 242/242 241/241
f 248/248 247/247 246/246
f 248/248 246/246 245/245
f 252/252 251/251 250/250
f 252/252 250/250 249/249
f 256/256 255/255 254/254
f 256/256 254/254 253/253
f 260/260 259/259 258/258
f 260/260 258/258 257/257
f 264/264 263/263 262/262
f 264/264 262/262 261/261
f 268/268 267/267 266/266
f 268/268 266/266 265/265
f 272/272 271/271 270/270
f 272/272 270/270 269/269
f 276/276 275/275 274/274
f 276/276 274/274 273/273
f 280/280 279/279 278/278
f 280/280 278/278 277/277
f 284/284 283/283 282/282
f 284/284 282/282 281/281
f 288/288 287/287 286/286
f 288/288 286/286 285/285
f 292/292 291/291 290/290
f 292/292 290/290 289/289
f 296/296 295/295 294/294
f 296/296 294/294 293/293
f 300/300 299/299 298/298
f 300/300 298/298 297/297
f 304/304 303/303 302/302
f 304/304 302/302 301/301
f 308/308 307/307 306/306
f 308/308 306/306 305/305
f 312/312 311/311 310/310
f 312/312 310/310 309/309
f 316/316 315/315 314/314
f 316/316 314/314 313/313
f 320/320 319/319 318/318
f 320/320 318/318 317/317
f 324/324 323/323 322/322
f 324/324 322/322 321/321
f 328/328 327/327 326/326
f 328/328 326/326 325/325
f 332/332 331/331 330/330
f 332/332 330/330 329/329
f 336/336 335/335 334/334
f 336/336 334/334 333/333
f 340/340 339/339 338/338
f 340/340 338/338 337/337
f 344/344 343/343 342/342
f 344/344 342/342 341/341
f 348/348 347/347 346/346
f 348/348 346/346 345/345
f 352/352 351/351 350/350
f 352/352 350/350 349/349
f 356/356 355/355 354/354
f 356/356 354/354 353/353
f 360/360 359/359 358/358
f 360/360 358/358 357/357
f 364/364 363/363 362/362
f 364/364 362/362 361/361
f 368/368 367/367 366/366
f 368/368 366/366 365/365
f 372/372 371/371 370/370
f 372/372 370/370 369/369
f 376/376 375/375 374/374
f 376/376 374/374 373/373
f 380/380 379/379 378/378
f 380/380 378/378 377/377
f 384/384 383/383 382/382
f 384/384 382/382 381/381
f 388/388 387/387 386/386
f 388/388 386/386 385/385
f 392/392 391/391 390/390
f 392/392 390/390 389/389
f 396/396 395/395 394/394
f 396/396 394/394 393/393
f 400/400 399/399 398/398
f 400/400 398/398 397/397
f 404/404 403/403 402/402
f 404/404 402/402 401/401
f 408/408 407/407 406/406
f 408/408 406/406 405/405
f 412/412 411/411 410/410
f 412/412 410/410 409/409
f 416/416 415/415 414/414
f 416/416 414/414 413/413
f 420/420 419/419 418/418
f 420/420 418/418 417/417
f 424/424 423/423 422/422
f 424/424 422/422 421/421
f 428/428 427/427 426/426
f 428/428 426/426 425/425
f 432/432 431/431 430/430
f 432/432 430/430 429/429
f 436/436 435/435 434/434
f 436/436 434/434 433/433
f 440/440 439/439 438/438
f 440/440 438/438 437/437
f 444/444 443/443 442/442
f 444/444 442/442 441/441
f 448/448 447/447 446/446
f 448/448 446/446 445/445
f 452/452 451/451 450/450
f 452/452 450/450 449/449
f 456/456 455/455 454/454
f 456/456 454/454 453/453
f 460/460 459/459 458/458
f 460/460 458/458 457/457
f 464/464 463/463 462/462
f 464/464 462/462 461/461
f 468/468 467/467 466/466
f 468/468 466/466 465/465
f 472/472 471/471 470/470
f 472/472 470/470 469/469
f 476/476 475/475 474/474
f 476/476 474/474 473/473
f 480/480 479/479 478/478
f 480/480 478/478 477/477
f 484/484 483/483 482/482
f 484/484 482/482 481/481
f 488/488 487/487 486/486
f 488/488 486/486 485/485
f 492/492 491/491 490/490
f 492/492 490/490 489/489
f 496/496 495/495 494/494
f 496/496 494/494 493/493
f 500/500 499/499 498/498
f 500/500 498/498 497/497
f 504/504 503/503 502/502
f 504/504 502/502 501/501
f 508/508 507/507 506/506
f 508/508 506/506 505/505
f 512/512 511/511 510/510
f 512/512 510/510 509/509
f 516/516 515/515 514/514
f 516/516 514/514 513/513
f 520/520 519/519 518/518
f 520/520 518/518 517/517
f 524/524 523/523 522/522
f 524/524 522/522 521/521
f 528/528 527/527 526/526
f 528/528 526/526 525/525
f 532/532 531/531 530/530
f 532/532 530/530 529/529
f 536/536 535/535 534/534
f 536/536 534/534 533/533
f 540/540 539/539 538/538
f 540/540 538/538 537/537
f 544/544 543/543 542/542
f 544/544 542/542 541/541
f 548/548 547/547 546/546
f 548/548 546/546 545/545
f 552/552 551/551 550/550
f 552/552 550/550 549/549
f 556/556 555/555 554/554
f 556/556 554/554 553/553
f 560/560 559/559 558/558
f 560/560 558/558 557/557
f 564/564 563/563 562/562
f 564/564 562/562 561/561
f 568/568 567/567 566/566
f 568/568 566/566 565/565
f 572/572 571/571 570/570
f 572/572 570/570 569/569
f 576/576 575/575 574/574
f 576/576 574/574 573/573
f 580/580 579/579 578/578
f 580/580 578/578 577/577
f 584/584 583/583 582/582
f 584/584 582/582 581/581
f 587/587 586/586 585/585
f 588/588 589/589 590/590
f 594/594 593/593 592/592
f 594/594 592/592 591/591
f 595/595 596/596 597/597
f 595/595 597/597 598/598
f 602/602 601/601 600/600
f 602/602 600/600 599/599
f 603/603 604/604 605/605
f 603/603 605/605 606/606
f 610/610 609/609 608/608
f 610/610 608/608 607/607
f 611/611 612/612 613/613
f 611/611 613/613 614/614
