g haus_collider
v -2.4600 0.0000 -1.9600
v 2.4600 0.0000 -1.9600
v 2.4600 4.3500 -1.9600
v -2.4600 4.3500 -1.9600
v 2.4600 0.0000 1.9600
v -2.4600 0.0000 1.9600
v -2.4600 4.3500 1.9600
v 2.4600 4.3500 1.9600
v -2.4600 0.0000 1.9600
v -2.4600 0.0000 -1.9600
v -2.4600 4.3500 -1.9600
v -2.4600 4.3500 1.9600
v 2.4600 0.0000 -1.9600
v 2.4600 0.0000 1.9600
v 2.4600 4.3500 1.9600
v 2.4600 4.3500 -1.9600
v -2.4600 4.3500 -1.9600
v 2.4600 4.3500 -1.9600
v 2.4600 4.3500 1.9600
v -2.4600 4.3500 1.9600
v -2.4600 0.0000 1.9600
v 2.4600 0.0000 1.9600
v 2.4600 0.0000 -1.9600
v -2.4600 0.0000 -1.9600
vt 0.50000 0.00000
vt 1.00000 0.00000
vt 1.00000 0.25000
vt 0.50000 0.25000
vt 0.50000 0.00000
vt 1.00000 0.00000
vt 1.00000 0.25000
vt 0.50000 0.25000
vt 0.50000 0.00000
vt 1.00000 0.00000
vt 1.00000 0.25000
vt 0.50000 0.25000
vt 0.50000 0.00000
vt 1.00000 0.00000
vt 1.00000 0.25000
vt 0.50000 0.25000
vt 0.50000 0.00000
vt 1.00000 0.00000
vt 1.00000 0.25000
vt 0.50000 0.25000
vt 0.50000 0.00000
vt 1.00000 0.00000
vt 1.00000 0.25000
vt 0.50000 0.25000
f 4/4 3/3 2/2
f 4/4 2/2 1/1
f 8/8 7/7 6/6
f 8/8 6/6 5/5
f 12/12 11/11 10/10
f 12/12 10/10 9/9
f 16/16 15/15 14/14
f 16/16 14/14 13/13
f 20/20 19/19 18/18
f 20/20 18/18 17/17
f 24/24 23/23 22/22
f 24/24 22/22 21/21
