g felsen_collider
v -2.0000 2.4000 -1.5000
v 2.0000 2.4000 -1.5000
v 2.0000 2.4000 1.5000
v -2.0000 2.4000 1.5000
v -2.0000 0.0000 -1.5000
v -2.0000 2.4000 -1.5000
v 2.0000 2.4000 -1.5000
v 2.0000 0.0000 -1.5000
v 2.0000 0.0000 1.5000
v 2.0000 2.4000 1.5000
v -2.0000 2.4000 1.5000
v -2.0000 0.0000 1.5000
v -2.0000 0.0000 1.5000
v -2.0000 2.4000 1.5000
v -2.0000 2.4000 -1.5000
v -2.0000 0.0000 -1.5000
v 2.0000 0.0000 -1.5000
v 2.0000 2.4000 -1.5000
v 2.0000 2.4000 1.5000
v 2.0000 0.0000 1.5000
vt -1.1111 -0.8333
vt 1.1111 -0.8333
vt 1.1111 0.8333
vt -1.1111 0.8333
vt -1.1111 0.0000
vt 1.1111 0.0000
vt 1.1111 1.3333
vt -1.1111 1.3333
vt -1.1111 0.0000
vt 1.1111 0.0000
vt 1.1111 1.3333
vt -1.1111 1.3333
vt -0.8333 0.0000
vt 0.8333 0.0000
vt 0.8333 1.3333
vt -0.8333 1.3333
vt -0.8333 0.0000
vt 0.8333 0.0000
vt 0.8333 1.3333
vt -0.8333 1.3333
f 1/1 2/2 3/3
f 1/1 3/3 4/4
f 5/5 6/6 7/7
f 5/5 7/7 8/8
f 9/9 10/10 11/11
f 9/9 11/11 12/12
f 13/13 14/14 15/15
f 13/13 15/15 16/16
f 17/17 18/18 19/19
f 17/17 19/19 20/20
