g fence-palisade-v3
v -3.5000 0.0000 -0.0921
v -3.2726 0.0000 -0.0921
v -3.2726 1.3207 -0.0921
v -3.5000 1.3207 -0.0921
v -3.2726 0.0000 0.0921
v -3.5000 0.0000 0.0921
v -3.5000 1.3207 0.0921
v -3.2726 1.3207 0.0921
v -3.5000 0.0000 0.0921
v -3.5000 0.0000 -0.0921
v -3.5000 1.3207 -0.0921
v -3.5000 1.3207 0.0921
v -3.2726 0.0000 -0.0921
v -3.2726 0.0000 0.0921
v -3.2726 1.3207 0.0921
v -3.2726 1.3207 -0.0921
v -3.5000 1.3207 -0.0921
v -3.2726 1.3207 -0.0921
v -3.2726 1.3207 0.0921
v -3.5000 1.3207 0.0921
v -3.5000 1.3207 -0.0921
v -3.2726 1.3207 -0.0921
v -3.3863 1.5709 0.0000
v -3.2726 1.3207 -0.0921
v -3.2726 1.3207 0.0921
v -3.3863 1.5709 0.0000
v -3.2726 1.3207 0.0921
v -3.5000 1.3207 0.0921
v -3.3863 1.5709 0.0000
v -3.5000 1.3207 0.0921
v -3.5000 1.3207 -0.0921
v -3.3863 1.5709 0.0000
v -3.2433 0.0000 -0.1060
v -3.0625 0.0000 -0.1060
v -3.0625 1.3721 -0.1060
v -3.2433 1.3721 -0.1060
v -3.0625 0.0000 0.1060
v -3.2433 0.0000 0.1060
v -3.2433 1.3721 0.1060
v -3.0625 1.3721 0.1060
v -3.2433 0.0000 0.1060
v -3.2433 0.0000 -0.1060
v -3.2433 1.3721 -0.1060
v -3.2433 1.3721 0.1060
v -3.0625 0.0000 -0.1060
v -3.0625 0.0000 0.1060
v -3.0625 1.3721 0.1060
v -3.0625 1.3721 -0.1060
v -3.2433 1.3721 -0.1060
v -3.0625 1.3721 -0.1060
v -3.0625 1.3721 0.1060
v -3.2433 1.3721 0.1060
v -3.2433 1.3721 -0.1060
v -3.0625 1.3721 -0.1060
v -3.1529 1.5710 0.0000
v -3.0625 1.3721 -0.1060
v -3.0625 1.3721 0.1060
v -3.1529 1.5710 0.0000
v -3.0625 1.3721 0.1060
v -3.2433 1.3721 0.1060
v -3.1529 1.5710 0.0000
v -3.2433 1.3721 0.1060
v -3.2433 1.3721 -0.1060
v -3.1529 1.5710 0.0000
v -3.0494 0.0000 -0.1085
v -2.8579 0.0000 -0.1085
v -2.8579 1.4052 -0.1085
v -3.0494 1.4052 -0.1085
v -2.8579 0.0000 0.1085
v -3.0494 0.0000 0.1085
v -3.0494 1.4052 0.1085
v -2.8579 1.4052 0.1085
v -3.0494 0.0000 0.1085
v -3.0494 0.0000 -0.1085
v -3.0494 1.4052 -0.1085
v -3.0494 1.4052 0.1085
v -2.8579 0.0000 -0.1085
v -2.8579 0.0000 0.1085
v -2.8579 1.4052 0.1085
v -2.8579 1.4052 -0.1085
v -3.0494 1.4052 -0.1085
v -2.8579 1.4052 -0.1085
v -2.8579 1.4052 0.1085
v -3.0494 1.4052 0.1085
v -3.0494 1.4052 -0.1085
v -2.8579 1.4052 -0.1085
v -2.9536 1.6159 0.0000
v -2.8579 1.4052 -0.1085
v -2.8579 1.4052 0.1085
v -2.9536 1.6159 0.0000
v -2.8579 1.4052 0.1085
v -3.0494 1.4052 0.1085
v -2.9536 1.6159 0.0000
v -3.0494 1.4052 0.1085
v -3.0494 1.4052 -0.1085
v -2.9536 1.6159 0.0000
v -2.8354 0.0000 -0.1072
v -2.6452 0.0000 -0.1072
v -2.6452 1.4242 -0.1072
v -2.8354 1.4242 -0.1072
v -2.6452 0.0000 0.1072
v -2.8354 0.0000 0.1072
v -2.8354 1.4242 0.1072
v -2.6452 1.4242 0.1072
v -2.8354 0.0000 0.1072
v -2.8354 0.0000 -0.1072
v -2.8354 1.4242 -0.1072
v -2.8354 1.4242 0.1072
v -2.6452 0.0000 -0.1072
v -2.6452 0.0000 0.1072
v -2.6452 1.4242 0.1072
v -2.6452 1.4242 -0.1072
v -2.8354 1.4242 -0.1072
v -2.6452 1.4242 -0.1072
v -2.6452 1.4242 0.1072
v -2.8354 1.4242 0.1072
v -2.8354 1.4242 -0.1072
v -2.6452 1.4242 -0.1072
v -2.7403 1.6335 0.0000
v -2.6452 1.4242 -0.1072
v -2.6452 1.4242 0.1072
v -2.7403 1.6335 0.0000
v -2.6452 1.4242 0.1072
v -2.8354 1.4242 0.1072
v -2.7403 1.6335 0.0000
v -2.8354 1.4242 0.1072
v -2.8354 1.4242 -0.1072
v -2.7403 1.6335 0.0000
v -2.6336 0.0000 -0.1133
v -2.4420 0.0000 -0.1133
v -2.4420 1.4355 -0.1133
v -2.6336 1.4355 -0.1133
v -2.4420 0.0000 0.1133
v -2.6336 0.0000 0.1133
v -2.6336 1.4355 0.1133
v -2.4420 1.4355 0.1133
v -2.6336 0.0000 0.1133
v -2.6336 0.0000 -0.1133
v -2.6336 1.4355 -0.1133
v -2.6336 1.4355 0.1133
v -2.4420 0.0000 -0.1133
v -2.4420 0.0000 0.1133
v -2.4420 1.4355 0.1133
v -2.4420 1.4355 -0.1133
v -2.6336 1.4355 -0.1133
v -2.4420 1.4355 -0.1133
v -2.4420 1.4355 0.1133
v -2.6336 1.4355 0.1133
v -2.6336 1.4355 -0.1133
v -2.4420 1.4355 -0.1133
v -2.5378 1.6463 0.0000
v -2.4420 1.4355 -0.1133
v -2.4420 1.4355 0.1133
v -2.5378 1.6463 0.0000
v -2.4420 1.4355 0.1133
v -2.6336 1.4355 0.1133
v -2.5378 1.6463 0.0000
v -2.6336 1.4355 0.1133
v -2.6336 1.4355 -0.1133
v -2.5378 1.6463 0.0000
v -2.4305 0.0000 -0.1198
v -2.2520 0.0000 -0.1198
v -2.2520 1.4369 -0.1198
v -2.4305 1.4369 -0.1198
v -2.2520 0.0000 0.1198
v -2.4305 0.0000 0.1198
v -2.4305 1.4369 0.1198
v -2.2520 1.4369 0.1198
v -2.4305 0.0000 0.1198
v -2.4305 0.0000 -0.1198
v -2.4305 1.4369 -0.1198
v -2.4305 1.4369 0.1198
v -2.2520 0.0000 -0.1198
v -2.2520 0.0000 0.1198
v -2.2520 1.4369 0.1198
v -2.2520 1.4369 -0.1198
v -2.4305 1.4369 -0.1198
v -2.2520 1.4369 -0.1198
v -2.2520 1.4369 0.1198
v -2.4305 1.4369 0.1198
v -2.4305 1.4369 -0.1198
v -2.2520 1.4369 -0.1198
v -2.3413 1.6332 0.0000
v -2.2520 1.4369 -0.1198
v -2.2520 1.4369 0.1198
v -2.3413 1.6332 0.0000
v -2.2520 1.4369 0.1198
v -2.4305 1.4369 0.1198
v -2.3413 1.6332 0.0000
v -2.4305 1.4369 0.1198
v -2.4305 1.4369 -0.1198
v -2.3413 1.6332 0.0000
v -2.2337 0.0000 -0.0964
v -2.0234 0.0000 -0.0964
v -2.0234 1.2939 -0.0964
v -2.2337 1.2939 -0.0964
v -2.0234 0.0000 0.0964
v -2.2337 0.0000 0.0964
v -2.2337 1.2939 0.0964
v -2.0234 1.2939 0.0964
v -2.2337 0.0000 0.0964
v -2.2337 0.0000 -0.0964
v -2.2337 1.2939 -0.0964
v -2.2337 1.2939 0.0964
v -2.0234 0.0000 -0.0964
v -2.0234 0.0000 0.0964
v -2.0234 1.2939 0.0964
v -2.0234 1.2939 -0.0964
v -2.2337 1.2939 -0.0964
v -2.0234 1.2939 -0.0964
v -2.0234 1.2939 0.0964
v -2.2337 1.2939 0.0964
v -2.2337 1.2939 -0.0964
v -2.0234 1.2939 -0.0964
v -2.1286 1.5252 0.0000
v -2.0234 1.2939 -0.0964
v -2.0234 1.2939 0.0964
v -2.1286 1.5252 0.0000
v -2.0234 1.2939 0.0964
v -2.2337 1.2939 0.0964
v -2.1286 1.5252 0.0000
v -2.2337 1.2939 0.0964
v -2.2337 1.2939 -0.0964
v -2.1286 1.5252 0.0000
v -2.0171 0.0000 -0.1082
v -1.8164 0.0000 -0.1082
v -1.8164 1.4031 -0.1082
v -2.0171 1.4031 -0.1082
v -1.8164 0.0000 0.1082
v -2.0171 0.0000 0.1082
v -2.0171 1.4031 0.1082
v -1.8164 1.4031 0.1082
v -2.0171 0.0000 0.1082
v -2.0171 0.0000 -0.1082
v -2.0171 1.4031 -0.1082
v -2.0171 1.4031 0.1082
v -1.8164 0.0000 -0.1082
v -1.8164 0.0000 0.1082
v -1.8164 1.4031 0.1082
v -1.8164 1.4031 -0.1082
v -2.0171 1.4031 -0.1082
v -1.8164 1.4031 -0.1082
v -1.8164 1.4031 0.1082
v -2.0171 1.4031 0.1082
v -2.0171 1.4031 -0.1082
v -1.8164 1.4031 -0.1082
v -1.9167 1.6239 0.0000
v -1.8164 1.4031 -0.1082
v -1.8164 1.4031 0.1082
v -1.9167 1.6239 0.0000
v -1.8164 1.4031 0.1082
v -2.0171 1.4031 0.1082
v -1.9167 1.6239 0.0000
v -2.0171 1.4031 0.1082
v -2.0171 1.4031 -0.1082
v -1.9167 1.6239 0.0000
v -1.8092 0.0000 -0.1104
v -1.5988 0.0000 -0.1104
v -1.5988 1.3102 -0.1104
v -1.8092 1.3102 -0.1104
v -1.5988 0.0000 0.1104
v -1.8092 0.0000 0.1104
v -1.8092 1.3102 0.1104
v -1.5988 1.3102 0.1104
v -1.8092 0.0000 0.1104
v -1.8092 0.0000 -0.1104
v -1.8092 1.3102 -0.1104
v -1.8092 1.3102 0.1104
v -1.5988 0.0000 -0.1104
v -1.5988 0.0000 0.1104
v -1.5988 1.3102 0.1104
v -1.5988 1.3102 -0.1104
v -1.8092 1.3102 -0.1104
v -1.5988 1.3102 -0.1104
v -1.5988 1.3102 0.1104
v -1.8092 1.3102 0.1104
v -1.8092 1.3102 -0.1104
v -1.5988 1.3102 -0.1104
v -1.7040 1.5417 0.0000
v -1.5988 1.3102 -0.1104
v -1.5988 1.3102 0.1104
v -1.7040 1.5417 0.0000
v -1.5988 1.3102 0.1104
v -1.8092 1.3102 0.1104
v -1.7040 1.5417 0.0000
v -1.8092 1.3102 0.1104
v -1.8092 1.3102 -0.1104
v -1.7040 1.5417 0.0000
v -1.5783 0.0000 -0.1177
v -1.3882 0.0000 -0.1177
v -1.3882 1.3305 -0.1177
v -1.5783 1.3305 -0.1177
v -1.3882 0.0000 0.1177
v -1.5783 0.0000 0.1177
v -1.5783 1.3305 0.1177
v -1.3882 1.3305 0.1177
v -1.5783 0.0000 0.1177
v -1.5783 0.0000 -0.1177
v -1.5783 1.3305 -0.1177
v -1.5783 1.3305 0.1177
v -1.3882 0.0000 -0.1177
v -1.3882 0.0000 0.1177
v -1.3882 1.3305 0.1177
v -1.3882 1.3305 -0.1177
v -1.5783 1.3305 -0.1177
v -1.3882 1.3305 -0.1177
v -1.3882 1.3305 0.1177
v -1.5783 1.3305 0.1177
v -1.5783 1.3305 -0.1177
v -1.3882 1.3305 -0.1177
v -1.4833 1.5395 0.0000
v -1.3882 1.3305 -0.1177
v -1.3882 1.3305 0.1177
v -1.4833 1.5395 0.0000
v -1.3882 1.3305 0.1177
v -1.5783 1.3305 0.1177
v -1.4833 1.5395 0.0000
v -1.5783 1.3305 0.1177
v -1.5783 1.3305 -0.1177
v -1.4833 1.5395 0.0000
v -1.3612 0.0000 -0.1140
v -1.1671 0.0000 -0.1140
v -1.1671 1.3283 -0.1140
v -1.3612 1.3283 -0.1140
v -1.1671 0.0000 0.1140
v -1.3612 0.0000 0.1140
v -1.3612 1.3283 0.1140
v -1.1671 1.3283 0.1140
v -1.3612 0.0000 0.1140
v -1.3612 0.0000 -0.1140
v -1.3612 1.3283 -0.1140
v -1.3612 1.3283 0.1140
v -1.1671 0.0000 -0.1140
v -1.1671 0.0000 0.1140
v -1.1671 1.3283 0.1140
v -1.1671 1.3283 -0.1140
v -1.3612 1.3283 -0.1140
v -1.1671 1.3283 -0.1140
v -1.1671 1.3283 0.1140
v -1.3612 1.3283 0.1140
v -1.3612 1.3283 -0.1140
v -1.1671 1.3283 -0.1140
v -1.2642 1.5418 0.0000
v -1.1671 1.3283 -0.1140
v -1.1671 1.3283 0.1140
v -1.2642 1.5418 0.0000
v -1.1671 1.3283 0.1140
v -1.3612 1.3283 0.1140
v -1.2642 1.5418 0.0000
v -1.3612 1.3283 0.1140
v -1.3612 1.3283 -0.1140
v -1.2642 1.5418 0.0000
v -1.1479 0.0000 -0.1053
v -0.9168 0.0000 -0.1053
v -0.9168 1.2957 -0.1053
v -1.1479 1.2957 -0.1053
v -0.9168 0.0000 0.1053
v -1.1479 0.0000 0.1053
v -1.1479 1.2957 0.1053
v -0.9168 1.2957 0.1053
v -1.1479 0.0000 0.1053
v -1.1479 0.0000 -0.1053
v -1.1479 1.2957 -0.1053
v -1.1479 1.2957 0.1053
v -0.9168 0.0000 -0.1053
v -0.9168 0.0000 0.1053
v -0.9168 1.2957 0.1053
v -0.9168 1.2957 -0.1053
v -1.1479 1.2957 -0.1053
v -0.9168 1.2957 -0.1053
v -0.9168 1.2957 0.1053
v -1.1479 1.2957 0.1053
v -1.1479 1.2957 -0.1053
v -0.9168 1.2957 -0.1053
v -1.0323 1.5499 0.0000
v -0.9168 1.2957 -0.1053
v -0.9168 1.2957 0.1053
v -1.0323 1.5499 0.0000
v -0.9168 1.2957 0.1053
v -1.1479 1.2957 0.1053
v -1.0323 1.5499 0.0000
v -1.1479 1.2957 0.1053
v -1.1479 1.2957 -0.1053
v -1.0323 1.5499 0.0000
v -0.8976 0.0000 -0.1089
v -0.7222 0.0000 -0.1089
v -0.7222 1.3298 -0.1089
v -0.8976 1.3298 -0.1089
v -0.7222 0.0000 0.1089
v -0.8976 0.0000 0.1089
v -0.8976 1.3298 0.1089
v -0.7222 1.3298 0.1089
v -0.8976 0.0000 0.1089
v -0.8976 0.0000 -0.1089
v -0.8976 1.3298 -0.1089
v -0.8976 1.3298 0.1089
v -0.7222 0.0000 -0.1089
v -0.7222 0.0000 0.1089
v -0.7222 1.3298 0.1089
v -0.7222 1.3298 -0.1089
v -0.8976 1.3298 -0.1089
v -0.7222 1.3298 -0.1089
v -0.7222 1.3298 0.1089
v -0.8976 1.3298 0.1089
v -0.8976 1.3298 -0.1089
v -0.7222 1.3298 -0.1089
v -0.8099 1.5227 0.0000
v -0.7222 1.3298 -0.1089
v -0.7222 1.3298 0.1089
v -0.8099 1.5227 0.0000
v -0.7222 1.3298 0.1089
v -0.8976 1.3298 0.1089
v -0.8099 1.5227 0.0000
v -0.8976 1.3298 0.1089
v -0.8976 1.3298 -0.1089
v -0.8099 1.5227 0.0000
v -0.6922 0.0000 -0.1122
v -0.4749 0.0000 -0.1122
v -0.4749 1.3861 -0.1122
v -0.6922 1.3861 -0.1122
v -0.4749 0.0000 0.1122
v -0.6922 0.0000 0.1122
v -0.6922 1.3861 0.1122
v -0.4749 1.3861 0.1122
v -0.6922 0.0000 0.1122
v -0.6922 0.0000 -0.1122
v -0.6922 1.3861 -0.1122
v -0.6922 1.3861 0.1122
v -0.4749 0.0000 -0.1122
v -0.4749 0.0000 0.1122
v -0.4749 1.3861 0.1122
v -0.4749 1.3861 -0.1122
v -0.6922 1.3861 -0.1122
v -0.4749 1.3861 -0.1122
v -0.4749 1.3861 0.1122
v -0.6922 1.3861 0.1122
v -0.6922 1.3861 -0.1122
v -0.4749 1.3861 -0.1122
v -0.5835 1.6252 0.0000
v -0.4749 1.3861 -0.1122
v -0.4749 1.3861 0.1122
v -0.5835 1.6252 0.0000
v -0.4749 1.3861 0.1122
v -0.6922 1.3861 0.1122
v -0.5835 1.6252 0.0000
v -0.6922 1.3861 0.1122
v -0.6922 1.3861 -0.1122
v -0.5835 1.6252 0.0000
v -0.4486 0.0000 -0.1081
v -0.2289 0.0000 -0.1081
v -0.2289 1.3305 -0.1081
v -0.4486 1.3305 -0.1081
v -0.2289 0.0000 0.1081
v -0.4486 0.0000 0.1081
v -0.4486 1.3305 0.1081
v -0.2289 1.3305 0.1081
v -0.4486 0.0000 0.1081
v -0.4486 0.0000 -0.1081
v -0.4486 1.3305 -0.1081
v -0.4486 1.3305 0.1081
v -0.2289 0.0000 -0.1081
v -0.2289 0.0000 0.1081
v -0.2289 1.3305 0.1081
v -0.2289 1.3305 -0.1081
v -0.4486 1.3305 -0.1081
v -0.2289 1.3305 -0.1081
v -0.2289 1.3305 0.1081
v -0.4486 1.3305 0.1081
v -0.4486 1.3305 -0.1081
v -0.2289 1.3305 -0.1081
v -0.3387 1.5721 0.0000
v -0.2289 1.3305 -0.1081
v -0.2289 1.3305 0.1081
v -0.3387 1.5721 0.0000
v -0.2289 1.3305 0.1081
v -0.4486 1.3305 0.1081
v -0.3387 1.5721 0.0000
v -0.4486 1.3305 0.1081
v -0.4486 1.3305 -0.1081
v -0.3387 1.5721 0.0000
v -0.2024 0.0000 -0.1029
v -0.0082 0.0000 -0.1029
v -0.0082 1.3108 -0.1029
v -0.2024 1.3108 -0.1029
v -0.0082 0.0000 0.1029
v -0.2024 0.0000 0.1029
v -0.2024 1.3108 0.1029
v -0.0082 1.3108 0.1029
v -0.2024 0.0000 0.1029
v -0.2024 0.0000 -0.1029
v -0.2024 1.3108 -0.1029
v -0.2024 1.3108 0.1029
v -0.0082 0.0000 -0.1029
v -0.0082 0.0000 0.1029
v -0.0082 1.3108 0.1029
v -0.0082 1.3108 -0.1029
v -0.2024 1.3108 -0.1029
v -0.0082 1.3108 -0.1029
v -0.0082 1.3108 0.1029
v -0.2024 1.3108 0.1029
v -0.2024 1.3108 -0.1029
v -0.0082 1.3108 -0.1029
v -0.1053 1.5244 0.0000
v -0.0082 1.3108 -0.1029
v -0.0082 1.3108 0.1029
v -0.1053 1.5244 0.0000
v -0.0082 1.3108 0.1029
v -0.2024 1.3108 0.1029
v -0.1053 1.5244 0.0000
v -0.2024 1.3108 0.1029
v -0.2024 1.3108 -0.1029
v -0.1053 1.5244 0.0000
v 0.0064 0.0000 -0.0973
v 0.1960 0.0000 -0.0973
v 0.1960 1.3527 -0.0973
v 0.0064 1.3527 -0.0973
v 0.1960 0.0000 0.0973
v 0.0064 0.0000 0.0973
v 0.0064 1.3527 0.0973
v 0.1960 1.3527 0.0973
v 0.0064 0.0000 0.0973
v 0.0064 0.0000 -0.0973
v 0.0064 1.3527 -0.0973
v 0.0064 1.3527 0.0973
v 0.1960 0.0000 -0.0973
v 0.1960 0.0000 0.0973
v 0.1960 1.3527 0.0973
v 0.1960 1.3527 -0.0973
v 0.0064 1.3527 -0.0973
v 0.1960 1.3527 -0.0973
v 0.1960 1.3527 0.0973
v 0.0064 1.3527 0.0973
v 0.0064 1.3527 -0.0973
v 0.1960 1.3527 -0.0973
v 0.1012 1.5612 0.0000
v 0.1960 1.3527 -0.0973
v 0.1960 1.3527 0.0973
v 0.1012 1.5612 0.0000
v 0.1960 1.3527 0.0973
v 0.0064 1.3527 0.0973
v 0.1012 1.5612 0.0000
v 0.0064 1.3527 0.0973
v 0.0064 1.3527 -0.0973
v 0.1012 1.5612 0.0000
v 0.2058 0.0000 -0.1117
v 0.3788 0.0000 -0.1117
v 0.3788 1.4470 -0.1117
v 0.2058 1.4470 -0.1117
v 0.3788 0.0000 0.1117
v 0.2058 0.0000 0.1117
v 0.2058 1.4470 0.1117
v 0.3788 1.4470 0.1117
v 0.2058 0.0000 0.1117
v 0.2058 0.0000 -0.1117
v 0.2058 1.4470 -0.1117
v 0.2058 1.4470 0.1117
v 0.3788 0.0000 -0.1117
v 0.3788 0.0000 0.1117
v 0.3788 1.4470 0.1117
v 0.3788 1.4470 -0.1117
v 0.2058 1.4470 -0.1117
v 0.3788 1.4470 -0.1117
v 0.3788 1.4470 0.1117
v 0.2058 1.4470 0.1117
v 0.2058 1.4470 -0.1117
v 0.3788 1.4470 -0.1117
v 0.2923 1.6373 0.0000
v 0.3788 1.4470 -0.1117
v 0.3788 1.4470 0.1117
v 0.2923 1.6373 0.0000
v 0.3788 1.4470 0.1117
v 0.2058 1.4470 0.1117
v 0.2923 1.6373 0.0000
v 0.2058 1.4470 0.1117
v 0.2058 1.4470 -0.1117
v 0.2923 1.6373 0.0000
v 0.4026 0.0000 -0.0968
v 0.6174 0.0000 -0.0968
v 0.6174 1.2971 -0.0968
v 0.4026 1.2971 -0.0968
v 0.6174 0.0000 0.0968
v 0.4026 0.0000 0.0968
v 0.4026 1.2971 0.0968
v 0.6174 1.2971 0.0968
v 0.4026 0.0000 0.0968
v 0.4026 0.0000 -0.0968
v 0.4026 1.2971 -0.0968
v 0.4026 1.2971 0.0968
v 0.6174 0.0000 -0.0968
v 0.6174 0.0000 0.0968
v 0.6174 1.2971 0.0968
v 0.6174 1.2971 -0.0968
v 0.4026 1.2971 -0.0968
v 0.6174 1.2971 -0.0968
v 0.6174 1.2971 0.0968
v 0.4026 1.2971 0.0968
v 0.4026 1.2971 -0.0968
v 0.6174 1.2971 -0.0968
v 0.5100 1.5333 0.0000
v 0.6174 1.2971 -0.0968
v 0.6174 1.2971 0.0968
v 0.5100 1.5333 0.0000
v 0.6174 1.2971 0.0968
v 0.4026 1.2971 0.0968
v 0.5100 1.5333 0.0000
v 0.4026 1.2971 0.0968
v 0.4026 1.2971 -0.0968
v 0.5100 1.5333 0.0000
v 0.6357 0.0000 -0.0983
v 0.8299 0.0000 -0.0983
v 0.8299 1.3439 -0.0983
v 0.6357 1.3439 -0.0983
v 0.8299 0.0000 0.0983
v 0.6357 0.0000 0.0983
v 0.6357 1.3439 0.0983
v 0.8299 1.3439 0.0983
v 0.6357 0.0000 0.0983
v 0.6357 0.0000 -0.0983
v 0.6357 1.3439 -0.0983
v 0.6357 1.3439 0.0983
v 0.8299 0.0000 -0.0983
v 0.8299 0.0000 0.0983
v 0.8299 1.3439 0.0983
v 0.8299 1.3439 -0.0983
v 0.6357 1.3439 -0.0983
v 0.8299 1.3439 -0.0983
v 0.8299 1.3439 0.0983
v 0.6357 1.3439 0.0983
v 0.6357 1.3439 -0.0983
v 0.8299 1.3439 -0.0983
v 0.7328 1.5576 0.0000
v 0.8299 1.3439 -0.0983
v 0.8299 1.3439 0.0983
v 0.7328 1.5576 0.0000
v 0.8299 1.3439 0.0983
v 0.6357 1.3439 0.0983
v 0.7328 1.5576 0.0000
v 0.6357 1.3439 0.0983
v 0.6357 1.3439 -0.0983
v 0.7328 1.5576 0.0000
v 0.8513 0.0000 -0.0932
v 1.0258 0.0000 -0.0932
v 1.0258 1.3451 -0.0932
v 0.8513 1.3451 -0.0932
v 1.0258 0.0000 0.0932
v 0.8513 0.0000 0.0932
v 0.8513 1.3451 0.0932
v 1.0258 1.3451 0.0932
v 0.8513 0.0000 0.0932
v 0.8513 0.0000 -0.0932
v 0.8513 1.3451 -0.0932
v 0.8513 1.3451 0.0932
v 1.0258 0.0000 -0.0932
v 1.0258 0.0000 0.0932
v 1.0258 1.3451 0.0932
v 1.0258 1.3451 -0.0932
v 0.8513 1.3451 -0.0932
v 1.0258 1.3451 -0.0932
v 1.0258 1.3451 0.0932
v 0.8513 1.3451 0.0932
v 0.8513 1.3451 -0.0932
v 1.0258 1.3451 -0.0932
v 0.9385 1.5371 0.0000
v 1.0258 1.3451 -0.0932
v 1.0258 1.3451 0.0932
v 0.9385 1.5371 0.0000
v 1.0258 1.3451 0.0932
v 0.8513 1.3451 0.0932
v 0.9385 1.5371 0.0000
v 0.8513 1.3451 0.0932
v 0.8513 1.3451 -0.0932
v 0.9385 1.5371 0.0000
v 1.0435 0.0000 -0.1139
v 1.2196 0.0000 -0.1139
v 1.2196 1.3733 -0.1139
v 1.0435 1.3733 -0.1139
v 1.2196 0.0000 0.1139
v 1.0435 0.0000 0.1139
v 1.0435 1.3733 0.1139
v 1.2196 1.3733 0.1139
v 1.0435 0.0000 0.1139
v 1.0435 0.0000 -0.1139
v 1.0435 1.3733 -0.1139
v 1.0435 1.3733 0.1139
v 1.2196 0.0000 -0.1139
v 1.2196 0.0000 0.1139
v 1.2196 1.3733 0.1139
v 1.2196 1.3733 -0.1139
v 1.0435 1.3733 -0.1139
v 1.2196 1.3733 -0.1139
v 1.2196 1.3733 0.1139
v 1.0435 1.3733 0.1139
v 1.0435 1.3733 -0.1139
v 1.2196 1.3733 -0.1139
v 1.1315 1.5670 0.0000
v 1.2196 1.3733 -0.1139
v 1.2196 1.3733 0.1139
v 1.1315 1.5670 0.0000
v 1.2196 1.3733 0.1139
v 1.0435 1.3733 0.1139
v 1.1315 1.5670 0.0000
v 1.0435 1.3733 0.1139
v 1.0435 1.3733 -0.1139
v 1.1315 1.5670 0.0000
v 1.2469 0.0000 -0.1196
v 1.4309 0.0000 -0.1196
v 1.4309 1.4381 -0.1196
v 1.2469 1.4381 -0.1196
v 1.4309 0.0000 0.1196
v 1.2469 0.0000 0.1196
v 1.2469 1.4381 0.1196
v 1.4309 1.4381 0.1196
v 1.2469 0.0000 0.1196
v 1.2469 0.0000 -0.1196
v 1.2469 1.4381 -0.1196
v 1.2469 1.4381 0.1196
v 1.4309 0.0000 -0.1196
v 1.4309 0.0000 0.1196
v 1.4309 1.4381 0.1196
v 1.4309 1.4381 -0.1196
v 1.2469 1.4381 -0.1196
v 1.4309 1.4381 -0.1196
v 1.4309 1.4381 0.1196
v 1.2469 1.4381 0.1196
v 1.2469 1.4381 -0.1196
v 1.4309 1.4381 -0.1196
v 1.3389 1.6405 0.0000
v 1.4309 1.4381 -0.1196
v 1.4309 1.4381 0.1196
v 1.3389 1.6405 0.0000
v 1.4309 1.4381 0.1196
v 1.2469 1.4381 0.1196
v 1.3389 1.6405 0.0000
v 1.2469 1.4381 0.1196
v 1.2469 1.4381 -0.1196
v 1.3389 1.6405 0.0000
v 1.4382 0.0000 -0.0998
v 1.6129 0.0000 -0.0998
v 1.6129 1.4308 -0.0998
v 1.4382 1.4308 -0.0998
v 1.6129 0.0000 0.0998
v 1.4382 0.0000 0.0998
v 1.4382 1.4308 0.0998
v 1.6129 1.4308 0.0998
v 1.4382 0.0000 0.0998
v 1.4382 0.0000 -0.0998
v 1.4382 1.4308 -0.0998
v 1.4382 1.4308 0.0998
v 1.6129 0.0000 -0.0998
v 1.6129 0.0000 0.0998
v 1.6129 1.4308 0.0998
v 1.6129 1.4308 -0.0998
v 1.4382 1.4308 -0.0998
v 1.6129 1.4308 -0.0998
v 1.6129 1.4308 0.0998
v 1.4382 1.4308 0.0998
v 1.4382 1.4308 -0.0998
v 1.6129 1.4308 -0.0998
v 1.5256 1.6230 0.0000
v 1.6129 1.4308 -0.0998
v 1.6129 1.4308 0.0998
v 1.5256 1.6230 0.0000
v 1.6129 1.4308 0.0998
v 1.4382 1.4308 0.0998
v 1.5256 1.6230 0.0000
v 1.4382 1.4308 0.0998
v 1.4382 1.4308 -0.0998
v 1.5256 1.6230 0.0000
v 1.6332 0.0000 -0.0969
v 1.8205 0.0000 -0.0969
v 1.8205 1.3621 -0.0969
v 1.6332 1.3621 -0.0969
v 1.8205 0.0000 0.0969
v 1.6332 0.0000 0.0969
v 1.6332 1.3621 0.0969
v 1.8205 1.3621 0.0969
v 1.6332 0.0000 0.0969
v 1.6332 0.0000 -0.0969
v 1.6332 1.3621 -0.0969
v 1.6332 1.3621 0.0969
v 1.8205 0.0000 -0.0969
v 1.8205 0.0000 0.0969
v 1.8205 1.3621 0.0969
v 1.8205 1.3621 -0.0969
v 1.6332 1.3621 -0.0969
v 1.8205 1.3621 -0.0969
v 1.8205 1.3621 0.0969
v 1.6332 1.3621 0.0969
v 1.6332 1.3621 -0.0969
v 1.8205 1.3621 -0.0969
v 1.7268 1.5682 0.0000
v 1.8205 1.3621 -0.0969
v 1.8205 1.3621 0.0969
v 1.7268 1.5682 0.0000
v 1.8205 1.3621 0.0969
v 1.6332 1.3621 0.0969
v 1.7268 1.5682 0.0000
v 1.6332 1.3621 0.0969
v 1.6332 1.3621 -0.0969
v 1.7268 1.5682 0.0000
v 1.8412 0.0000 -0.1160
v 2.0323 0.0000 -0.1160
v 2.0323 1.3587 -0.1160
v 1.8412 1.3587 -0.1160
v 2.0323 0.0000 0.1160
v 1.8412 0.0000 0.1160
v 1.8412 1.3587 0.1160
v 2.0323 1.3587 0.1160
v 1.8412 0.0000 0.1160
v 1.8412 0.0000 -0.1160
v 1.8412 1.3587 -0.1160
v 1.8412 1.3587 0.1160
v 2.0323 0.0000 -0.1160
v 2.0323 0.0000 0.1160
v 2.0323 1.3587 0.1160
v 2.0323 1.3587 -0.1160
v 1.8412 1.3587 -0.1160
v 2.0323 1.3587 -0.1160
v 2.0323 1.3587 0.1160
v 1.8412 1.3587 0.1160
v 1.8412 1.3587 -0.1160
v 2.0323 1.3587 -0.1160
v 1.9368 1.5689 0.0000
v 2.0323 1.3587 -0.1160
v 2.0323 1.3587 0.1160
v 1.9368 1.5689 0.0000
v 2.0323 1.3587 0.1160
v 1.8412 1.3587 0.1160
v 1.9368 1.5689 0.0000
v 1.8412 1.3587 0.1160
v 1.8412 1.3587 -0.1160
v 1.9368 1.5689 0.0000
v 2.0533 0.0000 -0.1032
v 2.2249 0.0000 -0.1032
v 2.2249 1.3497 -0.1032
v 2.0533 1.3497 -0.1032
v 2.2249 0.0000 0.1032
v 2.0533 0.0000 0.1032
v 2.0533 1.3497 0.1032
v 2.2249 1.3497 0.1032
v 2.0533 0.0000 0.1032
v 2.0533 0.0000 -0.1032
v 2.0533 1.3497 -0.1032
v 2.0533 1.3497 0.1032
v 2.2249 0.0000 -0.1032
v 2.2249 0.0000 0.1032
v 2.2249 1.3497 0.1032
v 2.2249 1.3497 -0.1032
v 2.0533 1.3497 -0.1032
v 2.2249 1.3497 -0.1032
v 2.2249 1.3497 0.1032
v 2.0533 1.3497 0.1032
v 2.0533 1.3497 -0.1032
v 2.2249 1.3497 -0.1032
v 2.1391 1.5384 0.0000
v 2.2249 1.3497 -0.1032
v 2.2249 1.3497 0.1032
v 2.1391 1.5384 0.0000
v 2.2249 1.3497 0.1032
v 2.0533 1.3497 0.1032
v 2.1391 1.5384 0.0000
v 2.0533 1.3497 0.1032
v 2.0533 1.3497 -0.1032
v 2.1391 1.5384 0.0000
v 2.2473 0.0000 -0.1015
v 2.4760 0.0000 -0.1015
v 2.4760 1.3807 -0.1015
v 2.2473 1.3807 -0.1015
v 2.4760 0.0000 0.1015
v 2.2473 0.0000 0.1015
v 2.2473 1.3807 0.1015
v 2.4760 1.3807 0.1015
v 2.2473 0.0000 0.1015
v 2.2473 0.0000 -0.1015
v 2.2473 1.3807 -0.1015
v 2.2473 1.3807 0.1015
v 2.4760 0.0000 -0.1015
v 2.4760 0.0000 0.1015
v 2.4760 1.3807 0.1015
v 2.4760 1.3807 -0.1015
v 2.2473 1.3807 -0.1015
v 2.4760 1.3807 -0.1015
v 2.4760 1.3807 0.1015
v 2.2473 1.3807 0.1015
v 2.2473 1.3807 -0.1015
v 2.4760 1.3807 -0.1015
v 2.3617 1.6322 0.0000
v 2.4760 1.3807 -0.1015
v 2.4760 1.3807 0.1015
v 2.3617 1.6322 0.0000
v 2.4760 1.3807 0.1015
v 2.2473 1.3807 0.1015
v 2.3617 1.6322 0.0000
v 2.2473 1.3807 0.1015
v 2.2473 1.3807 -0.1015
v 2.3617 1.6322 0.0000
v 2.4982 0.0000 -0.1165
v 2.6716 0.0000 -0.1165
v 2.6716 1.3996 -0.1165
v 2.4982 1.3996 -0.1165
v 2.6716 0.0000 0.1165
v 2.4982 0.0000 0.1165
v 2.4982 1.3996 0.1165
v 2.6716 1.3996 0.1165
v 2.4982 0.0000 0.1165
v 2.4982 0.0000 -0.1165
v 2.4982 1.3996 -0.1165
v 2.4982 1.3996 0.1165
v 2.6716 0.0000 -0.1165
v 2.6716 0.0000 0.1165
v 2.6716 1.3996 0.1165
v 2.6716 1.3996 -0.1165
v 2.4982 1.3996 -0.1165
v 2.6716 1.3996 -0.1165
v 2.6716 1.3996 0.1165
v 2.4982 1.3996 0.1165
v 2.4982 1.3996 -0.1165
v 2.6716 1.3996 -0.1165
v 2.5849 1.5904 0.0000
v 2.6716 1.3996 -0.1165
v 2.6716 1.3996 0.1165
v 2.5849 1.5904 0.0000
v 2.6716 1.3996 0.1165
v 2.4982 1.3996 0.1165
v 2.5849 1.5904 0.0000
v 2.4982 1.3996 0.1165
v 2.4982 1.3996 -0.1165
v 2.5849 1.5904 0.0000
v 2.6803 0.0000 -0.0952
v 2.8842 0.0000 -0.0952
v 2.8842 1.2934 -0.0952
v 2.6803 1.2934 -0.0952
v 2.8842 0.0000 0.0952
v 2.6803 0.0000 0.0952
v 2.6803 1.2934 0.0952
v 2.8842 1.2934 0.0952
v 2.6803 0.0000 0.0952
v 2.6803 0.0000 -0.0952
v 2.6803 1.2934 -0.0952
v 2.6803 1.2934 0.0952
v 2.8842 0.0000 -0.0952
v 2.8842 0.0000 0.0952
v 2.8842 1.2934 0.0952
v 2.8842 1.2934 -0.0952
v 2.6803 1.2934 -0.0952
v 2.8842 1.2934 -0.0952
v 2.8842 1.2934 0.0952
v 2.6803 1.2934 0.0952
v 2.6803 1.2934 -0.0952
v 2.8842 1.2934 -0.0952
v 2.7822 1.5177 0.0000
v 2.8842 1.2934 -0.0952
v 2.8842 1.2934 0.0952
v 2.7822 1.5177 0.0000
v 2.8842 1.2934 0.0952
v 2.6803 1.2934 0.0952
v 2.7822 1.5177 0.0000
v 2.6803 1.2934 0.0952
v 2.6803 1.2934 -0.0952
v 2.7822 1.5177 0.0000
v 2.8995 0.0000 -0.0941
v 3.1157 0.0000 -0.0941
v 3.1157 1.2920 -0.0941
v 2.8995 1.2920 -0.0941
v 3.1157 0.0000 0.0941
v 2.8995 0.0000 0.0941
v 2.8995 1.2920 0.0941
v 3.1157 1.2920 0.0941
v 2.8995 0.0000 0.0941
v 2.8995 0.0000 -0.0941
v 2.8995 1.2920 -0.0941
v 2.8995 1.2920 0.0941
v 3.1157 0.0000 -0.0941
v 3.1157 0.0000 0.0941
v 3.1157 1.2920 0.0941
v 3.1157 1.2920 -0.0941
v 2.8995 1.2920 -0.0941
v 3.1157 1.2920 -0.0941
v 3.1157 1.2920 0.0941
v 2.8995 1.2920 0.0941
v 2.8995 1.2920 -0.0941
v 3.1157 1.2920 -0.0941
v 3.0076 1.5299 0.0000
v 3.1157 1.2920 -0.0941
v 3.1157 1.2920 0.0941
v 3.0076 1.5299 0.0000
v 3.1157 1.2920 0.0941
v 2.8995 1.2920 0.0941
v 3.0076 1.5299 0.0000
v 2.8995 1.2920 0.0941
v 2.8995 1.2920 -0.0941
v 3.0076 1.5299 0.0000
v 3.1374 0.0000 -0.1198
v 3.3752 0.0000 -0.1198
v 3.3752 1.2788 -0.1198
v 3.1374 1.2788 -0.1198
v 3.3752 0.0000 0.1198
v 3.1374 0.0000 0.1198
v 3.1374 1.2788 0.1198
v 3.3752 1.2788 0.1198
v 3.1374 0.0000 0.1198
v 3.1374 0.0000 -0.1198
v 3.1374 1.2788 -0.1198
v 3.1374 1.2788 0.1198
v 3.3752 0.0000 -0.1198
v 3.3752 0.0000 0.1198
v 3.3752 1.2788 0.1198
v 3.3752 1.2788 -0.1198
v 3.1374 1.2788 -0.1198
v 3.3752 1.2788 -0.1198
v 3.3752 1.2788 0.1198
v 3.1374 1.2788 0.1198
v 3.1374 1.2788 -0.1198
v 3.3752 1.2788 -0.1198
v 3.2563 1.5404 0.0000
v 3.3752 1.2788 -0.1198
v 3.3752 1.2788 0.1198
v 3.2563 1.5404 0.0000
v 3.3752 1.2788 0.1198
v 3.1374 1.2788 0.1198
v 3.2563 1.5404 0.0000
v 3.1374 1.2788 0.1198
v 3.1374 1.2788 -0.1198
v 3.2563 1.5404 0.0000
v 3.3809 0.0000 -0.1139
v 3.5000 0.0000 -0.1139
v 3.5000 1.2873 -0.1139
v 3.3809 1.2873 -0.1139
v 3.5000 0.0000 0.1139
v 3.3809 0.0000 0.1139
v 3.3809 1.2873 0.1139
v 3.5000 1.2873 0.1139
v 3.3809 0.0000 0.1139
v 3.3809 0.0000 -0.1139
v 3.3809 1.2873 -0.1139
v 3.3809 1.2873 0.1139
v 3.5000 0.0000 -0.1139
v 3.5000 0.0000 0.1139
v 3.5000 1.2873 0.1139
v 3.5000 1.2873 -0.1139
v 3.3809 1.2873 -0.1139
v 3.5000 1.2873 -0.1139
v 3.5000 1.2873 0.1139
v 3.3809 1.2873 0.1139
v 3.3809 1.2873 -0.1139
v 3.5000 1.2873 -0.1139
v 3.4405 1.4183 0.0000
v 3.5000 1.2873 -0.1139
v 3.5000 1.2873 0.1139
v 3.4405 1.4183 0.0000
v 3.5000 1.2873 0.1139
v 3.3809 1.2873 0.1139
v 3.4405 1.4183 0.0000
v 3.3809 1.2873 0.1139
v 3.3809 1.2873 -0.1139
v 3.4405 1.4183 0.0000
v -3.5000 0.7400 0.1100
v 3.5000 0.7400 0.1100
v 3.5000 0.8800 0.1100
v -3.5000 0.8800 0.1100
v 3.5000 0.7400 0.2000
v -3.5000 0.7400 0.2000
v -3.5000 0.8800 0.2000
v 3.5000 0.8800 0.2000
v -3.5000 0.7400 0.2000
v -3.5000 0.7400 0.1100
v -3.5000 0.8800 0.1100
v -3.5000 0.8800 0.2000
v 3.5000 0.7400 0.1100
v 3.5000 0.7400 0.2000
v 3.5000 0.8800 0.2000
v 3.5000 0.8800 0.1100
v -3.5000 0.8800 0.1100
v 3.5000 0.8800 0.1100
v 3.5000 0.8800 0.2000
v -3.5000 0.8800 0.2000
v -3.5000 0.7400 0.2000
v 3.5000 0.7400 0.2000
v 3.5000 0.7400 0.1100
v -3.5000 0.7400 0.1100
vt 0.31383 0.02000
vt 0.59383 0.02000
vt 0.59383 0.96000
vt 0.31383 0.96000
vt 0.31383 0.02000
vt 0.59383 0.02000
vt 0.59383 0.96000
vt 0.31383 0.96000
vt 0.31383 0.02000
vt 0.59383 0.02000
vt 0.59383 0.96000
vt 0.31383 0.96000
vt 0.31383 0.02000
vt 0.59383 0.02000
vt 0.59383 0.96000
vt 0.31383 0.96000
vt 0.31383 0.02000
vt 0.59383 0.02000
vt 0.59383 0.20000
vt 0.31383 0.20000
vt 0.31383 0.80000
vt 0.59383 0.80000
vt 0.45383 0.99000
vt 0.31383 0.80000
vt 0.59383 0.80000
vt 0.45383 0.99000
vt 0.31383 0.80000
vt 0.59383 0.80000
vt 0.45383 0.99000
vt 0.31383 0.80000
vt 0.59383 0.80000
vt 0.45383 0.99000
vt 0.16335 0.02000
vt 0.44335 0.02000
vt 0.44335 0.96000
vt 0.16335 0.96000
vt 0.16335 0.02000
vt 0.44335 0.02000
vt 0.44335 0.96000
vt 0.16335 0.96000
vt 0.16335 0.02000
vt 0.44335 0.02000
vt 0.44335 0.96000
vt 0.16335 0.96000
vt 0.16335 0.02000
vt 0.44335 0.02000
vt 0.44335 0.96000
vt 0.16335 0.96000
vt 0.16335 0.02000
vt 0.44335 0.02000
vt 0.44335 0.20000
vt 0.16335 0.20000
vt 0.16335 0.80000
vt 0.44335 0.80000
vt 0.30335 0.99000
vt 0.16335 0.80000
vt 0.44335 0.80000
vt 0.30335 0.99000
vt 0.16335 0.80000
vt 0.44335 0.80000
vt 0.30335 0.99000
vt 0.16335 0.80000
vt 0.44335 0.80000
vt 0.30335 0.99000
vt 0.52600 0.02000
vt 0.80600 0.02000
vt 0.80600 0.96000
vt 0.52600 0.96000
vt 0.52600 0.02000
vt 0.80600 0.02000
vt 0.80600 0.96000
vt 0.52600 0.96000
vt 0.52600 0.02000
vt 0.80600 0.02000
vt 0.80600 0.96000
vt 0.52600 0.96000
vt 0.52600 0.02000
vt 0.80600 0.02000
vt 0.80600 0.96000
vt 0.52600 0.96000
vt 0.52600 0.02000
vt 0.80600 0.02000
vt 0.80600 0.20000
vt 0.52600 0.20000
vt 0.52600 0.80000
vt 0.80600 0.80000
vt 0.66600 0.99000
vt 0.52600 0.80000
vt 0.80600 0.80000
vt 0.66600 0.99000
vt 0.52600 0.80000
vt 0.80600 0.80000
vt 0.66600 0.99000
vt 0.52600 0.80000
vt 0.80600 0.80000
vt 0.66600 0.99000
vt 0.43759 0.02000
vt 0.71759 0.02000
vt 0.71759 0.96000
vt 0.43759 0.96000
vt 0.43759 0.02000
vt 0.71759 0.02000
vt 0.71759 0.96000
vt 0.43759 0.96000
vt 0.43759 0.02000
vt 0.71759 0.02000
vt 0.71759 0.96000
vt 0.43759 0.96000
vt 0.43759 0.02000
vt 0.71759 0.02000
vt 0.71759 0.96000
vt 0.43759 0.96000
vt 0.43759 0.02000
vt 0.71759 0.02000
vt 0.71759 0.20000
vt 0.43759 0.20000
vt 0.43759 0.80000
vt 0.71759 0.80000
vt 0.57759 0.99000
vt 0.43759 0.80000
vt 0.71759 0.80000
vt 0.57759 0.99000
vt 0.43759 0.80000
vt 0.71759 0.80000
vt 0.57759 0.99000
vt 0.43759 0.80000
vt 0.71759 0.80000
vt 0.57759 0.99000
vt 0.65879 0.02000
vt 0.93879 0.02000
vt 0.93879 0.96000
vt 0.65879 0.96000
vt 0.65879 0.02000
vt 0.93879 0.02000
vt 0.93879 0.96000
vt 0.65879 0.96000
vt 0.65879 0.02000
vt 0.93879 0.02000
vt 0.93879 0.96000
vt 0.65879 0.96000
vt 0.65879 0.02000
vt 0.93879 0.02000
vt 0.93879 0.96000
vt 0.65879 0.96000
vt 0.65879 0.02000
vt 0.93879 0.02000
vt 0.93879 0.20000
vt 0.65879 0.20000
vt 0.65879 0.80000
vt 0.93879 0.80000
vt 0.79879 0.99000
vt 0.65879 0.80000
vt 0.93879 0.80000
vt 0.79879 0.99000
vt 0.65879 0.80000
vt 0.93879 0.80000
vt 0.79879 0.99000
vt 0.65879 0.80000
vt 0.93879 0.80000
vt 0.79879 0.99000
vt 0.56631 0.02000
vt 0.84631 0.02000
vt 0.84631 0.96000
vt 0.56631 0.96000
vt 0.56631 0.02000
vt 0.84631 0.02000
vt 0.84631 0.96000
vt 0.56631 0.96000
vt 0.56631 0.02000
vt 0.84631 0.02000
vt 0.84631 0.96000
vt 0.56631 0.96000
vt 0.56631 0.02000
vt 0.84631 0.02000
vt 0.84631 0.96000
vt 0.56631 0.96000
vt 0.56631 0.02000
vt 0.84631 0.02000
vt 0.84631 0.20000
vt 0.56631 0.20000
vt 0.56631 0.80000
vt 0.84631 0.80000
vt 0.70631 0.99000
vt 0.56631 0.80000
vt 0.84631 0.80000
vt 0.70631 0.99000
vt 0.56631 0.80000
vt 0.84631 0.80000
vt 0.70631 0.99000
vt 0.56631 0.80000
vt 0.84631 0.80000
vt 0.70631 0.99000
vt 0.56871 0.02000
vt 0.84871 0.02000
vt 0.84871 0.96000
vt 0.56871 0.96000
vt 0.56871 0.02000
vt 0.84871 0.02000
vt 0.84871 0.96000
vt 0.56871 0.96000
vt 0.56871 0.02000
vt 0.84871 0.02000
vt 0.84871 0.96000
vt 0.56871 0.96000
vt 0.56871 0.02000
vt 0.84871 0.02000
vt 0.84871 0.96000
vt 0.56871 0.96000
vt 0.56871 0.02000
vt 0.84871 0.02000
vt 0.84871 0.20000
vt 0.56871 0.20000
vt 0.56871 0.80000
vt 0.84871 0.80000
vt 0.70871 0.99000
vt 0.56871 0.80000
vt 0.84871 0.80000
vt 0.70871 0.99000
vt 0.56871 0.80000
vt 0.84871 0.80000
vt 0.70871 0.99000
vt 0.56871 0.80000
vt 0.84871 0.80000
vt 0.70871 0.99000
vt 0.01549 0.02000
vt 0.29549 0.02000
vt 0.29549 0.96000
vt 0.01549 0.96000
vt 0.01549 0.02000
vt 0.29549 0.02000
vt 0.29549 0.96000
vt 0.01549 0.96000
vt 0.01549 0.02000
vt 0.29549 0.02000
vt 0.29549 0.96000
vt 0.01549 0.96000
vt 0.01549 0.02000
vt 0.29549 0.02000
vt 0.29549 0.96000
vt 0.01549 0.96000
vt 0.01549 0.02000
vt 0.29549 0.02000
vt 0.29549 0.20000
vt 0.01549 0.20000
vt 0.01549 0.80000
vt 0.29549 0.80000
vt 0.15549 0.99000
vt 0.01549 0.80000
vt 0.29549 0.80000
vt 0.15549 0.99000
vt 0.01549 0.80000
vt 0.29549 0.80000
vt 0.15549 0.99000
vt 0.01549 0.80000
vt 0.29549 0.80000
vt 0.15549 0.99000
vt 0.34095 0.02000
vt 0.62095 0.02000
vt 0.62095 0.96000
vt 0.34095 0.96000
vt 0.34095 0.02000
vt 0.62095 0.02000
vt 0.62095 0.96000
vt 0.34095 0.96000
vt 0.34095 0.02000
vt 0.62095 0.02000
vt 0.62095 0.96000
vt 0.34095 0.96000
vt 0.34095 0.02000
vt 0.62095 0.02000
vt 0.62095 0.96000
vt 0.34095 0.96000
vt 0.34095 0.02000
vt 0.62095 0.02000
vt 0.62095 0.20000
vt 0.34095 0.20000
vt 0.34095 0.80000
vt 0.62095 0.80000
vt 0.48095 0.99000
vt 0.34095 0.80000
vt 0.62095 0.80000
vt 0.48095 0.99000
vt 0.34095 0.80000
vt 0.62095 0.80000
vt 0.48095 0.99000
vt 0.34095 0.80000
vt 0.62095 0.80000
vt 0.48095 0.99000
vt 0.65162 0.02000
vt 0.93162 0.02000
vt 0.93162 0.96000
vt 0.65162 0.96000
vt 0.65162 0.02000
vt 0.93162 0.02000
vt 0.93162 0.96000
vt 0.65162 0.96000
vt 0.65162 0.02000
vt 0.93162 0.02000
vt 0.93162 0.96000
vt 0.65162 0.96000
vt 0.65162 0.02000
vt 0.93162 0.02000
vt 0.93162 0.96000
vt 0.65162 0.96000
vt 0.65162 0.02000
vt 0.93162 0.02000
vt 0.93162 0.20000
vt 0.65162 0.20000
vt 0.65162 0.80000
vt 0.93162 0.80000
vt 0.79162 0.99000
vt 0.65162 0.80000
vt 0.93162 0.80000
vt 0.79162 0.99000
vt 0.65162 0.80000
vt 0.93162 0.80000
vt 0.79162 0.99000
vt 0.65162 0.80000
vt 0.93162 0.80000
vt 0.79162 0.99000
vt 0.56338 0.02000
vt 0.84338 0.02000
vt 0.84338 0.96000
vt 0.56338 0.96000
vt 0.56338 0.02000
vt 0.84338 0.02000
vt 0.84338 0.96000
vt 0.56338 0.96000
vt 0.56338 0.02000
vt 0.84338 0.02000
vt 0.84338 0.96000
vt 0.56338 0.96000
vt 0.56338 0.02000
vt 0.84338 0.02000
vt 0.84338 0.96000
vt 0.56338 0.96000
vt 0.56338 0.02000
vt 0.84338 0.02000
vt 0.84338 0.20000
vt 0.56338 0.20000
vt 0.56338 0.80000
vt 0.84338 0.80000
vt 0.70338 0.99000
vt 0.56338 0.80000
vt 0.84338 0.80000
vt 0.70338 0.99000
vt 0.56338 0.80000
vt 0.84338 0.80000
vt 0.70338 0.99000
vt 0.56338 0.80000
vt 0.84338 0.80000
vt 0.70338 0.99000
vt 0.12284 0.02000
vt 0.40284 0.02000
vt 0.40284 0.96000
vt 0.12284 0.96000
vt 0.12284 0.02000
vt 0.40284 0.02000
vt 0.40284 0.96000
vt 0.12284 0.96000
vt 0.12284 0.02000
vt 0.40284 0.02000
vt 0.40284 0.96000
vt 0.12284 0.96000
vt 0.12284 0.02000
vt 0.40284 0.02000
vt 0.40284 0.96000
vt 0.12284 0.96000
vt 0.12284 0.02000
vt 0.40284 0.02000
vt 0.40284 0.20000
vt 0.12284 0.20000
vt 0.12284 0.80000
vt 0.40284 0.80000
vt 0.26284 0.99000
vt 0.12284 0.80000
vt 0.40284 0.80000
vt 0.26284 0.99000
vt 0.12284 0.80000
vt 0.40284 0.80000
vt 0.26284 0.99000
vt 0.12284 0.80000
vt 0.40284 0.80000
vt 0.26284 0.99000
vt 0.38732 0.02000
vt 0.66732 0.02000
vt 0.66732 0.96000
vt 0.38732 0.96000
vt 0.38732 0.02000
vt 0.66732 0.02000
vt 0.66732 0.96000
vt 0.38732 0.96000
vt 0.38732 0.02000
vt 0.66732 0.02000
vt 0.66732 0.96000
vt 0.38732 0.96000
vt 0.38732 0.02000
vt 0.66732 0.02000
vt 0.66732 0.96000
vt 0.38732 0.96000
vt 0.38732 0.02000
vt 0.66732 0.02000
vt 0.66732 0.20000
vt 0.38732 0.20000
vt 0.38732 0.80000
vt 0.66732 0.80000
vt 0.52732 0.99000
vt 0.38732 0.80000
vt 0.66732 0.80000
vt 0.52732 0.99000
vt 0.38732 0.80000
vt 0.66732 0.80000
vt 0.52732 0.99000
vt 0.38732 0.80000
vt 0.66732 0.80000
vt 0.52732 0.99000
vt 0.66625 0.02000
vt 0.94625 0.02000
vt 0.94625 0.96000
vt 0.66625 0.96000
vt 0.66625 0.02000
vt 0.94625 0.02000
vt 0.94625 0.96000
vt 0.66625 0.96000
vt 0.66625 0.02000
vt 0.94625 0.02000
vt 0.94625 0.96000
vt 0.66625 0.96000
vt 0.66625 0.02000
vt 0.94625 0.02000
vt 0.94625 0.96000
vt 0.66625 0.96000
vt 0.66625 0.02000
vt 0.94625 0.02000
vt 0.94625 0.20000
vt 0.66625 0.20000
vt 0.66625 0.80000
vt 0.94625 0.80000
vt 0.80625 0.99000
vt 0.66625 0.80000
vt 0.94625 0.80000
vt 0.80625 0.99000
vt 0.66625 0.80000
vt 0.94625 0.80000
vt 0.80625 0.99000
vt 0.66625 0.80000
vt 0.94625 0.80000
vt 0.80625 0.99000
vt 0.40611 0.02000
vt 0.68611 0.02000
vt 0.68611 0.96000
vt 0.40611 0.96000
vt 0.40611 0.02000
vt 0.68611 0.02000
vt 0.68611 0.96000
vt 0.40611 0.96000
vt 0.40611 0.02000
vt 0.68611 0.02000
vt 0.68611 0.96000
vt 0.40611 0.96000
vt 0.40611 0.02000
vt 0.68611 0.02000
vt 0.68611 0.96000
vt 0.40611 0.96000
vt 0.40611 0.02000
vt 0.68611 0.02000
vt 0.68611 0.20000
vt 0.40611 0.20000
vt 0.40611 0.80000
vt 0.68611 0.80000
vt 0.54611 0.99000
vt 0.40611 0.80000
vt 0.68611 0.80000
vt 0.54611 0.99000
vt 0.40611 0.80000
vt 0.68611 0.80000
vt 0.54611 0.99000
vt 0.40611 0.80000
vt 0.68611 0.80000
vt 0.54611 0.99000
vt 0.36274 0.02000
vt 0.64274 0.02000
vt 0.64274 0.96000
vt 0.36274 0.96000
vt 0.36274 0.02000
vt 0.64274 0.02000
vt 0.64274 0.96000
vt 0.36274 0.96000
vt 0.36274 0.02000
vt 0.64274 0.02000
vt 0.64274 0.96000
vt 0.36274 0.96000
vt 0.36274 0.02000
vt 0.64274 0.02000
vt 0.64274 0.96000
vt 0.36274 0.96000
vt 0.36274 0.02000
vt 0.64274 0.02000
vt 0.64274 0.20000
vt 0.36274 0.20000
vt 0.36274 0.80000
vt 0.64274 0.80000
vt 0.50274 0.99000
vt 0.36274 0.80000
vt 0.64274 0.80000
vt 0.50274 0.99000
vt 0.36274 0.80000
vt 0.64274 0.80000
vt 0.50274 0.99000
vt 0.36274 0.80000
vt 0.64274 0.80000
vt 0.50274 0.99000
vt 0.42819 0.02000
vt 0.70819 0.02000
vt 0.70819 0.96000
vt 0.42819 0.96000
vt 0.42819 0.02000
vt 0.70819 0.02000
vt 0.70819 0.96000
vt 0.42819 0.96000
vt 0.42819 0.02000
vt 0.70819 0.02000
vt 0.70819 0.96000
vt 0.42819 0.96000
vt 0.42819 0.02000
vt 0.70819 0.02000
vt 0.70819 0.96000
vt 0.42819 0.96000
vt 0.42819 0.02000
vt 0.70819 0.02000
vt 0.70819 0.20000
vt 0.42819 0.20000
vt 0.42819 0.80000
vt 0.70819 0.80000
vt 0.56819 0.99000
vt 0.42819 0.80000
vt 0.70819 0.80000
vt 0.56819 0.99000
vt 0.42819 0.80000
vt 0.70819 0.80000
vt 0.56819 0.99000
vt 0.42819 0.80000
vt 0.70819 0.80000
vt 0.56819 0.99000
vt 0.30782 0.02000
vt 0.58782 0.02000
vt 0.58782 0.96000
vt 0.30782 0.96000
vt 0.30782 0.02000
vt 0.58782 0.02000
vt 0.58782 0.96000
vt 0.30782 0.96000
vt 0.30782 0.02000
vt 0.58782 0.02000
vt 0.58782 0.96000
vt 0.30782 0.96000
vt 0.30782 0.02000
vt 0.58782 0.02000
vt 0.58782 0.96000
vt 0.30782 0.96000
vt 0.30782 0.02000
vt 0.58782 0.02000
vt 0.58782 0.20000
vt 0.30782 0.20000
vt 0.30782 0.80000
vt 0.58782 0.80000
vt 0.44782 0.99000
vt 0.30782 0.80000
vt 0.58782 0.80000
vt 0.44782 0.99000
vt 0.30782 0.80000
vt 0.58782 0.80000
vt 0.44782 0.99000
vt 0.30782 0.80000
vt 0.58782 0.80000
vt 0.44782 0.99000
vt 0.33321 0.02000
vt 0.61321 0.02000
vt 0.61321 0.96000
vt 0.33321 0.96000
vt 0.33321 0.02000
vt 0.61321 0.02000
vt 0.61321 0.96000
vt 0.33321 0.96000
vt 0.33321 0.02000
vt 0.61321 0.02000
vt 0.61321 0.96000
vt 0.33321 0.96000
vt 0.33321 0.02000
vt 0.61321 0.02000
vt 0.61321 0.96000
vt 0.33321 0.96000
vt 0.33321 0.02000
vt 0.61321 0.02000
vt 0.61321 0.20000
vt 0.33321 0.20000
vt 0.33321 0.80000
vt 0.61321 0.80000
vt 0.47321 0.99000
vt 0.33321 0.80000
vt 0.61321 0.80000
vt 0.47321 0.99000
vt 0.33321 0.80000
vt 0.61321 0.80000
vt 0.47321 0.99000
vt 0.33321 0.80000
vt 0.61321 0.80000
vt 0.47321 0.99000
vt 0.12969 0.02000
vt 0.40969 0.02000
vt 0.40969 0.96000
vt 0.12969 0.96000
vt 0.12969 0.02000
vt 0.40969 0.02000
vt 0.40969 0.96000
vt 0.12969 0.96000
vt 0.12969 0.02000
vt 0.40969 0.02000
vt 0.40969 0.96000
vt 0.12969 0.96000
vt 0.12969 0.02000
vt 0.40969 0.02000
vt 0.40969 0.96000
vt 0.12969 0.96000
vt 0.12969 0.02000
vt 0.40969 0.02000
vt 0.40969 0.20000
vt 0.12969 0.20000
vt 0.12969 0.80000
vt 0.40969 0.80000
vt 0.26969 0.99000
vt 0.12969 0.80000
vt 0.40969 0.80000
vt 0.26969 0.99000
vt 0.12969 0.80000
vt 0.40969 0.80000
vt 0.26969 0.99000
vt 0.12969 0.80000
vt 0.40969 0.80000
vt 0.26969 0.99000
vt 0.53463 0.02000
vt 0.81463 0.02000
vt 0.81463 0.96000
vt 0.53463 0.96000
vt 0.53463 0.02000
vt 0.81463 0.02000
vt 0.81463 0.96000
vt 0.53463 0.96000
vt 0.53463 0.02000
vt 0.81463 0.02000
vt 0.81463 0.96000
vt 0.53463 0.96000
vt 0.53463 0.02000
vt 0.81463 0.02000
vt 0.81463 0.96000
vt 0.53463 0.96000
vt 0.53463 0.02000
vt 0.81463 0.02000
vt 0.81463 0.20000
vt 0.53463 0.20000
vt 0.53463 0.80000
vt 0.81463 0.80000
vt 0.67463 0.99000
vt 0.53463 0.80000
vt 0.81463 0.80000
vt 0.67463 0.99000
vt 0.53463 0.80000
vt 0.81463 0.80000
vt 0.67463 0.99000
vt 0.53463 0.80000
vt 0.81463 0.80000
vt 0.67463 0.99000
vt 0.61976 0.02000
vt 0.89976 0.02000
vt 0.89976 0.96000
vt 0.61976 0.96000
vt 0.61976 0.02000
vt 0.89976 0.02000
vt 0.89976 0.96000
vt 0.61976 0.96000
vt 0.61976 0.02000
vt 0.89976 0.02000
vt 0.89976 0.96000
vt 0.61976 0.96000
vt 0.61976 0.02000
vt 0.89976 0.02000
vt 0.89976 0.96000
vt 0.61976 0.96000
vt 0.61976 0.02000
vt 0.89976 0.02000
vt 0.89976 0.20000
vt 0.61976 0.20000
vt 0.61976 0.80000
vt 0.89976 0.80000
vt 0.75976 0.99000
vt 0.61976 0.80000
vt 0.89976 0.80000
vt 0.75976 0.99000
vt 0.61976 0.80000
vt 0.89976 0.80000
vt 0.75976 0.99000
vt 0.61976 0.80000
vt 0.89976 0.80000
vt 0.75976 0.99000
vt 0.22926 0.02000
vt 0.50926 0.02000
vt 0.50926 0.96000
vt 0.22926 0.96000
vt 0.22926 0.02000
vt 0.50926 0.02000
vt 0.50926 0.96000
vt 0.22926 0.96000
vt 0.22926 0.02000
vt 0.50926 0.02000
vt 0.50926 0.96000
vt 0.22926 0.96000
vt 0.22926 0.02000
vt 0.50926 0.02000
vt 0.50926 0.96000
vt 0.22926 0.96000
vt 0.22926 0.02000
vt 0.50926 0.02000
vt 0.50926 0.20000
vt 0.22926 0.20000
vt 0.22926 0.80000
vt 0.50926 0.80000
vt 0.36926 0.99000
vt 0.22926 0.80000
vt 0.50926 0.80000
vt 0.36926 0.99000
vt 0.22926 0.80000
vt 0.50926 0.80000
vt 0.36926 0.99000
vt 0.22926 0.80000
vt 0.50926 0.80000
vt 0.36926 0.99000
vt 0.39159 0.02000
vt 0.67159 0.02000
vt 0.67159 0.96000
vt 0.39159 0.96000
vt 0.39159 0.02000
vt 0.67159 0.02000
vt 0.67159 0.96000
vt 0.39159 0.96000
vt 0.39159 0.02000
vt 0.67159 0.02000
vt 0.67159 0.96000
vt 0.39159 0.96000
vt 0.39159 0.02000
vt 0.67159 0.02000
vt 0.67159 0.96000
vt 0.39159 0.96000
vt 0.39159 0.02000
vt 0.67159 0.02000
vt 0.67159 0.20000
vt 0.39159 0.20000
vt 0.39159 0.80000
vt 0.67159 0.80000
vt 0.53159 0.99000
vt 0.39159 0.80000
vt 0.67159 0.80000
vt 0.53159 0.99000
vt 0.39159 0.80000
vt 0.67159 0.80000
vt 0.53159 0.99000
vt 0.39159 0.80000
vt 0.67159 0.80000
vt 0.53159 0.99000
vt 0.47157 0.02000
vt 0.75157 0.02000
vt 0.75157 0.96000
vt 0.47157 0.96000
vt 0.47157 0.02000
vt 0.75157 0.02000
vt 0.75157 0.96000
vt 0.47157 0.96000
vt 0.47157 0.02000
vt 0.75157 0.02000
vt 0.75157 0.96000
vt 0.47157 0.96000
vt 0.47157 0.02000
vt 0.75157 0.02000
vt 0.75157 0.96000
vt 0.47157 0.96000
vt 0.47157 0.02000
vt 0.75157 0.02000
vt 0.75157 0.20000
vt 0.47157 0.20000
vt 0.47157 0.80000
vt 0.75157 0.80000
vt 0.61157 0.99000
vt 0.47157 0.80000
vt 0.75157 0.80000
vt 0.61157 0.99000
vt 0.47157 0.80000
vt 0.75157 0.80000
vt 0.61157 0.99000
vt 0.47157 0.80000
vt 0.75157 0.80000
vt 0.61157 0.99000
vt 0.36873 0.02000
vt 0.64873 0.02000
vt 0.64873 0.96000
vt 0.36873 0.96000
vt 0.36873 0.02000
vt 0.64873 0.02000
vt 0.64873 0.96000
vt 0.36873 0.96000
vt 0.36873 0.02000
vt 0.64873 0.02000
vt 0.64873 0.96000
vt 0.36873 0.96000
vt 0.36873 0.02000
vt 0.64873 0.02000
vt 0.64873 0.96000
vt 0.36873 0.96000
vt 0.36873 0.02000
vt 0.64873 0.02000
vt 0.64873 0.20000
vt 0.36873 0.20000
vt 0.36873 0.80000
vt 0.64873 0.80000
vt 0.50873 0.99000
vt 0.36873 0.80000
vt 0.64873 0.80000
vt 0.50873 0.99000
vt 0.36873 0.80000
vt 0.64873 0.80000
vt 0.50873 0.99000
vt 0.36873 0.80000
vt 0.64873 0.80000
vt 0.50873 0.99000
vt 0.42094 0.02000
vt 0.70094 0.02000
vt 0.70094 0.96000
vt 0.42094 0.96000
vt 0.42094 0.02000
vt 0.70094 0.02000
vt 0.70094 0.96000
vt 0.42094 0.96000
vt 0.42094 0.02000
vt 0.70094 0.02000
vt 0.70094 0.96000
vt 0.42094 0.96000
vt 0.42094 0.02000
vt 0.70094 0.02000
vt 0.70094 0.96000
vt 0.42094 0.96000
vt 0.42094 0.02000
vt 0.70094 0.02000
vt 0.70094 0.20000
vt 0.42094 0.20000
vt 0.42094 0.80000
vt 0.70094 0.80000
vt 0.56094 0.99000
vt 0.42094 0.80000
vt 0.70094 0.80000
vt 0.56094 0.99000
vt 0.42094 0.80000
vt 0.70094 0.80000
vt 0.56094 0.99000
vt 0.42094 0.80000
vt 0.70094 0.80000
vt 0.56094 0.99000
vt 0.29438 0.02000
vt 0.57438 0.02000
vt 0.57438 0.96000
vt 0.29438 0.96000
vt 0.29438 0.02000
vt 0.57438 0.02000
vt 0.57438 0.96000
vt 0.29438 0.96000
vt 0.29438 0.02000
vt 0.57438 0.02000
vt 0.57438 0.96000
vt 0.29438 0.96000
vt 0.29438 0.02000
vt 0.57438 0.02000
vt 0.57438 0.96000
vt 0.29438 0.96000
vt 0.29438 0.02000
vt 0.57438 0.02000
vt 0.57438 0.20000
vt 0.29438 0.20000
vt 0.29438 0.80000
vt 0.57438 0.80000
vt 0.43438 0.99000
vt 0.29438 0.80000
vt 0.57438 0.80000
vt 0.43438 0.99000
vt 0.29438 0.80000
vt 0.57438 0.80000
vt 0.43438 0.99000
vt 0.29438 0.80000
vt 0.57438 0.80000
vt 0.43438 0.99000
vt 0.18332 0.02000
vt 0.46332 0.02000
vt 0.46332 0.96000
vt 0.18332 0.96000
vt 0.18332 0.02000
vt 0.46332 0.02000
vt 0.46332 0.96000
vt 0.18332 0.96000
vt 0.18332 0.02000
vt 0.46332 0.02000
vt 0.46332 0.96000
vt 0.18332 0.96000
vt 0.18332 0.02000
vt 0.46332 0.02000
vt 0.46332 0.96000
vt 0.18332 0.96000
vt 0.18332 0.02000
vt 0.46332 0.02000
vt 0.46332 0.20000
vt 0.18332 0.20000
vt 0.18332 0.80000
vt 0.46332 0.80000
vt 0.32332 0.99000
vt 0.18332 0.80000
vt 0.46332 0.80000
vt 0.32332 0.99000
vt 0.18332 0.80000
vt 0.46332 0.80000
vt 0.32332 0.99000
vt 0.18332 0.80000
vt 0.46332 0.80000
vt 0.32332 0.99000
vt 0.52496 0.02000
vt 0.80496 0.02000
vt 0.80496 0.96000
vt 0.52496 0.96000
vt 0.52496 0.02000
vt 0.80496 0.02000
vt 0.80496 0.96000
vt 0.52496 0.96000
vt 0.52496 0.02000
vt 0.80496 0.02000
vt 0.80496 0.96000
vt 0.52496 0.96000
vt 0.52496 0.02000
vt 0.80496 0.02000
vt 0.80496 0.96000
vt 0.52496 0.96000
vt 0.52496 0.02000
vt 0.80496 0.02000
vt 0.80496 0.20000
vt 0.52496 0.20000
vt 0.52496 0.80000
vt 0.80496 0.80000
vt 0.66496 0.99000
vt 0.52496 0.80000
vt 0.80496 0.80000
vt 0.66496 0.99000
vt 0.52496 0.80000
vt 0.80496 0.80000
vt 0.66496 0.99000
vt 0.52496 0.80000
vt 0.80496 0.80000
vt 0.66496 0.99000
vt 0.48205 0.02000
vt 0.76205 0.02000
vt 0.76205 0.96000
vt 0.48205 0.96000
vt 0.48205 0.02000
vt 0.76205 0.02000
vt 0.76205 0.96000
vt 0.48205 0.96000
vt 0.48205 0.02000
vt 0.76205 0.02000
vt 0.76205 0.96000
vt 0.48205 0.96000
vt 0.48205 0.02000
vt 0.76205 0.02000
vt 0.76205 0.96000
vt 0.48205 0.96000
vt 0.48205 0.02000
vt 0.76205 0.02000
vt 0.76205 0.20000
vt 0.48205 0.20000
vt 0.48205 0.80000
vt 0.76205 0.80000
vt 0.62205 0.99000
vt 0.48205 0.80000
vt 0.76205 0.80000
vt 0.62205 0.99000
vt 0.48205 0.80000
vt 0.76205 0.80000
vt 0.62205 0.99000
vt 0.48205 0.80000
vt 0.76205 0.80000
vt 0.62205 0.99000
vt 0.63272 0.02000
vt 0.91272 0.02000
vt 0.91272 0.96000
vt 0.63272 0.96000
vt 0.63272 0.02000
vt 0.91272 0.02000
vt 0.91272 0.96000
vt 0.63272 0.96000
vt 0.63272 0.02000
vt 0.91272 0.02000
vt 0.91272 0.96000
vt 0.63272 0.96000
vt 0.63272 0.02000
vt 0.91272 0.02000
vt 0.91272 0.96000
vt 0.63272 0.96000
vt 0.63272 0.02000
vt 0.91272 0.02000
vt 0.91272 0.20000
vt 0.63272 0.20000
vt 0.63272 0.80000
vt 0.91272 0.80000
vt 0.77272 0.99000
vt 0.63272 0.80000
vt 0.91272 0.80000
vt 0.77272 0.99000
vt 0.63272 0.80000
vt 0.91272 0.80000
vt 0.77272 0.99000
vt 0.63272 0.80000
vt 0.91272 0.80000
vt 0.77272 0.99000
vt 0.31208 0.02000
vt 0.59208 0.02000
vt 0.59208 0.96000
vt 0.31208 0.96000
vt 0.31208 0.02000
vt 0.59208 0.02000
vt 0.59208 0.96000
vt 0.31208 0.96000
vt 0.31208 0.02000
vt 0.59208 0.02000
vt 0.59208 0.96000
vt 0.31208 0.96000
vt 0.31208 0.02000
vt 0.59208 0.02000
vt 0.59208 0.96000
vt 0.31208 0.96000
vt 0.31208 0.02000
vt 0.59208 0.02000
vt 0.59208 0.20000
vt 0.31208 0.20000
vt 0.31208 0.80000
vt 0.59208 0.80000
vt 0.45208 0.99000
vt 0.31208 0.80000
vt 0.59208 0.80000
vt 0.45208 0.99000
vt 0.31208 0.80000
vt 0.59208 0.80000
vt 0.45208 0.99000
vt 0.31208 0.80000
vt 0.59208 0.80000
vt 0.45208 0.99000
vt 0.05000 0.40000
vt 0.95000 0.40000
vt 0.95000 0.56000
vt 0.05000 0.56000
vt 0.05000 0.40000
vt 0.95000 0.40000
vt 0.95000 0.56000
vt 0.05000 0.56000
vt 0.05000 0.40000
vt 0.95000 0.40000
vt 0.95000 0.56000
vt 0.05000 0.56000
vt 0.05000 0.40000
vt 0.95000 0.40000
vt 0.95000 0.56000
vt 0.05000 0.56000
vt 0.05000 0.40000
vt 0.95000 0.40000
vt 0.95000 0.56000
vt 0.05000 0.56000
vt 0.05000 0.40000
vt 0.95000 0.40000
vt 0.95000 0.56000
vt 0.05000 0.56000
f 4/4 3/3 2/2
f 4/4 2/2 1/1
f 8/8 7/7 6/6
f 8/8 6/6 5/5
f 12/12 11/11 10/10
f 12/12 10/10 9/9
f 16/16 15/15 14/14
f 16/16 14/14 13/13
f 20/20 19/19 18/18
f 20/20 18/18 17/17
f 23/23 22/22 21/21
f 26/26 25/25 24/24
f 29/29 28/28 27/27
f 32/32 31/31 30/30
f 36/36 35/35 34/34
f 36/36 34/34 33/33
f 40/40 39/39 38/38
f 40/40 38/38 37/37
f 44/44 43/43 42/42
f 44/44 42/42 41/41
f 48/48 47/47 46/46
f 48/48 46/46 45/45
f 52/52 51/51 50/50
f 52/52 50/50 49/49
f 55/55 54/54 53/53
f 58/58 57/57 56/56
f 61/61 60/60 59/59
f 64/64 63/63 62/62
f 68/68 67/67 66/66
f 68/68 66/66 65/65
f 72/72 71/71 70/70
f 72/72 70/70 69/69
f 76/76 75/75 74/74
f 76/76 74/74 73/73
f 80/80 79/79 78/78
f 80/80 78/78 77/77
f 84/84 83/83 82/82
f 84/84 82/82 81/81
f 87/87 86/86 85/85
f 90/90 89/89 88/88
f 93/93 92/92 91/91
f 96/96 95/95 94/94
f 100/100 99/99 98/98
f 100/100 98/98 97/97
f 104/104 103/103 102/102
f 104/104 102/102 101/101
f 108/108 107/107 106/106
f 108/108 106/106 105/105
f 112/112 111/111 110/110
f 112/112 110/110 109/109
f 116/116 115/115 114/114
f 116/116 114/114 113/113
f 119/119 118/118 117/117
f 122/122 121/121 120/120
f 125/125 124/124 123/123
f 128/128 127/127 126/126
f 132/132 131/131 130/130
f 132/132 130/130 129/129
f 136/136 135/135 134/134
f 136/136 134/134 133/133
f 140/140 139/139 138/138
f 140/140 138/138 137/137
f 144/144 143/143 142/142
f 144/144 142/142 141/141
f 148/148 147/147 146/146
f 148/148 146/146 145/145
f 151/151 150/150 149/149
f 154/154 153/153 152/152
f 157/157 156/156 155/155
f 160/160 159/159 158/158
f 164/164 163/163 162/162
f 164/164 162/162 161/161
f 168/168 167/167 166/166
f 168/168 166/166 165/165
f 172/172 171/171 170/170
f 172/172 170/170 169/169
f 176/176 175/175 174/174
f 176/176 174/174 173/173
f 180/180 179/179 178/178
f 180/180 178/178 177/177
f 183/183 182/182 181/181
f 186/186 185/185 184/184
f 189/189 188/188 187/187
f 192/192 191/191 190/190
f 196/196 195/195 194/194
f 196/196 194/194 193/193
f 200/200 199/199 198/198
f 200/200 198/198 197/197
f 204/204 203/203 202/202
f 204/204 202/202 201/201
f 208/208 207/207 206/206
f 208/208 206/206 205/205
f 212/212 211/211 210/210
f 212/212 210/210 209/209
f 215/215 214/214 213/213
f 218/218 217/217 216/216
f 221/221 220/220 219/219
f 224/224 223/223 222/222
f 228/228 227/227 226/226
f 228/228 226/226 225/225
f 232/232 231/231 230/230
f 232/232 230/230 229/229
f 236/236 235/235 234/234
f 236/236 234/234 233/233
f 240/240 239/239 238/238
f 240/240 238/238 237/237
f 244/244 243/243 242/242
f 244/244 242/242 241/241
f 247/247 246/246 245/245
f 250/250 249/249 248/248
f 253/253 252/252 251/251
f 256/256 255/255 254/254
f 260/260 259/259 258/258
f 260/260 258/258 257/257
f 264/264 263/263 262/262
f 264/264 262/262 261/261
f 268/268 267/267 266/266
f 268/268 266/266 265/265
f 272/272 271/271 270/270
f 272/272 270/270 269/269
f 276/276 275/275 274/274
f 276/276 274/274 273/273
f 279/279 278/278 277/277
f 282/282 281/281 280/280
f 285/285 284/284 283/283
f 288/288 287/287 286/286
f 292/292 291/291 290/290
f 292/292 290/290 289/289
f 296/296 295/295 294/294
f 296/296 294/294 293/293
f 300/300 299/299 298/298
f 300/300 298/298 297/297
f 304/304 303/303 302/302
f 304/304 302/302 301/301
f 308/308 307/307 306/306
f 308/308 306/306 305/305
f 311/311 310/310 309/309
f 314/314 313/313 312/312
f 317/317 316/316 315/315
f 320/320 319/319 318/318
f 324/324 323/323 322/322
f 324/324 322/322 321/321
f 328/328 327/327 326/326
f 328/328 326/326 325/325
f 332/332 331/331 330/330
f 332/332 330/330 329/329
f 336/336 335/335 334/334
f 336/336 334/334 333/333
f 340/340 339/339 338/338
f 340/340 338/338 337/337
f 343/343 342/342 341/341
f 346/346 345/345 344/344
f 349/349 348/348 347/347
f 352/352 351/351 350/350
f 356/356 355/355 354/354
f 356/356 354/354 353/353
f 360/360 359/359 358/358
f 360/360 358/358 357/357
f 364/364 363/363 362/362
f 364/364 362/362 361/361
f 368/368 367/367 366/366
f 368/368 366/366 365/365
f 372/372 371/371 370/370
f 372/372 370/370 369/369
f 375/375 374/374 373/373
f 378/378 377/377 376/376
f 381/381 380/380 379/379
f 384/384 383/383 382/382
f 388/388 387/387 386/386
f 388/388 386/386 385/385
f 392/392 391/391 390/390
f 392/392 390/390 389/389
f 396/396 395/395 394/394
f 396/396 394/394 393/393
f 400/400 399/399 398/398
f 400/400 398/398 397/397
f 404/404 403/403 402/402
f 404/404 402/402 401/401
f 407/407 406/406 405/405
f 410/410 409/409 408/408
f 413/413 412/412 411/411
f 416/416 415/415 414/414
f 420/420 419/419 418/418
f 420/420 418/418 417/417
f 424/424 423/423 422/422
f 424/424 422/422 421/421
f 428/428 427/427 426/426
f 428/428 426/426 425/425
f 432/432 431/431 430/430
f 432/432 430/430 429/429
f 436/436 435/435 434/434
f 436/436 434/434 433/433
f 439/439 438/438 437/437
f 442/442 441/441 440/440
f 445/445 444/444 443/443
f 448/448 447/447 446/446
f 452/452 451/451 450/450
f 452/452 450/450 449/449
f 456/456 455/455 454/454
f 456/456 454/454 453/453
f 460/460 459/459 458/458
f 460/460 458/458 457/457
f 464/464 463/463 462/462
f 464/464 462/462 461/461
f 468/468 467/467 466/466
f 468/468 466/466 465/465
f 471/471 470/470 469/469
f 474/474 473/473 472/472
f 477/477 476/476 475/475
f 480/480 479/479 478/478
f 484/484 483/483 482/482
f 484/484 482/482 481/481
f 488/488 487/487 486/486
f 488/488 486/486 485/485
f 492/492 491/491 490/490
f 492/492 490/490 489/489
f 496/496 495/495 494/494
f 496/496 494/494 493/493
f 500/500 499/499 498/498
f 500/500 498/498 497/497
f 503/503 502/502 501/501
f 506/506 505/505 504/504
f 509/509 508/508 507/507
f 512/512 511/511 510/510
f 516/516 515/515 514/514
f 516/516 514/514 513/513
f 520/520 519/519 518/518
f 520/520 518/518 517/517
f 524/524 523/523 522/522
f 524/524 522/522 521/521
f 528/528 527/527 526/526
f 528/528 526/526 525/525
f 532/532 531/531 530/530
f 532/532 530/530 529/529
f 535/535 534/534 533/533
f 538/538 537/537 536/536
f 541/541 540/540 539/539
f 544/544 543/543 542/542
f 548/548 547/547 546/546
f 548/548 546/546 545/545
f 552/552 551/551 550/550
f 552/552 550/550 549/549
f 556/556 555/555 554/554
f 556/556 554/554 553/553
f 560/560 559/559 558/558
f 560/560 558/558 557/557
f 564/564 563/563 562/562
f 564/564 562/562 561/561
f 567/567 566/566 565/565
f 570/570 569/569 568/568
f 573/573 572/572 571/571
f 576/576 575/575 574/574
f 580/580 579/579 578/578
f 580/580 578/578 577/577
f 584/584 583/583 582/582
f 584/584 582/582 581/581
f 588/588 587/587 586/586
f 588/588 586/586 585/585
f 592/592 591/591 590/590
f 592/592 590/590 589/589
f 596/596 595/595 594/594
f 596/596 594/594 593/593
f 599/599 598/598 597/597
f 602/602 601/601 600/600
f 605/605 604/604 603/603
f 608/608 607/607 606/606
f 612/612 611/611 610/610
f 612/612 610/610 609/609
f 616/616 615/615 614/614
f 616/616 614/614 613/613
f 620/620 619/619 618/618
f 620/620 618/618 617/617
f 624/624 623/623 622/622
f 624/624 622/622 621/621
f 628/628 627/627 626/626
f 628/628 626/626 625/625
f 631/631 630/630 629/629
f 634/634 633/633 632/632
f 637/637 636/636 635/635
f 640/640 639/639 638/638
f 644/644 643/643 642/642
f 644/644 642/642 641/641
f 648/648 647/647 646/646
f 648/648 646/646 645/645
f 652/652 651/651 650/650
f 652/652 650/650 649/649
f 656/656 655/655 654/654
f 656/656 654/654 653/653
f 660/660 659/659 658/658
f 660/660 658/658 657/657
f 663/663 662/662 661/661
f 666/666 665/665 664/664
f 669/669 668/668 667/667
f 672/672 671/671 670/670
f 676/676 675/675 674/674
f 676/676 674/674 673/673
f 680/680 679/679 678/678
f 680/680 678/678 677/677
f 684/684 683/683 682/682
f 684/684 682/682 681/681
f 688/688 687/687 686/686
f 688/688 686/686 685/685
f 692/692 691/691 690/690
f 692/692 690/690 689/689
f 695/695 694/694 693/693
f 698/698 697/697 696/696
f 701/701 700/700 699/699
f 704/704 703/703 702/702
f 708/708 707/707 706/706
f 708/708 706/706 705/705
f 712/712 711/711 710/710
f 712/712 710/710 709/709
f 716/716 715/715 714/714
f 716/716 714/714 713/713
f 720/720 719/719 718/718
f 720/720 718/718 717/717
f 724/724 723/723 722/722
f 724/724 722/722 721/721
f 727/727 726/726 725/725
f 730/730 729/729 728/728
f 733/733 732/732 731/731
f 736/736 735/735 734/734
f 740/740 739/739 738/738
f 740/740 738/738 737/737
f 744/744 743/743 742/742
f 744/744 742/742 741/741
f 748/748 747/747 746/746
f 748/748 746/746 745/745
f 752/752 751/751 750/750
f 752/752 750/750 749/749
f 756/756 755/755 754/754
f 756/756 754/754 753/753
f 759/759 758/758 757/757
f 762/762 761/761 760/760
f 765/765 764/764 763/763
f 768/768 767/767 766/766
f 772/772 771/771 770/770
f 772/772 770/770 769/769
f 776/776 775/775 774/774
f 776/776 774/774 773/773
f 780/780 779/779 778/778
f 780/780 778/778 777/777
f 784/784 783/783 782/782
f 784/784 782/782 781/781
f 788/788 787/787 786/786
f 788/788 786/786 785/785
f 791/791 790/790 789/789
f 794/794 793/793 792/792
f 797/797 796/796 795/795
f 800/800 799/799 798/798
f 804/804 803/803 802/802
f 804/804 802/802 801/801
f 808/808 807/807 806/806
f 808/808 806/806 805/805
f 812/812 811/811 810/810
f 812/812 810/810 809/809
f 816/816 815/815 814/814
f 816/816 814/814 813/813
f 820/820 819/819 818/818
f 820/820 818/818 817/817
f 823/823 822/822 821/821
f 826/826 825/825 824/824
f 829/829 828/828 827/827
f 832/832 831/831 830/830
f 836/836 835/835 834/834
f 836/836 834/834 833/833
f 840/840 839/839 838/838
f 840/840 838/838 837/837
f 844/844 843/843 842/842
f 844/844 842/842 841/841
f 848/848 847/847 846/846
f 848/848 846/846 845/845
f 852/852 851/851 850/850
f 852/852 850/850 849/849
f 855/855 854/854 853/853
f 858/858 857/857 856/856
f 861/861 860/860 859/859
f 864/864 863/863 862/862
f 868/868 867/867 866/866
f 868/868 866/866 865/865
f 872/872 871/871 870/870
f 872/872 870/870 869/869
f 876/876 875/875 874/874
f 876/876 874/874 873/873
f 880/880 879/879 878/878
f 880/880 878/878 877/877
f 884/884 883/883 882/882
f 884/884 882/882 881/881
f 887/887 886/886 885/885
f 890/890 889/889 888/888
f 893/893 892/892 891/891
f 896/896 895/895 894/894
f 900/900 899/899 898/898
f 900/900 898/898 897/897
f 904/904 903/903 902/902
f 904/904 902/902 901/901
f 908/908 907/907 906/906
f 908/908 906/906 905/905
f 912/912 911/911 910/910
f 912/912 910/910 909/909
f 916/916 915/915 914/914
f 916/916 914/914 913/913
f 919/919 918/918 917/917
f 922/922 921/921 920/920
f 925/925 924/924 923/923
f 928/928 927/927 926/926
f 932/932 931/931 930/930
f 932/932 930/930 929/929
f 936/936 935/935 934/934
f 936/936 934/934 933/933
f 940/940 939/939 938/938
f 940/940 938/938 937/937
f 944/944 943/943 942/942
f 944/944 942/942 941/941
f 948/948 947/947 946/946
f 948/948 946/946 945/945
f 951/951 950/950 949/949
f 954/954 953/953 952/952
f 957/957 956/956 955/955
f 960/960 959/959 958/958
f 964/964 963/963 962/962
f 964/964 962/962 961/961
f 968/968 967/967 966/966
f 968/968 966/966 965/965
f 972/972 971/971 970/970
f 972/972 970/970 969/969
f 976/976 975/975 974/974
f 976/976 974/974 973/973
f 980/980 979/979 978/978
f 980/980 978/978 977/977
f 983/983 982/982 981/981
f 986/986 985/985 984/984
f 989/989 988/988 987/987
f 992/992 991/991 990/990
f 996/996 995/995 994/994
f 996/996 994/994 993/993
f 1000/1000 999/999 998/998
f 1000/1000 998/998 997/997
f 1004/1004 1003/1003 1002/1002
f 1004/1004 1002/1002 1001/1001
f 1008/1008 1007/1007 1006/1006
f 1008/1008 1006/1006 1005/1005
f 1012/1012 1011/1011 1010/1010
f 1012/1012 1010/1010 1009/1009
f 1015/1015 1014/1014 1013/1013
f 1018/1018 1017/1017 1016/1016
f 1021/1021 1020/1020 1019/1019
f 1024/1024 1023/1023 1022/1022
f 1028/1028 1027/1027 1026/1026
f 1028/1028 1026/1026 1025/1025
f 1032/1032 1031/1031 1030/1030
f 1032/1032 1030/1030 1029/1029
f 1036/1036 1035/1035 1034/1034
f 1036/1036 1034/1034 1033/1033
f 1040/1040 1039/1039 1038/1038
f 1040/1040 1038/1038 1037/1037
f 1044/1044 1043/1043 1042/1042
f 1044/1044 1042/1042 1041/1041
f 1047/1047 1046/1046 1045/1045
f 1050/1050 1049/1049 1048/1048
f 1053/1053 1052/1052 1051/1051
f 1056/1056 1055/1055 1054/1054
f 1060/1060 1059/1059 1058/1058
f 1060/1060 1058/1058 1057/1057
f 1064/1064 1063/1063 1062/1062
f 1064/1064 1062/1062 1061/1061
f 1068/1068 1067/1067 1066/1066
f 1068/1068 1066/1066 1065/1065
f 1072/1072 1071/1071 1070/1070
f 1072/1072 1070/1070 1069/1069
f 1076/1076 1075/1075 1074/1074
f 1076/1076 1074/1074 1073/1073
f 1080/1080 1079/1079 1078/1078
f 1080/1080 1078/1078 1077/1077
