g felsen
v -2.0000 0.1200 -1.5000
v 2.0000 0.1200 -1.5000
v 2.0000 0.1200 1.5000
v -2.0000 0.1200 1.5000
v -2.0000 0.0000 -1.5000
v -2.0000 0.1200 -1.5000
v 2.0000 0.1200 -1.5000
v 2.0000 0.0000 -1.5000
v 2.0000 0.0000 1.5000
v 2.0000 0.1200 1.5000
v -2.0000 0.1200 1.5000
v -2.0000 0.0000 1.5000
v -2.0000 0.0000 1.5000
v -2.0000 0.1200 1.5000
v -2.0000 0.1200 -1.5000
v -2.0000 0.0000 -1.5000
v 2.0000 0.0000 -1.5000
v 2.0000 0.1200 -1.5000
v 2.0000 0.1200 1.5000
v 2.0000 0.0000 1.5000
v -0.3650 1.2314 0.4908
v 0.8691 1.2314 0.4908
v 0.8691 1.2314 1.5123
v -0.3650 1.2314 1.5123
v -0.5443 0.0000 0.1406
v -0.3650 1.2314 0.4908
v 0.8691 1.2314 0.4908
v 1.0820 0.0000 0.1406
v 1.0820 0.0000 1.4867
v 0.8691 1.2314 1.5123
v -0.3650 1.2314 1.5123
v -0.5443 0.0000 1.4867
v -0.5443 0.0000 1.4867
v -0.3650 1.2314 1.5123
v -0.3650 1.2314 0.4908
v -0.5443 0.0000 0.1406
v 1.0820 0.0000 0.1406
v 0.8691 1.2314 0.4908
v 0.8691 1.2314 1.5123
v 1.0820 0.0000 1.4867
v 0.2318 1.1504 -0.9237
v 1.1024 1.1504 -0.9237
v 1.1024 1.1504 -0.0703
v 0.2318 1.1504 -0.0703
v -0.1309 0.0000 -1.2203
v 0.2318 1.1504 -0.9237
v 1.1024 1.1504 -0.9237
v 1.0554 0.0000 -1.2203
v 1.0554 0.0000 -0.0574
v 1.1024 1.1504 -0.0703
v 0.2318 1.1504 -0.0703
v -0.1309 0.0000 -0.0574
v -0.1309 0.0000 -0.0574
v 0.2318 1.1504 -0.0703
v 0.2318 1.1504 -0.9237
v -0.1309 0.0000 -1.2203
v 1.0554 0.0000 -1.2203
v 1.1024 1.1504 -0.9237
v 1.1024 1.1504 -0.0703
v 1.0554 0.0000 -0.0574
v -0.3612 0.6042 -1.1371
v 0.5112 0.6042 -1.1371
v 0.5112 0.6042 -0.0263
v -0.3612 0.6042 -0.0263
v -0.6520 0.0000 -1.0712
v -0.3612 0.6042 -1.1371
v 0.5112 0.6042 -1.1371
v 0.4416 0.0000 -1.0712
v 0.4416 0.0000 0.3213
v 0.5112 0.6042 -0.0263
v -0.3612 0.6042 -0.0263
v -0.6520 0.0000 0.3213
v -0.6520 0.0000 0.3213
v -0.3612 0.6042 -0.0263
v -0.3612 0.6042 -1.1371
v -0.6520 0.0000 -1.0712
v 0.4416 0.0000 -1.0712
v 0.5112 0.6042 -1.1371
v 0.5112 0.6042 -0.0263
v 0.4416 0.0000 0.3213
v 0.0156 0.7036 -0.8099
v 0.9813 0.7036 -0.8099
v 0.9813 0.7036 -0.0852
v 0.0156 0.7036 -0.0852
v -0.0150 0.0000 -1.1695
v 0.0156 0.7036 -0.8099
v 0.9813 0.7036 -0.8099
v 1.4943 0.0000 -1.1695
v 1.4943 0.0000 -0.0369
v 0.9813 0.7036 -0.0852
v 0.0156 0.7036 -0.0852
v -0.0150 0.0000 -0.0369
v -0.0150 0.0000 -0.0369
v 0.0156 0.7036 -0.0852
v 0.0156 0.7036 -0.8099
v -0.0150 0.0000 -1.1695
v 1.4943 0.0000 -1.1695
v 0.9813 0.7036 -0.8099
v 0.9813 0.7036 -0.0852
v 1.4943 0.0000 -0.0369
v -1.7217 1.1707 -0.6609
v -0.7905 1.1707 -0.6609
v -0.7905 1.1707 0.2444
v -1.7217 1.1707 0.2444
v -1.7282 0.0000 -0.7719
v -1.7217 1.1707 -0.6609
v -0.7905 1.1707 -0.6609
v -0.4911 0.0000 -0.7719
v -0.4911 0.0000 0.4309
v -0.7905 1.1707 0.2444
v -1.7217 1.1707 0.2444
v -1.7282 0.0000 0.4309
v -1.7282 0.0000 0.4309
v -1.7217 1.1707 0.2444
v -1.7217 1.1707 -0.6609
v -1.7282 0.0000 -0.7719
v -0.4911 0.0000 -0.7719
v -0.7905 1.1707 -0.6609
v -0.7905 1.1707 0.2444
v -0.4911 0.0000 0.4309
v 0.2839 0.8472 0.3668
v 1.1817 0.8472 0.3668
v 1.1817 0.8472 0.9246
v 0.2839 0.8472 0.9246
v 0.0066 0.0000 0.0965
v 0.2839 0.8472 0.3668
v 1.1817 0.8472 0.3668
v 1.3464 0.0000 0.0965
v 1.3464 0.0000 0.9288
v 1.1817 0.8472 0.9246
v 0.2839 0.8472 0.9246
v 0.0066 0.0000 0.9288
v 0.0066 0.0000 0.9288
v 0.2839 0.8472 0.9246
v 0.2839 0.8472 0.3668
v 0.0066 0.0000 0.0965
v 1.3464 0.0000 0.0965
v 1.1817 0.8472 0.3668
v 1.1817 0.8472 0.9246
v 1.3464 0.0000 0.9288
v -0.5197 0.0900 -0.4478
v -0.2844 0.0900 -0.4478
v -0.2844 0.0900 -0.1880
v -0.5197 0.0900 -0.1880
v -0.6155 0.0000 -0.5395
v -0.5197 0.0900 -0.4478
v -0.2844 0.0900 -0.4478
v -0.2840 0.0000 -0.5395
v -0.2840 0.0000 -0.1735
v -0.2844 0.0900 -0.1880
v -0.5197 0.0900 -0.1880
v -0.6155 0.0000 -0.1735
v -0.6155 0.0000 -0.1735
v -0.5197 0.0900 -0.1880
v -0.5197 0.0900 -0.4478
v -0.6155 0.0000 -0.5395
v -0.2840 0.0000 -0.5395
v -0.2844 0.0900 -0.4478
v -0.2844 0.0900 -0.1880
v -0.2840 0.0000 -0.1735
v -0.9540 0.2103 0.5549
v -0.7478 0.2103 0.5549
v -0.7478 0.2103 0.7156
v -0.9540 0.2103 0.7156
v -1.0236 0.0000 0.5231
v -0.9540 0.2103 0.5549
v -0.7478 0.2103 0.5549
v -0.7307 0.0000 0.5231
v -0.7307 0.0000 0.7514
v -0.7478 0.2103 0.7156
v -0.9540 0.2103 0.7156
v -1.0236 0.0000 0.7514
v -1.0236 0.0000 0.7514
v -0.9540 0.2103 0.7156
v -0.9540 0.2103 0.5549
v -1.0236 0.0000 0.5231
v -0.7307 0.0000 0.5231
v -0.7478 0.2103 0.5549
v -0.7478 0.2103 0.7156
v -0.7307 0.0000 0.7514
v -0.4670 0.1811 -0.6378
v -0.1053 0.1811 -0.6378
v -0.1053 0.1811 -0.2261
v -0.4670 0.1811 -0.2261
v -0.6105 0.0000 -0.6391
v -0.4670 0.1811 -0.6378
v -0.1053 0.1811 -0.6378
v -0.1178 0.0000 -0.6391
v -0.1178 0.0000 -0.0783
v -0.1053 0.1811 -0.2261
v -0.4670 0.1811 -0.2261
v -0.6105 0.0000 -0.0783
v -0.6105 0.0000 -0.0783
v -0.4670 0.1811 -0.2261
v -0.4670 0.1811 -0.6378
v -0.6105 0.0000 -0.6391
v -0.1178 0.0000 -0.6391
v -0.1053 0.1811 -0.6378
v -0.1053 0.1811 -0.2261
v -0.1178 0.0000 -0.0783
v -0.5048 0.1772 -0.8025
v -0.3681 0.1772 -0.8025
v -0.3681 0.1772 -0.6715
v -0.5048 0.1772 -0.6715
v -0.5356 0.0000 -0.8345
v -0.5048 0.1772 -0.8025
v -0.3681 0.1772 -0.8025
v -0.3542 0.0000 -0.8345
v -0.3542 0.0000 -0.6607
v -0.3681 0.1772 -0.6715
v -0.5048 0.1772 -0.6715
v -0.5356 0.0000 -0.6607
v -0.5356 0.0000 -0.6607
v -0.5048 0.1772 -0.6715
v -0.5048 0.1772 -0.8025
v -0.5356 0.0000 -0.8345
v -0.3542 0.0000 -0.8345
v -0.3681 0.1772 -0.8025
v -0.3681 0.1772 -0.6715
v -0.3542 0.0000 -0.6607
v 0.0019 0.2245 -0.0541
v 0.1982 0.2245 -0.0541
v 0.1982 0.2245 0.1600
v 0.0019 0.2245 0.1600
v 0.0132 0.0000 -0.0795
v 0.0019 0.2245 -0.0541
v 0.1982 0.2245 -0.0541
v 0.2537 0.0000 -0.0795
v 0.2537 0.0000 0.1829
v 0.1982 0.2245 0.1600
v 0.0019 0.2245 0.1600
v 0.0132 0.0000 0.1829
v 0.0132 0.0000 0.1829
v 0.0019 0.2245 0.1600
v 0.0019 0.2245 -0.0541
v 0.0132 0.0000 -0.0795
v 0.2537 0.0000 -0.0795
v 0.1982 0.2245 -0.0541
v 0.1982 0.2245 0.1600
v 0.2537 0.0000 0.1829
v 0.2754 0.1597 0.1583
v 0.5364 0.1597 0.1583
v 0.5364 0.1597 0.4693
v 0.2754 0.1597 0.4693
v 0.2754 0.0000 0.1873
v 0.2754 0.1597 0.1583
v 0.5364 0.1597 0.1583
v 0.5961 0.0000 0.1873
v 0.5961 0.0000 0.5693
v 0.5364 0.1597 0.4693
v 0.2754 0.1597 0.4693
v 0.2754 0.0000 0.5693
v 0.2754 0.0000 0.5693
v 0.2754 0.1597 0.4693
v 0.2754 0.1597 0.1583
v 0.2754 0.0000 0.1873
v 0.5961 0.0000 0.1873
v 0.5364 0.1597 0.1583
v 0.5364 0.1597 0.4693
v 0.5961 0.0000 0.5693
v -1.8383 0.0870 0.0142
v -1.6216 0.0870 0.0142
v -1.6216 0.0870 0.1830
v -1.8383 0.0870 0.1830
v -1.8364 0.0000 0.0066
v -1.8383 0.0870 0.0142
v -1.6216 0.0870 0.0142
v -1.5243 0.0000 0.0066
v -1.5243 0.0000 0.2498
v -1.6216 0.0870 0.1830
v -1.8383 0.0870 0.1830
v -1.8364 0.0000 0.2498
v -1.8364 0.0000 0.2498
v -1.8383 0.0870 0.1830
v -1.8383 0.0870 0.0142
v -1.8364 0.0000 0.0066
v -1.5243 0.0000 0.0066
v -1.6216 0.0870 0.0142
v -1.6216 0.0870 0.1830
v -1.5243 0.0000 0.2498
v 0.5079 0.1080 -0.7578
v 0.7906 0.1080 -0.7578
v 0.7906 0.1080 -0.5399
v 0.5079 0.1080 -0.5399
v 0.5257 0.0000 -0.7931
v 0.5079 0.1080 -0.7578
v 0.7906 0.1080 -0.7578
v 0.9003 0.0000 -0.7931
v 0.9003 0.0000 -0.5044
v 0.7906 0.1080 -0.5399
v 0.5079 0.1080 -0.5399
v 0.5257 0.0000 -0.5044
v 0.5257 0.0000 -0.5044
v 0.5079 0.1080 -0.5399
v 0.5079 0.1080 -0.7578
v 0.5257 0.0000 -0.7931
v 0.9003 0.0000 -0.7931
v 0.7906 0.1080 -0.7578
v 0.7906 0.1080 -0.5399
v 0.9003 0.0000 -0.5044
v -1.8138 0.2185 -0.8485
v -1.6208 0.2185 -0.8485
v -1.6208 0.2185 -0.6404
v -1.8138 0.2185 -0.6404
v -1.8152 0.0000 -0.8940
v -1.8138 0.2185 -0.8485
v -1.6208 0.2185 -0.8485
v -1.5271 0.0000 -0.8940
v -1.5271 0.0000 -0.5834
v -1.6208 0.2185 -0.6404
v -1.8138 0.2185 -0.6404
v -1.8152 0.0000 -0.5834
v -1.8152 0.0000 -0.5834
v -1.8138 0.2185 -0.6404
v -1.8138 0.2185 -0.8485
v -1.8152 0.0000 -0.8940
v -1.5271 0.0000 -0.8940
v -1.6208 0.2185 -0.8485
v -1.6208 0.2185 -0.6404
v -1.5271 0.0000 -0.5834
v 1.2953 0.2506 -0.3615
v 1.5004 0.2506 -0.3615
v 1.5004 0.2506 -0.2152
v 1.2953 0.2506 -0.2152
v 1.2153 0.0000 -0.3820
v 1.2953 0.2506 -0.3615
v 1.5004 0.2506 -0.3615
v 1.4992 0.0000 -0.3820
v 1.4992 0.0000 -0.1795
v 1.5004 0.2506 -0.2152
v 1.2953 0.2506 -0.2152
v 1.2153 0.0000 -0.1795
v 1.2153 0.0000 -0.1795
v 1.2953 0.2506 -0.2152
v 1.2953 0.2506 -0.3615
v 1.2153 0.0000 -0.3820
v 1.4992 0.0000 -0.3820
v 1.5004 0.2506 -0.3615
v 1.5004 0.2506 -0.2152
v 1.4992 0.0000 -0.1795
v -1.0851 0.1108 -0.9815
v -0.9024 0.1108 -0.9815
v -0.9024 0.1108 -0.7563
v -1.0851 0.1108 -0.7563
v -1.1335 0.0000 -1.0276
v -1.0851 0.1108 -0.9815
v -0.9024 0.1108 -0.9815
v -0.9067 0.0000 -1.0276
v -0.9067 0.0000 -0.7481
v -0.9024 0.1108 -0.7563
v -1.0851 0.1108 -0.7563
v -1.1335 0.0000 -0.7481
v -1.1335 0.0000 -0.7481
v -1.0851 0.1108 -0.7563
v -1.0851 0.1108 -0.9815
v -1.1335 0.0000 -1.0276
v -0.9067 0.0000 -1.0276
v -0.9024 0.1108 -0.9815
v -0.9024 0.1108 -0.7563
v -0.9067 0.0000 -0.7481
v 0.8613 0.2086 -0.0292
v 1.1811 0.2086 -0.0292
v 1.1811 0.2086 0.2218
v 0.8613 0.2086 0.2218
v 0.8567 0.0000 -0.1015
v 0.8613 0.2086 -0.0292
v 1.1811 0.2086 -0.0292
v 1.3060 0.0000 -0.1015
v 1.3060 0.0000 0.2512
v 1.1811 0.2086 0.2218
v 0.8613 0.2086 0.2218
v 0.8567 0.0000 0.2512
v 0.8567 0.0000 0.2512
v 0.8613 0.2086 0.2218
v 0.8613 0.2086 -0.0292
v 0.8567 0.0000 -0.1015
v 1.3060 0.0000 -0.1015
v 1.1811 0.2086 -0.0292
v 1.1811 0.2086 0.2218
v 1.3060 0.0000 0.2512
v -1.3533 0.2517 -0.5376
v -0.9484 0.2517 -0.5376
v -0.9484 0.2517 -0.2298
v -1.3533 0.2517 -0.2298
v -1.4807 0.0000 -0.5374
v -1.3533 0.2517 -0.5376
v -0.9484 0.2517 -0.5376
v -0.9823 0.0000 -0.5374
v -0.9823 0.0000 -0.1585
v -0.9484 0.2517 -0.2298
v -1.3533 0.2517 -0.2298
v -1.4807 0.0000 -0.1585
v -1.4807 0.0000 -0.1585
v -1.3533 0.2517 -0.2298
v -1.3533 0.2517 -0.5376
v -1.4807 0.0000 -0.5374
v -0.9823 0.0000 -0.5374
v -0.9484 0.2517 -0.5376
v -0.9484 0.2517 -0.2298
v -0.9823 0.0000 -0.1585
v -1.4509 0.2813 -0.7579
v -1.2790 0.2813 -0.7579
v -1.2790 0.2813 -0.5998
v -1.4509 0.2813 -0.5998
v -1.4502 0.0000 -0.7635
v -1.4509 0.2813 -0.7579
v -1.2790 0.2813 -0.7579
v -1.2240 0.0000 -0.7635
v -1.2240 0.0000 -0.5555
v -1.2790 0.2813 -0.5998
v -1.4509 0.2813 -0.5998
v -1.4502 0.0000 -0.5555
v -1.4502 0.0000 -0.5555
v -1.4509 0.2813 -0.5998
v -1.4509 0.2813 -0.7579
v -1.4502 0.0000 -0.7635
v -1.2240 0.0000 -0.7635
v -1.2790 0.2813 -0.7579
v -1.2790 0.2813 -0.5998
v -1.2240 0.0000 -0.5555
v -1.5829 0.0807 -0.6405
v -1.2166 0.0807 -0.6405
v -1.2166 0.0807 -0.2751
v -1.5829 0.0807 -0.2751
v -1.6079 0.0000 -0.6134
v -1.5829 0.0807 -0.6405
v -1.2166 0.0807 -0.6405
v -1.1686 0.0000 -0.6134
v -1.1686 0.0000 -0.1751
v -1.2166 0.0807 -0.2751
v -1.5829 0.0807 -0.2751
v -1.6079 0.0000 -0.1751
v -1.6079 0.0000 -0.1751
v -1.5829 0.0807 -0.2751
v -1.5829 0.0807 -0.6405
v -1.6079 0.0000 -0.6134
v -1.1686 0.0000 -0.6134
v -1.2166 0.0807 -0.6405
v -1.2166 0.0807 -0.2751
v -1.1686 0.0000 -0.1751
v -0.2578 0.2910 0.0638
v -0.1194 0.2910 0.0638
v -0.1194 0.2910 0.2016
v -0.2578 0.2910 0.2016
v -0.2894 0.0000 0.0227
v -0.2578 0.2910 0.0638
v -0.1194 0.2910 0.0638
v -0.0821 0.0000 0.0227
v -0.0821 0.0000 0.2291
v -0.1194 0.2910 0.2016
v -0.2578 0.2910 0.2016
v -0.2894 0.0000 0.2291
v -0.2894 0.0000 0.2291
v -0.2578 0.2910 0.2016
v -0.2578 0.2910 0.0638
v -0.2894 0.0000 0.0227
v -0.0821 0.0000 0.0227
v -0.1194 0.2910 0.0638
v -0.1194 0.2910 0.2016
v -0.0821 0.0000 0.2291
vt 0.1970 0.2727
vt 0.8030 0.2727
vt 0.8030 0.7273
vt 0.1970 0.7273
vt 0.1970 0.0000
vt 0.8030 0.0000
vt 0.8030 0.0182
vt 0.1970 0.0182
vt 0.1970 0.0000
vt 0.8030 0.0000
vt 0.8030 0.0182
vt 0.1970 0.0182
vt 0.2727 0.0000
vt 0.7273 0.0000
vt 0.7273 0.0182
vt 0.2727 0.0182
vt 0.2727 0.0000
vt 0.7273 0.0000
vt 0.7273 0.0182
vt 0.2727 0.0182
vt 0.0000 0.0000
vt 0.1870 0.0000
vt 0.1870 0.1548
vt 0.0000 0.1548
vt 0.0000 0.0000
vt 0.2464 0.0000
vt 0.2464 0.1866
vt 0.0000 0.1866
vt 0.0000 0.0000
vt 0.2464 0.0000
vt 0.2464 0.1866
vt 0.0000 0.1866
vt 0.0000 0.0000
vt 0.2040 0.0000
vt 0.2040 0.1866
vt 0.0000 0.1866
vt 0.0000 0.0000
vt 0.2040 0.0000
vt 0.2040 0.1866
vt 0.0000 0.1866
vt 0.0000 0.0000
vt 0.1319 0.0000
vt 0.1319 0.1293
vt 0.0000 0.1293
vt 0.0000 0.0000
vt 0.1797 0.0000
vt 0.1797 0.1743
vt 0.0000 0.1743
vt 0.0000 0.0000
vt 0.1797 0.0000
vt 0.1797 0.1743
vt 0.0000 0.1743
vt 0.0000 0.0000
vt 0.1762 0.0000
vt 0.1762 0.1743
vt 0.0000 0.1743
vt 0.0000 0.0000
vt 0.1762 0.0000
vt 0.1762 0.1743
vt 0.0000 0.1743
vt 0.0000 0.0000
vt 0.1322 0.0000
vt 0.1322 0.1683
vt 0.0000 0.1683
vt 0.0000 0.0000
vt 0.1657 0.0000
vt 0.1657 0.0915
vt 0.0000 0.0915
vt 0.0000 0.0000
vt 0.1657 0.0000
vt 0.1657 0.0915
vt 0.0000 0.0915
vt 0.0000 0.0000
vt 0.2110 0.0000
vt 0.2110 0.0915
vt 0.0000 0.0915
vt 0.0000 0.0000
vt 0.2110 0.0000
vt 0.2110 0.0915
vt 0.0000 0.0915
vt 0.0000 0.0000
vt 0.1463 0.0000
vt 0.1463 0.1098
vt 0.0000 0.1098
vt 0.0000 0.0000
vt 0.2287 0.0000
vt 0.2287 0.1066
vt 0.0000 0.1066
vt 0.0000 0.0000
vt 0.2287 0.0000
vt 0.2287 0.1066
vt 0.0000 0.1066
vt 0.0000 0.0000
vt 0.1716 0.0000
vt 0.1716 0.1066
vt 0.0000 0.1066
vt 0.0000 0.0000
vt 0.1716 0.0000
vt 0.1716 0.1066
vt 0.0000 0.1066
vt 0.0000 0.0000
vt 0.1411 0.0000
vt 0.1411 0.1372
vt 0.0000 0.1372
vt 0.0000 0.0000
vt 0.1875 0.0000
vt 0.1875 0.1774
vt 0.0000 0.1774
vt 0.0000 0.0000
vt 0.1875 0.0000
vt 0.1875 0.1774
vt 0.0000 0.1774
vt 0.0000 0.0000
vt 0.1822 0.0000
vt 0.1822 0.1774
vt 0.0000 0.1774
vt 0.0000 0.0000
vt 0.1822 0.0000
vt 0.1822 0.1774
vt 0.0000 0.1774
vt 0.0000 0.0000
vt 0.1360 0.0000
vt 0.1360 0.0845
vt 0.0000 0.0845
vt 0.0000 0.0000
vt 0.2030 0.0000
vt 0.2030 0.1284
vt 0.0000 0.1284
vt 0.0000 0.0000
vt 0.2030 0.0000
vt 0.2030 0.1284
vt 0.0000 0.1284
vt 0.0000 0.0000
vt 0.1261 0.0000
vt 0.1261 0.1284
vt 0.0000 0.1284
vt 0.0000 0.0000
vt 0.1261 0.0000
vt 0.1261 0.1284
vt 0.0000 0.1284
vt 0.0000 0.0000
vt 0.0357 0.0000
vt 0.0357 0.0394
vt 0.0000 0.0394
vt 0.0000 0.0000
vt 0.0502 0.0000
vt 0.0502 0.0136
vt 0.0000 0.0136
vt 0.0000 0.0000
vt 0.0502 0.0000
vt 0.0502 0.0136
vt 0.0000 0.0136
vt 0.0000 0.0000
vt 0.0555 0.0000
vt 0.0555 0.0136
vt 0.0000 0.0136
vt 0.0000 0.0000
vt 0.0555 0.0000
vt 0.0555 0.0136
vt 0.0000 0.0136
vt 0.0000 0.0000
vt 0.0312 0.0000
vt 0.0312 0.0243
vt 0.0000 0.0243
vt 0.0000 0.0000
vt 0.0444 0.0000
vt 0.0444 0.0319
vt 0.0000 0.0319
vt 0.0000 0.0000
vt 0.0444 0.0000
vt 0.0444 0.0319
vt 0.0000 0.0319
vt 0.0000 0.0000
vt 0.0346 0.0000
vt 0.0346 0.0319
vt 0.0000 0.0319
vt 0.0000 0.0000
vt 0.0346 0.0000
vt 0.0346 0.0319
vt 0.0000 0.0319
vt 0.0000 0.0000
vt 0.0548 0.0000
vt 0.0548 0.0624
vt 0.0000 0.0624
vt 0.0000 0.0000
vt 0.0746 0.0000
vt 0.0746 0.0274
vt 0.0000 0.0274
vt 0.0000 0.0000
vt 0.0746 0.0000
vt 0.0746 0.0274
vt 0.0000 0.0274
vt 0.0000 0.0000
vt 0.0850 0.0000
vt 0.0850 0.0274
vt 0.0000 0.0274
vt 0.0000 0.0000
vt 0.0850 0.0000
vt 0.0850 0.0274
vt 0.0000 0.0274
vt 0.0000 0.0000
vt 0.0207 0.0000
vt 0.0207 0.0198
vt 0.0000 0.0198
vt 0.0000 0.0000
vt 0.0275 0.0000
vt 0.0275 0.0268
vt 0.0000 0.0268
vt 0.0000 0.0000
vt 0.0275 0.0000
vt 0.0275 0.0268
vt 0.0000 0.0268
vt 0.0000 0.0000
vt 0.0263 0.0000
vt 0.0263 0.0268
vt 0.0000 0.0268
vt 0.0000 0.0000
vt 0.0263 0.0000
vt 0.0263 0.0268
vt 0.0000 0.0268
vt 0.0000 0.0000
vt 0.0297 0.0000
vt 0.0297 0.0324
vt 0.0000 0.0324
vt 0.0000 0.0000
vt 0.0364 0.0000
vt 0.0364 0.0340
vt 0.0000 0.0340
vt 0.0000 0.0000
vt 0.0364 0.0000
vt 0.0364 0.0340
vt 0.0000 0.0340
vt 0.0000 0.0000
vt 0.0398 0.0000
vt 0.0398 0.0340
vt 0.0000 0.0340
vt 0.0000 0.0000
vt 0.0398 0.0000
vt 0.0398 0.0340
vt 0.0000 0.0340
vt 0.0000 0.0000
vt 0.0396 0.0000
vt 0.0396 0.0471
vt 0.0000 0.0471
vt 0.0000 0.0000
vt 0.0486 0.0000
vt 0.0486 0.0242
vt 0.0000 0.0242
vt 0.0000 0.0000
vt 0.0486 0.0000
vt 0.0486 0.0242
vt 0.0000 0.0242
vt 0.0000 0.0000
vt 0.0579 0.0000
vt 0.0579 0.0242
vt 0.0000 0.0242
vt 0.0000 0.0000
vt 0.0579 0.0000
vt 0.0579 0.0242
vt 0.0000 0.0242
vt 0.0000 0.0000
vt 0.0328 0.0000
vt 0.0328 0.0256
vt 0.0000 0.0256
vt 0.0000 0.0000
vt 0.0473 0.0000
vt 0.0473 0.0132
vt 0.0000 0.0132
vt 0.0000 0.0000
vt 0.0473 0.0000
vt 0.0473 0.0132
vt 0.0000 0.0132
vt 0.0000 0.0000
vt 0.0369 0.0000
vt 0.0369 0.0132
vt 0.0000 0.0132
vt 0.0000 0.0000
vt 0.0369 0.0000
vt 0.0369 0.0132
vt 0.0000 0.0132
vt 0.0000 0.0000
vt 0.0428 0.0000
vt 0.0428 0.0330
vt 0.0000 0.0330
vt 0.0000 0.0000
vt 0.0568 0.0000
vt 0.0568 0.0164
vt 0.0000 0.0164
vt 0.0000 0.0000
vt 0.0568 0.0000
vt 0.0568 0.0164
vt 0.0000 0.0164
vt 0.0000 0.0000
vt 0.0437 0.0000
vt 0.0437 0.0164
vt 0.0000 0.0164
vt 0.0000 0.0000
vt 0.0437 0.0000
vt 0.0437 0.0164
vt 0.0000 0.0164
vt 0.0000 0.0000
vt 0.0292 0.0000
vt 0.0292 0.0315
vt 0.0000 0.0315
vt 0.0000 0.0000
vt 0.0436 0.0000
vt 0.0436 0.0331
vt 0.0000 0.0331
vt 0.0000 0.0000
vt 0.0436 0.0000
vt 0.0436 0.0331
vt 0.0000 0.0331
vt 0.0000 0.0000
vt 0.0471 0.0000
vt 0.0471 0.0331
vt 0.0000 0.0331
vt 0.0000 0.0000
vt 0.0471 0.0000
vt 0.0471 0.0331
vt 0.0000 0.0331
vt 0.0000 0.0000
vt 0.0311 0.0000
vt 0.0311 0.0222
vt 0.0000 0.0222
vt 0.0000 0.0000
vt 0.0430 0.0000
vt 0.0430 0.0380
vt 0.0000 0.0380
vt 0.0000 0.0000
vt 0.0430 0.0000
vt 0.0430 0.0380
vt 0.0000 0.0380
vt 0.0000 0.0000
vt 0.0307 0.0000
vt 0.0307 0.0380
vt 0.0000 0.0380
vt 0.0000 0.0000
vt 0.0307 0.0000
vt 0.0307 0.0380
vt 0.0000 0.0380
vt 0.0000 0.0000
vt 0.0277 0.0000
vt 0.0277 0.0341
vt 0.0000 0.0341
vt 0.0000 0.0000
vt 0.0344 0.0000
vt 0.0344 0.0168
vt 0.0000 0.0168
vt 0.0000 0.0000
vt 0.0344 0.0000
vt 0.0344 0.0168
vt 0.0000 0.0168
vt 0.0000 0.0000
vt 0.0423 0.0000
vt 0.0423 0.0168
vt 0.0000 0.0168
vt 0.0000 0.0000
vt 0.0423 0.0000
vt 0.0423 0.0168
vt 0.0000 0.0168
vt 0.0000 0.0000
vt 0.0485 0.0000
vt 0.0485 0.0380
vt 0.0000 0.0380
vt 0.0000 0.0000
vt 0.0681 0.0000
vt 0.0681 0.0316
vt 0.0000 0.0316
vt 0.0000 0.0000
vt 0.0681 0.0000
vt 0.0681 0.0316
vt 0.0000 0.0316
vt 0.0000 0.0000
vt 0.0534 0.0000
vt 0.0534 0.0316
vt 0.0000 0.0316
vt 0.0000 0.0000
vt 0.0534 0.0000
vt 0.0534 0.0316
vt 0.0000 0.0316
vt 0.0000 0.0000
vt 0.0613 0.0000
vt 0.0613 0.0466
vt 0.0000 0.0466
vt 0.0000 0.0000
vt 0.0755 0.0000
vt 0.0755 0.0381
vt 0.0000 0.0381
vt 0.0000 0.0000
vt 0.0755 0.0000
vt 0.0755 0.0381
vt 0.0000 0.0381
vt 0.0000 0.0000
vt 0.0574 0.0000
vt 0.0574 0.0381
vt 0.0000 0.0381
vt 0.0000 0.0000
vt 0.0574 0.0000
vt 0.0574 0.0381
vt 0.0000 0.0381
vt 0.0000 0.0000
vt 0.0260 0.0000
vt 0.0260 0.0240
vt 0.0000 0.0240
vt 0.0000 0.0000
vt 0.0343 0.0000
vt 0.0343 0.0426
vt 0.0000 0.0426
vt 0.0000 0.0000
vt 0.0343 0.0000
vt 0.0343 0.0426
vt 0.0000 0.0426
vt 0.0000 0.0000
vt 0.0315 0.0000
vt 0.0315 0.0426
vt 0.0000 0.0426
vt 0.0000 0.0000
vt 0.0315 0.0000
vt 0.0315 0.0426
vt 0.0000 0.0426
vt 0.0000 0.0000
vt 0.0555 0.0000
vt 0.0555 0.0554
vt 0.0000 0.0554
vt 0.0000 0.0000
vt 0.0666 0.0000
vt 0.0666 0.0122
vt 0.0000 0.0122
vt 0.0000 0.0000
vt 0.0666 0.0000
vt 0.0666 0.0122
vt 0.0000 0.0122
vt 0.0000 0.0000
vt 0.0664 0.0000
vt 0.0664 0.0122
vt 0.0000 0.0122
vt 0.0000 0.0000
vt 0.0664 0.0000
vt 0.0664 0.0122
vt 0.0000 0.0122
vt 0.0000 0.0000
vt 0.0210 0.0000
vt 0.0210 0.0209
vt 0.0000 0.0209
vt 0.0000 0.0000
vt 0.0314 0.0000
vt 0.0314 0.0441
vt 0.0000 0.0441
vt 0.0000 0.0000
vt 0.0314 0.0000
vt 0.0314 0.0441
vt 0.0000 0.0441
vt 0.0000 0.0000
vt 0.0313 0.0000
vt 0.0313 0.0441
vt 0.0000 0.0441
vt 0.0000 0.0000
vt 0.0313 0.0000
vt 0.0313 0.0441
vt 0.0000 0.0441
f 4/4 3/3 2/2
f 4/4 2/2 1/1
f 5/5 6/6 7/7
f 5/5 7/7 8/8
f 9/9 10/10 11/11
f 9/9 11/11 12/12
f 13/13 14/14 15/15
f 13/13 15/15 16/16
f 17/17 18/18 19/19
f 17/17 19/19 20/20
f 24/24 23/23 22/22
f 24/24 22/22 21/21
f 25/25 26/26 27/27
f 25/25 27/27 28/28
f 29/29 30/30 31/31
f 29/29 31/31 32/32
f 33/33 34/34 35/35
f 33/33 35/35 36/36
f 37/37 38/38 39/39
f 37/37 39/39 40/40
f 44/44 43/43 42/42
f 44/44 42/42 41/41
f 45/45 46/46 47/47
f 45/45 47/47 48/48
f 49/49 50/50 51/51
f 49/49 51/51 52/52
f 53/53 54/54 55/55
f 53/53 55/55 56/56
f 57/57 58/58 59/59
f 57/57 59/59 60/60
f 64/64 63/63 62/62
f 64/64 62/62 61/61
f 65/65 66/66 67/67
f 65/65 67/67 68/68
f 69/69 70/70 71/71
f 69/69 71/71 72/72
f 73/73 74/74 75/75
f 73/73 75/75 76/76
f 77/77 78/78 79/79
f 77/77 79/79 80/80
f 84/84 83/83 82/82
f 84/84 82/82 81/81
f 85/85 86/86 87/87
f 85/85 87/87 88/88
f 89/89 90/90 91/91
f 89/89 91/91 92/92
f 93/93 94/94 95/95
f 93/93 95/95 96/96
f 97/97 98/98 99/99
f 97/97 99/99 100/100
f 104/104 103/103 102/102
f 104/104 102/102 101/101
f 105/105 106/106 107/107
f 105/105 107/107 108/108
f 109/109 110/110 111/111
f 109/109 111/111 112/112
f 113/113 114/114 115/115
f 113/113 115/115 116/116
f 117/117 118/118 119/119
f 117/117 119/119 120/120
f 124/124 123/123 122/122
f 124/124 122/122 121/121
f 125/125 126/126 127/127
f 125/125 127/127 128/128
f 129/129 130/130 131/131
f 129/129 131/131 132/132
f 133/133 134/134 135/135
f 133/133 135/135 136/136
f 137/137 138/138 139/139
f 137/137 139/139 140/140
f 144/144 143/143 142/142
f 144/144 142/142 141/141
f 145/145 146/146 147/147
f 145/145 147/147 148/148
f 149/149 150/150 151/151
f 149/149 151/151 152/152
f 153/153 154/154 155/155
f 153/153 155/155 156/156
f 157/157 158/158 159/159
f 157/157 159/159 160/160
f 164/164 163/163 162/162
f 164/164 162/162 161/161
f 165/165 166/166 167/167
f 165/165 167/167 168/168
f 169/169 170/170 171/171
f 169/169 171/171 172/172
f 173/173 174/174 175/175
f 173/173 175/175 176/176
f 177/177 178/178 179/179
f 177/177 179/179 180/180
f 184/184 183/183 182/182
f 184/184 182/182 181/181
f 185/185 186/186 187/187
f 185/185 187/187 188/188
f 189/189 190/190 191/191
f 189/189 191/191 192/192
f 193/193 194/194 195/195
f 193/193 195/195 196/196
f 197/197 198/198 199/199
f 197/197 199/199 200/200
f 204/204 203/203 202/202
f 204/204 202/202 201/201
f 205/205 206/206 207/207
f 205/205 207/207 208/208
f 209/209 210/210 211/211
f 209/209 211/211 212/212
f 213/213 214/214 215/215
f 213/213 215/215 216/216
f 217/217 218/218 219/219
f 217/217 219/219 220/220
f 224/224 223/223 222/222
f 224/224 222/222 221/221
f 225/225 226/226 227/227
f 225/225 227/227 228/228
f 229/229 230/230 231/231
f 229/229 231/231 232/232
f 233/233 234/234 235/235
f 233/233 235/235 236/236
f 237/237 238/238 239/239
f 237/237 239/239 240/240
f 244/244 243/243 242/242
f 244/244 242/242 241/241
f 245/245 246/246 247/247
f 245/245 247/247 248/248
f 249/249 250/250 251/251
f 249/249 251/251 252/252
f 253/253 254/254 255/255
f 253/253 255/255 256/256
f 257/257 258/258 259/259
f 257/257 259/259 260/260
f 264/264 263/263 262/262
f 264/264 262/262 261/261
f 265/265 266/266 267/267
f 265/265 267/267 268/268
f 269/269 270/270 271/271
f 269/269 271/271 272/272
f 273/273 274/274 275/275
f 273/273 275/275 276/276
f 277/277 278/278 279/279
f 277/277 279/279 280/280
f 284/284 283/283 282/282
f 284/284 282/282 281/281
f 285/285 286/286 287/287
f 285/285 287/287 288/288
f 289/289 290/290 291/291
f 289/289 291/291 292/292
f 293/293 294/294 295/295
f 293/293 295/295 296/296
f 297/297 298/298 299/299
f 297/297 299/299 300/300
f 304/304 303/303 302/302
f 304/304 302/302 301/301
f 305/305 306/306 307/307
f 305/305 307/307 308/308
f 309/309 310/310 311/311
f 309/309 311/311 312/312
f 313/313 314/314 315/315
f 313/313 315/315 316/316
f 317/317 318/318 319/319
f 317/317 319/319 320/320
f 324/324 323/323 322/322
f 324/324 322/322 321/321
f 325/325 326/326 327/327
f 325/325 327/327 328/328
f 329/329 330/330 331/331
f 329/329 331/331 332/332
f 333/333 334/334 335/335
f 333/333 335/335 336/336
f 337/337 338/338 339/339
f 337/337 339/339 340/340
f 344/344 343/343 342/342
f 344/344 342/342 341/341
f 345/345 346/346 347/347
f 345/345 347/347 348/348
f 349/349 350/350 351/351
f 349/349 351/351 352/352
f 353/353 354/354 355/355
f 353/353 355/355 356/356
f 357/357 358/358 359/359
f 357/357 359/359 360/360
f 364/364 363/363 362/362
f 364/364 362/362 361/361
f 365/365 366/366 367/367
f 365/365 367/367 368/368
f 369/369 370/370 371/371
f 369/369 371/371 372/372
f 373/373 374/374 375/375
f 373/373 375/375 376/376
f 377/377 378/378 379/379
f 377/377 379/379 380/380
f 384/384 383/383 382/382
f 384/384 382/382 381/381
f 385/385 386/386 387/387
f 385/385 387/387 388/388
f 389/389 390/390 391/391
f 389/389 391/391 392/392
f 393/393 394/394 395/395
f 393/393 395/395 396/396
f 397/397 398/398 399/399
f 397/397 399/399 400/400
f 404/404 403/403 402/402
f 404/404 402/402 401/401
f 405/405 406/406 407/407
f 405/405 407/407 408/408
f 409/409 410/410 411/411
f 409/409 411/411 412/412
f 413/413 414/414 415/415
f 413/413 415/415 416/416
f 417/417 418/418 419/419
f 417/417 419/419 420/420
f 424/424 423/423 422/422
f 424/424 422/422 421/421
f 425/425 426/426 427/427
f 425/425 427/427 428/428
f 429/429 430/430 431/431
f 429/429 431/431 432/432
f 433/433 434/434 435/435
f 433/433 435/435 436/436
f 437/437 438/438 439/439
f 437/437 439/439 440/440
f 444/444 443/443 442/442
f 444/444 442/442 441/441
f 445/445 446/446 447/447
f 445/445 447/447 448/448
f 449/449 450/450 451/451
f 449/449 451/451 452/452
f 453/453 454/454 455/455
f 453/453 455/455 456/456
f 457/457 458/458 459/459
f 457/457 459/459 460/460
