g ruine
v -2.4000 0.1000 -1.8000
v 2.4000 0.1000 -1.8000
v 2.4000 0.1000 1.8000
v -2.4000 0.1000 1.8000
v -2.4000 0.0000 -1.8000
v -2.4000 0.1000 -1.8000
v 2.4000 0.1000 -1.8000
v 2.4000 0.0000 -1.8000
v 2.4000 0.0000 1.8000
v 2.4000 0.1000 1.8000
v -2.4000 0.1000 1.8000
v -2.4000 0.0000 1.8000
v -2.4000 0.0000 1.8000
v -2.4000 0.1000 1.8000
v -2.4000 0.1000 -1.8000
v -2.4000 0.0000 -1.8000
v 2.4000 0.0000 -1.8000
v 2.4000 0.1000 -1.8000
v 2.4000 0.1000 1.8000
v 2.4000 0.0000 1.8000
v -2.4000 0.0000 -1.8000
v -2.4000 1.1880 -1.8000
v -1.6625 1.1880 -1.8000
v -1.6625 0.0000 -1.8000
v -1.6625 0.0000 -1.2500
v -1.6625 1.1880 -1.2500
v -2.4000 1.1880 -1.2500
v -2.4000 0.0000 -1.2500
v -2.4000 0.0000 -1.2500
v -2.4000 1.1880 -1.2500
v -2.4000 1.1880 -1.8000
v -2.4000 0.0000 -1.8000
v -1.6625 0.0000 -1.8000
v -1.6625 1.1880 -1.8000
v -1.6625 1.1880 -1.2500
v -1.6625 0.0000 -1.2500
v -2.4000 1.1880 -1.8000
v -1.6625 1.3602 -1.8000
v -1.6625 1.3602 -1.2500
v -2.4000 1.1880 -1.2500
v -2.4000 1.1880 -1.8000
v -2.4000 1.1880 -1.8000
v -1.6625 1.3602 -1.8000
v -1.6625 1.1880 -1.8000
v -1.6625 1.1880 -1.2500
v -1.6625 1.3602 -1.2500
v -2.4000 1.1880 -1.2500
v -2.4000 1.1880 -1.2500
v -1.6625 0.0000 -1.8000
v -1.6625 1.8852 -1.8000
v -0.9250 1.8852 -1.8000
v -0.9250 0.0000 -1.8000
v -0.9250 0.0000 -1.2500
v -0.9250 1.8852 -1.2500
v -1.6625 1.8852 -1.2500
v -1.6625 0.0000 -1.2500
v -1.6625 0.0000 -1.2500
v -1.6625 1.8852 -1.2500
v -1.6625 1.8852 -1.8000
v -1.6625 0.0000 -1.8000
v -0.9250 0.0000 -1.8000
v -0.9250 1.8852 -1.8000
v -0.9250 1.8852 -1.2500
v -0.9250 0.0000 -1.2500
v -1.6625 2.2048 -1.8000
v -0.9250 1.8852 -1.8000
v -0.9250 1.8852 -1.2500
v -1.6625 2.2048 -1.2500
v -1.6625 1.8852 -1.8000
v -1.6625 2.2048 -1.8000
v -0.9250 1.8852 -1.8000
v -0.9250 1.8852 -1.8000
v -0.9250 1.8852 -1.2500
v -0.9250 1.8852 -1.2500
v -1.6625 2.2048 -1.2500
v -1.6625 1.8852 -1.2500
v -0.9250 0.0000 -1.8000
v -0.9250 1.0557 -1.8000
v -0.1875 1.0557 -1.8000
v -0.1875 0.0000 -1.8000
v -0.1875 0.0000 -1.2500
v -0.1875 1.0557 -1.2500
v -0.9250 1.0557 -1.2500
v -0.9250 0.0000 -1.2500
v -0.9250 0.0000 -1.2500
v -0.9250 1.0557 -1.2500
v -0.9250 1.0557 -1.8000
v -0.9250 0.0000 -1.8000
v -0.1875 0.0000 -1.8000
v -0.1875 1.0557 -1.8000
v -0.1875 1.0557 -1.2500
v -0.1875 0.0000 -1.2500
v -0.9250 1.0557 -1.8000
v -0.1875 1.0967 -1.8000
v -0.1875 1.0967 -1.2500
v -0.9250 1.0557 -1.2500
v -0.9250 1.0557 -1.8000
v -0.9250 1.0557 -1.8000
v -0.1875 1.0967 -1.8000
v -0.1875 1.0557 -1.8000
v -0.1875 1.0557 -1.2500
v -0.1875 1.0967 -1.2500
v -0.9250 1.0557 -1.2500
v -0.9250 1.0557 -1.2500
v -0.1875 0.0000 -1.8000
v -0.1875 1.6102 -1.8000
v 0.5500 1.6102 -1.8000
v 0.5500 0.0000 -1.8000
v 0.5500 0.0000 -1.2500
v 0.5500 1.6102 -1.2500
v -0.1875 1.6102 -1.2500
v -0.1875 0.0000 -1.2500
v -0.1875 0.0000 -1.2500
v -0.1875 1.6102 -1.2500
v -0.1875 1.6102 -1.8000
v -0.1875 0.0000 -1.8000
v 0.5500 0.0000 -1.8000
v 0.5500 1.6102 -1.8000
v 0.5500 1.6102 -1.2500
v 0.5500 0.0000 -1.2500
v -0.1875 1.6102 -1.8000
v 0.5500 1.8404 -1.8000
v 0.5500 1.8404 -1.2500
v -0.1875 1.6102 -1.2500
v -0.1875 1.6102 -1.8000
v -0.1875 1.6102 -1.8000
v 0.5500 1.8404 -1.8000
v 0.5500 1.6102 -1.8000
v 0.5500 1.6102 -1.2500
v 0.5500 1.8404 -1.2500
v -0.1875 1.6102 -1.2500
v -0.1875 1.6102 -1.2500
v 1.2500 0.0000 -1.8000
v 1.2500 1.2665 -1.8000
v 1.8250 1.2665 -1.8000
v 1.8250 0.0000 -1.8000
v 1.8250 0.0000 -1.2500
v 1.8250 1.2665 -1.2500
v 1.2500 1.2665 -1.2500
v 1.2500 0.0000 -1.2500
v 1.2500 0.0000 -1.2500
v 1.2500 1.2665 -1.2500
v 1.2500 1.2665 -1.8000
v 1.2500 0.0000 -1.8000
v 1.8250 0.0000 -1.8000
v 1.8250 1.2665 -1.8000
v 1.8250 1.2665 -1.2500
v 1.8250 0.0000 -1.2500
v 1.2500 1.2665 -1.8000
v 1.8250 1.4206 -1.8000
v 1.8250 1.4206 -1.2500
v 1.2500 1.2665 -1.2500
v 1.2500 1.2665 -1.8000
v 1.2500 1.2665 -1.8000
v 1.8250 1.4206 -1.8000
v 1.8250 1.2665 -1.8000
v 1.8250 1.2665 -1.2500
v 1.8250 1.4206 -1.2500
v 1.2500 1.2665 -1.2500
v 1.2500 1.2665 -1.2500
v 1.8250 0.0000 -1.8000
v 1.8250 0.6240 -1.8000
v 2.4000 0.6240 -1.8000
v 2.4000 0.0000 -1.8000
v 2.4000 0.0000 -1.2500
v 2.4000 0.6240 -1.2500
v 1.8250 0.6240 -1.2500
v 1.8250 0.0000 -1.2500
v 1.8250 0.0000 -1.2500
v 1.8250 0.6240 -1.2500
v 1.8250 0.6240 -1.8000
v 1.8250 0.0000 -1.8000
v 2.4000 0.0000 -1.8000
v 2.4000 0.6240 -1.8000
v 2.4000 0.6240 -1.2500
v 2.4000 0.0000 -1.2500
v 1.8250 0.7722 -1.8000
v 2.4000 0.6240 -1.8000
v 2.4000 0.6240 -1.2500
v 1.8250 0.7722 -1.2500
v 1.8250 0.6240 -1.8000
v 1.8250 0.7722 -1.8000
v 2.4000 0.6240 -1.8000
v 2.4000 0.6240 -1.8000
v 2.4000 0.6240 -1.2500
v 2.4000 0.6240 -1.2500
v 1.8250 0.7722 -1.2500
v 1.8250 0.6240 -1.2500
v -2.4000 0.0000 1.2500
v -2.4000 1.1458 1.2500
v -1.8833 1.1458 1.2500
v -1.8833 0.0000 1.2500
v -1.8833 0.0000 1.8000
v -1.8833 1.1458 1.8000
v -2.4000 1.1458 1.8000
v -2.4000 0.0000 1.8000
v -2.4000 0.0000 1.8000
v -2.4000 1.1458 1.8000
v -2.4000 1.1458 1.2500
v -2.4000 0.0000 1.2500
v -1.8833 0.0000 1.2500
v -1.8833 1.1458 1.2500
v -1.8833 1.1458 1.8000
v -1.8833 0.0000 1.8000
v -2.4000 1.1916 1.2500
v -1.8833 1.1458 1.2500
v -1.8833 1.1458 1.8000
v -2.4000 1.1916 1.8000
v -2.4000 1.1458 1.2500
v -2.4000 1.1916 1.2500
v -1.8833 1.1458 1.2500
v -1.8833 1.1458 1.2500
v -1.8833 1.1458 1.8000
v -1.8833 1.1458 1.8000
v -2.4000 1.1916 1.8000
v -2.4000 1.1458 1.8000
v -1.8833 0.0000 1.2500
v -1.8833 1.2514 1.2500
v -1.3667 1.2514 1.2500
v -1.3667 0.0000 1.2500
v -1.3667 0.0000 1.8000
v -1.3667 1.2514 1.8000
v -1.8833 1.2514 1.8000
v -1.8833 0.0000 1.8000
v -1.8833 0.0000 1.8000
v -1.8833 1.2514 1.8000
v -1.8833 1.2514 1.2500
v -1.8833 0.0000 1.2500
v -1.3667 0.0000 1.2500
v -1.3667 1.2514 1.2500
v -1.3667 1.2514 1.8000
v -1.3667 0.0000 1.8000
v -1.8833 1.4987 1.2500
v -1.3667 1.2514 1.2500
v -1.3667 1.2514 1.8000
v -1.8833 1.4987 1.8000
v -1.8833 1.2514 1.2500
v -1.8833 1.4987 1.2500
v -1.3667 1.2514 1.2500
v -1.3667 1.2514 1.2500
v -1.3667 1.2514 1.8000
v -1.3667 1.2514 1.8000
v -1.8833 1.4987 1.8000
v -1.8833 1.2514 1.8000
v -1.3667 0.0000 1.2500
v -1.3667 1.6274 1.2500
v -0.8500 1.6274 1.2500
v -0.8500 0.0000 1.2500
v -0.8500 0.0000 1.8000
v -0.8500 1.6274 1.8000
v -1.3667 1.6274 1.8000
v -1.3667 0.0000 1.8000
v -1.3667 0.0000 1.8000
v -1.3667 1.6274 1.8000
v -1.3667 1.6274 1.2500
v -1.3667 0.0000 1.2500
v -0.8500 0.0000 1.2500
v -0.8500 1.6274 1.2500
v -0.8500 1.6274 1.8000
v -0.8500 0.0000 1.8000
v -1.3667 1.6274 1.2500
v -0.8500 1.8512 1.2500
v -0.8500 1.8512 1.8000
v -1.3667 1.6274 1.8000
v -1.3667 1.6274 1.2500
v -1.3667 1.6274 1.2500
v -0.8500 1.8512 1.2500
v -0.8500 1.6274 1.2500
v -0.8500 1.6274 1.8000
v -0.8500 1.8512 1.8000
v -1.3667 1.6274 1.8000
v -1.3667 1.6274 1.8000
v 0.3500 0.0000 1.2500
v 0.3500 1.6197 1.2500
v 1.0333 1.6197 1.2500
v 1.0333 0.0000 1.2500
v 1.0333 0.0000 1.8000
v 1.0333 1.6197 1.8000
v 0.3500 1.6197 1.8000
v 0.3500 0.0000 1.8000
v 0.3500 0.0000 1.8000
v 0.3500 1.6197 1.8000
v 0.3500 1.6197 1.2500
v 0.3500 0.0000 1.2500
v 1.0333 0.0000 1.2500
v 1.0333 1.6197 1.2500
v 1.0333 1.6197 1.8000
v 1.0333 0.0000 1.8000
v 0.3500 1.9242 1.2500
v 1.0333 1.6197 1.2500
v 1.0333 1.6197 1.8000
v 0.3500 1.9242 1.8000
v 0.3500 1.6197 1.2500
v 0.3500 1.9242 1.2500
v 1.0333 1.6197 1.2500
v 1.0333 1.6197 1.2500
v 1.0333 1.6197 1.8000
v 1.0333 1.6197 1.8000
v 0.3500 1.9242 1.8000
v 0.3500 1.6197 1.8000
v 1.0333 0.0000 1.2500
v 1.0333 2.3948 1.2500
v 1.7167 2.3948 1.2500
v 1.7167 0.0000 1.2500
v 1.7167 0.0000 1.8000
v 1.7167 2.3948 1.8000
v 1.0333 2.3948 1.8000
v 1.0333 0.0000 1.8000
v 1.0333 0.0000 1.8000
v 1.0333 2.3948 1.8000
v 1.0333 2.3948 1.2500
v 1.0333 0.0000 1.2500
v 1.7167 0.0000 1.2500
v 1.7167 2.3948 1.2500
v 1.7167 2.3948 1.8000
v 1.7167 0.0000 1.8000
v 1.0333 2.3948 1.2500
v 1.7167 2.6957 1.2500
v 1.7167 2.6957 1.8000
v 1.0333 2.3948 1.8000
v 1.0333 2.3948 1.2500
v 1.0333 2.3948 1.2500
v 1.7167 2.6957 1.2500
v 1.7167 2.3948 1.2500
v 1.7167 2.3948 1.8000
v 1.7167 2.6957 1.8000
v 1.0333 2.3948 1.8000
v 1.0333 2.3948 1.8000
v 1.7167 0.0000 1.2500
v 1.7167 1.7187 1.2500
v 2.4000 1.7187 1.2500
v 2.4000 0.0000 1.2500
v 2.4000 0.0000 1.8000
v 2.4000 1.7187 1.8000
v 1.7167 1.7187 1.8000
v 1.7167 0.0000 1.8000
v 1.7167 0.0000 1.8000
v 1.7167 1.7187 1.8000
v 1.7167 1.7187 1.2500
v 1.7167 0.0000 1.2500
v 2.4000 0.0000 1.2500
v 2.4000 1.7187 1.2500
v 2.4000 1.7187 1.8000
v 2.4000 0.0000 1.8000
v 1.7167 2.0227 1.2500
v 2.4000 1.7187 1.2500
v 2.4000 1.7187 1.8000
v 1.7167 2.0227 1.8000
v 1.7167 1.7187 1.2500
v 1.7167 2.0227 1.2500
v 2.4000 1.7187 1.2500
v 2.4000 1.7187 1.2500
v 2.4000 1.7187 1.8000
v 2.4000 1.7187 1.8000
v 1.7167 2.0227 1.8000
v 1.7167 1.7187 1.8000
v -2.4000 0.0000 -1.2500
v -2.4000 1.0809 -1.2500
v -1.8500 1.0809 -1.2500
v -1.8500 0.0000 -1.2500
v -1.8500 0.0000 -0.6333
v -1.8500 1.0809 -0.6333
v -2.4000 1.0809 -0.6333
v -2.4000 0.0000 -0.6333
v -2.4000 0.0000 -0.6333
v -2.4000 1.0809 -0.6333
v -2.4000 1.0809 -1.2500
v -2.4000 0.0000 -1.2500
v -1.8500 0.0000 -1.2500
v -1.8500 1.0809 -1.2500
v -1.8500 1.0809 -0.6333
v -1.8500 0.0000 -0.6333
v -2.4000 1.1060 -1.2500
v -1.8500 1.1060 -1.2500
v -1.8500 1.0809 -0.6333
v -2.4000 1.0809 -0.6333
v -2.4000 1.0809 -1.2500
v -2.4000 1.1060 -1.2500
v -2.4000 1.0809 -0.6333
v -2.4000 1.0809 -0.6333
v -1.8500 1.0809 -0.6333
v -1.8500 1.0809 -0.6333
v -1.8500 1.1060 -1.2500
v -1.8500 1.0809 -1.2500
v -2.4000 0.0000 -0.6333
v -2.4000 1.8661 -0.6333
v -1.8500 1.8661 -0.6333
v -1.8500 0.0000 -0.6333
v -1.8500 0.0000 -0.0167
v -1.8500 1.8661 -0.0167
v -2.4000 1.8661 -0.0167
v -2.4000 0.0000 -0.0167
v -2.4000 0.0000 -0.0167
v -2.4000 1.8661 -0.0167
v -2.4000 1.8661 -0.6333
v -2.4000 0.0000 -0.6333
v -1.8500 0.0000 -0.6333
v -1.8500 1.8661 -0.6333
v -1.8500 1.8661 -0.0167
v -1.8500 0.0000 -0.0167
v -2.4000 1.8661 -0.6333
v -1.8500 1.8661 -0.6333
v -1.8500 2.1168 -0.0167
v -2.4000 2.1168 -0.0167
v -2.4000 1.8661 -0.6333
v -2.4000 1.8661 -0.6333
v -2.4000 2.1168 -0.0167
v -2.4000 1.8661 -0.0167
v -1.8500 1.8661 -0.0167
v -1.8500 2.1168 -0.0167
v -1.8500 1.8661 -0.6333
v -1.8500 1.8661 -0.6333
v -2.4000 0.0000 -0.0167
v -2.4000 1.2542 -0.0167
v -1.8500 1.2542 -0.0167
v -1.8500 0.0000 -0.0167
v -1.8500 0.0000 0.6000
v -1.8500 1.2542 0.6000
v -2.4000 1.2542 0.6000
v -2.4000 0.0000 0.6000
v -2.4000 0.0000 0.6000
v -2.4000 1.2542 0.6000
v -2.4000 1.2542 -0.0167
v -2.4000 0.0000 -0.0167
v -1.8500 0.0000 -0.0167
v -1.8500 1.2542 -0.0167
v -1.8500 1.2542 0.6000
v -1.8500 0.0000 0.6000
v -2.4000 1.4366 -0.0167
v -1.8500 1.4366 -0.0167
v -1.8500 1.2542 0.6000
v -2.4000 1.2542 0.6000
v -2.4000 1.2542 -0.0167
v -2.4000 1.4366 -0.0167
v -2.4000 1.2542 0.6000
v -2.4000 1.2542 0.6000
v -1.8500 1.2542 0.6000
v -1.8500 1.2542 0.6000
v -1.8500 1.4366 -0.0167
v -1.8500 1.2542 -0.0167
v 1.8500 0.0000 -0.7000
v 1.8500 0.7300 -0.7000
v 2.4000 0.7300 -0.7000
v 2.4000 0.0000 -0.7000
v 2.4000 0.0000 -0.0500
v 2.4000 0.7300 -0.0500
v 1.8500 0.7300 -0.0500
v 1.8500 0.0000 -0.0500
v 1.8500 0.0000 -0.0500
v 1.8500 0.7300 -0.0500
v 1.8500 0.7300 -0.7000
v 1.8500 0.0000 -0.7000
v 2.4000 0.0000 -0.7000
v 2.4000 0.7300 -0.7000
v 2.4000 0.7300 -0.0500
v 2.4000 0.0000 -0.0500
v 1.8500 0.8059 -0.7000
v 2.4000 0.8059 -0.7000
v 2.4000 0.7300 -0.0500
v 1.8500 0.7300 -0.0500
v 1.8500 0.7300 -0.7000
v 1.8500 0.8059 -0.7000
v 1.8500 0.7300 -0.0500
v 1.8500 0.7300 -0.0500
v 2.4000 0.7300 -0.0500
v 2.4000 0.7300 -0.0500
v 2.4000 0.8059 -0.7000
v 2.4000 0.7300 -0.7000
v 1.8500 0.0000 -0.0500
v 1.8500 1.2782 -0.0500
v 2.4000 1.2782 -0.0500
v 2.4000 0.0000 -0.0500
v 2.4000 0.0000 0.6000
v 2.4000 1.2782 0.6000
v 1.8500 1.2782 0.6000
v 1.8500 0.0000 0.6000
v 1.8500 0.0000 0.6000
v 1.8500 1.2782 0.6000
v 1.8500 1.2782 -0.0500
v 1.8500 0.0000 -0.0500
v 2.4000 0.0000 -0.0500
v 2.4000 1.2782 -0.0500
v 2.4000 1.2782 0.6000
v 2.4000 0.0000 0.6000
v 1.8500 1.2782 -0.0500
v 2.4000 1.2782 -0.0500
v 2.4000 1.3890 0.6000
v 1.8500 1.3890 0.6000
v 1.8500 1.2782 -0.0500
v 1.8500 1.2782 -0.0500
v 1.8500 1.3890 0.6000
v 1.8500 1.2782 0.6000
v 2.4000 1.2782 0.6000
v 2.4000 1.3890 0.6000
v 2.4000 1.2782 -0.0500
v 2.4000 1.2782 -0.0500
v 1.8500 0.0000 0.6000
v 1.8500 0.9916 0.6000
v 2.4000 0.9916 0.6000
v 2.4000 0.0000 0.6000
v 2.4000 0.0000 1.2500
v 2.4000 0.9916 1.2500
v 1.8500 0.9916 1.2500
v 1.8500 0.0000 1.2500
v 1.8500 0.0000 1.2500
v 1.8500 0.9916 1.2500
v 1.8500 0.9916 0.6000
v 1.8500 0.0000 0.6000
v 2.4000 0.0000 0.6000
v 2.4000 0.9916 0.6000
v 2.4000 0.9916 1.2500
v 2.4000 0.0000 1.2500
v 1.8500 0.9916 0.6000
v 2.4000 0.9916 0.6000
v 2.4000 1.0171 1.2500
v 1.8500 1.0171 1.2500
v 1.8500 0.9916 0.6000
v 1.8500 0.9916 0.6000
v 1.8500 1.0171 1.2500
v 1.8500 0.9916 1.2500
v 2.4000 0.9916 1.2500
v 2.4000 1.0171 1.2500
v 2.4000 0.9916 0.6000
v 2.4000 0.9916 0.6000
v -0.6000 0.0000 -0.4000
v -0.6000 1.0009 -0.4000
v 0.0667 1.0009 -0.4000
v 0.0667 0.0000 -0.4000
v 0.0667 0.0000 0.0400
v 0.0667 1.0009 0.0400
v -0.6000 1.0009 0.0400
v -0.6000 0.0000 0.0400
v -0.6000 0.0000 0.0400
v -0.6000 1.0009 0.0400
v -0.6000 1.0009 -0.4000
v -0.6000 0.0000 -0.4000
v 0.0667 0.0000 -0.4000
v 0.0667 1.0009 -0.4000
v 0.0667 1.0009 0.0400
v 0.0667 0.0000 0.0400
v -0.6000 1.0009 -0.4000
v 0.0667 1.1016 -0.4000
v 0.0667 1.1016 0.0400
v -0.6000 1.0009 0.0400
v -0.6000 1.0009 -0.4000
v -0.6000 1.0009 -0.4000
v 0.0667 1.1016 -0.4000
v 0.0667 1.0009 -0.4000
v 0.0667 1.0009 0.0400
v 0.0667 1.1016 0.0400
v -0.6000 1.0009 0.0400
v -0.6000 1.0009 0.0400
v 0.0667 0.0000 -0.4000
v 0.0667 0.5417 -0.4000
v 0.7333 0.5417 -0.4000
v 0.7333 0.0000 -0.4000
v 0.7333 0.0000 0.0400
v 0.7333 0.5417 0.0400
v 0.0667 0.5417 0.0400
v 0.0667 0.0000 0.0400
v 0.0667 0.0000 0.0400
v 0.0667 0.5417 0.0400
v 0.0667 0.5417 -0.4000
v 0.0667 0.0000 -0.4000
v 0.7333 0.0000 -0.4000
v 0.7333 0.5417 -0.4000
v 0.7333 0.5417 0.0400
v 0.7333 0.0000 0.0400
v 0.0667 0.5796 -0.4000
v 0.7333 0.5417 -0.4000
v 0.7333 0.5417 0.0400
v 0.0667 0.5796 0.0400
v 0.0667 0.5417 -0.4000
v 0.0667 0.5796 -0.4000
v 0.7333 0.5417 -0.4000
v 0.7333 0.5417 -0.4000
v 0.7333 0.5417 0.0400
v 0.7333 0.5417 0.0400
v 0.0667 0.5796 0.0400
v 0.0667 0.5417 0.0400
v 0.7333 0.0000 -0.4000
v 0.7333 0.7012 -0.4000
v 1.4000 0.7012 -0.4000
v 1.4000 0.0000 -0.4000
v 1.4000 0.0000 0.0400
v 1.4000 0.7012 0.0400
v 0.7333 0.7012 0.0400
v 0.7333 0.0000 0.0400
v 0.7333 0.0000 0.0400
v 0.7333 0.7012 0.0400
v 0.7333 0.7012 -0.4000
v 0.7333 0.0000 -0.4000
v 1.4000 0.0000 -0.4000
v 1.4000 0.7012 -0.4000
v 1.4000 0.7012 0.0400
v 1.4000 0.0000 0.0400
v 0.7333 0.8083 -0.4000
v 1.4000 0.7012 -0.4000
v 1.4000 0.7012 0.0400
v 0.7333 0.8083 0.0400
v 0.7333 0.7012 -0.4000
v 0.7333 0.8083 -0.4000
v 1.4000 0.7012 -0.4000
v 1.4000 0.7012 -0.4000
v 1.4000 0.7012 0.0400
v 1.4000 0.7012 0.0400
v 0.7333 0.8083 0.0400
v 0.7333 0.7012 0.0400
v -1.1107 0.1390 0.8892
v -0.8971 0.1390 0.8892
v -0.8971 0.1390 1.2214
v -1.1107 0.1390 1.2214
v -1.1107 0.0000 0.8892
v -1.1107 0.1390 0.8892
v -0.8971 0.1390 0.8892
v -0.8971 0.0000 0.8892
v -0.8971 0.0000 1.2214
v -0.8971 0.1390 1.2214
v -1.1107 0.1390 1.2214
v -1.1107 0.0000 1.2214
v -1.1107 0.0000 1.2214
v -1.1107 0.1390 1.2214
v -1.1107 0.1390 0.8892
v -1.1107 0.0000 0.8892
v -0.8971 0.0000 0.8892
v -0.8971 0.1390 0.8892
v -0.8971 0.1390 1.2214
v -0.8971 0.0000 1.2214
v 1.4127 0.1371 -0.4858
v 1.6076 0.1371 -0.4858
v 1.6076 0.1371 -0.1462
v 1.4127 0.1371 -0.1462
v 1.4127 0.0000 -0.4858
v 1.4127 0.1371 -0.4858
v 1.6076 0.1371 -0.4858
v 1.6076 0.0000 -0.4858
v 1.6076 0.0000 -0.1462
v 1.6076 0.1371 -0.1462
v 1.4127 0.1371 -0.1462
v 1.4127 0.0000 -0.1462
v 1.4127 0.0000 -0.1462
v 1.4127 0.1371 -0.1462
v 1.4127 0.1371 -0.4858
v 1.4127 0.0000 -0.4858
v 1.6076 0.0000 -0.4858
v 1.6076 0.1371 -0.4858
v 1.6076 0.1371 -0.1462
v 1.6076 0.0000 -0.1462
v 0.2671 0.1222 -0.7567
v 0.5409 0.1222 -0.7567
v 0.5409 0.1222 -0.5829
v 0.2671 0.1222 -0.5829
v 0.2671 0.0000 -0.7567
v 0.2671 0.1222 -0.7567
v 0.5409 0.1222 -0.7567
v 0.5409 0.0000 -0.7567
v 0.5409 0.0000 -0.5829
v 0.5409 0.1222 -0.5829
v 0.2671 0.1222 -0.5829
v 0.2671 0.0000 -0.5829
v 0.2671 0.0000 -0.5829
v 0.2671 0.1222 -0.5829
v 0.2671 0.1222 -0.7567
v 0.2671 0.0000 -0.7567
v 0.5409 0.0000 -0.7567
v 0.5409 0.1222 -0.7567
v 0.5409 0.1222 -0.5829
v 0.5409 0.0000 -0.5829
v -0.9066 0.0767 -0.9611
v -0.7685 0.0767 -0.9611
v -0.7685 0.0767 -0.8201
v -0.9066 0.0767 -0.8201
v -0.9066 0.0000 -0.9611
v -0.9066 0.0767 -0.9611
v -0.7685 0.0767 -0.9611
v -0.7685 0.0000 -0.9611
v -0.7685 0.0000 -0.8201
v -0.7685 0.0767 -0.8201
v -0.9066 0.0767 -0.8201
v -0.9066 0.0000 -0.8201
v -0.9066 0.0000 -0.8201
v -0.9066 0.0767 -0.8201
v -0.9066 0.0767 -0.9611
v -0.9066 0.0000 -0.9611
v -0.7685 0.0000 -0.9611
v -0.7685 0.0767 -0.9611
v -0.7685 0.0767 -0.8201
v -0.7685 0.0000 -0.8201
v 1.4685 0.0928 0.3148
v 1.6491 0.0928 0.3148
v 1.6491 0.0928 0.5630
v 1.4685 0.0928 0.5630
v 1.4685 0.0000 0.3148
v 1.4685 0.0928 0.3148
v 1.6491 0.0928 0.3148
v 1.6491 0.0000 0.3148
v 1.6491 0.0000 0.5630
v 1.6491 0.0928 0.5630
v 1.4685 0.0928 0.5630
v 1.4685 0.0000 0.5630
v 1.4685 0.0000 0.5630
v 1.4685 0.0928 0.5630
v 1.4685 0.0928 0.3148
v 1.4685 0.0000 0.3148
v 1.6491 0.0000 0.3148
v 1.6491 0.0928 0.3148
v 1.6491 0.0928 0.5630
v 1.6491 0.0000 0.5630
v 1.1031 0.1060 0.7487
v 1.4048 0.1060 0.7487
v 1.4048 0.1060 0.9877
v 1.1031 0.1060 0.9877
v 1.1031 0.0000 0.7487
v 1.1031 0.1060 0.7487
v 1.4048 0.1060 0.7487
v 1.4048 0.0000 0.7487
v 1.4048 0.0000 0.9877
v 1.4048 0.1060 0.9877
v 1.1031 0.1060 0.9877
v 1.1031 0.0000 0.9877
v 1.1031 0.0000 0.9877
v 1.1031 0.1060 0.9877
v 1.1031 0.1060 0.7487
v 1.1031 0.0000 0.7487
v 1.4048 0.0000 0.7487
v 1.4048 0.1060 0.7487
v 1.4048 0.1060 0.9877
v 1.4048 0.0000 0.9877
v -1.8186 0.1617 -0.7543
v -1.5706 0.1617 -0.7543
v -1.5706 0.1617 -0.4373
v -1.8186 0.1617 -0.4373
v -1.8186 0.0000 -0.7543
v -1.8186 0.1617 -0.7543
v -1.5706 0.1617 -0.7543
v -1.5706 0.0000 -0.7543
v -1.5706 0.0000 -0.4373
v -1.5706 0.1617 -0.4373
v -1.8186 0.1617 -0.4373
v -1.8186 0.0000 -0.4373
v -1.8186 0.0000 -0.4373
v -1.8186 0.1617 -0.4373
v -1.8186 0.1617 -0.7543
v -1.8186 0.0000 -0.7543
v -1.5706 0.0000 -0.7543
v -1.5706 0.1617 -0.7543
v -1.5706 0.1617 -0.4373
v -1.5706 0.0000 -0.4373
v 0.7771 0.2121 0.6252
v 0.9443 0.2121 0.6252
v 0.9443 0.2121 0.9438
v 0.7771 0.2121 0.9438
v 0.7771 0.0000 0.6252
v 0.7771 0.2121 0.6252
v 0.9443 0.2121 0.6252
v 0.9443 0.0000 0.6252
v 0.9443 0.0000 0.9438
v 0.9443 0.2121 0.9438
v 0.7771 0.2121 0.9438
v 0.7771 0.0000 0.9438
v 0.7771 0.0000 0.9438
v 0.7771 0.2121 0.9438
v 0.7771 0.2121 0.6252
v 0.7771 0.0000 0.6252
v 0.9443 0.0000 0.6252
v 0.9443 0.2121 0.6252
v 0.9443 0.2121 0.9438
v 0.9443 0.0000 0.9438
v 1.7140 0.1930 -0.2626
v 1.9003 0.1930 -0.2626
v 1.9003 0.1930 -0.0053
v 1.7140 0.1930 -0.0053
v 1.7140 0.0000 -0.2626
v 1.7140 0.1930 -0.2626
v 1.9003 0.1930 -0.2626
v 1.9003 0.0000 -0.2626
v 1.9003 0.0000 -0.0053
v 1.9003 0.1930 -0.0053
v 1.7140 0.1930 -0.0053
v 1.7140 0.0000 -0.0053
v 1.7140 0.0000 -0.0053
v 1.7140 0.1930 -0.0053
v 1.7140 0.1930 -0.2626
v 1.7140 0.0000 -0.2626
v 1.9003 0.0000 -0.2626
v 1.9003 0.1930 -0.2626
v 1.9003 0.1930 -0.0053
v 1.9003 0.0000 -0.0053
v 0.2528 0.1959 -0.0632
v 0.5170 0.1959 -0.0632
v 0.5170 0.1959 0.1695
v 0.2528 0.1959 0.1695
v 0.2528 0.0000 -0.0632
v 0.2528 0.1959 -0.0632
v 0.5170 0.1959 -0.0632
v 0.5170 0.0000 -0.0632
v 0.5170 0.0000 0.1695
v 0.5170 0.1959 0.1695
v 0.2528 0.1959 0.1695
v 0.2528 0.0000 0.1695
v 0.2528 0.0000 0.1695
v 0.2528 0.1959 0.1695
v 0.2528 0.1959 -0.0632
v 0.2528 0.0000 -0.0632
v 0.5170 0.0000 -0.0632
v 0.5170 0.1959 -0.0632
v 0.5170 0.1959 0.1695
v 0.5170 0.0000 0.1695
v -0.7945 0.2195 -1.1509
v -0.6461 0.2195 -1.1509
v -0.6461 0.2195 -0.9888
v -0.7945 0.2195 -0.9888
v -0.7945 0.0000 -1.1509
v -0.7945 0.2195 -1.1509
v -0.6461 0.2195 -1.1509
v -0.6461 0.0000 -1.1509
v -0.6461 0.0000 -0.9888
v -0.6461 0.2195 -0.9888
v -0.7945 0.2195 -0.9888
v -0.7945 0.0000 -0.9888
v -0.7945 0.0000 -0.9888
v -0.7945 0.2195 -0.9888
v -0.7945 0.2195 -1.1509
v -0.7945 0.0000 -1.1509
v -0.6461 0.0000 -1.1509
v -0.6461 0.2195 -1.1509
v -0.6461 0.2195 -0.9888
v -0.6461 0.0000 -0.9888
v 1.5516 0.2283 -0.0761
v 1.8491 0.2283 -0.0761
v 1.8491 0.2283 0.1161
v 1.5516 0.2283 0.1161
v 1.5516 0.0000 -0.0761
v 1.5516 0.2283 -0.0761
v 1.8491 0.2283 -0.0761
v 1.8491 0.0000 -0.0761
v 1.8491 0.0000 0.1161
v 1.8491 0.2283 0.1161
v 1.5516 0.2283 0.1161
v 1.5516 0.0000 0.1161
v 1.5516 0.0000 0.1161
v 1.5516 0.2283 0.1161
v 1.5516 0.2283 -0.0761
v 1.5516 0.0000 -0.0761
v 1.8491 0.0000 -0.0761
v 1.8491 0.2283 -0.0761
v 1.8491 0.2283 0.1161
v 1.8491 0.0000 0.1161
v -0.7024 0.2224 0.5903
v -0.3770 0.2224 0.5903
v -0.3770 0.2224 0.7764
v -0.7024 0.2224 0.7764
v -0.7024 0.0000 0.5903
v -0.7024 0.2224 0.5903
v -0.3770 0.2224 0.5903
v -0.3770 0.0000 0.5903
v -0.3770 0.0000 0.7764
v -0.3770 0.2224 0.7764
v -0.7024 0.2224 0.7764
v -0.7024 0.0000 0.7764
v -0.7024 0.0000 0.7764
v -0.7024 0.2224 0.7764
v -0.7024 0.2224 0.5903
v -0.7024 0.0000 0.5903
v -0.3770 0.0000 0.5903
v -0.3770 0.2224 0.5903
v -0.3770 0.2224 0.7764
v -0.3770 0.0000 0.7764
v 0.9951 0.1395 0.0227
v 1.3136 0.1395 0.0227
v 1.3136 0.1395 0.2623
v 0.9951 0.1395 0.2623
v 0.9951 0.0000 0.0227
v 0.9951 0.1395 0.0227
v 1.3136 0.1395 0.0227
v 1.3136 0.0000 0.0227
v 1.3136 0.0000 0.2623
v 1.3136 0.1395 0.2623
v 0.9951 0.1395 0.2623
v 0.9951 0.0000 0.2623
v 0.9951 0.0000 0.2623
v 0.9951 0.1395 0.2623
v 0.9951 0.1395 0.0227
v 0.9951 0.0000 0.0227
v 1.3136 0.0000 0.0227
v 1.3136 0.1395 0.0227
v 1.3136 0.1395 0.2623
v 1.3136 0.0000 0.2623
vt 0.1364 0.2273
vt 0.8636 0.2273
vt 0.8636 0.7727
vt 0.1364 0.7727
vt 0.1364 0.0000
vt 0.8636 0.0000
vt 0.8636 0.0152
vt 0.1364 0.0152
vt 0.1364 0.0000
vt 0.8636 0.0000
vt 0.8636 0.0152
vt 0.1364 0.0152
vt 0.2273 0.0000
vt 0.7727 0.0000
vt 0.7727 0.0152
vt 0.2273 0.0152
vt 0.2273 0.0000
vt 0.7727 0.0000
vt 0.7727 0.0152
vt 0.2273 0.0152
vt 0.1364 0.0000
vt 0.2481 0.0000
vt 0.2481 0.1800
vt 0.1364 0.1800
vt 0.1364 0.0000
vt 0.2481 0.0000
vt 0.2481 0.1800
vt 0.1364 0.1800
vt 0.2273 0.0000
vt 0.3106 0.0000
vt 0.3106 0.1800
vt 0.2273 0.1800
vt 0.2273 0.0000
vt 0.3106 0.0000
vt 0.3106 0.1800
vt 0.2273 0.1800
vt 0.0000 0.0000
vt 0.1117 0.0000
vt 0.1117 0.0833
vt 0.0000 0.0833
vt 0.0000 0.0000
vt 0.1117 0.0000
vt 0.1117 0.2000
vt 0.0000 0.2000
vt 0.0000 0.0000
vt 0.1117 0.0000
vt 0.1117 0.2000
vt 0.0000 0.2000
vt 0.2481 0.0000
vt 0.3598 0.0000
vt 0.3598 0.2856
vt 0.2481 0.2856
vt 0.2481 0.0000
vt 0.3598 0.0000
vt 0.3598 0.2856
vt 0.2481 0.2856
vt 0.2273 0.0000
vt 0.3106 0.0000
vt 0.3106 0.2856
vt 0.2273 0.2856
vt 0.2273 0.0000
vt 0.3106 0.0000
vt 0.3106 0.2856
vt 0.2273 0.2856
vt 0.0000 0.0000
vt 0.1117 0.0000
vt 0.1117 0.0833
vt 0.0000 0.0833
vt 0.0000 0.0000
vt 0.1117 0.0000
vt 0.1117 0.2000
vt 0.0000 0.2000
vt 0.0000 0.0000
vt 0.1117 0.0000
vt 0.1117 0.2000
vt 0.0000 0.2000
vt 0.3598 0.0000
vt 0.4716 0.0000
vt 0.4716 0.1600
vt 0.3598 0.1600
vt 0.3598 0.0000
vt 0.4716 0.0000
vt 0.4716 0.1600
vt 0.3598 0.1600
vt 0.2273 0.0000
vt 0.3106 0.0000
vt 0.3106 0.1600
vt 0.2273 0.1600
vt 0.2273 0.0000
vt 0.3106 0.0000
vt 0.3106 0.1600
vt 0.2273 0.1600
vt 0.0000 0.0000
vt 0.1117 0.0000
vt 0.1117 0.0833
vt 0.0000 0.0833
vt 0.0000 0.0000
vt 0.1117 0.0000
vt 0.1117 0.2000
vt 0.0000 0.2000
vt 0.0000 0.0000
vt 0.1117 0.0000
vt 0.1117 0.2000
vt 0.0000 0.2000
vt 0.4716 0.0000
vt 0.5833 0.0000
vt 0.5833 0.2440
vt 0.4716 0.2440
vt 0.4716 0.0000
vt 0.5833 0.0000
vt 0.5833 0.2440
vt 0.4716 0.2440
vt 0.2273 0.0000
vt 0.3106 0.0000
vt 0.3106 0.2440
vt 0.2273 0.2440
vt 0.2273 0.0000
vt 0.3106 0.0000
vt 0.3106 0.2440
vt 0.2273 0.2440
vt 0.0000 0.0000
vt 0.1117 0.0000
vt 0.1117 0.0833
vt 0.0000 0.0833
vt 0.0000 0.0000
vt 0.1117 0.0000
vt 0.1117 0.2000
vt 0.0000 0.2000
vt 0.0000 0.0000
vt 0.1117 0.0000
vt 0.1117 0.2000
vt 0.0000 0.2000
vt 0.6894 0.0000
vt 0.7765 0.0000
vt 0.7765 0.1919
vt 0.6894 0.1919
vt 0.6894 0.0000
vt 0.7765 0.0000
vt 0.7765 0.1919
vt 0.6894 0.1919
vt 0.2273 0.0000
vt 0.3106 0.0000
vt 0.3106 0.1919
vt 0.2273 0.1919
vt 0.2273 0.0000
vt 0.3106 0.0000
vt 0.3106 0.1919
vt 0.2273 0.1919
vt 0.0000 0.0000
vt 0.0871 0.0000
vt 0.0871 0.0833
vt 0.0000 0.0833
vt 0.0000 0.0000
vt 0.0871 0.0000
vt 0.0871 0.2000
vt 0.0000 0.2000
vt 0.0000 0.0000
vt 0.0871 0.0000
vt 0.0871 0.2000
vt 0.0000 0.2000
vt 0.7765 0.0000
vt 0.8636 0.0000
vt 0.8636 0.0945
vt 0.7765 0.0945
vt 0.7765 0.0000
vt 0.8636 0.0000
vt 0.8636 0.0945
vt 0.7765 0.0945
vt 0.2273 0.0000
vt 0.3106 0.0000
vt 0.3106 0.0945
vt 0.2273 0.0945
vt 0.2273 0.0000
vt 0.3106 0.0000
vt 0.3106 0.0945
vt 0.2273 0.0945
vt 0.0000 0.0000
vt 0.0871 0.0000
vt 0.0871 0.0833
vt 0.0000 0.0833
vt 0.0000 0.0000
vt 0.0871 0.0000
vt 0.0871 0.2000
vt 0.0000 0.2000
vt 0.0000 0.0000
vt 0.0871 0.0000
vt 0.0871 0.2000
vt 0.0000 0.2000
vt 0.1364 0.0000
vt 0.2146 0.0000
vt 0.2146 0.1736
vt 0.1364 0.1736
vt 0.1364 0.0000
vt 0.2146 0.0000
vt 0.2146 0.1736
vt 0.1364 0.1736
vt 0.6894 0.0000
vt 0.7727 0.0000
vt 0.7727 0.1736
vt 0.6894 0.1736
vt 0.6894 0.0000
vt 0.7727 0.0000
vt 0.7727 0.1736
vt 0.6894 0.1736
vt 0.0000 0.0000
vt 0.0783 0.0000
vt 0.0783 0.0833
vt 0.0000 0.0833
vt 0.0000 0.0000
vt 0.0783 0.0000
vt 0.0783 0.2000
vt 0.0000 0.2000
vt 0.0000 0.0000
vt 0.0783 0.0000
vt 0.0783 0.2000
vt 0.0000 0.2000
vt 0.2146 0.0000
vt 0.2929 0.0000
vt 0.2929 0.1896
vt 0.2146 0.1896
vt 0.2146 0.0000
vt 0.2929 0.0000
vt 0.2929 0.1896
vt 0.2146 0.1896
vt 0.6894 0.0000
vt 0.7727 0.0000
vt 0.7727 0.1896
vt 0.6894 0.1896
vt 0.6894 0.0000
vt 0.7727 0.0000
vt 0.7727 0.1896
vt 0.6894 0.1896
vt 0.0000 0.0000
vt 0.0783 0.0000
vt 0.0783 0.0833
vt 0.0000 0.0833
vt 0.0000 0.0000
vt 0.0783 0.0000
vt 0.0783 0.2000
vt 0.0000 0.2000
vt 0.0000 0.0000
vt 0.0783 0.0000
vt 0.0783 0.2000
vt 0.0000 0.2000
vt 0.2929 0.0000
vt 0.3712 0.0000
vt 0.3712 0.2466
vt 0.2929 0.2466
vt 0.2929 0.0000
vt 0.3712 0.0000
vt 0.3712 0.2466
vt 0.2929 0.2466
vt 0.6894 0.0000
vt 0.7727 0.0000
vt 0.7727 0.2466
vt 0.6894 0.2466
vt 0.6894 0.0000
vt 0.7727 0.0000
vt 0.7727 0.2466
vt 0.6894 0.2466
vt 0.0000 0.0000
vt 0.0783 0.0000
vt 0.0783 0.0833
vt 0.0000 0.0833
vt 0.0000 0.0000
vt 0.0783 0.0000
vt 0.0783 0.2000
vt 0.0000 0.2000
vt 0.0000 0.0000
vt 0.0783 0.0000
vt 0.0783 0.2000
vt 0.0000 0.2000
vt 0.5530 0.0000
vt 0.6566 0.0000
vt 0.6566 0.2454
vt 0.5530 0.2454
vt 0.5530 0.0000
vt 0.6566 0.0000
vt 0.6566 0.2454
vt 0.5530 0.2454
vt 0.6894 0.0000
vt 0.7727 0.0000
vt 0.7727 0.2454
vt 0.6894 0.2454
vt 0.6894 0.0000
vt 0.7727 0.0000
vt 0.7727 0.2454
vt 0.6894 0.2454
vt 0.0000 0.0000
vt 0.1035 0.0000
vt 0.1035 0.0833
vt 0.0000 0.0833
vt 0.0000 0.0000
vt 0.1035 0.0000
vt 0.1035 0.2000
vt 0.0000 0.2000
vt 0.0000 0.0000
vt 0.1035 0.0000
vt 0.1035 0.2000
vt 0.0000 0.2000
vt 0.6566 0.0000
vt 0.7601 0.0000
vt 0.7601 0.3629
vt 0.6566 0.3629
vt 0.6566 0.0000
vt 0.7601 0.0000
vt 0.7601 0.3629
vt 0.6566 0.3629
vt 0.6894 0.0000
vt 0.7727 0.0000
vt 0.7727 0.3629
vt 0.6894 0.3629
vt 0.6894 0.0000
vt 0.7727 0.0000
vt 0.7727 0.3629
vt 0.6894 0.3629
vt 0.0000 0.0000
vt 0.1035 0.0000
vt 0.1035 0.0833
vt 0.0000 0.0833
vt 0.0000 0.0000
vt 0.1035 0.0000
vt 0.1035 0.2000
vt 0.0000 0.2000
vt 0.0000 0.0000
vt 0.1035 0.0000
vt 0.1035 0.2000
vt 0.0000 0.2000
vt 0.7601 0.0000
vt 0.8636 0.0000
vt 0.8636 0.2604
vt 0.7601 0.2604
vt 0.7601 0.0000
vt 0.8636 0.0000
vt 0.8636 0.2604
vt 0.7601 0.2604
vt 0.6894 0.0000
vt 0.7727 0.0000
vt 0.7727 0.2604
vt 0.6894 0.2604
vt 0.6894 0.0000
vt 0.7727 0.0000
vt 0.7727 0.2604
vt 0.6894 0.2604
vt 0.0000 0.0000
vt 0.1035 0.0000
vt 0.1035 0.0833
vt 0.0000 0.0833
vt 0.0000 0.0000
vt 0.1035 0.0000
vt 0.1035 0.2000
vt 0.0000 0.2000
vt 0.0000 0.0000
vt 0.1035 0.0000
vt 0.1035 0.2000
vt 0.0000 0.2000
vt 0.1364 0.0000
vt 0.2197 0.0000
vt 0.2197 0.1638
vt 0.1364 0.1638
vt 0.1364 0.0000
vt 0.2197 0.0000
vt 0.2197 0.1638
vt 0.1364 0.1638
vt 0.3106 0.0000
vt 0.4040 0.0000
vt 0.4040 0.1638
vt 0.3106 0.1638
vt 0.3106 0.0000
vt 0.4040 0.0000
vt 0.4040 0.1638
vt 0.3106 0.1638
vt 0.0000 0.0000
vt 0.0833 0.0000
vt 0.0833 0.0934
vt 0.0000 0.0934
vt 0.0000 0.0000
vt 0.0934 0.0000
vt 0.0934 0.2000
vt 0.0000 0.2000
vt 0.0000 0.0000
vt 0.0934 0.0000
vt 0.0934 0.2000
vt 0.0000 0.2000
vt 0.1364 0.0000
vt 0.2197 0.0000
vt 0.2197 0.2827
vt 0.1364 0.2827
vt 0.1364 0.0000
vt 0.2197 0.0000
vt 0.2197 0.2827
vt 0.1364 0.2827
vt 0.4040 0.0000
vt 0.4975 0.0000
vt 0.4975 0.2827
vt 0.4040 0.2827
vt 0.4040 0.0000
vt 0.4975 0.0000
vt 0.4975 0.2827
vt 0.4040 0.2827
vt 0.0000 0.0000
vt 0.0833 0.0000
vt 0.0833 0.0934
vt 0.0000 0.0934
vt 0.0000 0.0000
vt 0.0934 0.0000
vt 0.0934 0.2000
vt 0.0000 0.2000
vt 0.0000 0.0000
vt 0.0934 0.0000
vt 0.0934 0.2000
vt 0.0000 0.2000
vt 0.1364 0.0000
vt 0.2197 0.0000
vt 0.2197 0.1900
vt 0.1364 0.1900
vt 0.1364 0.0000
vt 0.2197 0.0000
vt 0.2197 0.1900
vt 0.1364 0.1900
vt 0.4975 0.0000
vt 0.5909 0.0000
vt 0.5909 0.1900
vt 0.4975 0.1900
vt 0.4975 0.0000
vt 0.5909 0.0000
vt 0.5909 0.1900
vt 0.4975 0.1900
vt 0.0000 0.0000
vt 0.0833 0.0000
vt 0.0833 0.0934
vt 0.0000 0.0934
vt 0.0000 0.0000
vt 0.0934 0.0000
vt 0.0934 0.2000
vt 0.0000 0.2000
vt 0.0000 0.0000
vt 0.0934 0.0000
vt 0.0934 0.2000
vt 0.0000 0.2000
vt 0.7803 0.0000
vt 0.8636 0.0000
vt 0.8636 0.1106
vt 0.7803 0.1106
vt 0.7803 0.0000
vt 0.8636 0.0000
vt 0.8636 0.1106
vt 0.7803 0.1106
vt 0.3939 0.0000
vt 0.4924 0.0000
vt 0.4924 0.1106
vt 0.3939 0.1106
vt 0.3939 0.0000
vt 0.4924 0.0000
vt 0.4924 0.1106
vt 0.3939 0.1106
vt 0.0000 0.0000
vt 0.0833 0.0000
vt 0.0833 0.0985
vt 0.0000 0.0985
vt 0.0000 0.0000
vt 0.0985 0.0000
vt 0.0985 0.2000
vt 0.0000 0.2000
vt 0.0000 0.0000
vt 0.0985 0.0000
vt 0.0985 0.2000
vt 0.0000 0.2000
vt 0.7803 0.0000
vt 0.8636 0.0000
vt 0.8636 0.1937
vt 0.7803 0.1937
vt 0.7803 0.0000
vt 0.8636 0.0000
vt 0.8636 0.1937
vt 0.7803 0.1937
vt 0.4924 0.0000
vt 0.5909 0.0000
vt 0.5909 0.1937
vt 0.4924 0.1937
vt 0.4924 0.0000
vt 0.5909 0.0000
vt 0.5909 0.1937
vt 0.4924 0.1937
vt 0.0000 0.0000
vt 0.0833 0.0000
vt 0.0833 0.0985
vt 0.0000 0.0985
vt 0.0000 0.0000
vt 0.0985 0.0000
vt 0.0985 0.2000
vt 0.0000 0.2000
vt 0.0000 0.0000
vt 0.0985 0.0000
vt 0.0985 0.2000
vt 0.0000 0.2000
vt 0.7803 0.0000
vt 0.8636 0.0000
vt 0.8636 0.1502
vt 0.7803 0.1502
vt 0.7803 0.0000
vt 0.8636 0.0000
vt 0.8636 0.1502
vt 0.7803 0.1502
vt 0.5909 0.0000
vt 0.6894 0.0000
vt 0.6894 0.1502
vt 0.5909 0.1502
vt 0.5909 0.0000
vt 0.6894 0.0000
vt 0.6894 0.1502
vt 0.5909 0.1502
vt 0.0000 0.0000
vt 0.0833 0.0000
vt 0.0833 0.0985
vt 0.0000 0.0985
vt 0.0000 0.0000
vt 0.0985 0.0000
vt 0.0985 0.2000
vt 0.0000 0.2000
vt 0.0000 0.0000
vt 0.0985 0.0000
vt 0.0985 0.2000
vt 0.0000 0.2000
vt 0.4091 0.0000
vt 0.5101 0.0000
vt 0.5101 0.1517
vt 0.4091 0.1517
vt 0.4091 0.0000
vt 0.5101 0.0000
vt 0.5101 0.1517
vt 0.4091 0.1517
vt 0.4394 0.0000
vt 0.5061 0.0000
vt 0.5061 0.1517
vt 0.4394 0.1517
vt 0.4394 0.0000
vt 0.5061 0.0000
vt 0.5061 0.1517
vt 0.4394 0.1517
vt 0.0000 0.0000
vt 0.1010 0.0000
vt 0.1010 0.0667
vt 0.0000 0.0667
vt 0.0000 0.0000
vt 0.1010 0.0000
vt 0.1010 0.2000
vt 0.0000 0.2000
vt 0.0000 0.0000
vt 0.1010 0.0000
vt 0.1010 0.2000
vt 0.0000 0.2000
vt 0.5101 0.0000
vt 0.6111 0.0000
vt 0.6111 0.0821
vt 0.5101 0.0821
vt 0.5101 0.0000
vt 0.6111 0.0000
vt 0.6111 0.0821
vt 0.5101 0.0821
vt 0.4394 0.0000
vt 0.5061 0.0000
vt 0.5061 0.0821
vt 0.4394 0.0821
vt 0.4394 0.0000
vt 0.5061 0.0000
vt 0.5061 0.0821
vt 0.4394 0.0821
vt 0.0000 0.0000
vt 0.1010 0.0000
vt 0.1010 0.0667
vt 0.0000 0.0667
vt 0.0000 0.0000
vt 0.1010 0.0000
vt 0.1010 0.2000
vt 0.0000 0.2000
vt 0.0000 0.0000
vt 0.1010 0.0000
vt 0.1010 0.2000
vt 0.0000 0.2000
vt 0.6111 0.0000
vt 0.7121 0.0000
vt 0.7121 0.1062
vt 0.6111 0.1062
vt 0.6111 0.0000
vt 0.7121 0.0000
vt 0.7121 0.1062
vt 0.6111 0.1062
vt 0.4394 0.0000
vt 0.5061 0.0000
vt 0.5061 0.1062
vt 0.4394 0.1062
vt 0.4394 0.0000
vt 0.5061 0.0000
vt 0.5061 0.1062
vt 0.4394 0.1062
vt 0.0000 0.0000
vt 0.1010 0.0000
vt 0.1010 0.0667
vt 0.0000 0.0667
vt 0.0000 0.0000
vt 0.1010 0.0000
vt 0.1010 0.2000
vt 0.0000 0.2000
vt 0.0000 0.0000
vt 0.1010 0.0000
vt 0.1010 0.2000
vt 0.0000 0.2000
vt 0.3317 0.6347
vt 0.3641 0.6347
vt 0.3641 0.6851
vt 0.3317 0.6851
vt 0.3317 0.0000
vt 0.3641 0.0000
vt 0.3641 0.0211
vt 0.3317 0.0211
vt 0.3317 0.0000
vt 0.3641 0.0000
vt 0.3641 0.0211
vt 0.3317 0.0211
vt 0.6347 0.0000
vt 0.6851 0.0000
vt 0.6851 0.0211
vt 0.6347 0.0211
vt 0.6347 0.0000
vt 0.6851 0.0000
vt 0.6851 0.0211
vt 0.6347 0.0211
vt 0.7141 0.4264
vt 0.7436 0.4264
vt 0.7436 0.4778
vt 0.7141 0.4778
vt 0.7141 0.0000
vt 0.7436 0.0000
vt 0.7436 0.0208
vt 0.7141 0.0208
vt 0.7141 0.0000
vt 0.7436 0.0000
vt 0.7436 0.0208
vt 0.7141 0.0208
vt 0.4264 0.0000
vt 0.4778 0.0000
vt 0.4778 0.0208
vt 0.4264 0.0208
vt 0.4264 0.0000
vt 0.4778 0.0000
vt 0.4778 0.0208
vt 0.4264 0.0208
vt 0.5405 0.3853
vt 0.5820 0.3853
vt 0.5820 0.4117
vt 0.5405 0.4117
vt 0.5405 0.0000
vt 0.5820 0.0000
vt 0.5820 0.0185
vt 0.5405 0.0185
vt 0.5405 0.0000
vt 0.5820 0.0000
vt 0.5820 0.0185
vt 0.5405 0.0185
vt 0.3853 0.0000
vt 0.4117 0.0000
vt 0.4117 0.0185
vt 0.3853 0.0185
vt 0.3853 0.0000
vt 0.4117 0.0000
vt 0.4117 0.0185
vt 0.3853 0.0185
vt 0.3626 0.3544
vt 0.3836 0.3544
vt 0.3836 0.3757
vt 0.3626 0.3757
vt 0.3626 0.0000
vt 0.3836 0.0000
vt 0.3836 0.0116
vt 0.3626 0.0116
vt 0.3626 0.0000
vt 0.3836 0.0000
vt 0.3836 0.0116
vt 0.3626 0.0116
vt 0.3544 0.0000
vt 0.3757 0.0000
vt 0.3757 0.0116
vt 0.3544 0.0116
vt 0.3544 0.0000
vt 0.3757 0.0000
vt 0.3757 0.0116
vt 0.3544 0.0116
vt 0.7225 0.5477
vt 0.7499 0.5477
vt 0.7499 0.5853
vt 0.7225 0.5853
vt 0.7225 0.0000
vt 0.7499 0.0000
vt 0.7499 0.0141
vt 0.7225 0.0141
vt 0.7225 0.0000
vt 0.7499 0.0000
vt 0.7499 0.0141
vt 0.7225 0.0141
vt 0.5477 0.0000
vt 0.5853 0.0000
vt 0.5853 0.0141
vt 0.5477 0.0141
vt 0.5477 0.0000
vt 0.5853 0.0000
vt 0.5853 0.0141
vt 0.5477 0.0141
vt 0.6671 0.6134
vt 0.7128 0.6134
vt 0.7128 0.6496
vt 0.6671 0.6496
vt 0.6671 0.0000
vt 0.7128 0.0000
vt 0.7128 0.0161
vt 0.6671 0.0161
vt 0.6671 0.0000
vt 0.7128 0.0000
vt 0.7128 0.0161
vt 0.6671 0.0161
vt 0.6134 0.0000
vt 0.6496 0.0000
vt 0.6496 0.0161
vt 0.6134 0.0161
vt 0.6134 0.0000
vt 0.6496 0.0000
vt 0.6496 0.0161
vt 0.6134 0.0161
vt 0.2245 0.3857
vt 0.2620 0.3857
vt 0.2620 0.4337
vt 0.2245 0.4337
vt 0.2245 0.0000
vt 0.2620 0.0000
vt 0.2620 0.0245
vt 0.2245 0.0245
vt 0.2245 0.0000
vt 0.2620 0.0000
vt 0.2620 0.0245
vt 0.2245 0.0245
vt 0.3857 0.0000
vt 0.4337 0.0000
vt 0.4337 0.0245
vt 0.3857 0.0245
vt 0.3857 0.0000
vt 0.4337 0.0000
vt 0.4337 0.0245
vt 0.3857 0.0245
vt 0.6177 0.5947
vt 0.6431 0.5947
vt 0.6431 0.6430
vt 0.6177 0.6430
vt 0.6177 0.0000
vt 0.6431 0.0000
vt 0.6431 0.0321
vt 0.6177 0.0321
vt 0.6177 0.0000
vt 0.6431 0.0000
vt 0.6431 0.0321
vt 0.6177 0.0321
vt 0.5947 0.0000
vt 0.6430 0.0000
vt 0.6430 0.0321
vt 0.5947 0.0321
vt 0.5947 0.0000
vt 0.6430 0.0000
vt 0.6430 0.0321
vt 0.5947 0.0321
vt 0.7597 0.4602
vt 0.7879 0.4602
vt 0.7879 0.4992
vt 0.7597 0.4992
vt 0.7597 0.0000
vt 0.7879 0.0000
vt 0.7879 0.0292
vt 0.7597 0.0292
vt 0.7597 0.0000
vt 0.7879 0.0000
vt 0.7879 0.0292
vt 0.7597 0.0292
vt 0.4602 0.0000
vt 0.4992 0.0000
vt 0.4992 0.0292
vt 0.4602 0.0292
vt 0.4602 0.0000
vt 0.4992 0.0000
vt 0.4992 0.0292
vt 0.4602 0.0292
vt 0.5383 0.4904
vt 0.5783 0.4904
vt 0.5783 0.5257
vt 0.5383 0.5257
vt 0.5383 0.0000
vt 0.5783 0.0000
vt 0.5783 0.0297
vt 0.5383 0.0297
vt 0.5383 0.0000
vt 0.5783 0.0000
vt 0.5783 0.0297
vt 0.5383 0.0297
vt 0.4904 0.0000
vt 0.5257 0.0000
vt 0.5257 0.0297
vt 0.4904 0.0297
vt 0.4904 0.0000
vt 0.5257 0.0000
vt 0.5257 0.0297
vt 0.4904 0.0297
vt 0.3796 0.3256
vt 0.4021 0.3256
vt 0.4021 0.3502
vt 0.3796 0.3502
vt 0.3796 0.0000
vt 0.4021 0.0000
vt 0.4021 0.0333
vt 0.3796 0.0333
vt 0.3796 0.0000
vt 0.4021 0.0000
vt 0.4021 0.0333
vt 0.3796 0.0333
vt 0.3256 0.0000
vt 0.3502 0.0000
vt 0.3502 0.0333
vt 0.3256 0.0333
vt 0.3256 0.0000
vt 0.3502 0.0000
vt 0.3502 0.0333
vt 0.3256 0.0333
vt 0.7351 0.4885
vt 0.7802 0.4885
vt 0.7802 0.5176
vt 0.7351 0.5176
vt 0.7351 0.0000
vt 0.7802 0.0000
vt 0.7802 0.0346
vt 0.7351 0.0346
vt 0.7351 0.0000
vt 0.7802 0.0000
vt 0.7802 0.0346
vt 0.7351 0.0346
vt 0.4885 0.0000
vt 0.5176 0.0000
vt 0.5176 0.0346
vt 0.4885 0.0346
vt 0.4885 0.0000
vt 0.5176 0.0000
vt 0.5176 0.0346
vt 0.4885 0.0346
vt 0.3936 0.5894
vt 0.4429 0.5894
vt 0.4429 0.6176
vt 0.3936 0.6176
vt 0.3936 0.0000
vt 0.4429 0.0000
vt 0.4429 0.0337
vt 0.3936 0.0337
vt 0.3936 0.0000
vt 0.4429 0.0000
vt 0.4429 0.0337
vt 0.3936 0.0337
vt 0.5894 0.0000
vt 0.6176 0.0000
vt 0.6176 0.0337
vt 0.5894 0.0337
vt 0.5894 0.0000
vt 0.6176 0.0000
vt 0.6176 0.0337
vt 0.5894 0.0337
vt 0.6508 0.5034
vt 0.6990 0.5034
vt 0.6990 0.5397
vt 0.6508 0.5397
vt 0.6508 0.0000
vt 0.6990 0.0000
vt 0.6990 0.0211
vt 0.6508 0.0211
vt 0.6508 0.0000
vt 0.6990 0.0000
vt 0.6990 0.0211
vt 0.6508 0.0211
vt 0.5034 0.0000
vt 0.5397 0.0000
vt 0.5397 0.0211
vt 0.5034 0.0211
vt 0.5034 0.0000
vt 0.5397 0.0000
vt 0.5397 0.0211
vt 0.5034 0.0211
f 1/1 2/2 3/3
f 1/1 3/3 2/2
f 1/1 3/3 4/4
f 1/1 4/4 3/3
f 5/5 6/6 7/7
f 5/5 7/7 6/6
f 5/5 7/7 8/8
f 5/5 8/8 7/7
f 9/9 10/10 11/11
f 9/9 11/11 10/10
f 9/9 11/11 12/12
f 9/9 12/12 11/11
f 13/13 14/14 15/15
f 13/13 15/15 14/14
f 13/13 15/15 16/16
f 13/13 16/16 15/15
f 17/17 18/18 19/19
f 17/17 19/19 18/18
f 17/17 19/19 20/20
f 17/17 20/20 19/19
f 21/21 22/22 23/23
f 21/21 23/23 22/22
f 21/21 23/23 24/24
f 21/21 24/24 23/23
f 25/25 26/26 27/27
f 25/25 27/27 26/26
f 25/25 27/27 28/28
f 25/25 28/28 27/27
f 29/29 30/30 31/31
f 29/29 31/31 30/30
f 29/29 31/31 32/32
f 29/29 32/32 31/31
f 33/33 34/34 35/35
f 33/33 35/35 34/34
f 33/33 35/35 36/36
f 33/33 36/36 35/35
f 37/37 38/38 39/39
f 37/37 39/39 38/38
f 37/37 39/39 40/40
f 37/37 40/40 39/39
f 41/41 42/42 43/43
f 41/41 43/43 42/42
f 41/41 43/43 44/44
f 41/41 44/44 43/43
f 45/45 46/46 47/47
f 45/45 47/47 46/46
f 45/45 47/47 48/48
f 45/45 48/48 47/47
f 49/49 50/50 51/51
f 49/49 51/51 50/50
f 49/49 51/51 52/52
f 49/49 52/52 51/51
f 53/53 54/54 55/55
f 53/53 55/55 54/54
f 53/53 55/55 56/56
f 53/53 56/56 55/55
f 57/57 58/58 59/59
f 57/57 59/59 58/58
f 57/57 59/59 60/60
f 57/57 60/60 59/59
f 61/61 62/62 63/63
f 61/61 63/63 62/62
f 61/61 63/63 64/64
f 61/61 64/64 63/63
f 65/65 66/66 67/67
f 65/65 67/67 66/66
f 65/65 67/67 68/68
f 65/65 68/68 67/67
f 69/69 70/70 71/71
f 69/69 71/71 70/70
f 69/69 71/71 72/72
f 69/69 72/72 71/71
f 73/73 74/74 75/75
f 73/73 75/75 74/74
f 73/73 75/75 76/76
f 73/73 76/76 75/75
f 77/77 78/78 79/79
f 77/77 79/79 78/78
f 77/77 79/79 80/80
f 77/77 80/80 79/79
f 81/81 82/82 83/83
f 81/81 83/83 82/82
f 81/81 83/83 84/84
f 81/81 84/84 83/83
f 85/85 86/86 87/87
f 85/85 87/87 86/86
f 85/85 87/87 88/88
f 85/85 88/88 87/87
f 89/89 90/90 91/91
f 89/89 91/91 90/90
f 89/89 91/91 92/92
f 89/89 92/92 91/91
f 93/93 94/94 95/95
f 93/93 95/95 94/94
f 93/93 95/95 96/96
f 93/93 96/96 95/95
f 97/97 98/98 99/99
f 97/97 99/99 98/98
f 97/97 99/99 100/100
f 97/97 100/100 99/99
f 101/101 102/102 103/103
f 101/101 103/103 102/102
f 101/101 103/103 104/104
f 101/101 104/104 103/103
f 105/105 106/106 107/107
f 105/105 107/107 106/106
f 105/105 107/107 108/108
f 105/105 108/108 107/107
f 109/109 110/110 111/111
f 109/109 111/111 110/110
f 109/109 111/111 112/112
f 109/109 112/112 111/111
f 113/113 114/114 115/115
f 113/113 115/115 114/114
f 113/113 115/115 116/116
f 113/113 116/116 115/115
f 117/117 118/118 119/119
f 117/117 119/119 118/118
f 117/117 119/119 120/120
f 117/117 120/120 119/119
f 121/121 122/122 123/123
f 121/121 123/123 122/122
f 121/121 123/123 124/124
f 121/121 124/124 123/123
f 125/125 126/126 127/127
f 125/125 127/127 126/126
f 125/125 127/127 128/128
f 125/125 128/128 127/127
f 129/129 130/130 131/131
f 129/129 131/131 130/130
f 129/129 131/131 132/132
f 129/129 132/132 131/131
f 133/133 134/134 135/135
f 133/133 135/135 134/134
f 133/133 135/135 136/136
f 133/133 136/136 135/135
f 137/137 138/138 139/139
f 137/137 139/139 138/138
f 137/137 139/139 140/140
f 137/137 140/140 139/139
f 141/141 142/142 143/143
f 141/141 143/143 142/142
f 141/141 143/143 144/144
f 141/141 144/144 143/143
f 145/145 146/146 147/147
f 145/145 147/147 146/146
f 145/145 147/147 148/148
f 145/145 148/148 147/147
f 149/149 150/150 151/151
f 149/149 151/151 150/150
f 149/149 151/151 152/152
f 149/149 152/152 151/151
f 153/153 154/154 155/155
f 153/153 155/155 154/154
f 153/153 155/155 156/156
f 153/153 156/156 155/155
f 157/157 158/158 159/159
f 157/157 159/159 158/158
f 157/157 159/159 160/160
f 157/157 160/160 159/159
f 161/161 162/162 163/163
f 161/161 163/163 162/162
f 161/161 163/163 164/164
f 161/161 164/164 163/163
f 165/165 166/166 167/167
f 165/165 167/167 166/166
f 165/165 167/167 168/168
f 165/165 168/168 167/167
f 169/169 170/170 171/171
f 169/169 171/171 170/170
f 169/169 171/171 172/172
f 169/169 172/172 171/171
f 173/173 174/174 175/175
f 173/173 175/175 174/174
f 173/173 175/175 176/176
f 173/173 176/176 175/175
f 177/177 178/178 179/179
f 177/177 179/179 178/178
f 177/177 179/179 180/180
f 177/177 180/180 179/179
f 181/181 182/182 183/183
f 181/181 183/183 182/182
f 181/181 183/183 184/184
f 181/181 184/184 183/183
f 185/185 186/186 187/187
f 185/185 187/187 186/186
f 185/185 187/187 188/188
f 185/185 188/188 187/187
f 189/189 190/190 191/191
f 189/189 191/191 190/190
f 189/189 191/191 192/192
f 189/189 192/192 191/191
f 193/193 194/194 195/195
f 193/193 195/195 194/194
f 193/193 195/195 196/196
f 193/193 196/196 195/195
f 197/197 198/198 199/199
f 197/197 199/199 198/198
f 197/197 199/199 200/200
f 197/197 200/200 199/199
f 201/201 202/202 203/203
f 201/201 203/203 202/202
f 201/201 203/203 204/204
f 201/201 204/204 203/203
f 205/205 206/206 207/207
f 205/205 207/207 206/206
f 205/205 207/207 208/208
f 205/205 208/208 207/207
f 209/209 210/210 211/211
f 209/209 211/211 210/210
f 209/209 211/211 212/212
f 209/209 212/212 211/211
f 213/213 214/214 215/215
f 213/213 215/215 214/214
f 213/213 215/215 216/216
f 213/213 216/216 215/215
f 217/217 218/218 219/219
f 217/217 219/219 218/218
f 217/217 219/219 220/220
f 217/217 220/220 219/219
f 221/221 222/222 223/223
f 221/221 223/223 222/222
f 221/221 223/223 224/224
f 221/221 224/224 223/223
f 225/225 226/226 227/227
f 225/225 227/227 226/226
f 225/225 227/227 228/228
f 225/225 228/228 227/227
f 229/229 230/230 231/231
f 229/229 231/231 230/230
f 229/229 231/231 232/232
f 229/229 232/232 231/231
f 233/233 234/234 235/235
f 233/233 235/235 234/234
f 233/233 235/235 236/236
f 233/233 236/236 235/235
f 237/237 238/238 239/239
f 237/237 239/239 238/238
f 237/237 239/239 240/240
f 237/237 240/240 239/239
f 241/241 242/242 243/243
f 241/241 243/243 242/242
f 241/241 243/243 244/244
f 241/241 244/244 243/243
f 245/245 246/246 247/247
f 245/245 247/247 246/246
f 245/245 247/247 248/248
f 245/245 248/248 247/247
f 249/249 250/250 251/251
f 249/249 251/251 250/250
f 249/249 251/251 252/252
f 249/249 252/252 251/251
f 253/253 254/254 255/255
f 253/253 255/255 254/254
f 253/253 255/255 256/256
f 253/253 256/256 255/255
f 257/257 258/258 259/259
f 257/257 259/259 258/258
f 257/257 259/259 260/260
f 257/257 260/260 259/259
f 261/261 262/262 263/263
f 261/261 263/263 262/262
f 261/261 263/263 264/264
f 261/261 264/264 263/263
f 265/265 266/266 267/267
f 265/265 267/267 266/266
f 265/265 267/267 268/268
f 265/265 268/268 267/267
f 269/269 270/270 271/271
f 269/269 271/271 270/270
f 269/269 271/271 272/272
f 269/269 272/272 271/271
f 273/273 274/274 275/275
f 273/273 275/275 274/274
f 273/273 275/275 276/276
f 273/273 276/276 275/275
f 277/277 278/278 279/279
f 277/277 279/279 278/278
f 277/277 279/279 280/280
f 277/277 280/280 279/279
f 281/281 282/282 283/283
f 281/281 283/283 282/282
f 281/281 283/283 284/284
f 281/281 284/284 283/283
f 285/285 286/286 287/287
f 285/285 287/287 286/286
f 285/285 287/287 288/288
f 285/285 288/288 287/287
f 289/289 290/290 291/291
f 289/289 291/291 290/290
f 289/289 291/291 292/292
f 289/289 292/292 291/291
f 293/293 294/294 295/295
f 293/293 295/295 294/294
f 293/293 295/295 296/296
f 293/293 296/296 295/295
f 297/297 298/298 299/299
f 297/297 299/299 298/298
f 297/297 299/299 300/300
f 297/297 300/300 299/299
f 301/301 302/302 303/303
f 301/301 303/303 302/302
f 301/301 303/303 304/304
f 301/301 304/304 303/303
f 305/305 306/306 307/307
f 305/305 307/307 306/306
f 305/305 307/307 308/308
f 305/305 308/308 307/307
f 309/309 310/310 311/311
f 309/309 311/311 310/310
f 309/309 311/311 312/312
f 309/309 312/312 311/311
f 313/313 314/314 315/315
f 313/313 315/315 314/314
f 313/313 315/315 316/316
f 313/313 316/316 315/315
f 317/317 318/318 319/319
f 317/317 319/319 318/318
f 317/317 319/319 320/320
f 317/317 320/320 319/319
f 321/321 322/322 323/323
f 321/321 323/323 322/322
f 321/321 323/323 324/324
f 321/321 324/324 323/323
f 325/325 326/326 327/327
f 325/325 327/327 326/326
f 325/325 327/327 328/328
f 325/325 328/328 327/327
f 329/329 330/330 331/331
f 329/329 331/331 330/330
f 329/329 331/331 332/332
f 329/329 332/332 331/331
f 333/333 334/334 335/335
f 333/333 335/335 334/334
f 333/333 335/335 336/336
f 333/333 336/336 335/335
f 337/337 338/338 339/339
f 337/337 339/339 338/338
f 337/337 339/339 340/340
f 337/337 340/340 339/339
f 341/341 342/342 343/343
f 341/341 343/343 342/342
f 341/341 343/343 344/344
f 341/341 344/344 343/343
f 345/345 346/346 347/347
f 345/345 347/347 346/346
f 345/345 347/347 348/348
f 345/345 348/348 347/347
f 349/349 350/350 351/351
f 349/349 351/351 350/350
f 349/349 351/351 352/352
f 349/349 352/352 351/351
f 353/353 354/354 355/355
f 353/353 355/355 354/354
f 353/353 355/355 356/356
f 353/353 356/356 355/355
f 357/357 358/358 359/359
f 357/357 359/359 358/358
f 357/357 359/359 360/360
f 357/357 360/360 359/359
f 361/361 362/362 363/363
f 361/361 363/363 362/362
f 361/361 363/363 364/364
f 361/361 364/364 363/363
f 365/365 366/366 367/367
f 365/365 367/367 366/366
f 365/365 367/367 368/368
f 365/365 368/368 367/367
f 369/369 370/370 371/371
f 369/369 371/371 370/370
f 369/369 371/371 372/372
f 369/369 372/372 371/371
f 373/373 374/374 375/375
f 373/373 375/375 374/374
f 373/373 375/375 376/376
f 373/373 376/376 375/375
f 377/377 378/378 379/379
f 377/377 379/379 378/378
f 377/377 379/379 380/380
f 377/377 380/380 379/379
f 381/381 382/382 383/383
f 381/381 383/383 382/382
f 381/381 383/383 384/384
f 381/381 384/384 383/383
f 385/385 386/386 387/387
f 385/385 387/387 386/386
f 385/385 387/387 388/388
f 385/385 388/388 387/387
f 389/389 390/390 391/391
f 389/389 391/391 390/390
f 389/389 391/391 392/392
f 389/389 392/392 391/391
f 393/393 394/394 395/395
f 393/393 395/395 394/394
f 393/393 395/395 396/396
f 393/393 396/396 395/395
f 397/397 398/398 399/399
f 397/397 399/399 398/398
f 397/397 399/399 400/400
f 397/397 400/400 399/399
f 401/401 402/402 403/403
f 401/401 403/403 402/402
f 401/401 403/403 404/404
f 401/401 404/404 403/403
f 405/405 406/406 407/407
f 405/405 407/407 406/406
f 405/405 407/407 408/408
f 405/405 408/408 407/407
f 409/409 410/410 411/411
f 409/409 411/411 410/410
f 409/409 411/411 412/412
f 409/409 412/412 411/411
f 413/413 414/414 415/415
f 413/413 415/415 414/414
f 413/413 415/415 416/416
f 413/413 416/416 415/415
f 417/417 418/418 419/419
f 417/417 419/419 418/418
f 417/417 419/419 420/420
f 417/417 420/420 419/419
f 421/421 422/422 423/423
f 421/421 423/423 422/422
f 421/421 423/423 424/424
f 421/421 424/424 423/423
f 425/425 426/426 427/427
f 425/425 427/427 426/426
f 425/425 427/427 428/428
f 425/425 428/428 427/427
f 429/429 430/430 431/431
f 429/429 431/431 430/430
f 429/429 431/431 432/432
f 429/429 432/432 431/431
f 433/433 434/434 435/435
f 433/433 435/435 434/434
f 433/433 435/435 436/436
f 433/433 436/436 435/435
f 437/437 438/438 439/439
f 437/437 439/439 438/438
f 437/437 439/439 440/440
f 437/437 440/440 439/439
f 441/441 442/442 443/443
f 441/441 443/443 442/442
f 441/441 443/443 444/444
f 441/441 444/444 443/443
f 445/445 446/446 447/447
f 445/445 447/447 446/446
f 445/445 447/447 448/448
f 445/445 448/448 447/447
f 449/449 450/450 451/451
f 449/449 451/451 450/450
f 449/449 451/451 452/452
f 449/449 452/452 451/451
f 453/453 454/454 455/455
f 453/453 455/455 454/454
f 453/453 455/455 456/456
f 453/453 456/456 455/455
f 457/457 458/458 459/459
f 457/457 459/459 458/458
f 457/457 459/459 460/460
f 457/457 460/460 459/459
f 461/461 462/462 463/463
f 461/461 463/463 462/462
f 461/461 463/463 464/464
f 461/461 464/464 463/463
f 465/465 466/466 467/467
f 465/465 467/467 466/466
f 465/465 467/467 468/468
f 465/465 468/468 467/467
f 469/469 470/470 471/471
f 469/469 471/471 470/470
f 469/469 471/471 472/472
f 469/469 472/472 471/471
f 473/473 474/474 475/475
f 473/473 475/475 474/474
f 473/473 475/475 476/476
f 473/473 476/476 475/475
f 477/477 478/478 479/479
f 477/477 479/479 478/478
f 477/477 479/479 480/480
f 477/477 480/480 479/479
f 481/481 482/482 483/483
f 481/481 483/483 482/482
f 481/481 483/483 484/484
f 481/481 484/484 483/483
f 485/485 486/486 487/487
f 485/485 487/487 486/486
f 485/485 487/487 488/488
f 485/485 488/488 487/487
f 489/489 490/490 491/491
f 489/489 491/491 490/490
f 489/489 491/491 492/492
f 489/489 492/492 491/491
f 493/493 494/494 495/495
f 493/493 495/495 494/494
f 493/493 495/495 496/496
f 493/493 496/496 495/495
f 497/497 498/498 499/499
f 497/497 499/499 498/498
f 497/497 499/499 500/500
f 497/497 500/500 499/499
f 501/501 502/502 503/503
f 501/501 503/503 502/502
f 501/501 503/503 504/504
f 501/501 504/504 503/503
f 505/505 506/506 507/507
f 505/505 507/507 506/506
f 505/505 507/507 508/508
f 505/505 508/508 507/507
f 509/509 510/510 511/511
f 509/509 511/511 510/510
f 509/509 511/511 512/512
f 509/509 512/512 511/511
f 513/513 514/514 515/515
f 513/513 515/515 514/514
f 513/513 515/515 516/516
f 513/513 516/516 515/515
f 517/517 518/518 519/519
f 517/517 519/519 518/518
f 517/517 519/519 520/520
f 517/517 520/520 519/519
f 521/521 522/522 523/523
f 521/521 523/523 522/522
f 521/521 523/523 524/524
f 521/521 524/524 523/523
f 525/525 526/526 527/527
f 525/525 527/527 526/526
f 525/525 527/527 528/528
f 525/525 528/528 527/527
f 529/529 530/530 531/531
f 529/529 531/531 530/530
f 529/529 531/531 532/532
f 529/529 532/532 531/531
f 533/533 534/534 535/535
f 533/533 535/535 534/534
f 533/533 535/535 536/536
f 533/533 536/536 535/535
f 537/537 538/538 539/539
f 537/537 539/539 538/538
f 537/537 539/539 540/540
f 537/537 540/540 539/539
f 541/541 542/542 543/543
f 541/541 543/543 542/542
f 541/541 543/543 544/544
f 541/541 544/544 543/543
f 545/545 546/546 547/547
f 545/545 547/547 546/546
f 545/545 547/547 548/548
f 545/545 548/548 547/547
f 549/549 550/550 551/551
f 549/549 551/551 550/550
f 549/549 551/551 552/552
f 549/549 552/552 551/551
f 553/553 554/554 555/555
f 553/553 555/555 554/554
f 553/553 555/555 556/556
f 553/553 556/556 555/555
f 557/557 558/558 559/559
f 557/557 559/559 558/558
f 557/557 559/559 560/560
f 557/557 560/560 559/559
f 561/561 562/562 563/563
f 561/561 563/563 562/562
f 561/561 563/563 564/564
f 561/561 564/564 563/563
f 565/565 566/566 567/567
f 565/565 567/567 566/566
f 565/565 567/567 568/568
f 565/565 568/568 567/567
f 569/569 570/570 571/571
f 569/569 571/571 570/570
f 569/569 571/571 572/572
f 569/569 572/572 571/571
f 573/573 574/574 575/575
f 573/573 575/575 574/574
f 573/573 575/575 576/576
f 573/573 576/576 575/575
f 577/577 578/578 579/579
f 577/577 579/579 578/578
f 577/577 579/579 580/580
f 577/577 580/580 579/579
f 581/581 582/582 583/583
f 581/581 583/583 582/582
f 581/581 583/583 584/584
f 581/581 584/584 583/583
f 585/585 586/586 587/587
f 585/585 587/587 586/586
f 585/585 587/587 588/588
f 585/585 588/588 587/587
f 589/589 590/590 591/591
f 589/589 591/591 590/590
f 589/589 591/591 592/592
f 589/589 592/592 591/591
f 593/593 594/594 595/595
f 593/593 595/595 594/594
f 593/593 595/595 596/596
f 593/593 596/596 595/595
f 597/597 598/598 599/599
f 597/597 599/599 598/598
f 597/597 599/599 600/600
f 597/597 600/600 599/599
f 601/601 602/602 603/603
f 601/601 603/603 602/602
f 601/601 603/603 604/604
f 601/601 604/604 603/603
f 605/605 606/606 607/607
f 605/605 607/607 606/606
f 605/605 607/607 608/608
f 605/605 608/608 607/607
f 609/609 610/610 611/611
f 609/609 611/611 610/610
f 609/609 611/611 612/612
f 609/609 612/612 611/611
f 613/613 614/614 615/615
f 613/613 615/615 614/614
f 613/613 615/615 616/616
f 613/613 616/616 615/615
f 617/617 618/618 619/619
f 617/617 619/619 618/618
f 617/617 619/619 620/620
f 617/617 620/620 619/619
f 621/621 622/622 623/623
f 621/621 623/623 622/622
f 621/621 623/623 624/624
f 621/621 624/624 623/623
f 625/625 626/626 627/627
f 625/625 627/627 626/626
f 625/625 627/627 628/628
f 625/625 628/628 627/627
f 629/629 630/630 631/631
f 629/629 631/631 630/630
f 629/629 631/631 632/632
f 629/629 632/632 631/631
f 633/633 634/634 635/635
f 633/633 635/635 634/634
f 633/633 635/635 636/636
f 633/633 636/636 635/635
f 637/637 638/638 639/639
f 637/637 639/639 638/638
f 637/637 639/639 640/640
f 637/637 640/640 639/639
f 641/641 642/642 643/643
f 641/641 643/643 642/642
f 641/641 643/643 644/644
f 641/641 644/644 643/643
f 645/645 646/646 647/647
f 645/645 647/647 646/646
f 645/645 647/647 648/648
f 645/645 648/648 647/647
f 649/649 650/650 651/651
f 649/649 651/651 650/650
f 649/649 651/651 652/652
f 649/649 652/652 651/651
f 653/653 654/654 655/655
f 653/653 655/655 654/654
f 653/653 655/655 656/656
f 653/653 656/656 655/655
f 657/657 658/658 659/659
f 657/657 659/659 658/658
f 657/657 659/659 660/660
f 657/657 660/660 659/659
f 661/661 662/662 663/663
f 661/661 663/663 662/662
f 661/661 663/663 664/664
f 661/661 664/664 663/663
f 665/665 666/666 667/667
f 665/665 667/667 666/666
f 665/665 667/667 668/668
f 665/665 668/668 667/667
f 669/669 670/670 671/671
f 669/669 671/671 670/670
f 669/669 671/671 672/672
f 669/669 672/672 671/671
f 673/673 674/674 675/675
f 673/673 675/675 674/674
f 673/673 675/675 676/676
f 673/673 676/676 675/675
f 677/677 678/678 679/679
f 677/677 679/679 678/678
f 677/677 679/679 680/680
f 677/677 680/680 679/679
f 681/681 682/682 683/683
f 681/681 683/683 682/682
f 681/681 683/683 684/684
f 681/681 684/684 683/683
f 685/685 686/686 687/687
f 685/685 687/687 686/686
f 685/685 687/687 688/688
f 685/685 688/688 687/687
f 689/689 690/690 691/691
f 689/689 691/691 690/690
f 689/689 691/691 692/692
f 689/689 692/692 691/691
f 693/693 694/694 695/695
f 693/693 695/695 694/694
f 693/693 695/695 696/696
f 693/693 696/696 695/695
f 697/697 698/698 699/699
f 697/697 699/699 698/698
f 697/697 699/699 700/700
f 697/697 700/700 699/699
f 701/701 702/702 703/703
f 701/701 703/703 702/702
f 701/701 703/703 704/704
f 701/701 704/704 703/703
f 705/705 706/706 707/707
f 705/705 707/707 706/706
f 705/705 707/707 708/708
f 705/705 708/708 707/707
f 709/709 710/710 711/711
f 709/709 711/711 710/710
f 709/709 711/711 712/712
f 709/709 712/712 711/711
f 713/713 714/714 715/715
f 713/713 715/715 714/714
f 713/713 715/715 716/716
f 713/713 716/716 715/715
f 717/717 718/718 719/719
f 717/717 719/719 718/718
f 717/717 719/719 720/720
f 717/717 720/720 719/719
f 721/721 722/722 723/723
f 721/721 723/723 722/722
f 721/721 723/723 724/724
f 721/721 724/724 723/723
f 725/725 726/726 727/727
f 725/725 727/727 726/726
f 725/725 727/727 728/728
f 725/725 728/728 727/727
f 729/729 730/730 731/731
f 729/729 731/731 730/730
f 729/729 731/731 732/732
f 729/729 732/732 731/731
f 733/733 734/734 735/735
f 733/733 735/735 734/734
f 733/733 735/735 736/736
f 733/733 736/736 735/735
f 737/737 738/738 739/739
f 737/737 739/739 738/738
f 737/737 739/739 740/740
f 737/737 740/740 739/739
f 741/741 742/742 743/743
f 741/741 743/743 742/742
f 741/741 743/743 744/744
f 741/741 744/744 743/743
f 745/745 746/746 747/747
f 745/745 747/747 746/746
f 745/745 747/747 748/748
f 745/745 748/748 747/747
f 749/749 750/750 751/751
f 749/749 751/751 750/750
f 749/749 751/751 752/752
f 749/749 752/752 751/751
f 753/753 754/754 755/755
f 753/753 755/755 754/754
f 753/753 755/755 756/756
f 753/753 756/756 755/755
f 757/757 758/758 759/759
f 757/757 759/759 758/758
f 757/757 759/759 760/760
f 757/757 760/760 759/759
f 761/761 762/762 763/763
f 761/761 763/763 762/762
f 761/761 763/763 764/764
f 761/761 764/764 763/763
f 765/765 766/766 767/767
f 765/765 767/767 766/766
f 765/765 767/767 768/768
f 765/765 768/768 767/767
f 769/769 770/770 771/771
f 769/769 771/771 770/770
f 769/769 771/771 772/772
f 769/769 772/772 771/771
f 773/773 774/774 775/775
f 773/773 775/775 774/774
f 773/773 775/775 776/776
f 773/773 776/776 775/775
f 777/777 778/778 779/779
f 777/777 779/779 778/778
f 777/777 779/779 780/780
f 777/777 780/780 779/779
f 781/781 782/782 783/783
f 781/781 783/783 782/782
f 781/781 783/783 784/784
f 781/781 784/784 783/783
f 785/785 786/786 787/787
f 785/785 787/787 786/786
f 785/785 787/787 788/788
f 785/785 788/788 787/787
f 789/789 790/790 791/791
f 789/789 791/791 790/790
f 789/789 791/791 792/792
f 789/789 792/792 791/791
f 793/793 794/794 795/795
f 793/793 795/795 794/794
f 793/793 795/795 796/796
f 793/793 796/796 795/795
f 797/797 798/798 799/799
f 797/797 799/799 798/798
f 797/797 799/799 800/800
f 797/797 800/800 799/799
f 801/801 802/802 803/803
f 801/801 803/803 802/802
f 801/801 803/803 804/804
f 801/801 804/804 803/803
f 805/805 806/806 807/807
f 805/805 807/807 806/806
f 805/805 807/807 808/808
f 805/805 808/808 807/807
f 809/809 810/810 811/811
f 809/809 811/811 810/810
f 809/809 811/811 812/812
f 809/809 812/812 811/811
f 813/813 814/814 815/815
f 813/813 815/815 814/814
f 813/813 815/815 816/816
f 813/813 816/816 815/815
f 817/817 818/818 819/819
f 817/817 819/819 818/818
f 817/817 819/819 820/820
f 817/817 820/820 819/819
f 821/821 822/822 823/823
f 821/821 823/823 822/822
f 821/821 823/823 824/824
f 821/821 824/824 823/823
f 825/825 826/826 827/827
f 825/825 827/827 826/826
f 825/825 827/827 828/828
f 825/825 828/828 827/827
f 829/829 830/830 831/831
f 829/829 831/831 830/830
f 829/829 831/831 832/832
f 829/829 832/832 831/831
f 833/833 834/834 835/835
f 833/833 835/835 834/834
f 833/833 835/835 836/836
f 833/833 836/836 835/835
f 837/837 838/838 839/839
f 837/837 839/839 838/838
f 837/837 839/839 840/840
f 837/837 840/840 839/839
f 841/841 842/842 843/843
f 841/841 843/843 842/842
f 841/841 843/843 844/844
f 841/841 844/844 843/843
f 845/845 846/846 847/847
f 845/845 847/847 846/846
f 845/845 847/847 848/848
f 845/845 848/848 847/847
f 849/849 850/850 851/851
f 849/849 851/851 850/850
f 849/849 851/851 852/852
f 849/849 852/852 851/851
f 853/853 854/854 855/855
f 853/853 855/855 854/854
f 853/853 855/855 856/856
f 853/853 856/856 855/855
f 857/857 858/858 859/859
f 857/857 859/859 858/858
f 857/857 859/859 860/860
f 857/857 860/860 859/859
f 861/861 862/862 863/863
f 861/861 863/863 862/862
f 861/861 863/863 864/864
f 861/861 864/864 863/863
f 865/865 866/866 867/867
f 865/865 867/867 866/866
f 865/865 867/867 868/868
f 865/865 868/868 867/867
f 869/869 870/870 871/871
f 869/869 871/871 870/870
f 869/869 871/871 872/872
f 869/869 872/872 871/871
f 873/873 874/874 875/875
f 873/873 875/875 874/874
f 873/873 875/875 876/876
f 873/873 876/876 875/875
f 877/877 878/878 879/879
f 877/877 879/879 878/878
f 877/877 879/879 880/880
f 877/877 880/880 879/879
f 881/881 882/882 883/883
f 881/881 883/883 882/882
f 881/881 883/883 884/884
f 881/881 884/884 883/883
f 885/885 886/886 887/887
f 885/885 887/887 886/886
f 885/885 887/887 888/888
f 885/885 888/888 887/887
