g haus
v -2.2000 2.1000 -1.6000
v 2.2000 2.1000 -1.6000
v 2.2000 2.1000 -1.3800
v -2.2000 2.1000 -1.3800
v -2.2000 0.0000 -1.6000
v -2.2000 2.1000 -1.6000
v 2.2000 2.1000 -1.6000
v 2.2000 0.0000 -1.6000
v 2.2000 0.0000 -1.3800
v 2.2000 2.1000 -1.3800
v -2.2000 2.1000 -1.3800
v -2.2000 0.0000 -1.3800
v -2.2000 0.0000 -1.3800
v -2.2000 2.1000 -1.3800
v -2.2000 2.1000 -1.6000
v -2.2000 0.0000 -1.6000
v 2.2000 0.0000 -1.6000
v 2.2000 2.1000 -1.6000
v 2.2000 2.1000 -1.3800
v 2.2000 0.0000 -1.3800
v -2.2000 2.1000 1.3800
v 2.2000 2.1000 1.3800
v 2.2000 2.1000 1.6000
v -2.2000 2.1000 1.6000
v -2.2000 0.0000 1.3800
v -2.2000 2.1000 1.3800
v 2.2000 2.1000 1.3800
v 2.2000 0.0000 1.3800
v 2.2000 0.0000 1.6000
v 2.2000 2.1000 1.6000
v -2.2000 2.1000 1.6000
v -2.2000 0.0000 1.6000
v -2.2000 0.0000 1.6000
v -2.2000 2.1000 1.6000
v -2.2000 2.1000 1.3800
v -2.2000 0.0000 1.3800
v 2.2000 0.0000 1.3800
v 2.2000 2.1000 1.3800
v 2.2000 2.1000 1.6000
v 2.2000 0.0000 1.6000
v -2.2000 2.1000 -1.3800
v -1.9800 2.1000 -1.3800
v -1.9800 2.1000 1.3800
v -2.2000 2.1000 1.3800
v -2.2000 0.0000 -1.3800
v -2.2000 2.1000 -1.3800
v -1.9800 2.1000 -1.3800
v -1.9800 0.0000 -1.3800
v -1.9800 0.0000 1.3800
v -1.9800 2.1000 1.3800
v -2.2000 2.1000 1.3800
v -2.2000 0.0000 1.3800
v -2.2000 0.0000 1.3800
v -2.2000 2.1000 1.3800
v -2.2000 2.1000 -1.3800
v -2.2000 0.0000 -1.3800
v -1.9800 0.0000 -1.3800
v -1.9800 2.1000 -1.3800
v -1.9800 2.1000 1.3800
v -1.9800 0.0000 1.3800
v 1.9800 2.1000 -1.3800
v 2.2000 2.1000 -1.3800
v 2.2000 2.1000 1.3800
v 1.9800 2.1000 1.3800
v 1.9800 0.0000 -1.3800
v 1.9800 2.1000 -1.3800
v 2.2000 2.1000 -1.3800
v 2.2000 0.0000 -1.3800
v 2.2000 0.0000 1.3800
v 2.2000 2.1000 1.3800
v 1.9800 2.1000 1.3800
v 1.9800 0.0000 1.3800
v 1.9800 0.0000 1.3800
v 1.9800 2.1000 1.3800
v 1.9800 2.1000 -1.3800
v 1.9800 0.0000 -1.3800
v 2.2000 0.0000 -1.3800
v 2.2000 2.1000 -1.3800
v 2.2000 2.1000 1.3800
v 2.2000 0.0000 1.3800
v -1.9800 2.1000 -1.3800
v 1.9800 2.1000 -1.3800
v 1.9800 2.1000 1.3800
v -1.9800 2.1000 1.3800
v -1.9800 1.9800 -1.3800
v -1.9800 2.1000 -1.3800
v 1.9800 2.1000 -1.3800
v 1.9800 1.9800 -1.3800
v 1.9800 1.9800 1.3800
v 1.9800 2.1000 1.3800
v -1.9800 2.1000 1.3800
v -1.9800 1.9800 1.3800
v -1.9800 1.9800 1.3800
v -1.9800 2.1000 1.3800
v -1.9800 2.1000 -1.3800
v -1.9800 1.9800 -1.3800
v 1.9800 1.9800 -1.3800
v 1.9800 2.1000 -1.3800
v 1.9800 2.1000 1.3800
v 1.9800 1.9800 1.3800
v -2.2000 2.1000 -1.6000
v 2.2000 2.1000 -1.6000
v 0.0000 3.6000 -1.6000
v -2.2000 2.1000 -1.3800
v 2.2000 2.1000 -1.3800
v 0.0000 3.6000 -1.3800
v -2.2000 2.1000 1.3800
v 2.2000 2.1000 1.3800
v 0.0000 3.6000 1.3800
v -2.2000 2.1000 1.6000
v 2.2000 2.1000 1.6000
v 0.0000 3.6000 1.6000
v -2.4600 1.9500 -1.8600
v 0.0000 3.6000 -1.8600
v 0.0000 3.6000 1.8600
v -2.4600 1.9500 1.8600
v -2.4600 1.8300 -1.8600
v 0.0000 3.4800 -1.8600
v 0.0000 3.4800 1.8600
v -2.4600 1.8300 1.8600
v -2.4600 1.8300 -1.8600
v -2.4600 1.9500 -1.8600
v -2.4600 1.9500 1.8600
v -2.4600 1.8300 1.8600
v 2.4600 1.9500 -1.8600
v 0.0000 3.6000 -1.8600
v 0.0000 3.6000 1.8600
v 2.4600 1.9500 1.8600
v 2.4600 1.8300 -1.8600
v 0.0000 3.4800 -1.8600
v 0.0000 3.4800 1.8600
v 2.4600 1.8300 1.8600
v 2.4600 1.8300 -1.8600
v 2.4600 1.9500 -1.8600
v 2.4600 1.9500 1.8600
v 2.4600 1.8300 1.8600
v -2.2000 0.0800 -1.6000
v 2.2000 0.0800 -1.6000
v 2.2000 0.0800 1.6000
v -2.2000 0.0800 1.6000
v -2.2000 0.0000 -1.6000
v -2.2000 0.0800 -1.6000
v 2.2000 0.0800 -1.6000
v 2.2000 0.0000 -1.6000
v 2.2000 0.0000 1.6000
v 2.2000 0.0800 1.6000
v -2.2000 0.0800 1.6000
v -2.2000 0.0000 1.6000
v -2.2000 0.0000 1.6000
v -2.2000 0.0800 1.6000
v -2.2000 0.0800 -1.6000
v -2.2000 0.0000 -1.6000
v 2.2000 0.0000 -1.6000
v 2.2000 0.0800 -1.6000
v 2.2000 0.0800 1.6000
v 2.2000 0.0000 1.6000
vt 0.1667 0.2576
vt 0.8333 0.2576
vt 0.8333 0.2909
vt 0.1667 0.2909
vt 0.1667 0.0000
vt 0.8333 0.0000
vt 0.8333 0.3182
vt 0.1667 0.3182
vt 0.1667 0.0000
vt 0.8333 0.0000
vt 0.8333 0.3182
vt 0.1667 0.3182
vt 0.2576 0.0000
vt 0.2909 0.0000
vt 0.2909 0.3182
vt 0.2576 0.3182
vt 0.2576 0.0000
vt 0.2909 0.0000
vt 0.2909 0.3182
vt 0.2576 0.3182
vt 0.1667 0.7091
vt 0.8333 0.7091
vt 0.8333 0.7424
vt 0.1667 0.7424
vt 0.1667 0.0000
vt 0.8333 0.0000
vt 0.8333 0.3182
vt 0.1667 0.3182
vt 0.1667 0.0000
vt 0.8333 0.0000
vt 0.8333 0.3182
vt 0.1667 0.3182
vt 0.7091 0.0000
vt 0.7424 0.0000
vt 0.7424 0.3182
vt 0.7091 0.3182
vt 0.7091 0.0000
vt 0.7424 0.0000
vt 0.7424 0.3182
vt 0.7091 0.3182
vt 0.1667 0.2909
vt 0.2000 0.2909
vt 0.2000 0.7091
vt 0.1667 0.7091
vt 0.1667 0.0000
vt 0.2000 0.0000
vt 0.2000 0.3182
vt 0.1667 0.3182
vt 0.1667 0.0000
vt 0.2000 0.0000
vt 0.2000 0.3182
vt 0.1667 0.3182
vt 0.2909 0.0000
vt 0.7091 0.0000
vt 0.7091 0.3182
vt 0.2909 0.3182
vt 0.2909 0.0000
vt 0.7091 0.0000
vt 0.7091 0.3182
vt 0.2909 0.3182
vt 0.8000 0.2909
vt 0.8333 0.2909
vt 0.8333 0.7091
vt 0.8000 0.7091
vt 0.8000 0.0000
vt 0.8333 0.0000
vt 0.8333 0.3182
vt 0.8000 0.3182
vt 0.8000 0.0000
vt 0.8333 0.0000
vt 0.8333 0.3182
vt 0.8000 0.3182
vt 0.2909 0.0000
vt 0.7091 0.0000
vt 0.7091 0.3182
vt 0.2909 0.3182
vt 0.2909 0.0000
vt 0.7091 0.0000
vt 0.7091 0.3182
vt 0.2909 0.3182
vt 0.2000 0.2909
vt 0.8000 0.2909
vt 0.8000 0.7091
vt 0.2000 0.7091
vt 0.2000 0.0000
vt 0.8000 0.0000
vt 0.8000 0.0182
vt 0.2000 0.0182
vt 0.2000 0.0000
vt 0.8000 0.0000
vt 0.8000 0.0182
vt 0.2000 0.0182
vt 0.2909 0.0000
vt 0.7091 0.0000
vt 0.7091 0.0182
vt 0.2909 0.0182
vt 0.2909 0.0000
vt 0.7091 0.0000
vt 0.7091 0.0182
vt 0.2909 0.0182
vt 0.1000 0.1000
vt 0.7667 0.1000
vt 0.4333 0.3273
vt 0.1000 0.1000
vt 0.7667 0.1000
vt 0.4333 0.3273
vt 0.1000 0.1000
vt 0.7667 0.1000
vt 0.4333 0.3273
vt 0.1000 0.1000
vt 0.7667 0.1000
vt 0.4333 0.3273
vt 0.0000 0.0000
vt 0.4488 0.0000
vt 0.4488 0.5636
vt 0.0000 0.5636
vt 0.0000 0.0000
vt 0.4488 0.0000
vt 0.4488 0.5636
vt 0.0000 0.5636
vt 0.0000 0.0000
vt 0.5636 0.0000
vt 0.5636 0.1000
vt 0.0000 0.1000
vt 0.0000 0.0000
vt 0.4488 0.0000
vt 0.4488 0.5636
vt 0.0000 0.5636
vt 0.0000 0.0000
vt 0.4488 0.0000
vt 0.4488 0.5636
vt 0.0000 0.5636
vt 0.0000 0.0000
vt 0.5636 0.0000
vt 0.5636 0.1000
vt 0.0000 0.1000
vt 0.1667 0.2576
vt 0.8333 0.2576
vt 0.8333 0.7424
vt 0.1667 0.7424
vt 0.1667 0.0000
vt 0.8333 0.0000
vt 0.8333 0.0121
vt 0.1667 0.0121
vt 0.1667 0.0000
vt 0.8333 0.0000
vt 0.8333 0.0121
vt 0.1667 0.0121
vt 0.2576 0.0000
vt 0.7424 0.0000
vt 0.7424 0.0121
vt 0.2576 0.0121
vt 0.2576 0.0000
vt 0.7424 0.0000
vt 0.7424 0.0121
vt 0.2576 0.0121
f 4/4 3/3 2/2
f 4/4 2/2 1/1
f 5/5 6/6 7/7
f 5/5 7/7 8/8
f 9/9 10/10 11/11
f 9/9 11/11 12/12
f 13/13 14/14 15/15
f 13/13 15/15 16/16
f 17/17 18/18 19/19
f 17/17 19/19 20/20
f 24/24 23/23 22/22
f 24/24 22/22 21/21
f 25/25 26/26 27/27
f 25/25 27/27 28/28
f 29/29 30/30 31/31
f 29/29 31/31 32/32
f 33/33 34/34 35/35
f 33/33 35/35 36/36
f 37/37 38/38 39/39
f 37/37 39/39 40/40
f 44/44 43/43 42/42
f 44/44 42/42 41/41
f 45/45 46/46 47/47
f 45/45 47/47 48/48
f 49/49 50/50 51/51
f 49/49 51/51 52/52
f 53/53 54/54 55/55
f 53/53 55/55 56/56
f 57/57 58/58 59/59
f 57/57 59/59 60/60
f 64/64 63/63 62/62
f 64/64 62/62 61/61
f 65/65 66/66 67/67
f 65/65 67/67 68/68
f 69/69 70/70 71/71
f 69/69 71/71 72/72
f 73/73 74/74 75/75
f 73/73 75/75 76/76
f 77/77 78/78 79/79
f 77/77 79/79 80/80
f 84/84 83/83 82/82
f 84/84 82/82 81/81
f 85/85 86/86 87/87
f 85/85 87/87 88/88
f 89/89 90/90 91/91
f 89/89 91/91 92/92
f 93/93 94/94 95/95
f 93/93 95/95 96/96
f 97/97 98/98 99/99
f 97/97 99/99 100/100
f 103/103 102/102 101/101
f 106/106 105/105 104/104
f 107/107 108/108 109/109
f 110/110 111/111 112/112
f 116/116 115/115 114/114
f 116/116 114/114 113/113
f 120/120 119/119 118/118
f 120/120 118/118 117/117
f 124/124 123/123 122/122
f 124/124 122/122 121/121
f 125/125 126/126 127/127
f 125/125 127/127 128/128
f 129/129 130/130 131/131
f 129/129 131/131 132/132
f 133/133 134/134 135/135
f 133/133 135/135 136/136
f 140/140 139/139 138/138
f 140/140 138/138 137/137
f 141/141 142/142 143/143
f 141/141 143/143 144/144
f 145/145 146/146 147/147
f 145/145 147/147 148/148
f 149/149 150/150 151/151
f 149/149 151/151 152/152
f 153/153 154/154 155/155
f 153/153 155/155 156/156
