g ruine_collider
v -2.4000 2.5000 -1.8000
v 2.4000 2.5000 -1.8000
v 2.4000 2.5000 1.8000
v -2.4000 2.5000 1.8000
v -2.4000 0.0000 -1.8000
v -2.4000 2.5000 -1.8000
v 2.4000 2.5000 -1.8000
v 2.4000 0.0000 -1.8000
v 2.4000 0.0000 1.8000
v 2.4000 2.5000 1.8000
v -2.4000 2.5000 1.8000
v -2.4000 0.0000 1.8000
v -2.4000 0.0000 1.8000
v -2.4000 2.5000 1.8000
v -2.4000 2.5000 -1.8000
v -2.4000 0.0000 -1.8000
v 2.4000 0.0000 -1.8000
v 2.4000 2.5000 -1.8000
v 2.4000 2.5000 1.8000
v 2.4000 0.0000 1.8000
vt 0.1364 0.2273
vt 0.8636 0.2273
vt 0.8636 0.7727
vt 0.1364 0.7727
vt 0.1364 0.0000
vt 0.8636 0.0000
vt 0.8636 0.3788
vt 0.1364 0.3788
vt 0.1364 0.0000
vt 0.8636 0.0000
vt 0.8636 0.3788
vt 0.1364 0.3788
vt 0.2273 0.0000
vt 0.7727 0.0000
vt 0.7727 0.3788
vt 0.2273 0.3788
vt 0.2273 0.0000
vt 0.7727 0.0000
vt 0.7727 0.3788
vt 0.2273 0.3788
f 1/1 2/2 3/3
f 1/1 3/3 4/4
f 5/5 6/6 7/7
f 5/5 7/7 8/8
f 9/9 10/10 11/11
f 9/9 11/11 12/12
f 13/13 14/14 15/15
f 13/13 15/15 16/16
f 17/17 18/18 19/19
f 17/17 19/19 20/20
