g haus
v -2.0100 0.0000 -1.5100
v 2.0100 0.0000 -1.5100
v 2.0100 0.3400 -1.5100
v -2.0100 0.3400 -1.5100
v 2.0100 0.0000 1.5100
v -2.0100 0.0000 1.5100
v -2.0100 0.3400 1.5100
v 2.0100 0.3400 1.5100
v -2.0100 0.0000 1.5100
v -2.0100 0.0000 -1.5100
v -2.0100 0.3400 -1.5100
v -2.0100 0.3400 1.5100
v 2.0100 0.0000 -1.5100
v 2.0100 0.0000 1.5100
v 2.0100 0.3400 1.5100
v 2.0100 0.3400 -1.5100
v -2.0100 0.3400 -1.5100
v 2.0100 0.3400 -1.5100
v 2.0100 0.3400 1.5100
v -2.0100 0.3400 1.5100
v -2.0100 0.0000 1.5100
v 2.0100 0.0000 1.5100
v 2.0100 0.0000 -1.5100
v -2.0100 0.0000 -1.5100
v -1.9500 0.3400 -1.4500
v 1.9500 0.3400 -1.4500
v 1.9500 1.6200 -1.4500
v -1.9500 1.6200 -1.4500
v 1.9500 0.3400 -1.2100
v -1.9500 0.3400 -1.2100
v -1.9500 1.6200 -1.2100
v 1.9500 1.6200 -1.2100
v -1.9500 0.3400 -1.2100
v -1.9500 0.3400 -1.4500
v -1.9500 1.6200 -1.4500
v -1.9500 1.6200 -1.2100
v 1.9500 0.3400 -1.4500
v 1.9500 0.3400 -1.2100
v 1.9500 1.6200 -1.2100
v 1.9500 1.6200 -1.4500
v -1.9500 0.3400 1.2100
v 1.9500 0.3400 1.2100
v 1.9500 1.6200 1.2100
v -1.9500 1.6200 1.2100
v 1.9500 0.3400 1.4500
v -1.9500 0.3400 1.4500
v -1.9500 1.6200 1.4500
v 1.9500 1.6200 1.4500
v -1.9500 0.3400 1.4500
v -1.9500 0.3400 1.2100
v -1.9500 1.6200 1.2100
v -1.9500 1.6200 1.4500
v 1.9500 0.3400 1.2100
v 1.9500 0.3400 1.4500
v 1.9500 1.6200 1.4500
v 1.9500 1.6200 1.2100
v -1.9500 0.3400 -1.2100
v -1.7100 0.3400 -1.2100
v -1.7100 1.6200 -1.2100
v -1.9500 1.6200 -1.2100
v -1.7100 0.3400 1.2100
v -1.9500 0.3400 1.2100
v -1.9500 1.6200 1.2100
v -1.7100 1.6200 1.2100
v -1.9500 0.3400 1.2100
v -1.9500 0.3400 -1.2100
v -1.9500 1.6200 -1.2100
v -1.9500 1.6200 1.2100
v -1.7100 0.3400 -1.2100
v -1.7100 0.3400 1.2100
v -1.7100 1.6200 1.2100
v -1.7100 1.6200 -1.2100
v 1.7100 0.3400 -1.2100
v 1.9500 0.3400 -1.2100
v 1.9500 1.6200 -1.2100
v 1.7100 1.6200 -1.2100
v 1.9500 0.3400 1.2100
v 1.7100 0.3400 1.2100
v 1.7100 1.6200 1.2100
v 1.9500 1.6200 1.2100
v 1.7100 0.3400 1.2100
v 1.7100 0.3400 -1.2100
v 1.7100 1.6200 -1.2100
v 1.7100 1.6200 1.2100
v 1.9500 0.3400 -1.2100
v 1.9500 0.3400 1.2100
v 1.9500 1.6200 1.2100
v 1.9500 1.6200 -1.2100
v -1.9500 1.6200 -1.4500
v 1.9500 1.6200 -1.4500
v 1.9500 2.8500 -1.4500
v -1.9500 2.8500 -1.4500
v 1.9500 1.6200 -1.2100
v -1.9500 1.6200 -1.2100
v -1.9500 2.8500 -1.2100
v 1.9500 2.8500 -1.2100
v -1.9500 1.6200 -1.2100
v -1.9500 1.6200 -1.4500
v -1.9500 2.8500 -1.4500
v -1.9500 2.8500 -1.2100
v 1.9500 1.6200 -1.4500
v 1.9500 1.6200 -1.2100
v 1.9500 2.8500 -1.2100
v 1.9500 2.8500 -1.4500
v -1.9500 1.6200 1.2100
v 1.9500 1.6200 1.2100
v 1.9500 2.8500 1.2100
v -1.9500 2.8500 1.2100
v 1.9500 1.6200 1.4500
v -1.9500 1.6200 1.4500
v -1.9500 2.8500 1.4500
v 1.9500 2.8500 1.4500
v -1.9500 1.6200 1.4500
v -1.9500 1.6200 1.2100
v -1.9500 2.8500 1.2100
v -1.9500 2.8500 1.4500
v 1.9500 1.6200 1.2100
v 1.9500 1.6200 1.4500
v 1.9500 2.8500 1.4500
v 1.9500 2.8500 1.2100
v -1.9500 1.6200 -1.2100
v -1.7100 1.6200 -1.2100
v -1.7100 2.8500 -1.2100
v -1.9500 2.8500 -1.2100
v -1.7100 1.6200 1.2100
v -1.9500 1.6200 1.2100
v -1.9500 2.8500 1.2100
v -1.7100 2.8500 1.2100
v -1.9500 1.6200 1.2100
v -1.9500 1.6200 -1.2100
v -1.9500 2.8500 -1.2100
v -1.9500 2.8500 1.2100
v -1.7100 1.6200 -1.2100
v -1.7100 1.6200 1.2100
v -1.7100 2.8500 1.2100
v -1.7100 2.8500 -1.2100
v 1.7100 1.6200 -1.2100
v 1.9500 1.6200 -1.2100
v 1.9500 2.8500 -1.2100
v 1.7100 2.8500 -1.2100
v 1.9500 1.6200 1.2100
v 1.7100 1.6200 1.2100
v 1.7100 2.8500 1.2100
v 1.9500 2.8500 1.2100
v 1.7100 1.6200 1.2100
v 1.7100 1.6200 -1.2100
v 1.7100 2.8500 -1.2100
v 1.7100 2.8500 1.2100
v 1.9500 1.6200 -1.2100
v 1.9500 1.6200 1.2100
v 1.9500 2.8500 1.2100
v 1.9500 2.8500 -1.2100
v -1.9500 1.5200 -1.4500
v 1.9500 1.5200 -1.4500
v 1.9500 1.6200 -1.4500
v -1.9500 1.6200 -1.4500
v 1.9500 1.5200 1.4500
v -1.9500 1.5200 1.4500
v -1.9500 1.6200 1.4500
v 1.9500 1.6200 1.4500
v -1.9500 1.5200 1.4500
v -1.9500 1.5200 -1.4500
v -1.9500 1.6200 -1.4500
v -1.9500 1.6200 1.4500
v 1.9500 1.5200 -1.4500
v 1.9500 1.5200 1.4500
v 1.9500 1.6200 1.4500
v 1.9500 1.6200 -1.4500
v -1.9500 1.6200 -1.4500
v 1.9500 1.6200 -1.4500
v 1.9500 1.6200 1.4500
v -1.9500 1.6200 1.4500
v -1.9500 1.5200 1.4500
v 1.9500 1.5200 1.4500
v 1.9500 1.5200 -1.4500
v -1.9500 1.5200 -1.4500
v -2.0000 1.5000 -1.5000
v 2.0000 1.5000 -1.5000
v 2.0000 1.6200 -1.5000
v -2.0000 1.6200 -1.5000
v 2.0000 1.5000 1.5000
v -2.0000 1.5000 1.5000
v -2.0000 1.6200 1.5000
v 2.0000 1.6200 1.5000
v -2.0000 1.5000 1.5000
v -2.0000 1.5000 -1.5000
v -2.0000 1.6200 -1.5000
v -2.0000 1.6200 1.5000
v 2.0000 1.5000 -1.5000
v 2.0000 1.5000 1.5000
v 2.0000 1.6200 1.5000
v 2.0000 1.6200 -1.5000
v -2.0000 1.6200 -1.5000
v 2.0000 1.6200 -1.5000
v 2.0000 1.6200 1.5000
v -2.0000 1.6200 1.5000
v -2.0000 1.5000 1.5000
v 2.0000 1.5000 1.5000
v 2.0000 1.5000 -1.5000
v -2.0000 1.5000 -1.5000
v -1.9500 2.8500 -1.4500
v 1.9500 2.8500 -1.4500
v 0.0000 4.3500 -1.4500
v -1.9500 2.8500 1.4500
v 1.9500 2.8500 1.4500
v 0.0000 4.3500 1.4500
v -2.2900 2.7100 -1.7900
v 0.0000 4.3500 -1.7900
v 0.0000 4.3500 1.7900
v -2.2900 2.7100 1.7900
v -2.2900 2.5100 1.7900
v 0.0000 4.1500 1.7900
v 0.0000 4.1500 -1.7900
v -2.2900 2.5100 -1.7900
v -2.2900 2.5100 -1.7900
v -2.2900 2.7100 -1.7900
v -2.2900 2.7100 1.7900
v -2.2900 2.5100 1.7900
v -2.2900 2.5100 -1.7900
v -2.2900 2.7100 -1.7900
v 0.0000 4.3500 -1.7900
v 0.0000 4.1500 -1.7900
v -2.2900 2.5100 1.7900
v -2.2900 2.7100 1.7900
v 0.0000 4.3500 1.7900
v 0.0000 4.1500 1.7900
v 2.2900 2.7100 -1.7900
v 0.0000 4.3500 -1.7900
v 0.0000 4.3500 1.7900
v 2.2900 2.7100 1.7900
v 2.2900 2.5100 1.7900
v 0.0000 4.1500 1.7900
v 0.0000 4.1500 -1.7900
v 2.2900 2.5100 -1.7900
v 2.2900 2.5100 -1.7900
v 2.2900 2.7100 -1.7900
v 2.2900 2.7100 1.7900
v 2.2900 2.5100 1.7900
v 2.2900 2.5100 -1.7900
v 2.2900 2.7100 -1.7900
v 0.0000 4.3500 -1.7900
v 0.0000 4.1500 -1.7900
v 2.2900 2.5100 1.7900
v 2.2900 2.7100 1.7900
v 0.0000 4.3500 1.7900
v 0.0000 4.1500 1.7900
vt 0.50000 0.00000
vt 1.00000 0.00000
vt 1.00000 0.25000
vt 0.50000 0.25000
vt 0.50000 0.00000
vt 1.00000 0.00000
vt 1.00000 0.25000
vt 0.50000 0.25000
vt 0.50000 0.00000
vt 1.00000 0.00000
vt 1.00000 0.25000
vt 0.50000 0.25000
vt 0.50000 0.00000
vt 1.00000 0.00000
vt 1.00000 0.25000
vt 0.50000 0.25000
vt 0.50000 0.00000
vt 1.00000 0.00000
vt 1.00000 0.25000
vt 0.50000 0.25000
vt 0.50000 0.00000
vt 1.00000 0.00000
vt 1.00000 0.25000
vt 0.50000 0.25000
vt 0.00000 0.50000
vt 0.50000 0.50000
vt 0.50000 1.00000
vt 0.00000 1.00000
vt 0.00000 0.50000
vt 0.50000 0.50000
vt 0.50000 1.00000
vt 0.00000 1.00000
vt 0.00000 0.50000
vt 0.50000 0.50000
vt 0.50000 1.00000
vt 0.00000 1.00000
vt 0.00000 0.50000
vt 0.50000 0.50000
vt 0.50000 1.00000
vt 0.00000 1.00000
vt 0.50000 0.50000
vt 1.00000 0.50000
vt 1.00000 1.00000
vt 0.50000 1.00000
vt 0.50000 0.50000
vt 1.00000 0.50000
vt 1.00000 1.00000
vt 0.50000 1.00000
vt 0.50000 0.50000
vt 1.00000 0.50000
vt 1.00000 1.00000
vt 0.50000 1.00000
vt 0.50000 0.50000
vt 1.00000 0.50000
vt 1.00000 1.00000
vt 0.50000 1.00000
vt 0.50000 0.50000
vt 1.00000 0.50000
vt 1.00000 1.00000
vt 0.50000 1.00000
vt 0.50000 0.50000
vt 1.00000 0.50000
vt 1.00000 1.00000
vt 0.50000 1.00000
vt 0.50000 0.50000
vt 1.00000 0.50000
vt 1.00000 1.00000
vt 0.50000 1.00000
vt 0.50000 0.50000
vt 1.00000 0.50000
vt 1.00000 1.00000
vt 0.50000 1.00000
vt 0.50000 0.50000
vt 1.00000 0.50000
vt 1.00000 1.00000
vt 0.50000 1.00000
vt 0.50000 0.50000
vt 1.00000 0.50000
vt 1.00000 1.00000
vt 0.50000 1.00000
vt 0.50000 0.50000
vt 1.00000 0.50000
vt 1.00000 1.00000
vt 0.50000 1.00000
vt 0.50000 0.50000
vt 1.00000 0.50000
vt 1.00000 1.00000
vt 0.50000 1.00000
vt 0.00000 0.50000
vt 0.50000 0.50000
vt 0.50000 1.00000
vt 0.00000 1.00000
vt 0.00000 0.50000
vt 0.50000 0.50000
vt 0.50000 1.00000
vt 0.00000 1.00000
vt 0.00000 0.50000
vt 0.50000 0.50000
vt 0.50000 1.00000
vt 0.00000 1.00000
vt 0.00000 0.50000
vt 0.50000 0.50000
vt 0.50000 1.00000
vt 0.00000 1.00000
vt 0.50000 0.50000
vt 1.00000 0.50000
vt 1.00000 1.00000
vt 0.50000 1.00000
vt 0.50000 0.50000
vt 1.00000 0.50000
vt 1.00000 1.00000
vt 0.50000 1.00000
vt 0.50000 0.50000
vt 1.00000 0.50000
vt 1.00000 1.00000
vt 0.50000 1.00000
vt 0.50000 0.50000
vt 1.00000 0.50000
vt 1.00000 1.00000
vt 0.50000 1.00000
vt 0.50000 0.50000
vt 1.00000 0.50000
vt 1.00000 1.00000
vt 0.50000 1.00000
vt 0.50000 0.50000
vt 1.00000 0.50000
vt 1.00000 1.00000
vt 0.50000 1.00000
vt 0.50000 0.50000
vt 1.00000 0.50000
vt 1.00000 1.00000
vt 0.50000 1.00000
vt 0.50000 0.50000
vt 1.00000 0.50000
vt 1.00000 1.00000
vt 0.50000 1.00000
vt 0.50000 0.50000
vt 1.00000 0.50000
vt 1.00000 1.00000
vt 0.50000 1.00000
vt 0.50000 0.50000
vt 1.00000 0.50000
vt 1.00000 1.00000
vt 0.50000 1.00000
vt 0.50000 0.50000
vt 1.00000 0.50000
vt 1.00000 1.00000
vt 0.50000 1.00000
vt 0.50000 0.50000
vt 1.00000 0.50000
vt 1.00000 1.00000
vt 0.50000 1.00000
vt 0.50000 0.25000
vt 1.00000 0.25000
vt 1.00000 0.50000
vt 0.50000 0.50000
vt 0.50000 0.25000
vt 1.00000 0.25000
vt 1.00000 0.50000
vt 0.50000 0.50000
vt 0.50000 0.25000
vt 1.00000 0.25000
vt 1.00000 0.50000
vt 0.50000 0.50000
vt 0.50000 0.25000
vt 1.00000 0.25000
vt 1.00000 0.50000
vt 0.50000 0.50000
vt 0.50000 0.25000
vt 1.00000 0.25000
vt 1.00000 0.50000
vt 0.50000 0.50000
vt 0.50000 0.25000
vt 1.00000 0.25000
vt 1.00000 0.50000
vt 0.50000 0.50000
vt 0.50000 0.00000
vt 1.00000 0.00000
vt 1.00000 0.25000
vt 0.50000 0.25000
vt 0.50000 0.00000
vt 1.00000 0.00000
vt 1.00000 0.25000
vt 0.50000 0.25000
vt 0.50000 0.00000
vt 1.00000 0.00000
vt 1.00000 0.25000
vt 0.50000 0.25000
vt 0.50000 0.00000
vt 1.00000 0.00000
vt 1.00000 0.25000
vt 0.50000 0.25000
vt 0.50000 0.00000
vt 1.00000 0.00000
vt 1.00000 0.25000
vt 0.50000 0.25000
vt 0.50000 0.00000
vt 1.00000 0.00000
vt 1.00000 0.25000
vt 0.50000 0.25000
vt 0.51500 0.25750
vt 0.98500 0.25750
vt 0.75000 0.49250
vt 0.51500 0.25750
vt 0.98500 0.25750
vt 0.75000 0.49250
vt 0.00000 0.00000
vt 0.00000 0.50000
vt 0.50000 0.50000
vt 0.50000 0.00000
vt 0.00000 0.00000
vt 0.50000 0.00000
vt 0.50000 0.50000
vt 0.00000 0.50000
vt 0.00000 0.00000
vt 0.00000 0.10000
vt 0.50000 0.10000
vt 0.50000 0.00000
vt 0.00000 0.00000
vt 0.00000 0.10000
vt 0.30000 0.10000
vt 0.30000 0.00000
vt 0.00000 0.00000
vt 0.00000 0.10000
vt 0.30000 0.10000
vt 0.30000 0.00000
vt 0.00000 0.00000
vt 0.00000 0.50000
vt 0.50000 0.50000
vt 0.50000 0.00000
vt 0.00000 0.00000
vt 0.50000 0.00000
vt 0.50000 0.50000
vt 0.00000 0.50000
vt 0.00000 0.00000
vt 0.00000 0.10000
vt 0.50000 0.10000
vt 0.50000 0.00000
vt 0.00000 0.00000
vt 0.00000 0.10000
vt 0.30000 0.10000
vt 0.30000 0.00000
vt 0.00000 0.00000
vt 0.00000 0.10000
vt 0.30000 0.10000
vt 0.30000 0.00000
f 4/4 3/3 2/2
f 4/4 2/2 1/1
f 8/8 7/7 6/6
f 8/8 6/6 5/5
f 12/12 11/11 10/10
f 12/12 10/10 9/9
f 16/16 15/15 14/14
f 16/16 14/14 13/13
f 20/20 19/19 18/18
f 20/20 18/18 17/17
f 24/24 23/23 22/22
f 24/24 22/22 21/21
f 28/28 27/27 26/26
f 28/28 26/26 25/25
f 32/32 31/31 30/30
f 32/32 30/30 29/29
f 36/36 35/35 34/34
f 36/36 34/34 33/33
f 40/40 39/39 38/38
f 40/40 38/38 37/37
f 44/44 43/43 42/42
f 44/44 42/42 41/41
f 48/48 47/47 46/46
f 48/48 46/46 45/45
f 52/52 51/51 50/50
f 52/52 50/50 49/49
f 56/56 55/55 54/54
f 56/56 54/54 53/53
f 60/60 59/59 58/58
f 60/60 58/58 57/57
f 64/64 63/63 62/62
f 64/64 62/62 61/61
f 68/68 67/67 66/66
f 68/68 66/66 65/65
f 72/72 71/71 70/70
f 72/72 70/70 69/69
f 76/76 75/75 74/74
f 76/76 74/74 73/73
f 80/80 79/79 78/78
f 80/80 78/78 77/77
f 84/84 83/83 82/82
f 84/84 82/82 81/81
f 88/88 87/87 86/86
f 88/88 86/86 85/85
f 92/92 91/91 90/90
f 92/92 90/90 89/89
f 96/96 95/95 94/94
f 96/96 94/94 93/93
f 100/100 99/99 98/98
f 100/100 98/98 97/97
f 104/104 103/103 102/102
f 104/104 102/102 101/101
f 108/108 107/107 106/106
f 108/108 106/106 105/105
f 112/112 111/111 110/110
f 112/112 110/110 109/109
f 116/116 115/115 114/114
f 116/116 114/114 113/113
f 120/120 119/119 118/118
f 120/120 118/118 117/117
f 124/124 123/123 122/122
f 124/124 122/122 121/121
f 128/128 127/127 126/126
f 128/128 126/126 125/125
f 132/132 131/131 130/130
f 132/132 130/130 129/129
f 136/136 135/135 134/134
f 136/136 134/134 133/133
f 140/140 139/139 138/138
f 140/140 138/138 137/137
f 144/144 143/143 142/142
f 144/144 142/142 141/141
f 148/148 147/147 146/146
f 148/148 146/146 145/145
f 152/152 151/151 150/150
f 152/152 150/150 149/149
f 156/156 155/155 154/154
f 156/156 154/154 153/153
f 160/160 159/159 158/158
f 160/160 158/158 157/157
f 164/164 163/163 162/162
f 164/164 162/162 161/161
f 168/168 167/167 166/166
f 168/168 166/166 165/165
f 172/172 171/171 170/170
f 172/172 170/170 169/169
f 176/176 175/175 174/174
f 176/176 174/174 173/173
f 180/180 179/179 178/178
f 180/180 178/178 177/177
f 184/184 183/183 182/182
f 184/184 182/182 181/181
f 188/188 187/187 186/186
f 188/188 186/186 185/185
f 192/192 191/191 190/190
f 192/192 190/190 189/189
f 196/196 195/195 194/194
f 196/196 194/194 193/193
f 200/200 199/199 198/198
f 200/200 198/198 197/197
f 203/203 202/202 201/201
f 204/204 205/205 206/206
f 210/210 209/209 208/208
f 210/210 208/208 207/207
f 211/211 212/212 213/213
f 211/211 213/213 214/214
f 218/218 217/217 216/216
f 218/218 216/216 215/215
f 219/219 220/220 221/221
f 219/219 221/221 222/222
f 226/226 225/225 224/224
f 226/226 224/224 223/223
f 227/227 228/228 229/229
f 227/227 229/229 230/230
f 234/234 233/233 232/232
f 234/234 232/232 231/231
f 235/235 236/236 237/237
f 235/235 237/237 238/238
f 242/242 241/241 240/240
f 242/242 240/240 239/239
f 243/243 244/244 245/245
f 243/243 245/245 246/246
